<?xml version="1.0" encoding="UTF-8"?>
<!-- Generator: CustomSymbols v2.7.4.50 by @serious_bret https://bretlester.com/app_content/CustomSymbols/ -->
<!-- Guides: Left/Right 0.058/0.058 Cap/Base 0.022/0.022 -->
<!-- Settings: RefScale 1.0 Min/Max Stroke Scales 0.5/2.2100000381469727 -->
<!DOCTYPE svg
PUBLIC "-//W3C//DTD SVG 1.1//EN"
       "http://www.w3.org/Graphics/SVG/1.1/DTD/svg11.dtd">
<svg version="1.1" xmlns="http://www.w3.org/2000/svg" xmlns:xlink="http://www.w3.org/1999/xlink" width="3300" height="2200">
<![CDATA[<svg xmlns="http://www.w3.org/2000/svg" width="14" height="14" fill="none" viewBox="0 0 14 14">
  <g id="Cog--Streamline-Flex" clip-path="url(#clip0_357_621)">
    <g id="cog--work-loading-cog-gear-settings-machine">
      <path id="Subtract" fill="#000" d="M7.393.25a1.462 1.462 0 0 1 1.358.928l.36.912 1.089.629.966-.147a1.463 1.463 0 0 1 1.484.715l.39.676a1.461 1.461 0 0 1-.122 1.643l-.61.763v1.262l.606.763a1.465 1.465 0 0 1 .123 1.643l-.39.676a1.463 1.463 0 0 1-1.484.715l-.967-.147-1.09.63-.358.91a1.463 1.463 0 0 1-1.358.929h-.783a1.463 1.463 0 0 1-1.358-.929l-.357-.91-1.09-.63-.968.147a1.461 1.461 0 0 1-1.484-.714l-.39-.677a1.461 1.461 0 0 1 .123-1.643l.61-.763V6.369l-.61-.763a1.463 1.463 0 0 1-.124-1.643l.39-.676a1.462 1.462 0 0 1 1.485-.715l.964.147 1.094-.634.359-.907A1.46 1.46 0 0 1 6.609.25h.784ZM7 5.004c-1.277 0-1.995.72-1.995 1.996 0 1.277.718 1.996 1.995 1.996 1.277 0 1.996-.72 1.996-1.996 0-1.277-.72-1.996-1.996-1.996Z"/>
    </g>
  </g>
  <defs>
    <clipPath id="clip0_357_621">
      <path fill="#fff" d="M0 0h14v14H0z"/>
    </clipPath>
  </defs>
</svg>
]]>
 <g id="Notes">
  <rect height="2200" id="artboard" style="fill:white;opacity:1" width="3300" x="0" y="0"/>
  <line id="" style="fill:none;stroke:black;opacity:1;stroke-width:0.5;" x1="263" x2="3036" y1="292" y2="292"/>
  <text id="reftext1" style="stroke:none;fill:black;font-family:-apple-system,&quot;SF Pro Display&quot;,&quot;SF Pro Text&quot;,Helvetica,sans-serif;font-weight:bold;" transform="matrix(1 0 0 1 263 322)">Weight/Scale Variations</text>
  <text id="reftext2" style="stroke:none;fill:black;font-family:-apple-system,&quot;SF Pro Display&quot;,&quot;SF Pro Text&quot;,Helvetica,sans-serif;text-anchor:middle;" transform="matrix(1 0 0 1 559.711 322)">Ultralight</text>
  <text style="stroke:none;fill:black;font-family:-apple-system,&quot;SF Pro Display&quot;,&quot;SF Pro Text&quot;,Helvetica,sans-serif;text-anchor:middle;" transform="matrix(1 0 0 1 856.422 322)">Thin</text>
  <text style="stroke:none;fill:black;font-family:-apple-system,&quot;SF Pro Display&quot;,&quot;SF Pro Text&quot;,Helvetica,sans-serif;text-anchor:middle;" transform="matrix(1 0 0 1 1153.13 322)">Light</text>
  <text style="stroke:none;fill:black;font-family:-apple-system,&quot;SF Pro Display&quot;,&quot;SF Pro Text&quot;,Helvetica,sans-serif;text-anchor:middle;" transform="matrix(1 0 0 1 1449.84 322)">Regular</text>
  <text style="stroke:none;fill:black;font-family:-apple-system,&quot;SF Pro Display&quot;,&quot;SF Pro Text&quot;,Helvetica,sans-serif;text-anchor:middle;" transform="matrix(1 0 0 1 1746.56 322)">Medium</text>
  <text style="stroke:none;fill:black;font-family:-apple-system,&quot;SF Pro Display&quot;,&quot;SF Pro Text&quot;,Helvetica,sans-serif;text-anchor:middle;" transform="matrix(1 0 0 1 2043.27 322)">Semibold</text>
  <text style="stroke:none;fill:black;font-family:-apple-system,&quot;SF Pro Display&quot;,&quot;SF Pro Text&quot;,Helvetica,sans-serif;text-anchor:middle;" transform="matrix(1 0 0 1 2339.98 322)">Bold</text>
  <text style="stroke:none;fill:black;font-family:-apple-system,&quot;SF Pro Display&quot;,&quot;SF Pro Text&quot;,Helvetica,sans-serif;text-anchor:middle;" transform="matrix(1 0 0 1 2636.69 322)">Heavy</text>
  <text style="stroke:none;fill:black;font-family:-apple-system,&quot;SF Pro Display&quot;,&quot;SF Pro Text&quot;,Helvetica,sans-serif;text-anchor:middle;" transform="matrix(1 0 0 1 2933.4 322)">Black</text>
  <line id="" style="fill:none;stroke:black;opacity:1;stroke-width:0.5;" x1="263" x2="3036" y1="1903" y2="1903"/>
  <g id="" transform="matrix(1 0 0 1 263 1933)">
   <path d="M9.24805 0.830078C13.5547 0.830078 17.1387-2.74414 17.1387-7.05078C17.1387-11.3574 13.5449-14.9316 9.23828-14.9316C4.94141-14.9316 1.36719-11.3574 1.36719-7.05078C1.36719-2.74414 4.95117 0.830078 9.24805 0.830078ZM9.24805-0.654297C5.70312-0.654297 2.87109-3.49609 2.87109-7.05078C2.87109-10.6055 5.69336-13.4473 9.23828-13.4473C12.793-13.4473 15.6348-10.6055 15.6445-7.05078C15.6543-3.49609 12.8027-0.654297 9.24805-0.654297ZM6.39648-6.31836L8.50586-6.31836L8.50586-4.19922C8.50586-3.75977 8.79883-3.45703 9.22852-3.45703C9.67773-3.45703 9.9707-3.75977 9.9707-4.19922L9.9707-6.31836L12.0996-6.31836C12.5391-6.31836 12.8418-6.61133 12.8418-7.04102C12.8418-7.48047 12.5391-7.7832 12.0996-7.7832L9.9707-7.7832L9.9707-9.89258C9.9707-10.3418 9.67773-10.6445 9.22852-10.6445C8.79883-10.6445 8.50586-10.3418 8.50586-9.89258L8.50586-7.7832L6.39648-7.7832C5.94727-7.7832 5.64453-7.48047 5.64453-7.04102C5.64453-6.61133 5.94727-6.31836 6.39648-6.31836Z"/>
  </g>
  <g id="" transform="matrix(1 0 0 1 281.506 1933)">
   <path d="M11.709 2.91016C17.1582 2.91016 21.6699-1.61133 21.6699-7.05078C21.6699-12.5 17.1484-17.0117 11.6992-17.0117C6.25977-17.0117 1.74805-12.5 1.74805-7.05078C1.74805-1.61133 6.26953 2.91016 11.709 2.91016ZM11.709 1.25C7.09961 1.25 3.41797-2.44141 3.41797-7.05078C3.41797-11.6602 7.08984-15.3516 11.6992-15.3516C16.3086-15.3516 20-11.6602 20.0098-7.05078C20.0195-2.44141 16.3184 1.25 11.709 1.25ZM7.98828-6.23047L10.8789-6.23047L10.8789-3.32031C10.8789-2.83203 11.2109-2.5 11.6895-2.5C12.1777-2.5 12.5195-2.83203 12.5195-3.32031L12.5195-6.23047L15.4297-6.23047C15.918-6.23047 16.25-6.5625 16.25-7.04102C16.25-7.5293 15.918-7.87109 15.4297-7.87109L12.5195-7.87109L12.5195-10.7617C12.5195-11.2695 12.1777-11.6016 11.6895-11.6016C11.2109-11.6016 10.8789-11.2598 10.8789-10.7617L10.8789-7.87109L7.98828-7.87109C7.48047-7.87109 7.14844-7.5293 7.14844-7.04102C7.14844-6.5625 7.49023-6.23047 7.98828-6.23047Z"/>
  </g>
  <g id="" transform="matrix(1 0 0 1 304.924 1933)">
   <path d="M14.9707 5.66406C21.9336 5.66406 27.6953-0.0976562 27.6953-7.05078C27.6953-14.0137 21.9238-19.7754 14.9609-19.7754C8.00781-19.7754 2.25586-14.0137 2.25586-7.05078C2.25586-0.0976562 8.01758 5.66406 14.9707 5.66406ZM14.9707 3.84766C8.93555 3.84766 4.08203-1.01562 4.08203-7.05078C4.08203-13.0957 8.92578-17.9492 14.9609-17.9492C21.0059-17.9492 25.8594-13.0957 25.8691-7.05078C25.8789-1.01562 21.0156 3.84766 14.9707 3.84766ZM10.0586-6.14258L14.0625-6.14258L14.0625-2.12891C14.0625-1.5918 14.4336-1.2207 14.9512-1.2207C15.4883-1.2207 15.8594-1.5918 15.8594-2.12891L15.8594-6.14258L19.8828-6.14258C20.4102-6.14258 20.791-6.51367 20.791-7.03125C20.791-7.56836 20.4199-7.94922 19.8828-7.94922L15.8594-7.94922L15.8594-11.9531C15.8594-12.5098 15.4883-12.8809 14.9512-12.8809C14.4336-12.8809 14.0625-12.5 14.0625-11.9531L14.0625-7.94922L10.0586-7.94922C9.50195-7.94922 9.13086-7.56836 9.13086-7.03125C9.13086-6.51367 9.51172-6.14258 10.0586-6.14258Z"/>
  </g>
  <text style="stroke:none;fill:black;font-family:-apple-system,&quot;SF Pro Display&quot;,&quot;SF Pro Text&quot;,Helvetica,sans-serif;font-weight:bold;" transform="matrix(1 0 0 1 263 1953)">Design Variations</text>
  <text style="stroke:none;fill:black;font-family:-apple-system,&quot;SF Pro Display&quot;,&quot;SF Pro Text&quot;,Helvetica,sans-serif;" transform="matrix(1 0 0 1 263 1971)">Symbols are supported in up to nine weights and three scales.</text>
  <text style="stroke:none;fill:black;font-family:-apple-system,&quot;SF Pro Display&quot;,&quot;SF Pro Text&quot;,Helvetica,sans-serif;" transform="matrix(1 0 0 1 263 1989)">For optimal layout with text and other symbols, vertically align</text>
  <text style="stroke:none;fill:black;font-family:-apple-system,&quot;SF Pro Display&quot;,&quot;SF Pro Text&quot;,Helvetica,sans-serif;" transform="matrix(1 0 0 1 263 2007)">symbols with the adjacent text.</text>
  <line id="" style="fill:none;stroke:#00AEEF;stroke-width:0.5;opacity:1.0;" x1="776" x2="776" y1="1919" y2="1933"/>
  <g id="" transform="matrix(1 0 0 1 776 1933)">
   <path d="M3.31055 0.126953C3.82812 0.126953 4.08203-0.0683594 4.26758-0.605469L5.52734-4.0625L11.2891-4.0625L12.5488-0.605469C12.7344-0.0683594 12.9883 0.126953 13.4961 0.126953C14.0137 0.126953 14.3457-0.185547 14.3457-0.673828C14.3457-0.839844 14.3164-0.986328 14.2383-1.20117L9.6582-13.3887C9.43359-13.9941 9.0332-14.2871 8.4082-14.2871C7.80273-14.2871 7.39258-13.9941 7.17773-13.3984L2.59766-1.19141C2.51953-0.976562 2.49023-0.830078 2.49023-0.664062C2.49023-0.175781 2.80273 0.126953 3.31055 0.126953ZM6.00586-5.53711L8.37891-12.1094L8.42773-12.1094L10.8008-5.53711Z"/>
  </g>
  <line id="" style="fill:none;stroke:#00AEEF;stroke-width:0.5;opacity:1.0;" x1="792.836" x2="792.836" y1="1919" y2="1933"/>
  <text style="stroke:none;fill:black;font-family:-apple-system,&quot;SF Pro Display&quot;,&quot;SF Pro Text&quot;,Helvetica,sans-serif;font-weight:bold;" transform="matrix(1 0 0 1 776 1953)">Margins</text>
  <text style="stroke:none;fill:black;font-family:-apple-system,&quot;SF Pro Display&quot;,&quot;SF Pro Text&quot;,Helvetica,sans-serif;" transform="matrix(1 0 0 1 776 1971)">Leading and trailing margins on the left and right side of each symbol</text>
  <text style="stroke:none;fill:black;font-family:-apple-system,&quot;SF Pro Display&quot;,&quot;SF Pro Text&quot;,Helvetica,sans-serif;" transform="matrix(1 0 0 1 776 1989)">can be adjusted by modifying the x-location of the margin guidelines.</text>
  <text style="stroke:none;fill:black;font-family:-apple-system,&quot;SF Pro Display&quot;,&quot;SF Pro Text&quot;,Helvetica,sans-serif;" transform="matrix(1 0 0 1 776 2007)">Modifications are automatically applied proportionally to all</text>
  <text style="stroke:none;fill:black;font-family:-apple-system,&quot;SF Pro Display&quot;,&quot;SF Pro Text&quot;,Helvetica,sans-serif;" transform="matrix(1 0 0 1 776 2025)">scales and weights.</text>
  <g id="" transform="matrix(1 0 0 1 1289 1933)">
   <path d="M2.8418 1.86523L4.54102 3.57422C5.40039 4.44336 6.38672 4.38477 7.31445 3.35938L17.4902-7.85156C17.7539-7.76367 18.0273-7.7832 18.3398-7.8418L19.4043-8.03711L20.0684-7.36328L20.0293-6.80664C19.9902-6.30859 20.1172-5.92773 20.6055-5.44922L21.3672-4.70703C21.8457-4.22852 22.4609-4.19922 22.9297-4.66797L25.8398-7.58789C26.3086-8.05664 26.2891-8.65234 25.8105-9.13086L25.0391-9.89258C24.5605-10.3711 24.1895-10.5273 23.7109-10.4883L23.1348-10.4395L22.4902-11.0742L22.7344-12.1973C22.8613-12.7637 22.7051-13.2031 22.1191-13.7891L19.9219-15.9766C16.582-19.2969 12.1484-19.2188 9.25781-16.3281C8.83789-15.918 8.80859-15.3418 9.04297-14.9512C9.27734-14.5898 9.73633-14.3555 10.3809-14.5215C11.8457-14.8633 13.3691-14.9219 14.7949-13.9844L14.209-12.5293C14.0137-12.0508 13.9844-11.6504 14.1113-11.2891L3.04688-0.898438C2.06055 0.0195312 1.98242 0.996094 2.8418 1.86523ZM10.752-15.957C13.1836-17.7344 16.4746-17.4316 18.7012-15.2051L21.1328-12.793C21.3672-12.5586 21.4062-12.373 21.3379-12.0312L21.0156-10.5469L22.5195-9.0625L23.5059-9.12109C23.7598-9.13086 23.8379-9.11133 24.0332-8.91602L24.6094-8.33984L22.168-5.89844L21.5918-6.47461C21.3965-6.66992 21.3672-6.74805 21.377-7.01172L21.4453-7.98828L19.9512-9.47266L18.4277-9.21875C18.1055-9.15039 17.959-9.17969 17.7148-9.41406L15.7129-11.416C15.459-11.6504 15.4297-11.8164 15.5859-12.1875L16.4648-14.2773C14.9023-15.7324 12.8711-16.3574 10.8398-15.7617C10.6836-15.7227 10.625-15.8496 10.752-15.957ZM5.27344 2.30469L4.10156 1.14258C3.63281 0.683594 3.74023 0.341797 4.14062-0.0195312L14.9512-10.1953L16.416-8.71094L6.42578 2.27539C6.07422 2.67578 5.74219 2.77344 5.27344 2.30469Z"/>
  </g>
  <text style="stroke:none;fill:black;font-family:-apple-system,&quot;SF Pro Display&quot;,&quot;SF Pro Text&quot;,Helvetica,sans-serif;font-weight:bold;" transform="matrix(1 0 0 1 1289 1953)">Exporting</text>
  <text style="stroke:none;fill:black;font-family:-apple-system,&quot;SF Pro Display&quot;,&quot;SF Pro Text&quot;,Helvetica,sans-serif;" transform="matrix(1 0 0 1 1289 1971)">Symbols should be outlined when exporting to ensure the</text>
  <text style="stroke:none;fill:black;font-family:-apple-system,&quot;SF Pro Display&quot;,&quot;SF Pro Text&quot;,Helvetica,sans-serif;" transform="matrix(1 0 0 1 1289 1989)">design is preserved when submitting to Xcode.</text>
  <text id="template-version" style="stroke:none;fill:black;font-family:-apple-system,&quot;SF Pro Display&quot;,&quot;SF Pro Text&quot;,Helvetica,sans-serif;text-anchor:end;" transform="matrix(1 0 0 1 3036 1933)">Template v.2.0</text>
  <text style="stroke:none;fill:black;font-family:-apple-system,&quot;SF Pro Display&quot;,&quot;SF Pro Text&quot;,Helvetica,sans-serif;text-anchor:end;" transform="matrix(1 0 0 1 3036 1951)">Requires Xcode 12 or greater</text>
  <text style="stroke:none;fill:black;font-family:-apple-system,&quot;SF Pro Display&quot;,&quot;SF Pro Text&quot;,Helvetica,sans-serif;" transform="matrix(1 0 0 1 263 726)">Small</text>
  <text style="stroke:none;fill:black;font-family:-apple-system,&quot;SF Pro Display&quot;,&quot;SF Pro Text&quot;,Helvetica,sans-serif;" transform="matrix(1 0 0 1 263 1156)">Medium</text>
  <text style="stroke:none;fill:black;font-family:-apple-system,&quot;SF Pro Display&quot;,&quot;SF Pro Text&quot;,Helvetica,sans-serif;" transform="matrix(1 0 0 1 263 1586)">Large</text>
 </g>
 <g id="Guides">
  <g id="H-reference" style="fill:#27AAE1;stroke:none;" transform="matrix(1 0 0 1 339 696)">
   <path d="M0.976562 0L3.66211 0L12.9883-24.4629L45.752-24.4629L55.127 0L57.7637 0L30.6152-70.459L28.125-70.459ZM29.3457-67.1387L29.4434-67.1387L44.873-26.709L13.8672-26.709Z"/>
  </g>
  <line id="Baseline-S" style="fill:none;stroke:#27AAE1;opacity:1;stroke-width:0.5;" x1="263" x2="3036" y1="696" y2="696"/>
  <line id="Capline-S" style="fill:none;stroke:#27AAE1;opacity:1;stroke-width:0.5;" x1="263" x2="3036" y1="625.541" y2="625.541"/>
  <g id="H-reference" style="fill:#27AAE1;stroke:none;" transform="matrix(1 0 0 1 339 1126)">
   <path d="M0.976562 0L3.66211 0L12.9883-24.4629L45.752-24.4629L55.127 0L57.7637 0L30.6152-70.459L28.125-70.459ZM29.3457-67.1387L29.4434-67.1387L44.873-26.709L13.8672-26.709Z"/>
  </g>
  <line id="Baseline-M" style="fill:none;stroke:#27AAE1;opacity:1;stroke-width:0.5;" x1="263" x2="3036" y1="1126" y2="1126"/>
  <line id="Capline-M" style="fill:none;stroke:#27AAE1;opacity:1;stroke-width:0.5;" x1="263" x2="3036" y1="1055.54" y2="1055.54"/>
  <g id="H-reference" style="fill:#27AAE1;stroke:none;" transform="matrix(1 0 0 1 339 1556)">
   <path d="M0.976562 0L3.66211 0L12.9883-24.4629L45.752-24.4629L55.127 0L57.7637 0L30.6152-70.459L28.125-70.459ZM29.3457-67.1387L29.4434-67.1387L44.873-26.709L13.8672-26.709Z"/>
  </g>
  <line id="Baseline-L" style="fill:none;stroke:#27AAE1;opacity:1;stroke-width:0.5;" x1="263" x2="3036" y1="1556" y2="1556"/>
  <line id="Capline-L" style="fill:none;stroke:#27AAE1;opacity:1;stroke-width:0.5;" x1="263" x2="3036" y1="1485.54" y2="1485.54"/>
  <line id="left-margin" x1="1418.5533234996076" x2="1418.5533234996076" y1="1030.79" y2="1150.12" style="fill:none;stroke:#00AEEF;stroke-width:0.5;opacity:1.0;"/>
  <line id="right-margin" x1="1483.7066765003922" x2="1483.7066765003922" y1="1030.79" y2="1150.12" style="fill:none;stroke:#00AEEF;stroke-width:0.5;opacity:1.0;"/>
 </g>
 <g id="Symbols">
  <g id="Black-L" transform="matrix(1.0,0.0,0.0,1.0,2887.1416372335902,1473.2316567648404)">  <path clip-path="url(#clip0_357_621)" stroke-opacity="1" stroke-linecap="butt" fill-opacity="1" stroke-dasharray="none" stroke="none" stroke-width="1px" fill-rule="nonzero" stroke-miterlimit="4" stroke-linejoin="miter" fill="#000000" d="M50.207,1.698C54.284,1.706,57.941,4.205,59.43,8L61.875,14.194L69.27,18.465L75.83,17.467C79.868,16.861,83.866,18.787,85.909,22.323L88.557,26.914C90.604,30.449,90.276,34.877,87.729,38.071L83.586,43.253L83.586,51.824L87.701,57.005C90.243,60.201,90.574,64.625,88.537,68.163L85.888,72.754C83.846,76.29,79.848,78.216,75.81,77.61L69.243,76.611L61.841,80.89L59.409,87.07C57.921,90.866,54.264,93.368,50.187,93.379L44.869,93.379C40.792,93.368,37.135,90.866,35.647,87.07L33.223,80.89L25.82,76.611L19.246,77.61C15.209,78.221,11.21,76.297,9.168,72.761L6.52,68.163C4.474,64.627,4.806,60.198,7.355,57.005L11.497,51.824L11.497,43.253L7.355,38.071C4.807,34.879,4.473,30.452,6.513,26.914L9.161,22.323C11.203,18.783,15.206,16.856,19.246,17.467L25.793,18.465L33.223,14.16L35.661,8C37.146,4.203,40.805,1.702,44.883,1.698L50.207,1.698ZM47.538,33.983C38.866,33.983,33.99,38.873,33.99,47.538C33.99,56.211,38.866,61.094,47.538,61.094C56.211,61.094,61.094,56.204,61.094,47.538C61.094,38.866,56.204,33.983,47.538,33.983ZM47.538,33.983"/>
</g>
  <g id="Heavy-L" transform="matrix(1.0,0.0,0.0,1.0,2590.43163723359,1473.2316567648404)">  <path stroke-width="1px" stroke-linecap="butt" fill-opacity="1" stroke-dasharray="none" stroke="none" fill-rule="nonzero" fill="#000000" stroke-miterlimit="4" clip-path="url(#clip0_357_621)" stroke-linejoin="miter" stroke-opacity="1" d="M50.207,1.698C54.284,1.706,57.941,4.205,59.43,8L61.875,14.194L69.27,18.465L75.83,17.467C79.868,16.861,83.866,18.787,85.909,22.323L88.557,26.914C90.604,30.449,90.276,34.877,87.729,38.071L83.586,43.253L83.586,51.824L87.701,57.005C90.243,60.201,90.574,64.625,88.537,68.163L85.888,72.754C83.846,76.29,79.848,78.216,75.81,77.61L69.243,76.611L61.841,80.89L59.409,87.07C57.921,90.866,54.264,93.368,50.187,93.379L44.869,93.379C40.792,93.368,37.135,90.866,35.647,87.07L33.223,80.89L25.82,76.611L19.246,77.61C15.209,78.221,11.21,76.297,9.168,72.761L6.52,68.163C4.474,64.627,4.806,60.198,7.355,57.005L11.497,51.824L11.497,43.253L7.355,38.071C4.807,34.879,4.473,30.452,6.513,26.914L9.161,22.323C11.203,18.783,15.206,16.856,19.246,17.467L25.793,18.465L33.223,14.16L35.661,8C37.146,4.203,40.805,1.702,44.883,1.698L50.207,1.698ZM47.538,33.983C38.866,33.983,33.99,38.873,33.99,47.538C33.99,56.211,38.866,61.094,47.538,61.094C56.211,61.094,61.094,56.204,61.094,47.538C61.094,38.866,56.204,33.983,47.538,33.983ZM47.538,33.983"/>
</g>
  <g id="Bold-L" transform="matrix(1.0,0.0,0.0,1.0,2293.72163723359,1473.2316567648404)">  <path stroke="none" stroke-dasharray="none" clip-path="url(#clip0_357_621)" fill-rule="nonzero" stroke-width="1px" stroke-linejoin="miter" fill="#000000" stroke-miterlimit="4" stroke-opacity="1" fill-opacity="1" stroke-linecap="butt" d="M50.207,1.698C54.284,1.706,57.941,4.205,59.43,8L61.875,14.194L69.27,18.465L75.83,17.467C79.868,16.861,83.866,18.787,85.909,22.323L88.557,26.914C90.604,30.449,90.276,34.877,87.729,38.071L83.586,43.253L83.586,51.824L87.701,57.005C90.243,60.201,90.574,64.625,88.537,68.163L85.888,72.754C83.846,76.29,79.848,78.216,75.81,77.61L69.243,76.611L61.841,80.89L59.409,87.07C57.921,90.866,54.264,93.368,50.187,93.379L44.869,93.379C40.792,93.368,37.135,90.866,35.647,87.07L33.223,80.89L25.82,76.611L19.246,77.61C15.209,78.221,11.21,76.297,9.168,72.761L6.52,68.163C4.474,64.627,4.806,60.198,7.355,57.005L11.497,51.824L11.497,43.253L7.355,38.071C4.807,34.879,4.473,30.452,6.513,26.914L9.161,22.323C11.203,18.783,15.206,16.856,19.246,17.467L25.793,18.465L33.223,14.16L35.661,8C37.146,4.203,40.805,1.702,44.883,1.698L50.207,1.698ZM47.538,33.983C38.866,33.983,33.99,38.873,33.99,47.538C33.99,56.211,38.866,61.094,47.538,61.094C56.211,61.094,61.094,56.204,61.094,47.538C61.094,38.866,56.204,33.983,47.538,33.983ZM47.538,33.983"/>
</g>
  <g id="Semibold-L" transform="matrix(1.0,0.0,0.0,1.0,1997.0116372335904,1473.2316567648404)">  <path stroke-linejoin="miter" fill-opacity="1" stroke-width="1px" stroke-miterlimit="4" stroke-dasharray="none" fill-rule="nonzero" clip-path="url(#clip0_357_621)" stroke-opacity="1" stroke-linecap="butt" fill="#000000" stroke="none" d="M50.207,1.698C54.284,1.706,57.941,4.205,59.43,8L61.875,14.194L69.27,18.465L75.83,17.467C79.868,16.861,83.866,18.787,85.909,22.323L88.557,26.914C90.604,30.449,90.276,34.877,87.729,38.071L83.586,43.253L83.586,51.824L87.701,57.005C90.243,60.201,90.574,64.625,88.537,68.163L85.888,72.754C83.846,76.29,79.848,78.216,75.81,77.61L69.243,76.611L61.841,80.89L59.409,87.07C57.921,90.866,54.264,93.368,50.187,93.379L44.869,93.379C40.792,93.368,37.135,90.866,35.647,87.07L33.223,80.89L25.82,76.611L19.246,77.61C15.209,78.221,11.21,76.297,9.168,72.761L6.52,68.163C4.474,64.627,4.806,60.198,7.355,57.005L11.497,51.824L11.497,43.253L7.355,38.071C4.807,34.879,4.473,30.452,6.513,26.914L9.161,22.323C11.203,18.783,15.206,16.856,19.246,17.467L25.793,18.465L33.223,14.16L35.661,8C37.146,4.203,40.805,1.702,44.883,1.698L50.207,1.698ZM47.538,33.983C38.866,33.983,33.99,38.873,33.99,47.538C33.99,56.211,38.866,61.094,47.538,61.094C56.211,61.094,61.094,56.204,61.094,47.538C61.094,38.866,56.204,33.983,47.538,33.983ZM47.538,33.983"/>
</g>
  <g id="Medium-L" transform="matrix(1.0,0.0,0.0,1.0,1700.3016372335903,1473.2316567648404)">  <path fill-rule="nonzero" stroke="none" clip-path="url(#clip0_357_621)" stroke-dasharray="none" stroke-miterlimit="4" fill="#000000" stroke-width="1px" fill-opacity="1" stroke-linecap="butt" stroke-linejoin="miter" stroke-opacity="1" d="M50.207,1.698C54.284,1.706,57.941,4.205,59.43,8L61.875,14.194L69.27,18.465L75.83,17.467C79.868,16.861,83.866,18.787,85.909,22.323L88.557,26.914C90.604,30.449,90.276,34.877,87.729,38.071L83.586,43.253L83.586,51.824L87.701,57.005C90.243,60.201,90.574,64.625,88.537,68.163L85.888,72.754C83.846,76.29,79.848,78.216,75.81,77.61L69.243,76.611L61.841,80.89L59.409,87.07C57.921,90.866,54.264,93.368,50.187,93.379L44.869,93.379C40.792,93.368,37.135,90.866,35.647,87.07L33.223,80.89L25.82,76.611L19.246,77.61C15.209,78.221,11.21,76.297,9.168,72.761L6.52,68.163C4.474,64.627,4.806,60.198,7.355,57.005L11.497,51.824L11.497,43.253L7.355,38.071C4.807,34.879,4.473,30.452,6.513,26.914L9.161,22.323C11.203,18.783,15.206,16.856,19.246,17.467L25.793,18.465L33.223,14.16L35.661,8C37.146,4.203,40.805,1.702,44.883,1.698L50.207,1.698ZM47.538,33.983C38.866,33.983,33.99,38.873,33.99,47.538C33.99,56.211,38.866,61.094,47.538,61.094C56.211,61.094,61.094,56.204,61.094,47.538C61.094,38.866,56.204,33.983,47.538,33.983ZM47.538,33.983"/>
</g>
  <g id="Regular-L" transform="matrix(1.0,0.0,0.0,1.0,1403.5916372335903,1473.2316567648404)">  <path stroke-linejoin="miter" stroke-dasharray="none" stroke-opacity="1" fill="#000000" fill-rule="nonzero" stroke-miterlimit="4" fill-opacity="1" stroke="none" stroke-linecap="butt" stroke-width="1px" clip-path="url(#clip0_357_621)" d="M50.207,1.698C54.284,1.706,57.941,4.205,59.43,8L61.875,14.194L69.27,18.465L75.83,17.467C79.868,16.861,83.866,18.787,85.909,22.323L88.557,26.914C90.604,30.449,90.276,34.877,87.729,38.071L83.586,43.253L83.586,51.824L87.701,57.005C90.243,60.201,90.574,64.625,88.537,68.163L85.888,72.754C83.846,76.29,79.848,78.216,75.81,77.61L69.243,76.611L61.841,80.89L59.409,87.07C57.921,90.866,54.264,93.368,50.187,93.379L44.869,93.379C40.792,93.368,37.135,90.866,35.647,87.07L33.223,80.89L25.82,76.611L19.246,77.61C15.209,78.221,11.21,76.297,9.168,72.761L6.52,68.163C4.474,64.627,4.806,60.198,7.355,57.005L11.497,51.824L11.497,43.253L7.355,38.071C4.807,34.879,4.473,30.452,6.513,26.914L9.161,22.323C11.203,18.783,15.206,16.856,19.246,17.467L25.793,18.465L33.223,14.16L35.661,8C37.146,4.203,40.805,1.702,44.883,1.698L50.207,1.698ZM47.538,33.983C38.866,33.983,33.99,38.873,33.99,47.538C33.99,56.211,38.866,61.094,47.538,61.094C56.211,61.094,61.094,56.204,61.094,47.538C61.094,38.866,56.204,33.983,47.538,33.983ZM47.538,33.983"/>
</g>
  <g id="Light-L" transform="matrix(1.0,0.0,0.0,1.0,1106.8816372335905,1473.2316567648404)">  <path stroke-opacity="1" stroke-dasharray="none" stroke-width="1px" fill-opacity="1" stroke-linejoin="miter" stroke-miterlimit="4" stroke="none" clip-path="url(#clip0_357_621)" fill="#000000" stroke-linecap="butt" fill-rule="nonzero" d="M50.207,1.698C54.284,1.706,57.941,4.205,59.43,8L61.875,14.194L69.27,18.465L75.83,17.467C79.868,16.861,83.866,18.787,85.909,22.323L88.557,26.914C90.604,30.449,90.276,34.877,87.729,38.071L83.586,43.253L83.586,51.824L87.701,57.005C90.243,60.201,90.574,64.625,88.537,68.163L85.888,72.754C83.846,76.29,79.848,78.216,75.81,77.61L69.243,76.611L61.841,80.89L59.409,87.07C57.921,90.866,54.264,93.368,50.187,93.379L44.869,93.379C40.792,93.368,37.135,90.866,35.647,87.07L33.223,80.89L25.82,76.611L19.246,77.61C15.209,78.221,11.21,76.297,9.168,72.761L6.52,68.163C4.474,64.627,4.806,60.198,7.355,57.005L11.497,51.824L11.497,43.253L7.355,38.071C4.807,34.879,4.473,30.452,6.513,26.914L9.161,22.323C11.203,18.783,15.206,16.856,19.246,17.467L25.793,18.465L33.223,14.16L35.661,8C37.146,4.203,40.805,1.702,44.883,1.698L50.207,1.698ZM47.538,33.983C38.866,33.983,33.99,38.873,33.99,47.538C33.99,56.211,38.866,61.094,47.538,61.094C56.211,61.094,61.094,56.204,61.094,47.538C61.094,38.866,56.204,33.983,47.538,33.983ZM47.538,33.983"/>
</g>
  <g id="Thin-L" transform="matrix(1.0,0.0,0.0,1.0,810.1716372335906,1473.2316567648404)">  <path stroke-dasharray="none" stroke="none" clip-path="url(#clip0_357_621)" stroke-linejoin="miter" fill-rule="nonzero" fill-opacity="1" stroke-miterlimit="4" stroke-width="1px" stroke-linecap="butt" fill="#000000" stroke-opacity="1" d="M50.207,1.698C54.284,1.706,57.941,4.205,59.43,8L61.875,14.194L69.27,18.465L75.83,17.467C79.868,16.861,83.866,18.787,85.909,22.323L88.557,26.914C90.604,30.449,90.276,34.877,87.729,38.071L83.586,43.253L83.586,51.824L87.701,57.005C90.243,60.201,90.574,64.625,88.537,68.163L85.888,72.754C83.846,76.29,79.848,78.216,75.81,77.61L69.243,76.611L61.841,80.89L59.409,87.07C57.921,90.866,54.264,93.368,50.187,93.379L44.869,93.379C40.792,93.368,37.135,90.866,35.647,87.07L33.223,80.89L25.82,76.611L19.246,77.61C15.209,78.221,11.21,76.297,9.168,72.761L6.52,68.163C4.474,64.627,4.806,60.198,7.355,57.005L11.497,51.824L11.497,43.253L7.355,38.071C4.807,34.879,4.473,30.452,6.513,26.914L9.161,22.323C11.203,18.783,15.206,16.856,19.246,17.467L25.793,18.465L33.223,14.16L35.661,8C37.146,4.203,40.805,1.702,44.883,1.698L50.207,1.698ZM47.538,33.983C38.866,33.983,33.99,38.873,33.99,47.538C33.99,56.211,38.866,61.094,47.538,61.094C56.211,61.094,61.094,56.204,61.094,47.538C61.094,38.866,56.204,33.983,47.538,33.983ZM47.538,33.983"/>
</g>
  <g id="Ultralight-L" transform="matrix(1.0,0.0,0.0,1.0,513.4616372335905,1473.2316567648404)">  <path stroke-miterlimit="4" clip-path="url(#clip0_357_621)" stroke-linecap="butt" fill-opacity="1" fill="#000000" stroke-opacity="1" stroke-width="1px" stroke-dasharray="none" stroke="none" fill-rule="nonzero" stroke-linejoin="miter" d="M50.207,1.698C54.284,1.706,57.941,4.205,59.43,8L61.875,14.194L69.27,18.465L75.83,17.467C79.868,16.861,83.866,18.787,85.909,22.323L88.557,26.914C90.604,30.449,90.276,34.877,87.729,38.071L83.586,43.253L83.586,51.824L87.701,57.005C90.243,60.201,90.574,64.625,88.537,68.163L85.888,72.754C83.846,76.29,79.848,78.216,75.81,77.61L69.243,76.611L61.841,80.89L59.409,87.07C57.921,90.866,54.264,93.368,50.187,93.379L44.869,93.379C40.792,93.368,37.135,90.866,35.647,87.07L33.223,80.89L25.82,76.611L19.246,77.61C15.209,78.221,11.21,76.297,9.168,72.761L6.52,68.163C4.474,64.627,4.806,60.198,7.355,57.005L11.497,51.824L11.497,43.253L7.355,38.071C4.807,34.879,4.473,30.452,6.513,26.914L9.161,22.323C11.203,18.783,15.206,16.856,19.246,17.467L25.793,18.465L33.223,14.16L35.661,8C37.146,4.203,40.805,1.702,44.883,1.698L50.207,1.698ZM47.538,33.983C38.866,33.983,33.99,38.873,33.99,47.538C33.99,56.211,38.866,61.094,47.538,61.094C56.211,61.094,61.094,56.204,61.094,47.538C61.094,38.866,56.204,33.983,47.538,33.983ZM47.538,33.983"/>
</g>
  <g id="Black-M" transform="matrix(1.0,0.0,0.0,1.0,2897.8285559950314,1053.9185755262813)">  <path clip-path="url(#clip0_357_621)" stroke-opacity="1" stroke-linecap="butt" fill-opacity="1" stroke-dasharray="none" stroke="none" stroke-width="1px" fill-rule="nonzero" stroke-miterlimit="4" stroke-linejoin="miter" fill="#000000" d="M38.92,1.316C42.08,1.323,44.915,3.26,46.07,6.202L47.965,11.003L53.698,14.314L58.783,13.54C61.914,13.07,65.013,14.564,66.596,17.304L68.649,20.863C70.236,23.604,69.981,27.037,68.007,29.513L64.795,33.53L64.795,40.173L67.986,44.19C69.956,46.667,70.213,50.097,68.633,52.84L66.58,56.399C64.997,59.139,61.898,60.632,58.768,60.163L53.677,59.389L47.938,62.705L46.054,67.496C44.9,70.439,42.065,72.378,38.905,72.387L34.782,72.387C31.622,72.378,28.787,70.439,27.633,67.496L25.754,62.705L20.016,59.389L14.92,60.163C11.79,60.637,8.69,59.145,7.107,56.404L5.054,52.84C3.468,50.098,3.725,46.665,5.701,44.19L8.913,40.173L8.913,33.53L5.701,29.513C3.727,27.038,3.468,23.606,5.049,20.863L7.102,17.304C8.685,14.56,11.787,13.067,14.92,13.54L19.995,14.314L25.754,10.976L27.644,6.202C28.796,3.258,31.632,1.32,34.793,1.316L38.92,1.316ZM36.851,26.344C30.129,26.344,26.349,30.134,26.349,36.851C26.349,43.574,30.129,47.359,36.851,47.359C43.574,47.359,47.359,43.569,47.359,36.851C47.359,30.129,43.569,26.344,36.851,26.344ZM36.851,26.344"/>
</g>
  <g id="Heavy-M" transform="matrix(1.0,0.0,0.0,1.0,2601.1185559950313,1053.9185755262813)">  <path stroke-width="1px" stroke-linecap="butt" fill-opacity="1" stroke-dasharray="none" stroke="none" fill-rule="nonzero" fill="#000000" stroke-miterlimit="4" clip-path="url(#clip0_357_621)" stroke-linejoin="miter" stroke-opacity="1" d="M38.92,1.316C42.08,1.323,44.915,3.26,46.07,6.202L47.965,11.003L53.698,14.314L58.783,13.54C61.914,13.07,65.013,14.564,66.596,17.304L68.649,20.863C70.236,23.604,69.981,27.037,68.007,29.513L64.795,33.53L64.795,40.173L67.986,44.19C69.956,46.667,70.213,50.097,68.633,52.84L66.58,56.399C64.997,59.139,61.898,60.632,58.768,60.163L53.677,59.389L47.938,62.705L46.054,67.496C44.9,70.439,42.065,72.378,38.905,72.387L34.782,72.387C31.622,72.378,28.787,70.439,27.633,67.496L25.754,62.705L20.016,59.389L14.92,60.163C11.79,60.637,8.69,59.145,7.107,56.404L5.054,52.84C3.468,50.098,3.725,46.665,5.701,44.19L8.913,40.173L8.913,33.53L5.701,29.513C3.727,27.038,3.468,23.606,5.049,20.863L7.102,17.304C8.685,14.56,11.787,13.067,14.92,13.54L19.995,14.314L25.754,10.976L27.644,6.202C28.796,3.258,31.632,1.32,34.793,1.316L38.92,1.316ZM36.851,26.344C30.129,26.344,26.349,30.134,26.349,36.851C26.349,43.574,30.129,47.359,36.851,47.359C43.574,47.359,47.359,43.569,47.359,36.851C47.359,30.129,43.569,26.344,36.851,26.344ZM36.851,26.344"/>
</g>
  <g id="Bold-M" transform="matrix(1.0,0.0,0.0,1.0,2304.4085559950313,1053.9185755262813)">  <path stroke="none" stroke-dasharray="none" clip-path="url(#clip0_357_621)" fill-rule="nonzero" stroke-width="1px" stroke-linejoin="miter" fill="#000000" stroke-miterlimit="4" stroke-opacity="1" fill-opacity="1" stroke-linecap="butt" d="M38.92,1.316C42.08,1.323,44.915,3.26,46.07,6.202L47.965,11.003L53.698,14.314L58.783,13.54C61.914,13.07,65.013,14.564,66.596,17.304L68.649,20.863C70.236,23.604,69.981,27.037,68.007,29.513L64.795,33.53L64.795,40.173L67.986,44.19C69.956,46.667,70.213,50.097,68.633,52.84L66.58,56.399C64.997,59.139,61.898,60.632,58.768,60.163L53.677,59.389L47.938,62.705L46.054,67.496C44.9,70.439,42.065,72.378,38.905,72.387L34.782,72.387C31.622,72.378,28.787,70.439,27.633,67.496L25.754,62.705L20.016,59.389L14.92,60.163C11.79,60.637,8.69,59.145,7.107,56.404L5.054,52.84C3.468,50.098,3.725,46.665,5.701,44.19L8.913,40.173L8.913,33.53L5.701,29.513C3.727,27.038,3.468,23.606,5.049,20.863L7.102,17.304C8.685,14.56,11.787,13.067,14.92,13.54L19.995,14.314L25.754,10.976L27.644,6.202C28.796,3.258,31.632,1.32,34.793,1.316L38.92,1.316ZM36.851,26.344C30.129,26.344,26.349,30.134,26.349,36.851C26.349,43.574,30.129,47.359,36.851,47.359C43.574,47.359,47.359,43.569,47.359,36.851C47.359,30.129,43.569,26.344,36.851,26.344ZM36.851,26.344"/>
</g>
  <g id="Semibold-M" transform="matrix(1.0,0.0,0.0,1.0,2007.6985559950313,1053.9185755262813)">  <path stroke-linejoin="miter" fill-opacity="1" stroke-width="1px" stroke-miterlimit="4" stroke-dasharray="none" fill-rule="nonzero" clip-path="url(#clip0_357_621)" stroke-opacity="1" stroke-linecap="butt" fill="#000000" stroke="none" d="M38.92,1.316C42.08,1.323,44.915,3.26,46.07,6.202L47.965,11.003L53.698,14.314L58.783,13.54C61.914,13.07,65.013,14.564,66.596,17.304L68.649,20.863C70.236,23.604,69.981,27.037,68.007,29.513L64.795,33.53L64.795,40.173L67.986,44.19C69.956,46.667,70.213,50.097,68.633,52.84L66.58,56.399C64.997,59.139,61.898,60.632,58.768,60.163L53.677,59.389L47.938,62.705L46.054,67.496C44.9,70.439,42.065,72.378,38.905,72.387L34.782,72.387C31.622,72.378,28.787,70.439,27.633,67.496L25.754,62.705L20.016,59.389L14.92,60.163C11.79,60.637,8.69,59.145,7.107,56.404L5.054,52.84C3.468,50.098,3.725,46.665,5.701,44.19L8.913,40.173L8.913,33.53L5.701,29.513C3.727,27.038,3.468,23.606,5.049,20.863L7.102,17.304C8.685,14.56,11.787,13.067,14.92,13.54L19.995,14.314L25.754,10.976L27.644,6.202C28.796,3.258,31.632,1.32,34.793,1.316L38.92,1.316ZM36.851,26.344C30.129,26.344,26.349,30.134,26.349,36.851C26.349,43.574,30.129,47.359,36.851,47.359C43.574,47.359,47.359,43.569,47.359,36.851C47.359,30.129,43.569,26.344,36.851,26.344ZM36.851,26.344"/>
</g>
  <g id="Medium-M" transform="matrix(1.0,0.0,0.0,1.0,1710.9885559950312,1053.9185755262813)">  <path fill-rule="nonzero" stroke="none" clip-path="url(#clip0_357_621)" stroke-dasharray="none" stroke-miterlimit="4" fill="#000000" stroke-width="1px" fill-opacity="1" stroke-linecap="butt" stroke-linejoin="miter" stroke-opacity="1" d="M38.92,1.316C42.08,1.323,44.915,3.26,46.07,6.202L47.965,11.003L53.698,14.314L58.783,13.54C61.914,13.07,65.013,14.564,66.596,17.304L68.649,20.863C70.236,23.604,69.981,27.037,68.007,29.513L64.795,33.53L64.795,40.173L67.986,44.19C69.956,46.667,70.213,50.097,68.633,52.84L66.58,56.399C64.997,59.139,61.898,60.632,58.768,60.163L53.677,59.389L47.938,62.705L46.054,67.496C44.9,70.439,42.065,72.378,38.905,72.387L34.782,72.387C31.622,72.378,28.787,70.439,27.633,67.496L25.754,62.705L20.016,59.389L14.92,60.163C11.79,60.637,8.69,59.145,7.107,56.404L5.054,52.84C3.468,50.098,3.725,46.665,5.701,44.19L8.913,40.173L8.913,33.53L5.701,29.513C3.727,27.038,3.468,23.606,5.049,20.863L7.102,17.304C8.685,14.56,11.787,13.067,14.92,13.54L19.995,14.314L25.754,10.976L27.644,6.202C28.796,3.258,31.632,1.32,34.793,1.316L38.92,1.316ZM36.851,26.344C30.129,26.344,26.349,30.134,26.349,36.851C26.349,43.574,30.129,47.359,36.851,47.359C43.574,47.359,47.359,43.569,47.359,36.851C47.359,30.129,43.569,26.344,36.851,26.344ZM36.851,26.344"/>
</g>
  <g id="Regular-M" transform="matrix(1.0,0.0,0.0,1.0,1414.2785559950312,1053.9185755262813)">  <path stroke-linejoin="miter" stroke-dasharray="none" stroke-opacity="1" fill="#000000" fill-rule="nonzero" stroke-miterlimit="4" fill-opacity="1" stroke="none" stroke-linecap="butt" stroke-width="1px" clip-path="url(#clip0_357_621)" d="M38.92,1.316C42.08,1.323,44.915,3.26,46.07,6.202L47.965,11.003L53.698,14.314L58.783,13.54C61.914,13.07,65.013,14.564,66.596,17.304L68.649,20.863C70.236,23.604,69.981,27.037,68.007,29.513L64.795,33.53L64.795,40.173L67.986,44.19C69.956,46.667,70.213,50.097,68.633,52.84L66.58,56.399C64.997,59.139,61.898,60.632,58.768,60.163L53.677,59.389L47.938,62.705L46.054,67.496C44.9,70.439,42.065,72.378,38.905,72.387L34.782,72.387C31.622,72.378,28.787,70.439,27.633,67.496L25.754,62.705L20.016,59.389L14.92,60.163C11.79,60.637,8.69,59.145,7.107,56.404L5.054,52.84C3.468,50.098,3.725,46.665,5.701,44.19L8.913,40.173L8.913,33.53L5.701,29.513C3.727,27.038,3.468,23.606,5.049,20.863L7.102,17.304C8.685,14.56,11.787,13.067,14.92,13.54L19.995,14.314L25.754,10.976L27.644,6.202C28.796,3.258,31.632,1.32,34.793,1.316L38.92,1.316ZM36.851,26.344C30.129,26.344,26.349,30.134,26.349,36.851C26.349,43.574,30.129,47.359,36.851,47.359C43.574,47.359,47.359,43.569,47.359,36.851C47.359,30.129,43.569,26.344,36.851,26.344ZM36.851,26.344"/>
</g>
  <g id="Light-M" transform="matrix(1.0,0.0,0.0,1.0,1117.5685559950314,1053.9185755262813)">  <path stroke-opacity="1" stroke-dasharray="none" stroke-width="1px" fill-opacity="1" stroke-linejoin="miter" stroke-miterlimit="4" stroke="none" clip-path="url(#clip0_357_621)" fill="#000000" stroke-linecap="butt" fill-rule="nonzero" d="M38.92,1.316C42.08,1.323,44.915,3.26,46.07,6.202L47.965,11.003L53.698,14.314L58.783,13.54C61.914,13.07,65.013,14.564,66.596,17.304L68.649,20.863C70.236,23.604,69.981,27.037,68.007,29.513L64.795,33.53L64.795,40.173L67.986,44.19C69.956,46.667,70.213,50.097,68.633,52.84L66.58,56.399C64.997,59.139,61.898,60.632,58.768,60.163L53.677,59.389L47.938,62.705L46.054,67.496C44.9,70.439,42.065,72.378,38.905,72.387L34.782,72.387C31.622,72.378,28.787,70.439,27.633,67.496L25.754,62.705L20.016,59.389L14.92,60.163C11.79,60.637,8.69,59.145,7.107,56.404L5.054,52.84C3.468,50.098,3.725,46.665,5.701,44.19L8.913,40.173L8.913,33.53L5.701,29.513C3.727,27.038,3.468,23.606,5.049,20.863L7.102,17.304C8.685,14.56,11.787,13.067,14.92,13.54L19.995,14.314L25.754,10.976L27.644,6.202C28.796,3.258,31.632,1.32,34.793,1.316L38.92,1.316ZM36.851,26.344C30.129,26.344,26.349,30.134,26.349,36.851C26.349,43.574,30.129,47.359,36.851,47.359C43.574,47.359,47.359,43.569,47.359,36.851C47.359,30.129,43.569,26.344,36.851,26.344ZM36.851,26.344"/>
</g>
  <g id="Thin-M" transform="matrix(1.0,0.0,0.0,1.0,820.8585559950315,1053.9185755262813)">  <path stroke-dasharray="none" stroke="none" clip-path="url(#clip0_357_621)" stroke-linejoin="miter" fill-rule="nonzero" fill-opacity="1" stroke-miterlimit="4" stroke-width="1px" stroke-linecap="butt" fill="#000000" stroke-opacity="1" d="M38.92,1.316C42.08,1.323,44.915,3.26,46.07,6.202L47.965,11.003L53.698,14.314L58.783,13.54C61.914,13.07,65.013,14.564,66.596,17.304L68.649,20.863C70.236,23.604,69.981,27.037,68.007,29.513L64.795,33.53L64.795,40.173L67.986,44.19C69.956,46.667,70.213,50.097,68.633,52.84L66.58,56.399C64.997,59.139,61.898,60.632,58.768,60.163L53.677,59.389L47.938,62.705L46.054,67.496C44.9,70.439,42.065,72.378,38.905,72.387L34.782,72.387C31.622,72.378,28.787,70.439,27.633,67.496L25.754,62.705L20.016,59.389L14.92,60.163C11.79,60.637,8.69,59.145,7.107,56.404L5.054,52.84C3.468,50.098,3.725,46.665,5.701,44.19L8.913,40.173L8.913,33.53L5.701,29.513C3.727,27.038,3.468,23.606,5.049,20.863L7.102,17.304C8.685,14.56,11.787,13.067,14.92,13.54L19.995,14.314L25.754,10.976L27.644,6.202C28.796,3.258,31.632,1.32,34.793,1.316L38.92,1.316ZM36.851,26.344C30.129,26.344,26.349,30.134,26.349,36.851C26.349,43.574,30.129,47.359,36.851,47.359C43.574,47.359,47.359,43.569,47.359,36.851C47.359,30.129,43.569,26.344,36.851,26.344ZM36.851,26.344"/>
</g>
  <g id="Ultralight-M" transform="matrix(1.0,0.0,0.0,1.0,524.1485559950314,1053.9185755262813)">  <path stroke-miterlimit="4" clip-path="url(#clip0_357_621)" stroke-linecap="butt" fill-opacity="1" fill="#000000" stroke-opacity="1" stroke-width="1px" stroke-dasharray="none" stroke="none" fill-rule="nonzero" stroke-linejoin="miter" d="M38.92,1.316C42.08,1.323,44.915,3.26,46.07,6.202L47.965,11.003L53.698,14.314L58.783,13.54C61.914,13.07,65.013,14.564,66.596,17.304L68.649,20.863C70.236,23.604,69.981,27.037,68.007,29.513L64.795,33.53L64.795,40.173L67.986,44.19C69.956,46.667,70.213,50.097,68.633,52.84L66.58,56.399C64.997,59.139,61.898,60.632,58.768,60.163L53.677,59.389L47.938,62.705L46.054,67.496C44.9,70.439,42.065,72.378,38.905,72.387L34.782,72.387C31.622,72.378,28.787,70.439,27.633,67.496L25.754,62.705L20.016,59.389L14.92,60.163C11.79,60.637,8.69,59.145,7.107,56.404L5.054,52.84C3.468,50.098,3.725,46.665,5.701,44.19L8.913,40.173L8.913,33.53L5.701,29.513C3.727,27.038,3.468,23.606,5.049,20.863L7.102,17.304C8.685,14.56,11.787,13.067,14.92,13.54L19.995,14.314L25.754,10.976L27.644,6.202C28.796,3.258,31.632,1.32,34.793,1.316L38.92,1.316ZM36.851,26.344C30.129,26.344,26.349,30.134,26.349,36.851C26.349,43.574,30.129,47.359,36.851,47.359C43.574,47.359,47.359,43.569,47.359,36.851C47.359,30.129,43.569,26.344,36.851,26.344ZM36.851,26.344"/>
</g>
  <g id="Black-S" transform="matrix(1.0,0.0,0.0,1.0,2905.8253193441096,631.9153388753596)">  <path clip-path="url(#clip0_357_621)" stroke-opacity="1" stroke-linecap="butt" fill-opacity="1" stroke-dasharray="none" stroke="none" stroke-width="1px" fill-rule="nonzero" stroke-miterlimit="4" stroke-linejoin="miter" fill="#000000" d="M30.475,1.031C32.949,1.036,35.169,2.552,36.072,4.856L37.556,8.615L42.045,11.208L46.027,10.602C48.478,10.234,50.905,11.403,52.145,13.549L53.752,16.336C54.995,18.482,54.795,21.17,53.249,23.108L50.735,26.254L50.735,31.456L53.233,34.601C54.775,36.541,54.977,39.226,53.74,41.373L52.132,44.16C50.892,46.306,48.466,47.475,46.015,47.107L42.029,46.501L37.536,49.098L36.06,52.849C35.157,55.154,32.937,56.672,30.462,56.679L27.235,56.679C24.76,56.672,22.54,55.154,21.637,52.849L20.165,49.098L15.672,46.501L11.682,47.107C9.232,47.478,6.804,46.31,5.565,44.164L3.957,41.373C2.716,39.227,2.917,36.539,4.464,34.601L6.979,31.456L6.979,26.254L4.464,23.108C2.918,21.171,2.715,18.484,3.953,16.336L5.561,13.549C6.8,11.401,9.229,10.231,11.682,10.602L15.656,11.208L20.165,8.595L21.645,4.856C22.547,2.551,24.768,1.033,27.243,1.031L30.475,1.031ZM28.855,20.627C23.591,20.627,20.631,23.595,20.631,28.855C20.631,34.119,23.591,37.082,28.855,37.082C34.119,37.082,37.082,34.114,37.082,28.855C37.082,23.591,34.114,20.627,28.855,20.627ZM28.855,20.627"/>
</g>
  <g id="Heavy-S" transform="matrix(1.0,0.0,0.0,1.0,2609.1153193441096,631.9153388753596)">  <path stroke-width="1px" stroke-linecap="butt" fill-opacity="1" stroke-dasharray="none" stroke="none" fill-rule="nonzero" fill="#000000" stroke-miterlimit="4" clip-path="url(#clip0_357_621)" stroke-linejoin="miter" stroke-opacity="1" d="M30.475,1.031C32.949,1.036,35.169,2.552,36.072,4.856L37.556,8.615L42.045,11.208L46.027,10.602C48.478,10.234,50.905,11.403,52.145,13.549L53.752,16.336C54.995,18.482,54.795,21.17,53.249,23.108L50.735,26.254L50.735,31.456L53.233,34.601C54.775,36.541,54.977,39.226,53.74,41.373L52.132,44.16C50.892,46.306,48.466,47.475,46.015,47.107L42.029,46.501L37.536,49.098L36.06,52.849C35.157,55.154,32.937,56.672,30.462,56.679L27.235,56.679C24.76,56.672,22.54,55.154,21.637,52.849L20.165,49.098L15.672,46.501L11.682,47.107C9.232,47.478,6.804,46.31,5.565,44.164L3.957,41.373C2.716,39.227,2.917,36.539,4.464,34.601L6.979,31.456L6.979,26.254L4.464,23.108C2.918,21.171,2.715,18.484,3.953,16.336L5.561,13.549C6.8,11.401,9.229,10.231,11.682,10.602L15.656,11.208L20.165,8.595L21.645,4.856C22.547,2.551,24.768,1.033,27.243,1.031L30.475,1.031ZM28.855,20.627C23.591,20.627,20.631,23.595,20.631,28.855C20.631,34.119,23.591,37.082,28.855,37.082C34.119,37.082,37.082,34.114,37.082,28.855C37.082,23.591,34.114,20.627,28.855,20.627ZM28.855,20.627"/>
</g>
  <g id="Bold-S" transform="matrix(1.0,0.0,0.0,1.0,2312.4053193441096,631.9153388753596)">  <path stroke="none" stroke-dasharray="none" clip-path="url(#clip0_357_621)" fill-rule="nonzero" stroke-width="1px" stroke-linejoin="miter" fill="#000000" stroke-miterlimit="4" stroke-opacity="1" fill-opacity="1" stroke-linecap="butt" d="M30.475,1.031C32.949,1.036,35.169,2.552,36.072,4.856L37.556,8.615L42.045,11.208L46.027,10.602C48.478,10.234,50.905,11.403,52.145,13.549L53.752,16.336C54.995,18.482,54.795,21.17,53.249,23.108L50.735,26.254L50.735,31.456L53.233,34.601C54.775,36.541,54.977,39.226,53.74,41.373L52.132,44.16C50.892,46.306,48.466,47.475,46.015,47.107L42.029,46.501L37.536,49.098L36.06,52.849C35.157,55.154,32.937,56.672,30.462,56.679L27.235,56.679C24.76,56.672,22.54,55.154,21.637,52.849L20.165,49.098L15.672,46.501L11.682,47.107C9.232,47.478,6.804,46.31,5.565,44.164L3.957,41.373C2.716,39.227,2.917,36.539,4.464,34.601L6.979,31.456L6.979,26.254L4.464,23.108C2.918,21.171,2.715,18.484,3.953,16.336L5.561,13.549C6.8,11.401,9.229,10.231,11.682,10.602L15.656,11.208L20.165,8.595L21.645,4.856C22.547,2.551,24.768,1.033,27.243,1.031L30.475,1.031ZM28.855,20.627C23.591,20.627,20.631,23.595,20.631,28.855C20.631,34.119,23.591,37.082,28.855,37.082C34.119,37.082,37.082,34.114,37.082,28.855C37.082,23.591,34.114,20.627,28.855,20.627ZM28.855,20.627"/>
</g>
  <g id="Semibold-S" transform="matrix(1.0,0.0,0.0,1.0,2015.6953193441095,631.9153388753596)">  <path stroke-linejoin="miter" fill-opacity="1" stroke-width="1px" stroke-miterlimit="4" stroke-dasharray="none" fill-rule="nonzero" clip-path="url(#clip0_357_621)" stroke-opacity="1" stroke-linecap="butt" fill="#000000" stroke="none" d="M30.475,1.031C32.949,1.036,35.169,2.552,36.072,4.856L37.556,8.615L42.045,11.208L46.027,10.602C48.478,10.234,50.905,11.403,52.145,13.549L53.752,16.336C54.995,18.482,54.795,21.17,53.249,23.108L50.735,26.254L50.735,31.456L53.233,34.601C54.775,36.541,54.977,39.226,53.74,41.373L52.132,44.16C50.892,46.306,48.466,47.475,46.015,47.107L42.029,46.501L37.536,49.098L36.06,52.849C35.157,55.154,32.937,56.672,30.462,56.679L27.235,56.679C24.76,56.672,22.54,55.154,21.637,52.849L20.165,49.098L15.672,46.501L11.682,47.107C9.232,47.478,6.804,46.31,5.565,44.164L3.957,41.373C2.716,39.227,2.917,36.539,4.464,34.601L6.979,31.456L6.979,26.254L4.464,23.108C2.918,21.171,2.715,18.484,3.953,16.336L5.561,13.549C6.8,11.401,9.229,10.231,11.682,10.602L15.656,11.208L20.165,8.595L21.645,4.856C22.547,2.551,24.768,1.033,27.243,1.031L30.475,1.031ZM28.855,20.627C23.591,20.627,20.631,23.595,20.631,28.855C20.631,34.119,23.591,37.082,28.855,37.082C34.119,37.082,37.082,34.114,37.082,28.855C37.082,23.591,34.114,20.627,28.855,20.627ZM28.855,20.627"/>
</g>
  <g id="Medium-S" transform="matrix(1.0,0.0,0.0,1.0,1718.9853193441095,631.9153388753596)">  <path fill-rule="nonzero" stroke="none" clip-path="url(#clip0_357_621)" stroke-dasharray="none" stroke-miterlimit="4" fill="#000000" stroke-width="1px" fill-opacity="1" stroke-linecap="butt" stroke-linejoin="miter" stroke-opacity="1" d="M30.475,1.031C32.949,1.036,35.169,2.552,36.072,4.856L37.556,8.615L42.045,11.208L46.027,10.602C48.478,10.234,50.905,11.403,52.145,13.549L53.752,16.336C54.995,18.482,54.795,21.17,53.249,23.108L50.735,26.254L50.735,31.456L53.233,34.601C54.775,36.541,54.977,39.226,53.74,41.373L52.132,44.16C50.892,46.306,48.466,47.475,46.015,47.107L42.029,46.501L37.536,49.098L36.06,52.849C35.157,55.154,32.937,56.672,30.462,56.679L27.235,56.679C24.76,56.672,22.54,55.154,21.637,52.849L20.165,49.098L15.672,46.501L11.682,47.107C9.232,47.478,6.804,46.31,5.565,44.164L3.957,41.373C2.716,39.227,2.917,36.539,4.464,34.601L6.979,31.456L6.979,26.254L4.464,23.108C2.918,21.171,2.715,18.484,3.953,16.336L5.561,13.549C6.8,11.401,9.229,10.231,11.682,10.602L15.656,11.208L20.165,8.595L21.645,4.856C22.547,2.551,24.768,1.033,27.243,1.031L30.475,1.031ZM28.855,20.627C23.591,20.627,20.631,23.595,20.631,28.855C20.631,34.119,23.591,37.082,28.855,37.082C34.119,37.082,37.082,34.114,37.082,28.855C37.082,23.591,34.114,20.627,28.855,20.627ZM28.855,20.627"/>
</g>
  <g id="Regular-S" transform="matrix(1.0,0.0,0.0,1.0,1422.2753193441094,631.9153388753596)">  <path stroke-linejoin="miter" stroke-dasharray="none" stroke-opacity="1" fill="#000000" fill-rule="nonzero" stroke-miterlimit="4" fill-opacity="1" stroke="none" stroke-linecap="butt" stroke-width="1px" clip-path="url(#clip0_357_621)" d="M30.475,1.031C32.949,1.036,35.169,2.552,36.072,4.856L37.556,8.615L42.045,11.208L46.027,10.602C48.478,10.234,50.905,11.403,52.145,13.549L53.752,16.336C54.995,18.482,54.795,21.17,53.249,23.108L50.735,26.254L50.735,31.456L53.233,34.601C54.775,36.541,54.977,39.226,53.74,41.373L52.132,44.16C50.892,46.306,48.466,47.475,46.015,47.107L42.029,46.501L37.536,49.098L36.06,52.849C35.157,55.154,32.937,56.672,30.462,56.679L27.235,56.679C24.76,56.672,22.54,55.154,21.637,52.849L20.165,49.098L15.672,46.501L11.682,47.107C9.232,47.478,6.804,46.31,5.565,44.164L3.957,41.373C2.716,39.227,2.917,36.539,4.464,34.601L6.979,31.456L6.979,26.254L4.464,23.108C2.918,21.171,2.715,18.484,3.953,16.336L5.561,13.549C6.8,11.401,9.229,10.231,11.682,10.602L15.656,11.208L20.165,8.595L21.645,4.856C22.547,2.551,24.768,1.033,27.243,1.031L30.475,1.031ZM28.855,20.627C23.591,20.627,20.631,23.595,20.631,28.855C20.631,34.119,23.591,37.082,28.855,37.082C34.119,37.082,37.082,34.114,37.082,28.855C37.082,23.591,34.114,20.627,28.855,20.627ZM28.855,20.627"/>
</g>
  <g id="Light-S" transform="matrix(1.0,0.0,0.0,1.0,1125.5653193441096,631.9153388753596)">  <path stroke-opacity="1" stroke-dasharray="none" stroke-width="1px" fill-opacity="1" stroke-linejoin="miter" stroke-miterlimit="4" stroke="none" clip-path="url(#clip0_357_621)" fill="#000000" stroke-linecap="butt" fill-rule="nonzero" d="M30.475,1.031C32.949,1.036,35.169,2.552,36.072,4.856L37.556,8.615L42.045,11.208L46.027,10.602C48.478,10.234,50.905,11.403,52.145,13.549L53.752,16.336C54.995,18.482,54.795,21.17,53.249,23.108L50.735,26.254L50.735,31.456L53.233,34.601C54.775,36.541,54.977,39.226,53.74,41.373L52.132,44.16C50.892,46.306,48.466,47.475,46.015,47.107L42.029,46.501L37.536,49.098L36.06,52.849C35.157,55.154,32.937,56.672,30.462,56.679L27.235,56.679C24.76,56.672,22.54,55.154,21.637,52.849L20.165,49.098L15.672,46.501L11.682,47.107C9.232,47.478,6.804,46.31,5.565,44.164L3.957,41.373C2.716,39.227,2.917,36.539,4.464,34.601L6.979,31.456L6.979,26.254L4.464,23.108C2.918,21.171,2.715,18.484,3.953,16.336L5.561,13.549C6.8,11.401,9.229,10.231,11.682,10.602L15.656,11.208L20.165,8.595L21.645,4.856C22.547,2.551,24.768,1.033,27.243,1.031L30.475,1.031ZM28.855,20.627C23.591,20.627,20.631,23.595,20.631,28.855C20.631,34.119,23.591,37.082,28.855,37.082C34.119,37.082,37.082,34.114,37.082,28.855C37.082,23.591,34.114,20.627,28.855,20.627ZM28.855,20.627"/>
</g>
  <g id="Thin-S" transform="matrix(1.0,0.0,0.0,1.0,828.8553193441096,631.9153388753596)">  <path stroke-dasharray="none" stroke="none" clip-path="url(#clip0_357_621)" stroke-linejoin="miter" fill-rule="nonzero" fill-opacity="1" stroke-miterlimit="4" stroke-width="1px" stroke-linecap="butt" fill="#000000" stroke-opacity="1" d="M30.475,1.031C32.949,1.036,35.169,2.552,36.072,4.856L37.556,8.615L42.045,11.208L46.027,10.602C48.478,10.234,50.905,11.403,52.145,13.549L53.752,16.336C54.995,18.482,54.795,21.17,53.249,23.108L50.735,26.254L50.735,31.456L53.233,34.601C54.775,36.541,54.977,39.226,53.74,41.373L52.132,44.16C50.892,46.306,48.466,47.475,46.015,47.107L42.029,46.501L37.536,49.098L36.06,52.849C35.157,55.154,32.937,56.672,30.462,56.679L27.235,56.679C24.76,56.672,22.54,55.154,21.637,52.849L20.165,49.098L15.672,46.501L11.682,47.107C9.232,47.478,6.804,46.31,5.565,44.164L3.957,41.373C2.716,39.227,2.917,36.539,4.464,34.601L6.979,31.456L6.979,26.254L4.464,23.108C2.918,21.171,2.715,18.484,3.953,16.336L5.561,13.549C6.8,11.401,9.229,10.231,11.682,10.602L15.656,11.208L20.165,8.595L21.645,4.856C22.547,2.551,24.768,1.033,27.243,1.031L30.475,1.031ZM28.855,20.627C23.591,20.627,20.631,23.595,20.631,28.855C20.631,34.119,23.591,37.082,28.855,37.082C34.119,37.082,37.082,34.114,37.082,28.855C37.082,23.591,34.114,20.627,28.855,20.627ZM28.855,20.627"/>
</g>
  <g id="Ultralight-S" transform="matrix(1.0,0.0,0.0,1.0,532.1453193441096,631.9153388753596)">  <path stroke-miterlimit="4" clip-path="url(#clip0_357_621)" stroke-linecap="butt" fill-opacity="1" fill="#000000" stroke-opacity="1" stroke-width="1px" stroke-dasharray="none" stroke="none" fill-rule="nonzero" stroke-linejoin="miter" d="M30.475,1.031C32.949,1.036,35.169,2.552,36.072,4.856L37.556,8.615L42.045,11.208L46.027,10.602C48.478,10.234,50.905,11.403,52.145,13.549L53.752,16.336C54.995,18.482,54.795,21.17,53.249,23.108L50.735,26.254L50.735,31.456L53.233,34.601C54.775,36.541,54.977,39.226,53.74,41.373L52.132,44.16C50.892,46.306,48.466,47.475,46.015,47.107L42.029,46.501L37.536,49.098L36.06,52.849C35.157,55.154,32.937,56.672,30.462,56.679L27.235,56.679C24.76,56.672,22.54,55.154,21.637,52.849L20.165,49.098L15.672,46.501L11.682,47.107C9.232,47.478,6.804,46.31,5.565,44.164L3.957,41.373C2.716,39.227,2.917,36.539,4.464,34.601L6.979,31.456L6.979,26.254L4.464,23.108C2.918,21.171,2.715,18.484,3.953,16.336L5.561,13.549C6.8,11.401,9.229,10.231,11.682,10.602L15.656,11.208L20.165,8.595L21.645,4.856C22.547,2.551,24.768,1.033,27.243,1.031L30.475,1.031ZM28.855,20.627C23.591,20.627,20.631,23.595,20.631,28.855C20.631,34.119,23.591,37.082,28.855,37.082C34.119,37.082,37.082,34.114,37.082,28.855C37.082,23.591,34.114,20.627,28.855,20.627ZM28.855,20.627"/>
</g>
 </g>
</svg>
