<?xml version="1.0" encoding="UTF-8"?>
<!-- Generator: CustomSymbols v2.7.4.50 by @serious_bret https://bretlester.com/app_content/CustomSymbols/ -->
<!-- Guides: Left/Right 0.025/0.025 Cap/Base -0.009/-0.009 -->
<!-- Settings: RefScale 1.0 Min/Max Stroke Scales 0.5/2.21 -->
<!DOCTYPE svg
PUBLIC "-//W3C//DTD SVG 1.1//EN"
       "http://www.w3.org/Graphics/SVG/1.1/DTD/svg11.dtd">
<svg version="1.1" xmlns="http://www.w3.org/2000/svg" xmlns:xlink="http://www.w3.org/1999/xlink" width="3300" height="2200">
<![CDATA[<svg xmlns="http://www.w3.org/2000/svg" width="30" height="29" fill="none" viewBox="0 0 30 29">
  <g id="Vector">
    <path fill="#000" fill-rule="evenodd" d="M5.604 15.166c1.626 0 3.17-.415 4.484-1.156a9.139 9.139 0 0 0 4.484 1.156 9.139 9.139 0 0 0 4.483-1.156 9.138 9.138 0 0 0 4.483 1.156 9.234 9.234 0 0 0 3.882-.856v9.787c0 2.15-1.634 3.933-3.777 4.275v-7.82c0-1.196-1.014-2.166-2.264-2.166h-2.264c-1.25 0-2.263.97-2.263 2.167v7.878h-10.6c-2.5 0-4.528-1.94-4.528-4.334v-9.786a9.233 9.233 0 0 0 3.88.855Zm-.07 3.22c-.625 0-1.132.485-1.132 1.084v3.25c0 .598.507 1.083 1.132 1.083h6.79c.626 0 1.133-.485 1.133-1.083v-3.25c0-.599-.507-1.084-1.132-1.084H5.534Z" clip-rule="evenodd"/>
    <path fill="#000" d="M5.604 12.457c1.834 0 3.461-.764 4.484-1.945 1.022 1.181 2.65 1.945 4.484 1.945 1.833 0 3.46-.764 4.483-1.945 1.023 1.181 2.65 1.945 4.483 1.945 3.096 0 5.605-2.178 5.605-4.864 0-1.297-1.121-5.333-5.605-6.89-6.956-.933-10.883-.942-17.934 0C1.121 2.26 0 6.296 0 7.593c0 2.686 2.51 4.864 5.604 4.864Z"/>
  </g>
</svg>
]]>
 <g id="Notes">
  <rect height="2200" id="artboard" style="fill:white;opacity:1" width="3300" x="0" y="0"/>
  <line id="" style="fill:none;stroke:black;opacity:1;stroke-width:0.5;" x1="263" x2="3036" y1="292" y2="292"/>
  <text id="reftext1" style="stroke:none;fill:black;font-family:-apple-system,&quot;SF Pro Display&quot;,&quot;SF Pro Text&quot;,Helvetica,sans-serif;font-weight:bold;" transform="matrix(1 0 0 1 263 322)">Weight/Scale Variations</text>
  <text id="reftext2" style="stroke:none;fill:black;font-family:-apple-system,&quot;SF Pro Display&quot;,&quot;SF Pro Text&quot;,Helvetica,sans-serif;text-anchor:middle;" transform="matrix(1 0 0 1 559.711 322)">Ultralight</text>
  <text style="stroke:none;fill:black;font-family:-apple-system,&quot;SF Pro Display&quot;,&quot;SF Pro Text&quot;,Helvetica,sans-serif;text-anchor:middle;" transform="matrix(1 0 0 1 856.422 322)">Thin</text>
  <text style="stroke:none;fill:black;font-family:-apple-system,&quot;SF Pro Display&quot;,&quot;SF Pro Text&quot;,Helvetica,sans-serif;text-anchor:middle;" transform="matrix(1 0 0 1 1153.13 322)">Light</text>
  <text style="stroke:none;fill:black;font-family:-apple-system,&quot;SF Pro Display&quot;,&quot;SF Pro Text&quot;,Helvetica,sans-serif;text-anchor:middle;" transform="matrix(1 0 0 1 1449.84 322)">Regular</text>
  <text style="stroke:none;fill:black;font-family:-apple-system,&quot;SF Pro Display&quot;,&quot;SF Pro Text&quot;,Helvetica,sans-serif;text-anchor:middle;" transform="matrix(1 0 0 1 1746.56 322)">Medium</text>
  <text style="stroke:none;fill:black;font-family:-apple-system,&quot;SF Pro Display&quot;,&quot;SF Pro Text&quot;,Helvetica,sans-serif;text-anchor:middle;" transform="matrix(1 0 0 1 2043.27 322)">Semibold</text>
  <text style="stroke:none;fill:black;font-family:-apple-system,&quot;SF Pro Display&quot;,&quot;SF Pro Text&quot;,Helvetica,sans-serif;text-anchor:middle;" transform="matrix(1 0 0 1 2339.98 322)">Bold</text>
  <text style="stroke:none;fill:black;font-family:-apple-system,&quot;SF Pro Display&quot;,&quot;SF Pro Text&quot;,Helvetica,sans-serif;text-anchor:middle;" transform="matrix(1 0 0 1 2636.69 322)">Heavy</text>
  <text style="stroke:none;fill:black;font-family:-apple-system,&quot;SF Pro Display&quot;,&quot;SF Pro Text&quot;,Helvetica,sans-serif;text-anchor:middle;" transform="matrix(1 0 0 1 2933.4 322)">Black</text>
  <line id="" style="fill:none;stroke:black;opacity:1;stroke-width:0.5;" x1="263" x2="3036" y1="1903" y2="1903"/>
  <g id="" transform="matrix(1 0 0 1 263 1933)">
   <path d="M9.24805 0.830078C13.5547 0.830078 17.1387-2.74414 17.1387-7.05078C17.1387-11.3574 13.5449-14.9316 9.23828-14.9316C4.94141-14.9316 1.36719-11.3574 1.36719-7.05078C1.36719-2.74414 4.95117 0.830078 9.24805 0.830078ZM9.24805-0.654297C5.70312-0.654297 2.87109-3.49609 2.87109-7.05078C2.87109-10.6055 5.69336-13.4473 9.23828-13.4473C12.793-13.4473 15.6348-10.6055 15.6445-7.05078C15.6543-3.49609 12.8027-0.654297 9.24805-0.654297ZM6.39648-6.31836L8.50586-6.31836L8.50586-4.19922C8.50586-3.75977 8.79883-3.45703 9.22852-3.45703C9.67773-3.45703 9.9707-3.75977 9.9707-4.19922L9.9707-6.31836L12.0996-6.31836C12.5391-6.31836 12.8418-6.61133 12.8418-7.04102C12.8418-7.48047 12.5391-7.7832 12.0996-7.7832L9.9707-7.7832L9.9707-9.89258C9.9707-10.3418 9.67773-10.6445 9.22852-10.6445C8.79883-10.6445 8.50586-10.3418 8.50586-9.89258L8.50586-7.7832L6.39648-7.7832C5.94727-7.7832 5.64453-7.48047 5.64453-7.04102C5.64453-6.61133 5.94727-6.31836 6.39648-6.31836Z"/>
  </g>
  <g id="" transform="matrix(1 0 0 1 281.506 1933)">
   <path d="M11.709 2.91016C17.1582 2.91016 21.6699-1.61133 21.6699-7.05078C21.6699-12.5 17.1484-17.0117 11.6992-17.0117C6.25977-17.0117 1.74805-12.5 1.74805-7.05078C1.74805-1.61133 6.26953 2.91016 11.709 2.91016ZM11.709 1.25C7.09961 1.25 3.41797-2.44141 3.41797-7.05078C3.41797-11.6602 7.08984-15.3516 11.6992-15.3516C16.3086-15.3516 20-11.6602 20.0098-7.05078C20.0195-2.44141 16.3184 1.25 11.709 1.25ZM7.98828-6.23047L10.8789-6.23047L10.8789-3.32031C10.8789-2.83203 11.2109-2.5 11.6895-2.5C12.1777-2.5 12.5195-2.83203 12.5195-3.32031L12.5195-6.23047L15.4297-6.23047C15.918-6.23047 16.25-6.5625 16.25-7.04102C16.25-7.5293 15.918-7.87109 15.4297-7.87109L12.5195-7.87109L12.5195-10.7617C12.5195-11.2695 12.1777-11.6016 11.6895-11.6016C11.2109-11.6016 10.8789-11.2598 10.8789-10.7617L10.8789-7.87109L7.98828-7.87109C7.48047-7.87109 7.14844-7.5293 7.14844-7.04102C7.14844-6.5625 7.49023-6.23047 7.98828-6.23047Z"/>
  </g>
  <g id="" transform="matrix(1 0 0 1 304.924 1933)">
   <path d="M14.9707 5.66406C21.9336 5.66406 27.6953-0.0976562 27.6953-7.05078C27.6953-14.0137 21.9238-19.7754 14.9609-19.7754C8.00781-19.7754 2.25586-14.0137 2.25586-7.05078C2.25586-0.0976562 8.01758 5.66406 14.9707 5.66406ZM14.9707 3.84766C8.93555 3.84766 4.08203-1.01562 4.08203-7.05078C4.08203-13.0957 8.92578-17.9492 14.9609-17.9492C21.0059-17.9492 25.8594-13.0957 25.8691-7.05078C25.8789-1.01562 21.0156 3.84766 14.9707 3.84766ZM10.0586-6.14258L14.0625-6.14258L14.0625-2.12891C14.0625-1.5918 14.4336-1.2207 14.9512-1.2207C15.4883-1.2207 15.8594-1.5918 15.8594-2.12891L15.8594-6.14258L19.8828-6.14258C20.4102-6.14258 20.791-6.51367 20.791-7.03125C20.791-7.56836 20.4199-7.94922 19.8828-7.94922L15.8594-7.94922L15.8594-11.9531C15.8594-12.5098 15.4883-12.8809 14.9512-12.8809C14.4336-12.8809 14.0625-12.5 14.0625-11.9531L14.0625-7.94922L10.0586-7.94922C9.50195-7.94922 9.13086-7.56836 9.13086-7.03125C9.13086-6.51367 9.51172-6.14258 10.0586-6.14258Z"/>
  </g>
  <text style="stroke:none;fill:black;font-family:-apple-system,&quot;SF Pro Display&quot;,&quot;SF Pro Text&quot;,Helvetica,sans-serif;font-weight:bold;" transform="matrix(1 0 0 1 263 1953)">Design Variations</text>
  <text style="stroke:none;fill:black;font-family:-apple-system,&quot;SF Pro Display&quot;,&quot;SF Pro Text&quot;,Helvetica,sans-serif;" transform="matrix(1 0 0 1 263 1971)">Symbols are supported in up to nine weights and three scales.</text>
  <text style="stroke:none;fill:black;font-family:-apple-system,&quot;SF Pro Display&quot;,&quot;SF Pro Text&quot;,Helvetica,sans-serif;" transform="matrix(1 0 0 1 263 1989)">For optimal layout with text and other symbols, vertically align</text>
  <text style="stroke:none;fill:black;font-family:-apple-system,&quot;SF Pro Display&quot;,&quot;SF Pro Text&quot;,Helvetica,sans-serif;" transform="matrix(1 0 0 1 263 2007)">symbols with the adjacent text.</text>
  <line id="" style="fill:none;stroke:#00AEEF;stroke-width:0.5;opacity:1.0;" x1="776" x2="776" y1="1919" y2="1933"/>
  <g id="" transform="matrix(1 0 0 1 776 1933)">
   <path d="M3.31055 0.126953C3.82812 0.126953 4.08203-0.0683594 4.26758-0.605469L5.52734-4.0625L11.2891-4.0625L12.5488-0.605469C12.7344-0.0683594 12.9883 0.126953 13.4961 0.126953C14.0137 0.126953 14.3457-0.185547 14.3457-0.673828C14.3457-0.839844 14.3164-0.986328 14.2383-1.20117L9.6582-13.3887C9.43359-13.9941 9.0332-14.2871 8.4082-14.2871C7.80273-14.2871 7.39258-13.9941 7.17773-13.3984L2.59766-1.19141C2.51953-0.976562 2.49023-0.830078 2.49023-0.664062C2.49023-0.175781 2.80273 0.126953 3.31055 0.126953ZM6.00586-5.53711L8.37891-12.1094L8.42773-12.1094L10.8008-5.53711Z"/>
  </g>
  <line id="" style="fill:none;stroke:#00AEEF;stroke-width:0.5;opacity:1.0;" x1="792.836" x2="792.836" y1="1919" y2="1933"/>
  <text style="stroke:none;fill:black;font-family:-apple-system,&quot;SF Pro Display&quot;,&quot;SF Pro Text&quot;,Helvetica,sans-serif;font-weight:bold;" transform="matrix(1 0 0 1 776 1953)">Margins</text>
  <text style="stroke:none;fill:black;font-family:-apple-system,&quot;SF Pro Display&quot;,&quot;SF Pro Text&quot;,Helvetica,sans-serif;" transform="matrix(1 0 0 1 776 1971)">Leading and trailing margins on the left and right side of each symbol</text>
  <text style="stroke:none;fill:black;font-family:-apple-system,&quot;SF Pro Display&quot;,&quot;SF Pro Text&quot;,Helvetica,sans-serif;" transform="matrix(1 0 0 1 776 1989)">can be adjusted by modifying the x-location of the margin guidelines.</text>
  <text style="stroke:none;fill:black;font-family:-apple-system,&quot;SF Pro Display&quot;,&quot;SF Pro Text&quot;,Helvetica,sans-serif;" transform="matrix(1 0 0 1 776 2007)">Modifications are automatically applied proportionally to all</text>
  <text style="stroke:none;fill:black;font-family:-apple-system,&quot;SF Pro Display&quot;,&quot;SF Pro Text&quot;,Helvetica,sans-serif;" transform="matrix(1 0 0 1 776 2025)">scales and weights.</text>
  <g id="" transform="matrix(1 0 0 1 1289 1933)">
   <path d="M2.8418 1.86523L4.54102 3.57422C5.40039 4.44336 6.38672 4.38477 7.31445 3.35938L17.4902-7.85156C17.7539-7.76367 18.0273-7.7832 18.3398-7.8418L19.4043-8.03711L20.0684-7.36328L20.0293-6.80664C19.9902-6.30859 20.1172-5.92773 20.6055-5.44922L21.3672-4.70703C21.8457-4.22852 22.4609-4.19922 22.9297-4.66797L25.8398-7.58789C26.3086-8.05664 26.2891-8.65234 25.8105-9.13086L25.0391-9.89258C24.5605-10.3711 24.1895-10.5273 23.7109-10.4883L23.1348-10.4395L22.4902-11.0742L22.7344-12.1973C22.8613-12.7637 22.7051-13.2031 22.1191-13.7891L19.9219-15.9766C16.582-19.2969 12.1484-19.2188 9.25781-16.3281C8.83789-15.918 8.80859-15.3418 9.04297-14.9512C9.27734-14.5898 9.73633-14.3555 10.3809-14.5215C11.8457-14.8633 13.3691-14.9219 14.7949-13.9844L14.209-12.5293C14.0137-12.0508 13.9844-11.6504 14.1113-11.2891L3.04688-0.898438C2.06055 0.0195312 1.98242 0.996094 2.8418 1.86523ZM10.752-15.957C13.1836-17.7344 16.4746-17.4316 18.7012-15.2051L21.1328-12.793C21.3672-12.5586 21.4062-12.373 21.3379-12.0312L21.0156-10.5469L22.5195-9.0625L23.5059-9.12109C23.7598-9.13086 23.8379-9.11133 24.0332-8.91602L24.6094-8.33984L22.168-5.89844L21.5918-6.47461C21.3965-6.66992 21.3672-6.74805 21.377-7.01172L21.4453-7.98828L19.9512-9.47266L18.4277-9.21875C18.1055-9.15039 17.959-9.17969 17.7148-9.41406L15.7129-11.416C15.459-11.6504 15.4297-11.8164 15.5859-12.1875L16.4648-14.2773C14.9023-15.7324 12.8711-16.3574 10.8398-15.7617C10.6836-15.7227 10.625-15.8496 10.752-15.957ZM5.27344 2.30469L4.10156 1.14258C3.63281 0.683594 3.74023 0.341797 4.14062-0.0195312L14.9512-10.1953L16.416-8.71094L6.42578 2.27539C6.07422 2.67578 5.74219 2.77344 5.27344 2.30469Z"/>
  </g>
  <text style="stroke:none;fill:black;font-family:-apple-system,&quot;SF Pro Display&quot;,&quot;SF Pro Text&quot;,Helvetica,sans-serif;font-weight:bold;" transform="matrix(1 0 0 1 1289 1953)">Exporting</text>
  <text style="stroke:none;fill:black;font-family:-apple-system,&quot;SF Pro Display&quot;,&quot;SF Pro Text&quot;,Helvetica,sans-serif;" transform="matrix(1 0 0 1 1289 1971)">Symbols should be outlined when exporting to ensure the</text>
  <text style="stroke:none;fill:black;font-family:-apple-system,&quot;SF Pro Display&quot;,&quot;SF Pro Text&quot;,Helvetica,sans-serif;" transform="matrix(1 0 0 1 1289 1989)">design is preserved when submitting to Xcode.</text>
  <text id="template-version" style="stroke:none;fill:black;font-family:-apple-system,&quot;SF Pro Display&quot;,&quot;SF Pro Text&quot;,Helvetica,sans-serif;text-anchor:end;" transform="matrix(1 0 0 1 3036 1933)">Template v.2.0</text>
  <text style="stroke:none;fill:black;font-family:-apple-system,&quot;SF Pro Display&quot;,&quot;SF Pro Text&quot;,Helvetica,sans-serif;text-anchor:end;" transform="matrix(1 0 0 1 3036 1951)">Requires Xcode 12 or greater</text>
  <text style="stroke:none;fill:black;font-family:-apple-system,&quot;SF Pro Display&quot;,&quot;SF Pro Text&quot;,Helvetica,sans-serif;" transform="matrix(1 0 0 1 263 726)">Small</text>
  <text style="stroke:none;fill:black;font-family:-apple-system,&quot;SF Pro Display&quot;,&quot;SF Pro Text&quot;,Helvetica,sans-serif;" transform="matrix(1 0 0 1 263 1156)">Medium</text>
  <text style="stroke:none;fill:black;font-family:-apple-system,&quot;SF Pro Display&quot;,&quot;SF Pro Text&quot;,Helvetica,sans-serif;" transform="matrix(1 0 0 1 263 1586)">Large</text>
 </g>
 <g id="Guides">
  <g id="H-reference" style="fill:#27AAE1;stroke:none;" transform="matrix(1 0 0 1 339 696)">
   <path d="M0.976562 0L3.66211 0L12.9883-24.4629L45.752-24.4629L55.127 0L57.7637 0L30.6152-70.459L28.125-70.459ZM29.3457-67.1387L29.4434-67.1387L44.873-26.709L13.8672-26.709Z"/>
  </g>
  <line id="Baseline-S" style="fill:none;stroke:#27AAE1;opacity:1;stroke-width:0.5;" x1="263" x2="3036" y1="696" y2="696"/>
  <line id="Capline-S" style="fill:none;stroke:#27AAE1;opacity:1;stroke-width:0.5;" x1="263" x2="3036" y1="625.541" y2="625.541"/>
  <g id="H-reference" style="fill:#27AAE1;stroke:none;" transform="matrix(1 0 0 1 339 1126)">
   <path d="M0.976562 0L3.66211 0L12.9883-24.4629L45.752-24.4629L55.127 0L57.7637 0L30.6152-70.459L28.125-70.459ZM29.3457-67.1387L29.4434-67.1387L44.873-26.709L13.8672-26.709Z"/>
  </g>
  <line id="Baseline-M" style="fill:none;stroke:#27AAE1;opacity:1;stroke-width:0.5;" x1="263" x2="3036" y1="1126" y2="1126"/>
  <line id="Capline-M" style="fill:none;stroke:#27AAE1;opacity:1;stroke-width:0.5;" x1="263" x2="3036" y1="1055.54" y2="1055.54"/>
  <g id="H-reference" style="fill:#27AAE1;stroke:none;" transform="matrix(1 0 0 1 339 1556)">
   <path d="M0.976562 0L3.66211 0L12.9883-24.4629L45.752-24.4629L55.127 0L57.7637 0L30.6152-70.459L28.125-70.459ZM29.3457-67.1387L29.4434-67.1387L44.873-26.709L13.8672-26.709Z"/>
  </g>
  <line id="Baseline-L" style="fill:none;stroke:#27AAE1;opacity:1;stroke-width:0.5;" x1="263" x2="3036" y1="1556" y2="1556"/>
  <line id="Capline-L" style="fill:none;stroke:#27AAE1;opacity:1;stroke-width:0.5;" x1="263" x2="3036" y1="1485.54" y2="1485.54"/>
  <line id="left-margin" x1="1417.1196198306557" x2="1417.1196198306557" y1="1030.79" y2="1150.12" style="fill:none;stroke:#00AEEF;stroke-width:0.5;opacity:1.0;"/>
  <line id="right-margin" x1="1485.140380169344" x2="1485.140380169344" y1="1030.79" y2="1150.12" style="fill:none;stroke:#00AEEF;stroke-width:0.5;opacity:1.0;"/>
 </g>
 <g id="Symbols">
  <g id="Black-L" transform="matrix(1.0,0.0,0.0,1.0,2888.4974837700483,1476.1269205089636)">  <path stroke="none" clip-rule="evenodd" stroke-linejoin="miter" stroke-width="1px" fill="#000000" fill-opacity="1" stroke-opacity="1" stroke-dasharray="none" stroke-miterlimit="4" stroke-linecap="butt" fill-rule="evenodd" d="M17.254,46.694C22.26,46.694,27.014,45.416,31.059,43.134C35.279,45.486,40.034,46.712,44.865,46.694C49.695,46.712,54.448,45.486,58.667,43.134C62.886,45.486,67.64,46.712,72.47,46.694C76.598,46.693,80.676,45.794,84.422,44.058L84.422,74.191C84.422,80.81,79.391,86.3,72.793,87.353L72.793,63.276C72.793,59.594,69.671,56.607,65.822,56.607L58.852,56.607C55.003,56.607,51.885,59.594,51.885,63.279L51.885,87.534L19.249,87.534C11.552,87.534,5.308,81.561,5.308,74.191L5.308,44.061C9.052,45.795,13.128,46.693,17.254,46.694ZM17.038,56.607C15.114,56.607,13.553,58.101,13.553,59.945L13.553,69.951C13.553,71.792,15.114,73.285,17.038,73.285L37.944,73.285C39.871,73.285,41.432,71.792,41.432,69.951L41.432,59.945C41.432,58.101,39.871,56.607,37.947,56.607L17.038,56.607ZM17.038,56.607"/>
  <path stroke-miterlimit="4" stroke-linecap="butt" fill-rule="nonzero" stroke="none" stroke-linejoin="miter" stroke-width="1px" stroke-dasharray="none" fill-opacity="1" stroke-opacity="1" fill="#000000" d="M17.254,38.353C22.9,38.353,27.91,36.001,31.059,32.365C34.206,36.001,39.218,38.353,44.865,38.353C50.508,38.353,55.518,36.001,58.667,32.365C61.817,36.001,66.826,38.353,72.47,38.353C82.002,38.353,89.726,31.647,89.726,23.378C89.726,19.384,86.275,6.958,72.47,2.164C51.053,-0.708,38.963,-0.736,17.254,2.164C3.451,6.958,0,19.384,0,23.378C0,31.647,7.728,38.353,17.254,38.353ZM17.254,38.353"/>
</g>
  <g id="Heavy-L" transform="matrix(1.0,0.0,0.0,1.0,2591.7874837700483,1476.1269205089636)">  <path fill-rule="evenodd" stroke="none" fill="#000000" stroke-dasharray="none" clip-rule="evenodd" stroke-miterlimit="4" fill-opacity="1" stroke-width="1px" stroke-linejoin="miter" stroke-linecap="butt" stroke-opacity="1" d="M17.254,46.694C22.26,46.694,27.014,45.416,31.059,43.134C35.279,45.486,40.034,46.712,44.865,46.694C49.695,46.712,54.448,45.486,58.667,43.134C62.886,45.486,67.64,46.712,72.47,46.694C76.598,46.693,80.676,45.794,84.422,44.058L84.422,74.191C84.422,80.81,79.391,86.3,72.793,87.353L72.793,63.276C72.793,59.594,69.671,56.607,65.822,56.607L58.852,56.607C55.003,56.607,51.885,59.594,51.885,63.279L51.885,87.534L19.249,87.534C11.552,87.534,5.308,81.561,5.308,74.191L5.308,44.061C9.052,45.795,13.128,46.693,17.254,46.694ZM17.038,56.607C15.114,56.607,13.553,58.101,13.553,59.945L13.553,69.951C13.553,71.792,15.114,73.285,17.038,73.285L37.944,73.285C39.871,73.285,41.432,71.792,41.432,69.951L41.432,59.945C41.432,58.101,39.871,56.607,37.947,56.607L17.038,56.607ZM17.038,56.607"/>
  <path stroke="none" stroke-linejoin="miter" fill-opacity="1" fill="#000000" stroke-width="1px" stroke-opacity="1" stroke-dasharray="none" stroke-miterlimit="4" stroke-linecap="butt" fill-rule="nonzero" d="M17.254,38.353C22.9,38.353,27.91,36.001,31.059,32.365C34.206,36.001,39.218,38.353,44.865,38.353C50.508,38.353,55.518,36.001,58.667,32.365C61.817,36.001,66.826,38.353,72.47,38.353C82.002,38.353,89.726,31.647,89.726,23.378C89.726,19.384,86.275,6.958,72.47,2.164C51.053,-0.708,38.963,-0.736,17.254,2.164C3.451,6.958,0,19.384,0,23.378C0,31.647,7.728,38.353,17.254,38.353ZM17.254,38.353"/>
</g>
  <g id="Bold-L" transform="matrix(1.0,0.0,0.0,1.0,2295.0774837700483,1476.1269205089636)">  <path stroke-opacity="1" fill-rule="evenodd" stroke-miterlimit="4" clip-rule="evenodd" stroke-dasharray="none" fill-opacity="1" fill="#000000" stroke-linecap="butt" stroke-linejoin="miter" stroke-width="1px" stroke="none" d="M17.254,46.694C22.26,46.694,27.014,45.416,31.059,43.134C35.279,45.486,40.034,46.712,44.865,46.694C49.695,46.712,54.448,45.486,58.667,43.134C62.886,45.486,67.64,46.712,72.47,46.694C76.598,46.693,80.676,45.794,84.422,44.058L84.422,74.191C84.422,80.81,79.391,86.3,72.793,87.353L72.793,63.276C72.793,59.594,69.671,56.607,65.822,56.607L58.852,56.607C55.003,56.607,51.885,59.594,51.885,63.279L51.885,87.534L19.249,87.534C11.552,87.534,5.308,81.561,5.308,74.191L5.308,44.061C9.052,45.795,13.128,46.693,17.254,46.694ZM17.038,56.607C15.114,56.607,13.553,58.101,13.553,59.945L13.553,69.951C13.553,71.792,15.114,73.285,17.038,73.285L37.944,73.285C39.871,73.285,41.432,71.792,41.432,69.951L41.432,59.945C41.432,58.101,39.871,56.607,37.947,56.607L17.038,56.607ZM17.038,56.607"/>
  <path stroke="none" stroke-dasharray="none" stroke-opacity="1" fill-rule="nonzero" stroke-linejoin="miter" stroke-linecap="butt" fill="#000000" stroke-width="1px" fill-opacity="1" stroke-miterlimit="4" d="M17.254,38.353C22.9,38.353,27.91,36.001,31.059,32.365C34.206,36.001,39.218,38.353,44.865,38.353C50.508,38.353,55.518,36.001,58.667,32.365C61.817,36.001,66.826,38.353,72.47,38.353C82.002,38.353,89.726,31.647,89.726,23.378C89.726,19.384,86.275,6.958,72.47,2.164C51.053,-0.708,38.963,-0.736,17.254,2.164C3.451,6.958,0,19.384,0,23.378C0,31.647,7.728,38.353,17.254,38.353ZM17.254,38.353"/>
</g>
  <g id="Semibold-L" transform="matrix(1.0,0.0,0.0,1.0,1998.3674837700485,1476.1269205089636)">  <path fill="#000000" stroke-linecap="butt" stroke-linejoin="miter" fill-rule="evenodd" fill-opacity="1" stroke="none" stroke-width="1px" clip-rule="evenodd" stroke-miterlimit="4" stroke-dasharray="none" stroke-opacity="1" d="M17.254,46.694C22.26,46.694,27.014,45.416,31.059,43.134C35.279,45.486,40.034,46.712,44.865,46.694C49.695,46.712,54.448,45.486,58.667,43.134C62.886,45.486,67.64,46.712,72.47,46.694C76.598,46.693,80.676,45.794,84.422,44.058L84.422,74.191C84.422,80.81,79.391,86.3,72.793,87.353L72.793,63.276C72.793,59.594,69.671,56.607,65.822,56.607L58.852,56.607C55.003,56.607,51.885,59.594,51.885,63.279L51.885,87.534L19.249,87.534C11.552,87.534,5.308,81.561,5.308,74.191L5.308,44.061C9.052,45.795,13.128,46.693,17.254,46.694ZM17.038,56.607C15.114,56.607,13.553,58.101,13.553,59.945L13.553,69.951C13.553,71.792,15.114,73.285,17.038,73.285L37.944,73.285C39.871,73.285,41.432,71.792,41.432,69.951L41.432,59.945C41.432,58.101,39.871,56.607,37.947,56.607L17.038,56.607ZM17.038,56.607"/>
  <path stroke-linecap="butt" fill="#000000" stroke-opacity="1" fill-opacity="1" stroke-linejoin="miter" fill-rule="nonzero" stroke-dasharray="none" stroke="none" stroke-miterlimit="4" stroke-width="1px" d="M17.254,38.353C22.9,38.353,27.91,36.001,31.059,32.365C34.206,36.001,39.218,38.353,44.865,38.353C50.508,38.353,55.518,36.001,58.667,32.365C61.817,36.001,66.826,38.353,72.47,38.353C82.002,38.353,89.726,31.647,89.726,23.378C89.726,19.384,86.275,6.958,72.47,2.164C51.053,-0.708,38.963,-0.736,17.254,2.164C3.451,6.958,0,19.384,0,23.378C0,31.647,7.728,38.353,17.254,38.353ZM17.254,38.353"/>
</g>
  <g id="Medium-L" transform="matrix(1.0,0.0,0.0,1.0,1701.6574837700484,1476.1269205089636)">  <path stroke-opacity="1" stroke-miterlimit="4" fill-rule="evenodd" fill-opacity="1" stroke-width="1px" stroke="none" stroke-linecap="butt" clip-rule="evenodd" stroke-linejoin="miter" fill="#000000" stroke-dasharray="none" d="M17.254,46.694C22.26,46.694,27.014,45.416,31.059,43.134C35.279,45.486,40.034,46.712,44.865,46.694C49.695,46.712,54.448,45.486,58.667,43.134C62.886,45.486,67.64,46.712,72.47,46.694C76.598,46.693,80.676,45.794,84.422,44.058L84.422,74.191C84.422,80.81,79.391,86.3,72.793,87.353L72.793,63.276C72.793,59.594,69.671,56.607,65.822,56.607L58.852,56.607C55.003,56.607,51.885,59.594,51.885,63.279L51.885,87.534L19.249,87.534C11.552,87.534,5.308,81.561,5.308,74.191L5.308,44.061C9.052,45.795,13.128,46.693,17.254,46.694ZM17.038,56.607C15.114,56.607,13.553,58.101,13.553,59.945L13.553,69.951C13.553,71.792,15.114,73.285,17.038,73.285L37.944,73.285C39.871,73.285,41.432,71.792,41.432,69.951L41.432,59.945C41.432,58.101,39.871,56.607,37.947,56.607L17.038,56.607ZM17.038,56.607"/>
  <path stroke="none" stroke-miterlimit="4" stroke-dasharray="none" fill-opacity="1" stroke-linejoin="miter" stroke-width="1px" stroke-opacity="1" fill-rule="nonzero" stroke-linecap="butt" fill="#000000" d="M17.254,38.353C22.9,38.353,27.91,36.001,31.059,32.365C34.206,36.001,39.218,38.353,44.865,38.353C50.508,38.353,55.518,36.001,58.667,32.365C61.817,36.001,66.826,38.353,72.47,38.353C82.002,38.353,89.726,31.647,89.726,23.378C89.726,19.384,86.275,6.958,72.47,2.164C51.053,-0.708,38.963,-0.736,17.254,2.164C3.451,6.958,0,19.384,0,23.378C0,31.647,7.728,38.353,17.254,38.353ZM17.254,38.353"/>
</g>
  <g id="Regular-L" transform="matrix(1.0,0.0,0.0,1.0,1404.9474837700484,1476.1269205089636)">  <path stroke="none" stroke-dasharray="none" stroke-width="1px" clip-rule="evenodd" fill="#000000" fill-rule="evenodd" fill-opacity="1" stroke-linecap="butt" stroke-opacity="1" stroke-miterlimit="4" stroke-linejoin="miter" d="M17.254,46.694C22.26,46.694,27.014,45.416,31.059,43.134C35.279,45.486,40.034,46.712,44.865,46.694C49.695,46.712,54.448,45.486,58.667,43.134C62.886,45.486,67.64,46.712,72.47,46.694C76.598,46.693,80.676,45.794,84.422,44.058L84.422,74.191C84.422,80.81,79.391,86.3,72.793,87.353L72.793,63.276C72.793,59.594,69.671,56.607,65.822,56.607L58.852,56.607C55.003,56.607,51.885,59.594,51.885,63.279L51.885,87.534L19.249,87.534C11.552,87.534,5.308,81.561,5.308,74.191L5.308,44.061C9.052,45.795,13.128,46.693,17.254,46.694ZM17.038,56.607C15.114,56.607,13.553,58.101,13.553,59.945L13.553,69.951C13.553,71.792,15.114,73.285,17.038,73.285L37.944,73.285C39.871,73.285,41.432,71.792,41.432,69.951L41.432,59.945C41.432,58.101,39.871,56.607,37.947,56.607L17.038,56.607ZM17.038,56.607"/>
  <path stroke-miterlimit="4" stroke="none" stroke-linecap="butt" stroke-opacity="1" stroke-width="1px" stroke-linejoin="miter" fill="#000000" fill-opacity="1" fill-rule="nonzero" stroke-dasharray="none" d="M17.254,38.353C22.9,38.353,27.91,36.001,31.059,32.365C34.206,36.001,39.218,38.353,44.865,38.353C50.508,38.353,55.518,36.001,58.667,32.365C61.817,36.001,66.826,38.353,72.47,38.353C82.002,38.353,89.726,31.647,89.726,23.378C89.726,19.384,86.275,6.958,72.47,2.164C51.053,-0.708,38.963,-0.736,17.254,2.164C3.451,6.958,0,19.384,0,23.378C0,31.647,7.728,38.353,17.254,38.353ZM17.254,38.353"/>
</g>
  <g id="Light-L" transform="matrix(1.0,0.0,0.0,1.0,1108.2374837700486,1476.1269205089636)">  <path fill-opacity="1" stroke-dasharray="none" stroke="none" fill-rule="evenodd" stroke-miterlimit="4" stroke-width="1px" fill="#000000" stroke-linejoin="miter" clip-rule="evenodd" stroke-opacity="1" stroke-linecap="butt" d="M17.254,46.694C22.26,46.694,27.014,45.416,31.059,43.134C35.279,45.486,40.034,46.712,44.865,46.694C49.695,46.712,54.448,45.486,58.667,43.134C62.886,45.486,67.64,46.712,72.47,46.694C76.598,46.693,80.676,45.794,84.422,44.058L84.422,74.191C84.422,80.81,79.391,86.3,72.793,87.353L72.793,63.276C72.793,59.594,69.671,56.607,65.822,56.607L58.852,56.607C55.003,56.607,51.885,59.594,51.885,63.279L51.885,87.534L19.249,87.534C11.552,87.534,5.308,81.561,5.308,74.191L5.308,44.061C9.052,45.795,13.128,46.693,17.254,46.694ZM17.038,56.607C15.114,56.607,13.553,58.101,13.553,59.945L13.553,69.951C13.553,71.792,15.114,73.285,17.038,73.285L37.944,73.285C39.871,73.285,41.432,71.792,41.432,69.951L41.432,59.945C41.432,58.101,39.871,56.607,37.947,56.607L17.038,56.607ZM17.038,56.607"/>
  <path stroke-miterlimit="4" fill-opacity="1" fill="#000000" stroke-opacity="1" stroke-linejoin="miter" stroke-width="1px" stroke="none" stroke-dasharray="none" fill-rule="nonzero" stroke-linecap="butt" d="M17.254,38.353C22.9,38.353,27.91,36.001,31.059,32.365C34.206,36.001,39.218,38.353,44.865,38.353C50.508,38.353,55.518,36.001,58.667,32.365C61.817,36.001,66.826,38.353,72.47,38.353C82.002,38.353,89.726,31.647,89.726,23.378C89.726,19.384,86.275,6.958,72.47,2.164C51.053,-0.708,38.963,-0.736,17.254,2.164C3.451,6.958,0,19.384,0,23.378C0,31.647,7.728,38.353,17.254,38.353ZM17.254,38.353"/>
</g>
  <g id="Thin-L" transform="matrix(1.0,0.0,0.0,1.0,811.5274837700487,1476.1269205089636)">  <path stroke-linejoin="miter" stroke-opacity="1" stroke-width="1px" fill-rule="evenodd" clip-rule="evenodd" stroke-dasharray="none" fill-opacity="1" stroke="none" stroke-miterlimit="4" fill="#000000" stroke-linecap="butt" d="M17.254,46.694C22.26,46.694,27.014,45.416,31.059,43.134C35.279,45.486,40.034,46.712,44.865,46.694C49.695,46.712,54.448,45.486,58.667,43.134C62.886,45.486,67.64,46.712,72.47,46.694C76.598,46.693,80.676,45.794,84.422,44.058L84.422,74.191C84.422,80.81,79.391,86.3,72.793,87.353L72.793,63.276C72.793,59.594,69.671,56.607,65.822,56.607L58.852,56.607C55.003,56.607,51.885,59.594,51.885,63.279L51.885,87.534L19.249,87.534C11.552,87.534,5.308,81.561,5.308,74.191L5.308,44.061C9.052,45.795,13.128,46.693,17.254,46.694ZM17.038,56.607C15.114,56.607,13.553,58.101,13.553,59.945L13.553,69.951C13.553,71.792,15.114,73.285,17.038,73.285L37.944,73.285C39.871,73.285,41.432,71.792,41.432,69.951L41.432,59.945C41.432,58.101,39.871,56.607,37.947,56.607L17.038,56.607ZM17.038,56.607"/>
  <path stroke-miterlimit="4" fill-rule="nonzero" stroke-dasharray="none" stroke="none" fill="#000000" fill-opacity="1" stroke-linecap="butt" stroke-opacity="1" stroke-linejoin="miter" stroke-width="1px" d="M17.254,38.353C22.9,38.353,27.91,36.001,31.059,32.365C34.206,36.001,39.218,38.353,44.865,38.353C50.508,38.353,55.518,36.001,58.667,32.365C61.817,36.001,66.826,38.353,72.47,38.353C82.002,38.353,89.726,31.647,89.726,23.378C89.726,19.384,86.275,6.958,72.47,2.164C51.053,-0.708,38.963,-0.736,17.254,2.164C3.451,6.958,0,19.384,0,23.378C0,31.647,7.728,38.353,17.254,38.353ZM17.254,38.353"/>
</g>
  <g id="Ultralight-L" transform="matrix(1.0,0.0,0.0,1.0,514.8174837700486,1476.1269205089636)">  <path stroke-opacity="1" fill="#000000" stroke-width="1px" fill-opacity="1" stroke-dasharray="none" clip-rule="evenodd" stroke-linejoin="miter" stroke="none" stroke-miterlimit="4" fill-rule="evenodd" stroke-linecap="butt" d="M17.254,46.694C22.26,46.694,27.014,45.416,31.059,43.134C35.279,45.486,40.034,46.712,44.865,46.694C49.695,46.712,54.448,45.486,58.667,43.134C62.886,45.486,67.64,46.712,72.47,46.694C76.598,46.693,80.676,45.794,84.422,44.058L84.422,74.191C84.422,80.81,79.391,86.3,72.793,87.353L72.793,63.276C72.793,59.594,69.671,56.607,65.822,56.607L58.852,56.607C55.003,56.607,51.885,59.594,51.885,63.279L51.885,87.534L19.249,87.534C11.552,87.534,5.308,81.561,5.308,74.191L5.308,44.061C9.052,45.795,13.128,46.693,17.254,46.694ZM17.038,56.607C15.114,56.607,13.553,58.101,13.553,59.945L13.553,69.951C13.553,71.792,15.114,73.285,17.038,73.285L37.944,73.285C39.871,73.285,41.432,71.792,41.432,69.951L41.432,59.945C41.432,58.101,39.871,56.607,37.947,56.607L17.038,56.607ZM17.038,56.607"/>
  <path stroke="none" stroke-linejoin="miter" fill-opacity="1" stroke-width="1px" fill="#000000" fill-rule="nonzero" stroke-opacity="1" stroke-dasharray="none" stroke-linecap="butt" stroke-miterlimit="4" d="M17.254,38.353C22.9,38.353,27.91,36.001,31.059,32.365C34.206,36.001,39.218,38.353,44.865,38.353C50.508,38.353,55.518,36.001,58.667,32.365C61.817,36.001,66.826,38.353,72.47,38.353C82.002,38.353,89.726,31.647,89.726,23.378C89.726,19.384,86.275,6.958,72.47,2.164C51.053,-0.708,38.963,-0.736,17.254,2.164C3.451,6.958,0,19.384,0,23.378C0,31.647,7.728,38.353,17.254,38.353ZM17.254,38.353"/>
</g>
  <g id="Black-M" transform="matrix(1.0,0.0,0.0,1.0,2898.879599821743,1056.1629660256017)">  <path stroke="none" clip-rule="evenodd" stroke-linejoin="miter" stroke-width="1px" fill="#000000" fill-opacity="1" stroke-opacity="1" stroke-dasharray="none" stroke-miterlimit="4" stroke-linecap="butt" fill-rule="evenodd" d="M13.375,36.197C17.256,36.197,20.941,35.206,24.077,33.438C27.348,35.261,31.034,36.211,34.779,36.197C38.523,36.211,42.208,35.26,45.478,33.438C48.749,35.26,52.434,36.211,56.178,36.197C59.378,36.196,62.54,35.499,65.443,34.154L65.443,57.512C65.443,62.644,61.543,66.899,56.429,67.715L56.429,49.051C56.429,46.197,54.008,43.882,51.025,43.882L45.622,43.882C42.638,43.882,40.221,46.197,40.221,49.054L40.221,67.856L14.922,67.856C8.955,67.856,4.115,63.226,4.115,57.512L4.115,34.156C7.017,35.5,10.177,36.196,13.375,36.197ZM13.208,43.882C11.716,43.882,10.506,45.039,10.506,46.469L10.506,54.226C10.506,55.653,11.716,56.81,13.208,56.81L29.414,56.81C30.908,56.81,32.118,55.653,32.118,54.226L32.118,46.469C32.118,45.039,30.908,43.882,29.416,43.882L13.208,43.882ZM13.208,43.882"/>
  <path stroke-miterlimit="4" stroke-linecap="butt" fill-rule="nonzero" stroke="none" stroke-linejoin="miter" stroke-width="1px" stroke-dasharray="none" fill-opacity="1" stroke-opacity="1" fill="#000000" d="M13.375,29.731C17.752,29.731,21.635,27.908,24.077,25.089C26.516,27.908,30.402,29.731,34.779,29.731C39.154,29.731,43.037,27.908,45.478,25.089C47.92,27.908,51.803,29.731,56.178,29.731C63.567,29.731,69.555,24.533,69.555,18.122C69.555,15.027,66.88,5.394,56.178,1.678C39.576,-0.549,30.204,-0.57,13.375,1.678C2.675,5.394,0,15.027,0,18.122C0,24.533,5.991,29.731,13.375,29.731ZM13.375,29.731"/>
</g>
  <g id="Heavy-M" transform="matrix(1.0,0.0,0.0,1.0,2602.169599821743,1056.1629660256017)">  <path fill-rule="evenodd" stroke="none" fill="#000000" stroke-dasharray="none" clip-rule="evenodd" stroke-miterlimit="4" fill-opacity="1" stroke-width="1px" stroke-linejoin="miter" stroke-linecap="butt" stroke-opacity="1" d="M13.375,36.197C17.256,36.197,20.941,35.206,24.077,33.438C27.348,35.261,31.034,36.211,34.779,36.197C38.523,36.211,42.208,35.26,45.478,33.438C48.749,35.26,52.434,36.211,56.178,36.197C59.378,36.196,62.54,35.499,65.443,34.154L65.443,57.512C65.443,62.644,61.543,66.899,56.429,67.715L56.429,49.051C56.429,46.197,54.008,43.882,51.025,43.882L45.622,43.882C42.638,43.882,40.221,46.197,40.221,49.054L40.221,67.856L14.922,67.856C8.955,67.856,4.115,63.226,4.115,57.512L4.115,34.156C7.017,35.5,10.177,36.196,13.375,36.197ZM13.208,43.882C11.716,43.882,10.506,45.039,10.506,46.469L10.506,54.226C10.506,55.653,11.716,56.81,13.208,56.81L29.414,56.81C30.908,56.81,32.118,55.653,32.118,54.226L32.118,46.469C32.118,45.039,30.908,43.882,29.416,43.882L13.208,43.882ZM13.208,43.882"/>
  <path stroke="none" stroke-linejoin="miter" fill-opacity="1" fill="#000000" stroke-width="1px" stroke-opacity="1" stroke-dasharray="none" stroke-miterlimit="4" stroke-linecap="butt" fill-rule="nonzero" d="M13.375,29.731C17.752,29.731,21.635,27.908,24.077,25.089C26.516,27.908,30.402,29.731,34.779,29.731C39.154,29.731,43.037,27.908,45.478,25.089C47.92,27.908,51.803,29.731,56.178,29.731C63.567,29.731,69.555,24.533,69.555,18.122C69.555,15.027,66.88,5.394,56.178,1.678C39.576,-0.549,30.204,-0.57,13.375,1.678C2.675,5.394,0,15.027,0,18.122C0,24.533,5.991,29.731,13.375,29.731ZM13.375,29.731"/>
</g>
  <g id="Bold-M" transform="matrix(1.0,0.0,0.0,1.0,2305.459599821743,1056.1629660256017)">  <path stroke-opacity="1" fill-rule="evenodd" stroke-miterlimit="4" clip-rule="evenodd" stroke-dasharray="none" fill-opacity="1" fill="#000000" stroke-linecap="butt" stroke-linejoin="miter" stroke-width="1px" stroke="none" d="M13.375,36.197C17.256,36.197,20.941,35.206,24.077,33.438C27.348,35.261,31.034,36.211,34.779,36.197C38.523,36.211,42.208,35.26,45.478,33.438C48.749,35.26,52.434,36.211,56.178,36.197C59.378,36.196,62.54,35.499,65.443,34.154L65.443,57.512C65.443,62.644,61.543,66.899,56.429,67.715L56.429,49.051C56.429,46.197,54.008,43.882,51.025,43.882L45.622,43.882C42.638,43.882,40.221,46.197,40.221,49.054L40.221,67.856L14.922,67.856C8.955,67.856,4.115,63.226,4.115,57.512L4.115,34.156C7.017,35.5,10.177,36.196,13.375,36.197ZM13.208,43.882C11.716,43.882,10.506,45.039,10.506,46.469L10.506,54.226C10.506,55.653,11.716,56.81,13.208,56.81L29.414,56.81C30.908,56.81,32.118,55.653,32.118,54.226L32.118,46.469C32.118,45.039,30.908,43.882,29.416,43.882L13.208,43.882ZM13.208,43.882"/>
  <path stroke="none" stroke-dasharray="none" stroke-opacity="1" fill-rule="nonzero" stroke-linejoin="miter" stroke-linecap="butt" fill="#000000" stroke-width="1px" fill-opacity="1" stroke-miterlimit="4" d="M13.375,29.731C17.752,29.731,21.635,27.908,24.077,25.089C26.516,27.908,30.402,29.731,34.779,29.731C39.154,29.731,43.037,27.908,45.478,25.089C47.92,27.908,51.803,29.731,56.178,29.731C63.567,29.731,69.555,24.533,69.555,18.122C69.555,15.027,66.88,5.394,56.178,1.678C39.576,-0.549,30.204,-0.57,13.375,1.678C2.675,5.394,0,15.027,0,18.122C0,24.533,5.991,29.731,13.375,29.731ZM13.375,29.731"/>
</g>
  <g id="Semibold-M" transform="matrix(1.0,0.0,0.0,1.0,2008.749599821743,1056.1629660256017)">  <path fill="#000000" stroke-linecap="butt" stroke-linejoin="miter" fill-rule="evenodd" fill-opacity="1" stroke="none" stroke-width="1px" clip-rule="evenodd" stroke-miterlimit="4" stroke-dasharray="none" stroke-opacity="1" d="M13.375,36.197C17.256,36.197,20.941,35.206,24.077,33.438C27.348,35.261,31.034,36.211,34.779,36.197C38.523,36.211,42.208,35.26,45.478,33.438C48.749,35.26,52.434,36.211,56.178,36.197C59.378,36.196,62.54,35.499,65.443,34.154L65.443,57.512C65.443,62.644,61.543,66.899,56.429,67.715L56.429,49.051C56.429,46.197,54.008,43.882,51.025,43.882L45.622,43.882C42.638,43.882,40.221,46.197,40.221,49.054L40.221,67.856L14.922,67.856C8.955,67.856,4.115,63.226,4.115,57.512L4.115,34.156C7.017,35.5,10.177,36.196,13.375,36.197ZM13.208,43.882C11.716,43.882,10.506,45.039,10.506,46.469L10.506,54.226C10.506,55.653,11.716,56.81,13.208,56.81L29.414,56.81C30.908,56.81,32.118,55.653,32.118,54.226L32.118,46.469C32.118,45.039,30.908,43.882,29.416,43.882L13.208,43.882ZM13.208,43.882"/>
  <path stroke-linecap="butt" fill="#000000" stroke-opacity="1" fill-opacity="1" stroke-linejoin="miter" fill-rule="nonzero" stroke-dasharray="none" stroke="none" stroke-miterlimit="4" stroke-width="1px" d="M13.375,29.731C17.752,29.731,21.635,27.908,24.077,25.089C26.516,27.908,30.402,29.731,34.779,29.731C39.154,29.731,43.037,27.908,45.478,25.089C47.92,27.908,51.803,29.731,56.178,29.731C63.567,29.731,69.555,24.533,69.555,18.122C69.555,15.027,66.88,5.394,56.178,1.678C39.576,-0.549,30.204,-0.57,13.375,1.678C2.675,5.394,0,15.027,0,18.122C0,24.533,5.991,29.731,13.375,29.731ZM13.375,29.731"/>
</g>
  <g id="Medium-M" transform="matrix(1.0,0.0,0.0,1.0,1712.039599821743,1056.1629660256017)">  <path stroke-opacity="1" stroke-miterlimit="4" fill-rule="evenodd" fill-opacity="1" stroke-width="1px" stroke="none" stroke-linecap="butt" clip-rule="evenodd" stroke-linejoin="miter" fill="#000000" stroke-dasharray="none" d="M13.375,36.197C17.256,36.197,20.941,35.206,24.077,33.438C27.348,35.261,31.034,36.211,34.779,36.197C38.523,36.211,42.208,35.26,45.478,33.438C48.749,35.26,52.434,36.211,56.178,36.197C59.378,36.196,62.54,35.499,65.443,34.154L65.443,57.512C65.443,62.644,61.543,66.899,56.429,67.715L56.429,49.051C56.429,46.197,54.008,43.882,51.025,43.882L45.622,43.882C42.638,43.882,40.221,46.197,40.221,49.054L40.221,67.856L14.922,67.856C8.955,67.856,4.115,63.226,4.115,57.512L4.115,34.156C7.017,35.5,10.177,36.196,13.375,36.197ZM13.208,43.882C11.716,43.882,10.506,45.039,10.506,46.469L10.506,54.226C10.506,55.653,11.716,56.81,13.208,56.81L29.414,56.81C30.908,56.81,32.118,55.653,32.118,54.226L32.118,46.469C32.118,45.039,30.908,43.882,29.416,43.882L13.208,43.882ZM13.208,43.882"/>
  <path stroke="none" stroke-miterlimit="4" stroke-dasharray="none" fill-opacity="1" stroke-linejoin="miter" stroke-width="1px" stroke-opacity="1" fill-rule="nonzero" stroke-linecap="butt" fill="#000000" d="M13.375,29.731C17.752,29.731,21.635,27.908,24.077,25.089C26.516,27.908,30.402,29.731,34.779,29.731C39.154,29.731,43.037,27.908,45.478,25.089C47.92,27.908,51.803,29.731,56.178,29.731C63.567,29.731,69.555,24.533,69.555,18.122C69.555,15.027,66.88,5.394,56.178,1.678C39.576,-0.549,30.204,-0.57,13.375,1.678C2.675,5.394,0,15.027,0,18.122C0,24.533,5.991,29.731,13.375,29.731ZM13.375,29.731"/>
</g>
  <g id="Regular-M" transform="matrix(1.0,0.0,0.0,1.0,1415.329599821743,1056.1629660256017)">  <path stroke="none" stroke-dasharray="none" stroke-width="1px" clip-rule="evenodd" fill="#000000" fill-rule="evenodd" fill-opacity="1" stroke-linecap="butt" stroke-opacity="1" stroke-miterlimit="4" stroke-linejoin="miter" d="M13.375,36.197C17.256,36.197,20.941,35.206,24.077,33.438C27.348,35.261,31.034,36.211,34.779,36.197C38.523,36.211,42.208,35.26,45.478,33.438C48.749,35.26,52.434,36.211,56.178,36.197C59.378,36.196,62.54,35.499,65.443,34.154L65.443,57.512C65.443,62.644,61.543,66.899,56.429,67.715L56.429,49.051C56.429,46.197,54.008,43.882,51.025,43.882L45.622,43.882C42.638,43.882,40.221,46.197,40.221,49.054L40.221,67.856L14.922,67.856C8.955,67.856,4.115,63.226,4.115,57.512L4.115,34.156C7.017,35.5,10.177,36.196,13.375,36.197ZM13.208,43.882C11.716,43.882,10.506,45.039,10.506,46.469L10.506,54.226C10.506,55.653,11.716,56.81,13.208,56.81L29.414,56.81C30.908,56.81,32.118,55.653,32.118,54.226L32.118,46.469C32.118,45.039,30.908,43.882,29.416,43.882L13.208,43.882ZM13.208,43.882"/>
  <path stroke-miterlimit="4" stroke="none" stroke-linecap="butt" stroke-opacity="1" stroke-width="1px" stroke-linejoin="miter" fill="#000000" fill-opacity="1" fill-rule="nonzero" stroke-dasharray="none" d="M13.375,29.731C17.752,29.731,21.635,27.908,24.077,25.089C26.516,27.908,30.402,29.731,34.779,29.731C39.154,29.731,43.037,27.908,45.478,25.089C47.92,27.908,51.803,29.731,56.178,29.731C63.567,29.731,69.555,24.533,69.555,18.122C69.555,15.027,66.88,5.394,56.178,1.678C39.576,-0.549,30.204,-0.57,13.375,1.678C2.675,5.394,0,15.027,0,18.122C0,24.533,5.991,29.731,13.375,29.731ZM13.375,29.731"/>
</g>
  <g id="Light-M" transform="matrix(1.0,0.0,0.0,1.0,1118.6195998217431,1056.1629660256017)">  <path fill-opacity="1" stroke-dasharray="none" stroke="none" fill-rule="evenodd" stroke-miterlimit="4" stroke-width="1px" fill="#000000" stroke-linejoin="miter" clip-rule="evenodd" stroke-opacity="1" stroke-linecap="butt" d="M13.375,36.197C17.256,36.197,20.941,35.206,24.077,33.438C27.348,35.261,31.034,36.211,34.779,36.197C38.523,36.211,42.208,35.26,45.478,33.438C48.749,35.26,52.434,36.211,56.178,36.197C59.378,36.196,62.54,35.499,65.443,34.154L65.443,57.512C65.443,62.644,61.543,66.899,56.429,67.715L56.429,49.051C56.429,46.197,54.008,43.882,51.025,43.882L45.622,43.882C42.638,43.882,40.221,46.197,40.221,49.054L40.221,67.856L14.922,67.856C8.955,67.856,4.115,63.226,4.115,57.512L4.115,34.156C7.017,35.5,10.177,36.196,13.375,36.197ZM13.208,43.882C11.716,43.882,10.506,45.039,10.506,46.469L10.506,54.226C10.506,55.653,11.716,56.81,13.208,56.81L29.414,56.81C30.908,56.81,32.118,55.653,32.118,54.226L32.118,46.469C32.118,45.039,30.908,43.882,29.416,43.882L13.208,43.882ZM13.208,43.882"/>
  <path stroke-miterlimit="4" fill-opacity="1" fill="#000000" stroke-opacity="1" stroke-linejoin="miter" stroke-width="1px" stroke="none" stroke-dasharray="none" fill-rule="nonzero" stroke-linecap="butt" d="M13.375,29.731C17.752,29.731,21.635,27.908,24.077,25.089C26.516,27.908,30.402,29.731,34.779,29.731C39.154,29.731,43.037,27.908,45.478,25.089C47.92,27.908,51.803,29.731,56.178,29.731C63.567,29.731,69.555,24.533,69.555,18.122C69.555,15.027,66.88,5.394,56.178,1.678C39.576,-0.549,30.204,-0.57,13.375,1.678C2.675,5.394,0,15.027,0,18.122C0,24.533,5.991,29.731,13.375,29.731ZM13.375,29.731"/>
</g>
  <g id="Thin-M" transform="matrix(1.0,0.0,0.0,1.0,821.9095998217431,1056.1629660256017)">  <path stroke-linejoin="miter" stroke-opacity="1" stroke-width="1px" fill-rule="evenodd" clip-rule="evenodd" stroke-dasharray="none" fill-opacity="1" stroke="none" stroke-miterlimit="4" fill="#000000" stroke-linecap="butt" d="M13.375,36.197C17.256,36.197,20.941,35.206,24.077,33.438C27.348,35.261,31.034,36.211,34.779,36.197C38.523,36.211,42.208,35.26,45.478,33.438C48.749,35.26,52.434,36.211,56.178,36.197C59.378,36.196,62.54,35.499,65.443,34.154L65.443,57.512C65.443,62.644,61.543,66.899,56.429,67.715L56.429,49.051C56.429,46.197,54.008,43.882,51.025,43.882L45.622,43.882C42.638,43.882,40.221,46.197,40.221,49.054L40.221,67.856L14.922,67.856C8.955,67.856,4.115,63.226,4.115,57.512L4.115,34.156C7.017,35.5,10.177,36.196,13.375,36.197ZM13.208,43.882C11.716,43.882,10.506,45.039,10.506,46.469L10.506,54.226C10.506,55.653,11.716,56.81,13.208,56.81L29.414,56.81C30.908,56.81,32.118,55.653,32.118,54.226L32.118,46.469C32.118,45.039,30.908,43.882,29.416,43.882L13.208,43.882ZM13.208,43.882"/>
  <path stroke-miterlimit="4" fill-rule="nonzero" stroke-dasharray="none" stroke="none" fill="#000000" fill-opacity="1" stroke-linecap="butt" stroke-opacity="1" stroke-linejoin="miter" stroke-width="1px" d="M13.375,29.731C17.752,29.731,21.635,27.908,24.077,25.089C26.516,27.908,30.402,29.731,34.779,29.731C39.154,29.731,43.037,27.908,45.478,25.089C47.92,27.908,51.803,29.731,56.178,29.731C63.567,29.731,69.555,24.533,69.555,18.122C69.555,15.027,66.88,5.394,56.178,1.678C39.576,-0.549,30.204,-0.57,13.375,1.678C2.675,5.394,0,15.027,0,18.122C0,24.533,5.991,29.731,13.375,29.731ZM13.375,29.731"/>
</g>
  <g id="Ultralight-M" transform="matrix(1.0,0.0,0.0,1.0,525.199599821743,1056.1629660256017)">  <path stroke-opacity="1" fill="#000000" stroke-width="1px" fill-opacity="1" stroke-dasharray="none" clip-rule="evenodd" stroke-linejoin="miter" stroke="none" stroke-miterlimit="4" fill-rule="evenodd" stroke-linecap="butt" d="M13.375,36.197C17.256,36.197,20.941,35.206,24.077,33.438C27.348,35.261,31.034,36.211,34.779,36.197C38.523,36.211,42.208,35.26,45.478,33.438C48.749,35.26,52.434,36.211,56.178,36.197C59.378,36.196,62.54,35.499,65.443,34.154L65.443,57.512C65.443,62.644,61.543,66.899,56.429,67.715L56.429,49.051C56.429,46.197,54.008,43.882,51.025,43.882L45.622,43.882C42.638,43.882,40.221,46.197,40.221,49.054L40.221,67.856L14.922,67.856C8.955,67.856,4.115,63.226,4.115,57.512L4.115,34.156C7.017,35.5,10.177,36.196,13.375,36.197ZM13.208,43.882C11.716,43.882,10.506,45.039,10.506,46.469L10.506,54.226C10.506,55.653,11.716,56.81,13.208,56.81L29.414,56.81C30.908,56.81,32.118,55.653,32.118,54.226L32.118,46.469C32.118,45.039,30.908,43.882,29.416,43.882L13.208,43.882ZM13.208,43.882"/>
  <path stroke="none" stroke-linejoin="miter" fill-opacity="1" stroke-width="1px" fill="#000000" fill-rule="nonzero" stroke-opacity="1" stroke-dasharray="none" stroke-linecap="butt" stroke-miterlimit="4" d="M13.375,29.731C17.752,29.731,21.635,27.908,24.077,25.089C26.516,27.908,30.402,29.731,34.779,29.731C39.154,29.731,43.037,27.908,45.478,25.089C47.92,27.908,51.803,29.731,56.178,29.731C63.567,29.731,69.555,24.533,69.555,18.122C69.555,15.027,66.88,5.394,56.178,1.678C39.576,-0.549,30.204,-0.57,13.375,1.678C2.675,5.394,0,15.027,0,18.122C0,24.533,5.991,29.731,13.375,29.731ZM13.375,29.731"/>
</g>
  <g id="Black-S" transform="matrix(1.0,0.0,0.0,1.0,2906.6482866604247,633.6726966363274)">  <path stroke="none" clip-rule="evenodd" stroke-linejoin="miter" stroke-width="1px" fill="#000000" fill-opacity="1" stroke-opacity="1" stroke-dasharray="none" stroke-miterlimit="4" stroke-linecap="butt" fill-rule="evenodd" d="M10.473,28.342C13.511,28.342,16.397,27.566,18.852,26.182C21.414,27.609,24.3,28.353,27.232,28.342C30.164,28.353,33.049,27.609,35.61,26.182C38.17,27.609,41.056,28.353,43.987,28.342C46.493,28.342,48.969,27.796,51.242,26.742L51.242,45.032C51.242,49.05,48.188,52.382,44.184,53.021L44.184,38.407C44.184,36.172,42.289,34.359,39.953,34.359L35.722,34.359C33.386,34.359,31.493,36.172,31.493,38.409L31.493,53.131L11.684,53.131C7.012,53.131,3.222,49.506,3.222,45.032L3.222,26.744C5.494,27.797,7.968,28.342,10.473,28.342ZM10.342,34.359C9.174,34.359,8.226,35.266,8.226,36.385L8.226,42.459C8.226,43.576,9.174,44.483,10.342,44.483L23.031,44.483C24.201,44.483,25.148,43.576,25.148,42.459L25.148,36.385C25.148,35.266,24.201,34.359,23.033,34.359L10.342,34.359ZM10.342,34.359"/>
  <path stroke-miterlimit="4" stroke-linecap="butt" fill-rule="nonzero" stroke="none" stroke-linejoin="miter" stroke-width="1px" stroke-dasharray="none" fill-opacity="1" stroke-opacity="1" fill="#000000" d="M10.473,23.279C13.9,23.279,16.94,21.852,18.852,19.645C20.762,21.852,23.805,23.279,27.232,23.279C30.657,23.279,33.698,21.852,35.61,19.645C37.521,21.852,40.562,23.279,43.987,23.279C49.773,23.279,54.462,19.209,54.462,14.19C54.462,11.766,52.367,4.223,43.987,1.314C30.988,-0.43,23.649,-0.447,10.473,1.314C2.095,4.223,0,11.766,0,14.19C0,19.209,4.691,23.279,10.473,23.279ZM10.473,23.279"/>
</g>
  <g id="Heavy-S" transform="matrix(1.0,0.0,0.0,1.0,2609.9382866604246,633.6726966363274)">  <path fill-rule="evenodd" stroke="none" fill="#000000" stroke-dasharray="none" clip-rule="evenodd" stroke-miterlimit="4" fill-opacity="1" stroke-width="1px" stroke-linejoin="miter" stroke-linecap="butt" stroke-opacity="1" d="M10.473,28.342C13.511,28.342,16.397,27.566,18.852,26.182C21.414,27.609,24.3,28.353,27.232,28.342C30.164,28.353,33.049,27.609,35.61,26.182C38.17,27.609,41.056,28.353,43.987,28.342C46.493,28.342,48.969,27.796,51.242,26.742L51.242,45.032C51.242,49.05,48.188,52.382,44.184,53.021L44.184,38.407C44.184,36.172,42.289,34.359,39.953,34.359L35.722,34.359C33.386,34.359,31.493,36.172,31.493,38.409L31.493,53.131L11.684,53.131C7.012,53.131,3.222,49.506,3.222,45.032L3.222,26.744C5.494,27.797,7.968,28.342,10.473,28.342ZM10.342,34.359C9.174,34.359,8.226,35.266,8.226,36.385L8.226,42.459C8.226,43.576,9.174,44.483,10.342,44.483L23.031,44.483C24.201,44.483,25.148,43.576,25.148,42.459L25.148,36.385C25.148,35.266,24.201,34.359,23.033,34.359L10.342,34.359ZM10.342,34.359"/>
  <path stroke="none" stroke-linejoin="miter" fill-opacity="1" fill="#000000" stroke-width="1px" stroke-opacity="1" stroke-dasharray="none" stroke-miterlimit="4" stroke-linecap="butt" fill-rule="nonzero" d="M10.473,23.279C13.9,23.279,16.94,21.852,18.852,19.645C20.762,21.852,23.805,23.279,27.232,23.279C30.657,23.279,33.698,21.852,35.61,19.645C37.521,21.852,40.562,23.279,43.987,23.279C49.773,23.279,54.462,19.209,54.462,14.19C54.462,11.766,52.367,4.223,43.987,1.314C30.988,-0.43,23.649,-0.447,10.473,1.314C2.095,4.223,0,11.766,0,14.19C0,19.209,4.691,23.279,10.473,23.279ZM10.473,23.279"/>
</g>
  <g id="Bold-S" transform="matrix(1.0,0.0,0.0,1.0,2313.2282866604246,633.6726966363274)">  <path stroke-opacity="1" fill-rule="evenodd" stroke-miterlimit="4" clip-rule="evenodd" stroke-dasharray="none" fill-opacity="1" fill="#000000" stroke-linecap="butt" stroke-linejoin="miter" stroke-width="1px" stroke="none" d="M10.473,28.342C13.511,28.342,16.397,27.566,18.852,26.182C21.414,27.609,24.3,28.353,27.232,28.342C30.164,28.353,33.049,27.609,35.61,26.182C38.17,27.609,41.056,28.353,43.987,28.342C46.493,28.342,48.969,27.796,51.242,26.742L51.242,45.032C51.242,49.05,48.188,52.382,44.184,53.021L44.184,38.407C44.184,36.172,42.289,34.359,39.953,34.359L35.722,34.359C33.386,34.359,31.493,36.172,31.493,38.409L31.493,53.131L11.684,53.131C7.012,53.131,3.222,49.506,3.222,45.032L3.222,26.744C5.494,27.797,7.968,28.342,10.473,28.342ZM10.342,34.359C9.174,34.359,8.226,35.266,8.226,36.385L8.226,42.459C8.226,43.576,9.174,44.483,10.342,44.483L23.031,44.483C24.201,44.483,25.148,43.576,25.148,42.459L25.148,36.385C25.148,35.266,24.201,34.359,23.033,34.359L10.342,34.359ZM10.342,34.359"/>
  <path stroke="none" stroke-dasharray="none" stroke-opacity="1" fill-rule="nonzero" stroke-linejoin="miter" stroke-linecap="butt" fill="#000000" stroke-width="1px" fill-opacity="1" stroke-miterlimit="4" d="M10.473,23.279C13.9,23.279,16.94,21.852,18.852,19.645C20.762,21.852,23.805,23.279,27.232,23.279C30.657,23.279,33.698,21.852,35.61,19.645C37.521,21.852,40.562,23.279,43.987,23.279C49.773,23.279,54.462,19.209,54.462,14.19C54.462,11.766,52.367,4.223,43.987,1.314C30.988,-0.43,23.649,-0.447,10.473,1.314C2.095,4.223,0,11.766,0,14.19C0,19.209,4.691,23.279,10.473,23.279ZM10.473,23.279"/>
</g>
  <g id="Semibold-S" transform="matrix(1.0,0.0,0.0,1.0,2016.5182866604248,633.6726966363274)">  <path fill="#000000" stroke-linecap="butt" stroke-linejoin="miter" fill-rule="evenodd" fill-opacity="1" stroke="none" stroke-width="1px" clip-rule="evenodd" stroke-miterlimit="4" stroke-dasharray="none" stroke-opacity="1" d="M10.473,28.342C13.511,28.342,16.397,27.566,18.852,26.182C21.414,27.609,24.3,28.353,27.232,28.342C30.164,28.353,33.049,27.609,35.61,26.182C38.17,27.609,41.056,28.353,43.987,28.342C46.493,28.342,48.969,27.796,51.242,26.742L51.242,45.032C51.242,49.05,48.188,52.382,44.184,53.021L44.184,38.407C44.184,36.172,42.289,34.359,39.953,34.359L35.722,34.359C33.386,34.359,31.493,36.172,31.493,38.409L31.493,53.131L11.684,53.131C7.012,53.131,3.222,49.506,3.222,45.032L3.222,26.744C5.494,27.797,7.968,28.342,10.473,28.342ZM10.342,34.359C9.174,34.359,8.226,35.266,8.226,36.385L8.226,42.459C8.226,43.576,9.174,44.483,10.342,44.483L23.031,44.483C24.201,44.483,25.148,43.576,25.148,42.459L25.148,36.385C25.148,35.266,24.201,34.359,23.033,34.359L10.342,34.359ZM10.342,34.359"/>
  <path stroke-linecap="butt" fill="#000000" stroke-opacity="1" fill-opacity="1" stroke-linejoin="miter" fill-rule="nonzero" stroke-dasharray="none" stroke="none" stroke-miterlimit="4" stroke-width="1px" d="M10.473,23.279C13.9,23.279,16.94,21.852,18.852,19.645C20.762,21.852,23.805,23.279,27.232,23.279C30.657,23.279,33.698,21.852,35.61,19.645C37.521,21.852,40.562,23.279,43.987,23.279C49.773,23.279,54.462,19.209,54.462,14.19C54.462,11.766,52.367,4.223,43.987,1.314C30.988,-0.43,23.649,-0.447,10.473,1.314C2.095,4.223,0,11.766,0,14.19C0,19.209,4.691,23.279,10.473,23.279ZM10.473,23.279"/>
</g>
  <g id="Medium-S" transform="matrix(1.0,0.0,0.0,1.0,1719.8082866604248,633.6726966363274)">  <path stroke-opacity="1" stroke-miterlimit="4" fill-rule="evenodd" fill-opacity="1" stroke-width="1px" stroke="none" stroke-linecap="butt" clip-rule="evenodd" stroke-linejoin="miter" fill="#000000" stroke-dasharray="none" d="M10.473,28.342C13.511,28.342,16.397,27.566,18.852,26.182C21.414,27.609,24.3,28.353,27.232,28.342C30.164,28.353,33.049,27.609,35.61,26.182C38.17,27.609,41.056,28.353,43.987,28.342C46.493,28.342,48.969,27.796,51.242,26.742L51.242,45.032C51.242,49.05,48.188,52.382,44.184,53.021L44.184,38.407C44.184,36.172,42.289,34.359,39.953,34.359L35.722,34.359C33.386,34.359,31.493,36.172,31.493,38.409L31.493,53.131L11.684,53.131C7.012,53.131,3.222,49.506,3.222,45.032L3.222,26.744C5.494,27.797,7.968,28.342,10.473,28.342ZM10.342,34.359C9.174,34.359,8.226,35.266,8.226,36.385L8.226,42.459C8.226,43.576,9.174,44.483,10.342,44.483L23.031,44.483C24.201,44.483,25.148,43.576,25.148,42.459L25.148,36.385C25.148,35.266,24.201,34.359,23.033,34.359L10.342,34.359ZM10.342,34.359"/>
  <path stroke="none" stroke-miterlimit="4" stroke-dasharray="none" fill-opacity="1" stroke-linejoin="miter" stroke-width="1px" stroke-opacity="1" fill-rule="nonzero" stroke-linecap="butt" fill="#000000" d="M10.473,23.279C13.9,23.279,16.94,21.852,18.852,19.645C20.762,21.852,23.805,23.279,27.232,23.279C30.657,23.279,33.698,21.852,35.61,19.645C37.521,21.852,40.562,23.279,43.987,23.279C49.773,23.279,54.462,19.209,54.462,14.19C54.462,11.766,52.367,4.223,43.987,1.314C30.988,-0.43,23.649,-0.447,10.473,1.314C2.095,4.223,0,11.766,0,14.19C0,19.209,4.691,23.279,10.473,23.279ZM10.473,23.279"/>
</g>
  <g id="Regular-S" transform="matrix(1.0,0.0,0.0,1.0,1423.0982866604247,633.6726966363274)">  <path stroke="none" stroke-dasharray="none" stroke-width="1px" clip-rule="evenodd" fill="#000000" fill-rule="evenodd" fill-opacity="1" stroke-linecap="butt" stroke-opacity="1" stroke-miterlimit="4" stroke-linejoin="miter" d="M10.473,28.342C13.511,28.342,16.397,27.566,18.852,26.182C21.414,27.609,24.3,28.353,27.232,28.342C30.164,28.353,33.049,27.609,35.61,26.182C38.17,27.609,41.056,28.353,43.987,28.342C46.493,28.342,48.969,27.796,51.242,26.742L51.242,45.032C51.242,49.05,48.188,52.382,44.184,53.021L44.184,38.407C44.184,36.172,42.289,34.359,39.953,34.359L35.722,34.359C33.386,34.359,31.493,36.172,31.493,38.409L31.493,53.131L11.684,53.131C7.012,53.131,3.222,49.506,3.222,45.032L3.222,26.744C5.494,27.797,7.968,28.342,10.473,28.342ZM10.342,34.359C9.174,34.359,8.226,35.266,8.226,36.385L8.226,42.459C8.226,43.576,9.174,44.483,10.342,44.483L23.031,44.483C24.201,44.483,25.148,43.576,25.148,42.459L25.148,36.385C25.148,35.266,24.201,34.359,23.033,34.359L10.342,34.359ZM10.342,34.359"/>
  <path stroke-miterlimit="4" stroke="none" stroke-linecap="butt" stroke-opacity="1" stroke-width="1px" stroke-linejoin="miter" fill="#000000" fill-opacity="1" fill-rule="nonzero" stroke-dasharray="none" d="M10.473,23.279C13.9,23.279,16.94,21.852,18.852,19.645C20.762,21.852,23.805,23.279,27.232,23.279C30.657,23.279,33.698,21.852,35.61,19.645C37.521,21.852,40.562,23.279,43.987,23.279C49.773,23.279,54.462,19.209,54.462,14.19C54.462,11.766,52.367,4.223,43.987,1.314C30.988,-0.43,23.649,-0.447,10.473,1.314C2.095,4.223,0,11.766,0,14.19C0,19.209,4.691,23.279,10.473,23.279ZM10.473,23.279"/>
</g>
  <g id="Light-S" transform="matrix(1.0,0.0,0.0,1.0,1126.388286660425,633.6726966363274)">  <path fill-opacity="1" stroke-dasharray="none" stroke="none" fill-rule="evenodd" stroke-miterlimit="4" stroke-width="1px" fill="#000000" stroke-linejoin="miter" clip-rule="evenodd" stroke-opacity="1" stroke-linecap="butt" d="M10.473,28.342C13.511,28.342,16.397,27.566,18.852,26.182C21.414,27.609,24.3,28.353,27.232,28.342C30.164,28.353,33.049,27.609,35.61,26.182C38.17,27.609,41.056,28.353,43.987,28.342C46.493,28.342,48.969,27.796,51.242,26.742L51.242,45.032C51.242,49.05,48.188,52.382,44.184,53.021L44.184,38.407C44.184,36.172,42.289,34.359,39.953,34.359L35.722,34.359C33.386,34.359,31.493,36.172,31.493,38.409L31.493,53.131L11.684,53.131C7.012,53.131,3.222,49.506,3.222,45.032L3.222,26.744C5.494,27.797,7.968,28.342,10.473,28.342ZM10.342,34.359C9.174,34.359,8.226,35.266,8.226,36.385L8.226,42.459C8.226,43.576,9.174,44.483,10.342,44.483L23.031,44.483C24.201,44.483,25.148,43.576,25.148,42.459L25.148,36.385C25.148,35.266,24.201,34.359,23.033,34.359L10.342,34.359ZM10.342,34.359"/>
  <path stroke-miterlimit="4" fill-opacity="1" fill="#000000" stroke-opacity="1" stroke-linejoin="miter" stroke-width="1px" stroke="none" stroke-dasharray="none" fill-rule="nonzero" stroke-linecap="butt" d="M10.473,23.279C13.9,23.279,16.94,21.852,18.852,19.645C20.762,21.852,23.805,23.279,27.232,23.279C30.657,23.279,33.698,21.852,35.61,19.645C37.521,21.852,40.562,23.279,43.987,23.279C49.773,23.279,54.462,19.209,54.462,14.19C54.462,11.766,52.367,4.223,43.987,1.314C30.988,-0.43,23.649,-0.447,10.473,1.314C2.095,4.223,0,11.766,0,14.19C0,19.209,4.691,23.279,10.473,23.279ZM10.473,23.279"/>
</g>
  <g id="Thin-S" transform="matrix(1.0,0.0,0.0,1.0,829.6782866604249,633.6726966363274)">  <path stroke-linejoin="miter" stroke-opacity="1" stroke-width="1px" fill-rule="evenodd" clip-rule="evenodd" stroke-dasharray="none" fill-opacity="1" stroke="none" stroke-miterlimit="4" fill="#000000" stroke-linecap="butt" d="M10.473,28.342C13.511,28.342,16.397,27.566,18.852,26.182C21.414,27.609,24.3,28.353,27.232,28.342C30.164,28.353,33.049,27.609,35.61,26.182C38.17,27.609,41.056,28.353,43.987,28.342C46.493,28.342,48.969,27.796,51.242,26.742L51.242,45.032C51.242,49.05,48.188,52.382,44.184,53.021L44.184,38.407C44.184,36.172,42.289,34.359,39.953,34.359L35.722,34.359C33.386,34.359,31.493,36.172,31.493,38.409L31.493,53.131L11.684,53.131C7.012,53.131,3.222,49.506,3.222,45.032L3.222,26.744C5.494,27.797,7.968,28.342,10.473,28.342ZM10.342,34.359C9.174,34.359,8.226,35.266,8.226,36.385L8.226,42.459C8.226,43.576,9.174,44.483,10.342,44.483L23.031,44.483C24.201,44.483,25.148,43.576,25.148,42.459L25.148,36.385C25.148,35.266,24.201,34.359,23.033,34.359L10.342,34.359ZM10.342,34.359"/>
  <path stroke-miterlimit="4" fill-rule="nonzero" stroke-dasharray="none" stroke="none" fill="#000000" fill-opacity="1" stroke-linecap="butt" stroke-opacity="1" stroke-linejoin="miter" stroke-width="1px" d="M10.473,23.279C13.9,23.279,16.94,21.852,18.852,19.645C20.762,21.852,23.805,23.279,27.232,23.279C30.657,23.279,33.698,21.852,35.61,19.645C37.521,21.852,40.562,23.279,43.987,23.279C49.773,23.279,54.462,19.209,54.462,14.19C54.462,11.766,52.367,4.223,43.987,1.314C30.988,-0.43,23.649,-0.447,10.473,1.314C2.095,4.223,0,11.766,0,14.19C0,19.209,4.691,23.279,10.473,23.279ZM10.473,23.279"/>
</g>
  <g id="Ultralight-S" transform="matrix(1.0,0.0,0.0,1.0,532.9682866604248,633.6726966363274)">  <path stroke-opacity="1" fill="#000000" stroke-width="1px" fill-opacity="1" stroke-dasharray="none" clip-rule="evenodd" stroke-linejoin="miter" stroke="none" stroke-miterlimit="4" fill-rule="evenodd" stroke-linecap="butt" d="M10.473,28.342C13.511,28.342,16.397,27.566,18.852,26.182C21.414,27.609,24.3,28.353,27.232,28.342C30.164,28.353,33.049,27.609,35.61,26.182C38.17,27.609,41.056,28.353,43.987,28.342C46.493,28.342,48.969,27.796,51.242,26.742L51.242,45.032C51.242,49.05,48.188,52.382,44.184,53.021L44.184,38.407C44.184,36.172,42.289,34.359,39.953,34.359L35.722,34.359C33.386,34.359,31.493,36.172,31.493,38.409L31.493,53.131L11.684,53.131C7.012,53.131,3.222,49.506,3.222,45.032L3.222,26.744C5.494,27.797,7.968,28.342,10.473,28.342ZM10.342,34.359C9.174,34.359,8.226,35.266,8.226,36.385L8.226,42.459C8.226,43.576,9.174,44.483,10.342,44.483L23.031,44.483C24.201,44.483,25.148,43.576,25.148,42.459L25.148,36.385C25.148,35.266,24.201,34.359,23.033,34.359L10.342,34.359ZM10.342,34.359"/>
  <path stroke="none" stroke-linejoin="miter" fill-opacity="1" stroke-width="1px" fill="#000000" fill-rule="nonzero" stroke-opacity="1" stroke-dasharray="none" stroke-linecap="butt" stroke-miterlimit="4" d="M10.473,23.279C13.9,23.279,16.94,21.852,18.852,19.645C20.762,21.852,23.805,23.279,27.232,23.279C30.657,23.279,33.698,21.852,35.61,19.645C37.521,21.852,40.562,23.279,43.987,23.279C49.773,23.279,54.462,19.209,54.462,14.19C54.462,11.766,52.367,4.223,43.987,1.314C30.988,-0.43,23.649,-0.447,10.473,1.314C2.095,4.223,0,11.766,0,14.19C0,19.209,4.691,23.279,10.473,23.279ZM10.473,23.279"/>
</g>
 </g>
</svg>
