<?xml version="1.0" encoding="UTF-8"?>
<!-- Generator: CustomSymbols v2.7.4.50 by @serious_bret https://bretlester.com/app_content/CustomSymbols/ -->
<!-- Guides: Left/Right -0.014/-0.014 Cap/Base 0.024/0.024 -->
<!-- Settings: RefScale 1.0 Min/Max Stroke Scales 0.5/2.21 -->
<!DOCTYPE svg
PUBLIC "-//W3C//DTD SVG 1.1//EN"
       "http://www.w3.org/Graphics/SVG/1.1/DTD/svg11.dtd">
<svg version="1.1" xmlns="http://www.w3.org/2000/svg" xmlns:xlink="http://www.w3.org/1999/xlink" width="3300" height="2200">
<![CDATA[<svg xmlns="http://www.w3.org/2000/svg" width="18" height="18" fill="none" viewBox="0 0 18 18">
  <path id="Cross" stroke="#000" stroke-linecap="round" stroke-linejoin="round" stroke-width="2.5" d="m16.25 1.25-15 15m0-15 15 15"/>
</svg>
]]>
 <g id="Notes">
  <rect height="2200" id="artboard" style="fill:white;opacity:1" width="3300" x="0" y="0"/>
  <line id="" style="fill:none;stroke:black;opacity:1;stroke-width:0.5;" x1="263" x2="3036" y1="292" y2="292"/>
  <text id="reftext1" style="stroke:none;fill:black;font-family:-apple-system,&quot;SF Pro Display&quot;,&quot;SF Pro Text&quot;,Helvetica,sans-serif;font-weight:bold;" transform="matrix(1 0 0 1 263 322)">Weight/Scale Variations</text>
  <text id="reftext2" style="stroke:none;fill:black;font-family:-apple-system,&quot;SF Pro Display&quot;,&quot;SF Pro Text&quot;,Helvetica,sans-serif;text-anchor:middle;" transform="matrix(1 0 0 1 559.711 322)">Ultralight</text>
  <text style="stroke:none;fill:black;font-family:-apple-system,&quot;SF Pro Display&quot;,&quot;SF Pro Text&quot;,Helvetica,sans-serif;text-anchor:middle;" transform="matrix(1 0 0 1 856.422 322)">Thin</text>
  <text style="stroke:none;fill:black;font-family:-apple-system,&quot;SF Pro Display&quot;,&quot;SF Pro Text&quot;,Helvetica,sans-serif;text-anchor:middle;" transform="matrix(1 0 0 1 1153.13 322)">Light</text>
  <text style="stroke:none;fill:black;font-family:-apple-system,&quot;SF Pro Display&quot;,&quot;SF Pro Text&quot;,Helvetica,sans-serif;text-anchor:middle;" transform="matrix(1 0 0 1 1449.84 322)">Regular</text>
  <text style="stroke:none;fill:black;font-family:-apple-system,&quot;SF Pro Display&quot;,&quot;SF Pro Text&quot;,Helvetica,sans-serif;text-anchor:middle;" transform="matrix(1 0 0 1 1746.56 322)">Medium</text>
  <text style="stroke:none;fill:black;font-family:-apple-system,&quot;SF Pro Display&quot;,&quot;SF Pro Text&quot;,Helvetica,sans-serif;text-anchor:middle;" transform="matrix(1 0 0 1 2043.27 322)">Semibold</text>
  <text style="stroke:none;fill:black;font-family:-apple-system,&quot;SF Pro Display&quot;,&quot;SF Pro Text&quot;,Helvetica,sans-serif;text-anchor:middle;" transform="matrix(1 0 0 1 2339.98 322)">Bold</text>
  <text style="stroke:none;fill:black;font-family:-apple-system,&quot;SF Pro Display&quot;,&quot;SF Pro Text&quot;,Helvetica,sans-serif;text-anchor:middle;" transform="matrix(1 0 0 1 2636.69 322)">Heavy</text>
  <text style="stroke:none;fill:black;font-family:-apple-system,&quot;SF Pro Display&quot;,&quot;SF Pro Text&quot;,Helvetica,sans-serif;text-anchor:middle;" transform="matrix(1 0 0 1 2933.4 322)">Black</text>
  <line id="" style="fill:none;stroke:black;opacity:1;stroke-width:0.5;" x1="263" x2="3036" y1="1903" y2="1903"/>
  <g id="" transform="matrix(1 0 0 1 263 1933)">
   <path d="M9.24805 0.830078C13.5547 0.830078 17.1387-2.74414 17.1387-7.05078C17.1387-11.3574 13.5449-14.9316 9.23828-14.9316C4.94141-14.9316 1.36719-11.3574 1.36719-7.05078C1.36719-2.74414 4.95117 0.830078 9.24805 0.830078ZM9.24805-0.654297C5.70312-0.654297 2.87109-3.49609 2.87109-7.05078C2.87109-10.6055 5.69336-13.4473 9.23828-13.4473C12.793-13.4473 15.6348-10.6055 15.6445-7.05078C15.6543-3.49609 12.8027-0.654297 9.24805-0.654297ZM6.39648-6.31836L8.50586-6.31836L8.50586-4.19922C8.50586-3.75977 8.79883-3.45703 9.22852-3.45703C9.67773-3.45703 9.9707-3.75977 9.9707-4.19922L9.9707-6.31836L12.0996-6.31836C12.5391-6.31836 12.8418-6.61133 12.8418-7.04102C12.8418-7.48047 12.5391-7.7832 12.0996-7.7832L9.9707-7.7832L9.9707-9.89258C9.9707-10.3418 9.67773-10.6445 9.22852-10.6445C8.79883-10.6445 8.50586-10.3418 8.50586-9.89258L8.50586-7.7832L6.39648-7.7832C5.94727-7.7832 5.64453-7.48047 5.64453-7.04102C5.64453-6.61133 5.94727-6.31836 6.39648-6.31836Z"/>
  </g>
  <g id="" transform="matrix(1 0 0 1 281.506 1933)">
   <path d="M11.709 2.91016C17.1582 2.91016 21.6699-1.61133 21.6699-7.05078C21.6699-12.5 17.1484-17.0117 11.6992-17.0117C6.25977-17.0117 1.74805-12.5 1.74805-7.05078C1.74805-1.61133 6.26953 2.91016 11.709 2.91016ZM11.709 1.25C7.09961 1.25 3.41797-2.44141 3.41797-7.05078C3.41797-11.6602 7.08984-15.3516 11.6992-15.3516C16.3086-15.3516 20-11.6602 20.0098-7.05078C20.0195-2.44141 16.3184 1.25 11.709 1.25ZM7.98828-6.23047L10.8789-6.23047L10.8789-3.32031C10.8789-2.83203 11.2109-2.5 11.6895-2.5C12.1777-2.5 12.5195-2.83203 12.5195-3.32031L12.5195-6.23047L15.4297-6.23047C15.918-6.23047 16.25-6.5625 16.25-7.04102C16.25-7.5293 15.918-7.87109 15.4297-7.87109L12.5195-7.87109L12.5195-10.7617C12.5195-11.2695 12.1777-11.6016 11.6895-11.6016C11.2109-11.6016 10.8789-11.2598 10.8789-10.7617L10.8789-7.87109L7.98828-7.87109C7.48047-7.87109 7.14844-7.5293 7.14844-7.04102C7.14844-6.5625 7.49023-6.23047 7.98828-6.23047Z"/>
  </g>
  <g id="" transform="matrix(1 0 0 1 304.924 1933)">
   <path d="M14.9707 5.66406C21.9336 5.66406 27.6953-0.0976562 27.6953-7.05078C27.6953-14.0137 21.9238-19.7754 14.9609-19.7754C8.00781-19.7754 2.25586-14.0137 2.25586-7.05078C2.25586-0.0976562 8.01758 5.66406 14.9707 5.66406ZM14.9707 3.84766C8.93555 3.84766 4.08203-1.01562 4.08203-7.05078C4.08203-13.0957 8.92578-17.9492 14.9609-17.9492C21.0059-17.9492 25.8594-13.0957 25.8691-7.05078C25.8789-1.01562 21.0156 3.84766 14.9707 3.84766ZM10.0586-6.14258L14.0625-6.14258L14.0625-2.12891C14.0625-1.5918 14.4336-1.2207 14.9512-1.2207C15.4883-1.2207 15.8594-1.5918 15.8594-2.12891L15.8594-6.14258L19.8828-6.14258C20.4102-6.14258 20.791-6.51367 20.791-7.03125C20.791-7.56836 20.4199-7.94922 19.8828-7.94922L15.8594-7.94922L15.8594-11.9531C15.8594-12.5098 15.4883-12.8809 14.9512-12.8809C14.4336-12.8809 14.0625-12.5 14.0625-11.9531L14.0625-7.94922L10.0586-7.94922C9.50195-7.94922 9.13086-7.56836 9.13086-7.03125C9.13086-6.51367 9.51172-6.14258 10.0586-6.14258Z"/>
  </g>
  <text style="stroke:none;fill:black;font-family:-apple-system,&quot;SF Pro Display&quot;,&quot;SF Pro Text&quot;,Helvetica,sans-serif;font-weight:bold;" transform="matrix(1 0 0 1 263 1953)">Design Variations</text>
  <text style="stroke:none;fill:black;font-family:-apple-system,&quot;SF Pro Display&quot;,&quot;SF Pro Text&quot;,Helvetica,sans-serif;" transform="matrix(1 0 0 1 263 1971)">Symbols are supported in up to nine weights and three scales.</text>
  <text style="stroke:none;fill:black;font-family:-apple-system,&quot;SF Pro Display&quot;,&quot;SF Pro Text&quot;,Helvetica,sans-serif;" transform="matrix(1 0 0 1 263 1989)">For optimal layout with text and other symbols, vertically align</text>
  <text style="stroke:none;fill:black;font-family:-apple-system,&quot;SF Pro Display&quot;,&quot;SF Pro Text&quot;,Helvetica,sans-serif;" transform="matrix(1 0 0 1 263 2007)">symbols with the adjacent text.</text>
  <line id="" style="fill:none;stroke:#00AEEF;stroke-width:0.5;opacity:1.0;" x1="776" x2="776" y1="1919" y2="1933"/>
  <g id="" transform="matrix(1 0 0 1 776 1933)">
   <path d="M3.31055 0.126953C3.82812 0.126953 4.08203-0.0683594 4.26758-0.605469L5.52734-4.0625L11.2891-4.0625L12.5488-0.605469C12.7344-0.0683594 12.9883 0.126953 13.4961 0.126953C14.0137 0.126953 14.3457-0.185547 14.3457-0.673828C14.3457-0.839844 14.3164-0.986328 14.2383-1.20117L9.6582-13.3887C9.43359-13.9941 9.0332-14.2871 8.4082-14.2871C7.80273-14.2871 7.39258-13.9941 7.17773-13.3984L2.59766-1.19141C2.51953-0.976562 2.49023-0.830078 2.49023-0.664062C2.49023-0.175781 2.80273 0.126953 3.31055 0.126953ZM6.00586-5.53711L8.37891-12.1094L8.42773-12.1094L10.8008-5.53711Z"/>
  </g>
  <line id="" style="fill:none;stroke:#00AEEF;stroke-width:0.5;opacity:1.0;" x1="792.836" x2="792.836" y1="1919" y2="1933"/>
  <text style="stroke:none;fill:black;font-family:-apple-system,&quot;SF Pro Display&quot;,&quot;SF Pro Text&quot;,Helvetica,sans-serif;font-weight:bold;" transform="matrix(1 0 0 1 776 1953)">Margins</text>
  <text style="stroke:none;fill:black;font-family:-apple-system,&quot;SF Pro Display&quot;,&quot;SF Pro Text&quot;,Helvetica,sans-serif;" transform="matrix(1 0 0 1 776 1971)">Leading and trailing margins on the left and right side of each symbol</text>
  <text style="stroke:none;fill:black;font-family:-apple-system,&quot;SF Pro Display&quot;,&quot;SF Pro Text&quot;,Helvetica,sans-serif;" transform="matrix(1 0 0 1 776 1989)">can be adjusted by modifying the x-location of the margin guidelines.</text>
  <text style="stroke:none;fill:black;font-family:-apple-system,&quot;SF Pro Display&quot;,&quot;SF Pro Text&quot;,Helvetica,sans-serif;" transform="matrix(1 0 0 1 776 2007)">Modifications are automatically applied proportionally to all</text>
  <text style="stroke:none;fill:black;font-family:-apple-system,&quot;SF Pro Display&quot;,&quot;SF Pro Text&quot;,Helvetica,sans-serif;" transform="matrix(1 0 0 1 776 2025)">scales and weights.</text>
  <g id="" transform="matrix(1 0 0 1 1289 1933)">
   <path d="M2.8418 1.86523L4.54102 3.57422C5.40039 4.44336 6.38672 4.38477 7.31445 3.35938L17.4902-7.85156C17.7539-7.76367 18.0273-7.7832 18.3398-7.8418L19.4043-8.03711L20.0684-7.36328L20.0293-6.80664C19.9902-6.30859 20.1172-5.92773 20.6055-5.44922L21.3672-4.70703C21.8457-4.22852 22.4609-4.19922 22.9297-4.66797L25.8398-7.58789C26.3086-8.05664 26.2891-8.65234 25.8105-9.13086L25.0391-9.89258C24.5605-10.3711 24.1895-10.5273 23.7109-10.4883L23.1348-10.4395L22.4902-11.0742L22.7344-12.1973C22.8613-12.7637 22.7051-13.2031 22.1191-13.7891L19.9219-15.9766C16.582-19.2969 12.1484-19.2188 9.25781-16.3281C8.83789-15.918 8.80859-15.3418 9.04297-14.9512C9.27734-14.5898 9.73633-14.3555 10.3809-14.5215C11.8457-14.8633 13.3691-14.9219 14.7949-13.9844L14.209-12.5293C14.0137-12.0508 13.9844-11.6504 14.1113-11.2891L3.04688-0.898438C2.06055 0.0195312 1.98242 0.996094 2.8418 1.86523ZM10.752-15.957C13.1836-17.7344 16.4746-17.4316 18.7012-15.2051L21.1328-12.793C21.3672-12.5586 21.4062-12.373 21.3379-12.0312L21.0156-10.5469L22.5195-9.0625L23.5059-9.12109C23.7598-9.13086 23.8379-9.11133 24.0332-8.91602L24.6094-8.33984L22.168-5.89844L21.5918-6.47461C21.3965-6.66992 21.3672-6.74805 21.377-7.01172L21.4453-7.98828L19.9512-9.47266L18.4277-9.21875C18.1055-9.15039 17.959-9.17969 17.7148-9.41406L15.7129-11.416C15.459-11.6504 15.4297-11.8164 15.5859-12.1875L16.4648-14.2773C14.9023-15.7324 12.8711-16.3574 10.8398-15.7617C10.6836-15.7227 10.625-15.8496 10.752-15.957ZM5.27344 2.30469L4.10156 1.14258C3.63281 0.683594 3.74023 0.341797 4.14062-0.0195312L14.9512-10.1953L16.416-8.71094L6.42578 2.27539C6.07422 2.67578 5.74219 2.77344 5.27344 2.30469Z"/>
  </g>
  <text style="stroke:none;fill:black;font-family:-apple-system,&quot;SF Pro Display&quot;,&quot;SF Pro Text&quot;,Helvetica,sans-serif;font-weight:bold;" transform="matrix(1 0 0 1 1289 1953)">Exporting</text>
  <text style="stroke:none;fill:black;font-family:-apple-system,&quot;SF Pro Display&quot;,&quot;SF Pro Text&quot;,Helvetica,sans-serif;" transform="matrix(1 0 0 1 1289 1971)">Symbols should be outlined when exporting to ensure the</text>
  <text style="stroke:none;fill:black;font-family:-apple-system,&quot;SF Pro Display&quot;,&quot;SF Pro Text&quot;,Helvetica,sans-serif;" transform="matrix(1 0 0 1 1289 1989)">design is preserved when submitting to Xcode.</text>
  <text id="template-version" style="stroke:none;fill:black;font-family:-apple-system,&quot;SF Pro Display&quot;,&quot;SF Pro Text&quot;,Helvetica,sans-serif;text-anchor:end;" transform="matrix(1 0 0 1 3036 1933)">Template v.2.0</text>
  <text style="stroke:none;fill:black;font-family:-apple-system,&quot;SF Pro Display&quot;,&quot;SF Pro Text&quot;,Helvetica,sans-serif;text-anchor:end;" transform="matrix(1 0 0 1 3036 1951)">Requires Xcode 12 or greater</text>
  <text style="stroke:none;fill:black;font-family:-apple-system,&quot;SF Pro Display&quot;,&quot;SF Pro Text&quot;,Helvetica,sans-serif;" transform="matrix(1 0 0 1 263 726)">Small</text>
  <text style="stroke:none;fill:black;font-family:-apple-system,&quot;SF Pro Display&quot;,&quot;SF Pro Text&quot;,Helvetica,sans-serif;" transform="matrix(1 0 0 1 263 1156)">Medium</text>
  <text style="stroke:none;fill:black;font-family:-apple-system,&quot;SF Pro Display&quot;,&quot;SF Pro Text&quot;,Helvetica,sans-serif;" transform="matrix(1 0 0 1 263 1586)">Large</text>
 </g>
 <g id="Guides">
  <g id="H-reference" style="fill:#27AAE1;stroke:none;" transform="matrix(1 0 0 1 339 696)">
   <path d="M0.976562 0L3.66211 0L12.9883-24.4629L45.752-24.4629L55.127 0L57.7637 0L30.6152-70.459L28.125-70.459ZM29.3457-67.1387L29.4434-67.1387L44.873-26.709L13.8672-26.709Z"/>
  </g>
  <line id="Baseline-S" style="fill:none;stroke:#27AAE1;opacity:1;stroke-width:0.5;" x1="263" x2="3036" y1="696" y2="696"/>
  <line id="Capline-S" style="fill:none;stroke:#27AAE1;opacity:1;stroke-width:0.5;" x1="263" x2="3036" y1="625.541" y2="625.541"/>
  <g id="H-reference" style="fill:#27AAE1;stroke:none;" transform="matrix(1 0 0 1 339 1126)">
   <path d="M0.976562 0L3.66211 0L12.9883-24.4629L45.752-24.4629L55.127 0L57.7637 0L30.6152-70.459L28.125-70.459ZM29.3457-67.1387L29.4434-67.1387L44.873-26.709L13.8672-26.709Z"/>
  </g>
  <line id="Baseline-M" style="fill:none;stroke:#27AAE1;opacity:1;stroke-width:0.5;" x1="263" x2="3036" y1="1126" y2="1126"/>
  <line id="Capline-M" style="fill:none;stroke:#27AAE1;opacity:1;stroke-width:0.5;" x1="263" x2="3036" y1="1055.54" y2="1055.54"/>
  <g id="H-reference" style="fill:#27AAE1;stroke:none;" transform="matrix(1 0 0 1 339 1556)">
   <path d="M0.976562 0L3.66211 0L12.9883-24.4629L45.752-24.4629L55.127 0L57.7637 0L30.6152-70.459L28.125-70.459ZM29.3457-67.1387L29.4434-67.1387L44.873-26.709L13.8672-26.709Z"/>
  </g>
  <line id="Baseline-L" style="fill:none;stroke:#27AAE1;opacity:1;stroke-width:0.5;" x1="263" x2="3036" y1="1556" y2="1556"/>
  <line id="Capline-L" style="fill:none;stroke:#27AAE1;opacity:1;stroke-width:0.5;" x1="263" x2="3036" y1="1485.54" y2="1485.54"/>
  <line id="left-margin" x1="1413.0875420988707" x2="1413.0875420988707" y1="1030.79" y2="1150.12" style="fill:none;stroke:#00AEEF;stroke-width:0.5;opacity:1.0;"/>
  <line id="right-margin" x1="1489.172457901129" x2="1489.172457901129" y1="1030.79" y2="1150.12" style="fill:none;stroke:#00AEEF;stroke-width:0.5;opacity:1.0;"/>
 </g>
 <g id="Symbols">
  <g id="Black-L" transform="matrix(1.0,0.0,0.0,1.0,2886.9418962135633,1473.0319157448137)">  <path stroke-linecap="round" stroke-opacity="1" fill-opacity="1" stroke-width="2.5px" fill-rule="nonzero" stroke-dasharray="none" fill="#000000" stroke="none" stroke-miterlimit="4" stroke-linejoin="round" d="M75.833,-3.731L-3.731,75.833C-9.453,81.555,-9.453,90.833,-3.731,96.555C1.991,102.277,11.269,102.277,16.991,96.555L96.555,16.991C102.277,11.269,102.277,1.991,96.555,-3.731C90.833,-9.453,81.555,-9.453,75.833,-3.731ZM-3.731,16.991L75.833,96.555C81.555,102.277,90.833,102.277,96.555,96.555C102.277,90.833,102.277,81.555,96.555,75.833L16.991,-3.731C11.269,-9.453,1.991,-9.453,-3.731,-3.731C-9.453,1.991,-9.453,11.269,-3.731,16.991Z"/>
</g>
  <g id="Heavy-L" transform="matrix(1.0,0.0,0.0,1.0,2590.2318962135632,1473.0319157448137)">  <path stroke-miterlimit="4" fill-rule="nonzero" fill-opacity="1" stroke-opacity="1" stroke-width="2.5px" stroke-linejoin="round" fill="#000000" stroke-dasharray="none" stroke-linecap="round" stroke="none" d="M76.967,-2.596L-2.596,76.967C-7.692,82.063,-7.692,90.325,-2.596,95.42C2.499,100.516,10.761,100.516,15.857,95.42L95.42,15.857C100.516,10.761,100.516,2.499,95.42,-2.596C90.325,-7.692,82.063,-7.692,76.967,-2.596ZM-2.596,15.857L76.967,95.42C82.063,100.516,90.325,100.516,95.42,95.42C100.516,90.325,100.516,82.063,95.42,76.967L15.857,-2.596C10.761,-7.692,2.499,-7.692,-2.596,-2.596C-7.692,2.499,-7.692,10.761,-2.596,15.857Z"/>
</g>
  <g id="Bold-L" transform="matrix(1.0,0.0,0.0,1.0,2293.521896213563,1473.0319157448137)">  <path stroke-linejoin="round" stroke="none" stroke-opacity="1" fill-rule="nonzero" fill-opacity="1" stroke-linecap="round" stroke-width="2.5px" fill="#000000" stroke-dasharray="none" stroke-miterlimit="4" d="M78.102,-1.462L-1.462,78.102C-5.931,82.571,-5.931,89.817,-1.462,94.286C3.007,98.755,10.253,98.755,14.722,94.286L94.286,14.722C98.755,10.253,98.755,3.007,94.286,-1.462C89.817,-5.931,82.571,-5.931,78.102,-1.462ZM-1.462,14.722L78.102,94.286C82.571,98.755,89.817,98.755,94.286,94.286C98.755,89.817,98.755,82.571,94.286,78.102L14.722,-1.462C10.253,-5.931,3.007,-5.931,-1.462,-1.462C-5.931,3.007,-5.931,10.253,-1.462,14.722Z"/>
</g>
  <g id="Semibold-L" transform="matrix(1.0,0.0,0.0,1.0,1996.8118962135636,1473.0319157448137)">  <path stroke-miterlimit="4" stroke-width="2.5px" stroke-dasharray="none" fill="#000000" stroke-linecap="round" stroke-opacity="1" stroke-linejoin="round" fill-rule="nonzero" stroke="none" fill-opacity="1" d="M79.236,-0.327L-0.327,79.236C-4.17,83.079,-4.17,89.309,-0.327,93.151C3.515,96.994,9.745,96.994,13.588,93.151L93.151,13.588C96.994,9.745,96.994,3.515,93.151,-0.327C89.309,-4.17,83.079,-4.17,79.236,-0.327ZM-0.327,13.588L79.236,93.151C83.079,96.994,89.309,96.994,93.151,93.151C96.994,89.309,96.994,83.079,93.151,79.236L13.588,-0.327C9.745,-4.17,3.515,-4.17,-0.327,-0.327C-4.17,3.515,-4.17,9.745,-0.327,13.588Z"/>
</g>
  <g id="Medium-L" transform="matrix(1.0,0.0,0.0,1.0,1700.1018962135636,1473.0319157448137)">  <path fill-opacity="1" stroke-linejoin="round" stroke-dasharray="none" stroke="none" stroke-miterlimit="4" fill-rule="nonzero" stroke-width="2.5px" stroke-opacity="1" stroke-linecap="round" fill="#000000" d="M80.371,0.807L0.807,80.371C-2.409,83.587,-2.409,88.801,0.807,92.017C4.023,95.233,9.237,95.233,12.453,92.017L92.017,12.453C95.233,9.237,95.233,4.023,92.017,0.807C88.801,-2.409,83.587,-2.409,80.371,0.807ZM0.807,12.453L80.371,92.017C83.587,95.233,88.801,95.233,92.017,92.017C95.233,88.801,95.233,83.587,92.017,80.371L12.453,0.807C9.237,-2.409,4.023,-2.409,0.807,0.807C-2.409,4.023,-2.409,9.237,0.807,12.453Z"/>
</g>
  <g id="Regular-L" transform="matrix(1.0,0.0,0.0,1.0,1403.3918962135635,1473.0319157448137)">  <path stroke-opacity="1" stroke="none" fill-rule="nonzero" fill-opacity="1" stroke-width="2.5px" stroke-linecap="round" fill="#000000" stroke-linejoin="round" stroke-miterlimit="4" stroke-dasharray="none" d="M81.505,1.942L1.942,81.505C-0.647,84.095,-0.647,88.293,1.942,90.882C4.531,93.471,8.729,93.471,11.319,90.882L90.882,11.319C93.471,8.729,93.471,4.531,90.882,1.942C88.293,-0.647,84.095,-0.647,81.505,1.942ZM1.942,11.319L81.505,90.882C84.095,93.471,88.293,93.471,90.882,90.882C93.471,88.293,93.471,84.095,90.882,81.505L11.319,1.942C8.729,-0.647,4.531,-0.647,1.942,1.942C-0.647,4.531,-0.647,8.729,1.942,11.319Z"/>
</g>
  <g id="Light-L" transform="matrix(1.0,0.0,0.0,1.0,1106.6818962135637,1473.0319157448137)">  <path stroke-linejoin="round" stroke-linecap="round" fill-opacity="1" fill="#000000" fill-rule="nonzero" stroke-width="2.5px" stroke-dasharray="none" stroke-miterlimit="4" stroke-opacity="1" stroke="none" d="M82.287,2.723L2.723,82.287C0.566,84.445,0.566,87.943,2.723,90.101C4.881,92.258,8.379,92.258,10.537,90.101L90.101,10.537C92.258,8.379,92.258,4.881,90.101,2.723C87.943,0.566,84.445,0.566,82.287,2.723ZM2.723,10.537L82.287,90.101C84.445,92.258,87.943,92.258,90.101,90.101C92.258,87.943,92.258,84.445,90.101,82.287L10.537,2.723C8.379,0.566,4.881,0.566,2.723,2.723C0.566,4.881,0.566,8.379,2.723,10.537Z"/>
</g>
  <g id="Thin-L" transform="matrix(1.0,0.0,0.0,1.0,809.9718962135636,1473.0319157448137)">  <path stroke="none" stroke-opacity="1" stroke-linecap="round" fill-rule="nonzero" fill-opacity="1" stroke-miterlimit="4" stroke-width="2.5px" stroke-linejoin="round" stroke-dasharray="none" fill="#000000" d="M83.068,3.505L3.505,83.068C1.779,84.794,1.779,87.593,3.505,89.319C5.231,91.046,8.03,91.046,9.756,89.319L89.319,9.756C91.046,8.03,91.046,5.231,89.319,3.505C87.593,1.779,84.794,1.779,83.068,3.505ZM3.505,9.756L83.068,89.319C84.794,91.046,87.593,91.046,89.319,89.319C91.046,87.593,91.046,84.794,89.319,83.068L9.756,3.505C8.03,1.779,5.231,1.779,3.505,3.505C1.779,5.231,1.779,8.03,3.505,9.756Z"/>
</g>
  <g id="Ultralight-L" transform="matrix(1.0,0.0,0.0,1.0,513.2618962135635,1473.0319157448137)">  <path stroke-linecap="round" stroke-opacity="1" fill-rule="nonzero" stroke-linejoin="round" stroke-miterlimit="4" stroke-dasharray="none" stroke="none" fill-opacity="1" fill="#000000" stroke-width="2.5px" d="M83.85,4.286L4.286,83.85C2.991,85.144,2.991,87.243,4.286,88.538C5.581,89.833,7.68,89.833,8.974,88.538L88.538,8.974C89.833,7.68,89.833,5.581,88.538,4.286C87.243,2.991,85.144,2.991,83.85,4.286ZM4.286,8.974L83.85,88.538C85.144,89.833,87.243,89.833,88.538,88.538C89.833,87.243,89.833,85.144,88.538,83.85L8.974,4.286C7.68,2.991,5.581,2.991,4.286,4.286C2.991,5.581,2.991,7.68,4.286,8.974Z"/>
</g>
  <g id="Black-M" transform="matrix(1.0,0.0,0.0,1.0,2897.6737179950105,1053.7637375262605)">  <path stroke-linecap="round" stroke-opacity="1" fill-opacity="1" stroke-width="2.5px" fill-rule="nonzero" stroke-dasharray="none" fill="#000000" stroke="none" stroke-miterlimit="4" stroke-linejoin="round" d="M58.785,-2.892L-2.892,58.785C-7.328,63.221,-7.328,70.413,-2.892,74.849C1.544,79.285,8.736,79.285,13.172,74.849L74.849,13.172C79.285,8.736,79.285,1.544,74.849,-2.892C70.413,-7.328,63.221,-7.328,58.785,-2.892ZM-2.892,13.172L58.785,74.849C63.221,79.285,70.413,79.285,74.849,74.849C79.285,70.413,79.285,63.221,74.849,58.785L13.172,-2.892C8.736,-7.328,1.544,-7.328,-2.892,-2.892C-7.328,1.544,-7.328,8.736,-2.892,13.172Z"/>
</g>
  <g id="Heavy-M" transform="matrix(1.0,0.0,0.0,1.0,2600.9637179950105,1053.7637375262605)">  <path stroke-miterlimit="4" fill-rule="nonzero" fill-opacity="1" stroke-opacity="1" stroke-width="2.5px" stroke-linejoin="round" fill="#000000" stroke-dasharray="none" stroke-linecap="round" stroke="none" d="M59.664,-2.013L-2.013,59.664C-5.963,63.615,-5.963,70.019,-2.013,73.969C1.938,77.919,8.342,77.919,12.292,73.969L73.969,12.292C77.919,8.342,77.919,1.938,73.969,-2.013C70.019,-5.963,63.615,-5.963,59.664,-2.013ZM-2.013,12.292L59.664,73.969C63.615,77.919,70.019,77.919,73.969,73.969C77.919,70.019,77.919,63.615,73.969,59.664L12.292,-2.013C8.342,-5.963,1.938,-5.963,-2.013,-2.013C-5.963,1.938,-5.963,8.342,-2.013,12.292Z"/>
</g>
  <g id="Bold-M" transform="matrix(1.0,0.0,0.0,1.0,2304.2537179950104,1053.7637375262605)">  <path stroke-linejoin="round" stroke="none" stroke-opacity="1" fill-rule="nonzero" fill-opacity="1" stroke-linecap="round" stroke-width="2.5px" fill="#000000" stroke-dasharray="none" stroke-miterlimit="4" d="M60.544,-1.133L-1.133,60.544C-4.598,64.008,-4.598,69.625,-1.133,73.09C2.331,76.554,7.948,76.554,11.413,73.09L73.09,11.413C76.554,7.948,76.554,2.331,73.09,-1.133C69.625,-4.598,64.008,-4.598,60.544,-1.133ZM-1.133,11.413L60.544,73.09C64.008,76.554,69.625,76.554,73.09,73.09C76.554,69.625,76.554,64.008,73.09,60.544L11.413,-1.133C7.948,-4.598,2.331,-4.598,-1.133,-1.133C-4.598,2.331,-4.598,7.948,-1.133,11.413Z"/>
</g>
  <g id="Semibold-M" transform="matrix(1.0,0.0,0.0,1.0,2007.5437179950104,1053.7637375262605)">  <path stroke-miterlimit="4" stroke-width="2.5px" stroke-dasharray="none" fill="#000000" stroke-linecap="round" stroke-opacity="1" stroke-linejoin="round" fill-rule="nonzero" stroke="none" fill-opacity="1" d="M61.424,-0.254L-0.254,61.424C-3.232,64.402,-3.232,69.232,-0.254,72.21C2.725,75.189,7.554,75.189,10.533,72.21L72.21,10.533C75.189,7.554,75.189,2.725,72.21,-0.254C69.232,-3.232,64.402,-3.232,61.424,-0.254ZM-0.254,10.533L61.424,72.21C64.402,75.189,69.232,75.189,72.21,72.21C75.189,69.232,75.189,64.402,72.21,61.424L10.533,-0.254C7.554,-3.232,2.725,-3.232,-0.254,-0.254C-3.232,2.725,-3.232,7.554,-0.254,10.533Z"/>
</g>
  <g id="Medium-M" transform="matrix(1.0,0.0,0.0,1.0,1710.8337179950104,1053.7637375262605)">  <path fill-opacity="1" stroke-linejoin="round" stroke-dasharray="none" stroke="none" stroke-miterlimit="4" fill-rule="nonzero" stroke-width="2.5px" stroke-opacity="1" stroke-linecap="round" fill="#000000" d="M62.303,0.626L0.626,62.303C-1.867,64.796,-1.867,68.838,0.626,71.331C3.119,73.824,7.161,73.824,9.654,71.331L71.331,9.654C73.824,7.161,73.824,3.119,71.331,0.626C68.838,-1.867,64.796,-1.867,62.303,0.626ZM0.626,9.654L62.303,71.331C64.796,73.824,68.838,73.824,71.331,71.331C73.824,68.838,73.824,64.796,71.331,62.303L9.654,0.626C7.161,-1.867,3.119,-1.867,0.626,0.626C-1.867,3.119,-1.867,7.161,0.626,9.654Z"/>
</g>
  <g id="Regular-M" transform="matrix(1.0,0.0,0.0,1.0,1414.1237179950103,1053.7637375262605)">  <path stroke-opacity="1" stroke="none" fill-rule="nonzero" fill-opacity="1" stroke-width="2.5px" stroke-linecap="round" fill="#000000" stroke-linejoin="round" stroke-miterlimit="4" stroke-dasharray="none" d="M63.183,1.505L1.505,63.183C-0.502,65.19,-0.502,68.444,1.505,70.451C3.513,72.458,6.767,72.458,8.774,70.451L70.451,8.774C72.458,6.767,72.458,3.513,70.451,1.505C68.444,-0.502,65.19,-0.502,63.183,1.505ZM1.505,8.774L63.183,70.451C65.19,72.458,68.444,72.458,70.451,70.451C72.458,68.444,72.458,65.19,70.451,63.183L8.774,1.505C6.767,-0.502,3.513,-0.502,1.505,1.505C-0.502,3.513,-0.502,6.767,1.505,8.774Z"/>
</g>
  <g id="Light-M" transform="matrix(1.0,0.0,0.0,1.0,1117.4137179950105,1053.7637375262605)">  <path stroke-linejoin="round" stroke-linecap="round" fill-opacity="1" fill="#000000" fill-rule="nonzero" stroke-width="2.5px" stroke-dasharray="none" stroke-miterlimit="4" stroke-opacity="1" stroke="none" d="M63.788,2.111L2.111,63.788C0.438,65.461,0.438,68.173,2.111,69.846C3.784,71.518,6.496,71.518,8.168,69.846L69.846,8.168C71.518,6.496,71.518,3.784,69.846,2.111C68.173,0.438,65.461,0.438,63.788,2.111ZM2.111,8.168L63.788,69.846C65.461,71.518,68.173,71.518,69.846,69.846C71.518,68.173,71.518,65.461,69.846,63.788L8.168,2.111C6.496,0.438,3.784,0.438,2.111,2.111C0.438,3.784,0.438,6.496,2.111,8.168Z"/>
</g>
  <g id="Thin-M" transform="matrix(1.0,0.0,0.0,1.0,820.7037179950105,1053.7637375262605)">  <path stroke="none" stroke-opacity="1" stroke-linecap="round" fill-rule="nonzero" fill-opacity="1" stroke-miterlimit="4" stroke-width="2.5px" stroke-linejoin="round" stroke-dasharray="none" fill="#000000" d="M64.394,2.717L2.717,64.394C1.379,65.732,1.379,67.902,2.717,69.24C4.055,70.578,6.225,70.578,7.563,69.24L69.24,7.563C70.578,6.225,70.578,4.055,69.24,2.717C67.902,1.379,65.732,1.379,64.394,2.717ZM2.717,7.563L64.394,69.24C65.732,70.578,67.902,70.578,69.24,69.24C70.578,67.902,70.578,65.732,69.24,64.394L7.563,2.717C6.225,1.379,4.055,1.379,2.717,2.717C1.379,4.055,1.379,6.225,2.717,7.563Z"/>
</g>
  <g id="Ultralight-M" transform="matrix(1.0,0.0,0.0,1.0,523.9937179950105,1053.7637375262605)">  <path stroke-linecap="round" stroke-opacity="1" fill-rule="nonzero" stroke-linejoin="round" stroke-miterlimit="4" stroke-dasharray="none" stroke="none" fill-opacity="1" fill="#000000" stroke-width="2.5px" d="M65,3.323L3.323,65C2.319,66.003,2.319,67.63,3.323,68.634C4.326,69.638,5.953,69.638,6.957,68.634L68.634,6.957C69.638,5.953,69.638,4.326,68.634,3.323C67.63,2.319,66.003,2.319,65,3.323ZM3.323,6.957L65,68.634C66.003,69.638,67.63,69.638,68.634,68.634C69.638,67.63,69.638,66.003,68.634,65L6.957,3.323C5.953,2.319,4.326,2.319,3.323,3.323C2.319,4.326,2.319,5.953,3.323,6.957Z"/>
</g>
  <g id="Black-S" transform="matrix(1.0,0.0,0.0,1.0,2905.704081190093,631.7941007213432)">  <path stroke-linecap="round" stroke-opacity="1" fill-opacity="1" stroke-width="2.5px" fill-rule="nonzero" stroke-dasharray="none" fill="#000000" stroke="none" stroke-miterlimit="4" stroke-linejoin="round" d="M46.029,-2.265L-2.265,46.029C-5.738,49.502,-5.738,55.133,-2.265,58.607C1.209,62.08,6.84,62.08,10.313,58.607L58.607,10.313C62.08,6.84,62.08,1.209,58.607,-2.265C55.133,-5.738,49.502,-5.738,46.029,-2.265ZM-2.265,10.313L46.029,58.607C49.502,62.08,55.133,62.08,58.607,58.607C62.08,55.133,62.08,49.502,58.607,46.029L10.313,-2.265C6.84,-5.738,1.209,-5.738,-2.265,-2.265C-5.738,1.209,-5.738,6.84,-2.265,10.313Z"/>
</g>
  <g id="Heavy-S" transform="matrix(1.0,0.0,0.0,1.0,2608.994081190093,631.7941007213432)">  <path stroke-miterlimit="4" fill-rule="nonzero" fill-opacity="1" stroke-opacity="1" stroke-width="2.5px" stroke-linejoin="round" fill="#000000" stroke-dasharray="none" stroke-linecap="round" stroke="none" d="M46.717,-1.576L-1.576,46.717C-4.669,49.81,-4.669,54.825,-1.576,57.918C1.517,61.011,6.532,61.011,9.625,57.918L57.918,9.625C61.011,6.532,61.011,1.517,57.918,-1.576C54.825,-4.669,49.81,-4.669,46.717,-1.576ZM-1.576,9.625L46.717,57.918C49.81,61.011,54.825,61.011,57.918,57.918C61.011,54.825,61.011,49.81,57.918,46.717L9.625,-1.576C6.532,-4.669,1.517,-4.669,-1.576,-1.576C-4.669,1.517,-4.669,6.532,-1.576,9.625Z"/>
</g>
  <g id="Bold-S" transform="matrix(1.0,0.0,0.0,1.0,2312.284081190093,631.7941007213432)">  <path stroke-linejoin="round" stroke="none" stroke-opacity="1" fill-rule="nonzero" fill-opacity="1" stroke-linecap="round" stroke-width="2.5px" fill="#000000" stroke-dasharray="none" stroke-miterlimit="4" d="M47.406,-0.887L-0.887,47.406C-3.6,50.119,-3.6,54.517,-0.887,57.229C1.825,59.942,6.223,59.942,8.936,57.229L57.229,8.936C59.942,6.223,59.942,1.825,57.229,-0.887C54.517,-3.6,50.119,-3.6,47.406,-0.887ZM-0.887,8.936L47.406,57.229C50.119,59.942,54.517,59.942,57.229,57.229C59.942,54.517,59.942,50.119,57.229,47.406L8.936,-0.887C6.223,-3.6,1.825,-3.6,-0.887,-0.887C-3.6,1.825,-3.6,6.223,-0.887,8.936Z"/>
</g>
  <g id="Semibold-S" transform="matrix(1.0,0.0,0.0,1.0,2015.5740811900932,631.7941007213432)">  <path stroke-miterlimit="4" stroke-width="2.5px" stroke-dasharray="none" fill="#000000" stroke-linecap="round" stroke-opacity="1" stroke-linejoin="round" fill-rule="nonzero" stroke="none" fill-opacity="1" d="M48.095,-0.199L-0.199,48.095C-2.531,50.427,-2.531,54.208,-0.199,56.541C2.134,58.873,5.915,58.873,8.247,56.541L56.541,8.247C58.873,5.915,58.873,2.134,56.541,-0.199C54.208,-2.531,50.427,-2.531,48.095,-0.199ZM-0.199,8.247L48.095,56.541C50.427,58.873,54.208,58.873,56.541,56.541C58.873,54.208,58.873,50.427,56.541,48.095L8.247,-0.199C5.915,-2.531,2.134,-2.531,-0.199,-0.199C-2.531,2.134,-2.531,5.915,-0.199,8.247Z"/>
</g>
  <g id="Medium-S" transform="matrix(1.0,0.0,0.0,1.0,1718.8640811900932,631.7941007213432)">  <path fill-opacity="1" stroke-linejoin="round" stroke-dasharray="none" stroke="none" stroke-miterlimit="4" fill-rule="nonzero" stroke-width="2.5px" stroke-opacity="1" stroke-linecap="round" fill="#000000" d="M48.783,0.49L0.49,48.783C-1.462,50.735,-1.462,53.9,0.49,55.852C2.442,57.804,5.607,57.804,7.559,55.852L55.852,7.559C57.804,5.607,57.804,2.442,55.852,0.49C53.9,-1.462,50.735,-1.462,48.783,0.49ZM0.49,7.559L48.783,55.852C50.735,57.804,53.9,57.804,55.852,55.852C57.804,53.9,57.804,50.735,55.852,48.783L7.559,0.49C5.607,-1.462,2.442,-1.462,0.49,0.49C-1.462,2.442,-1.462,5.607,0.49,7.559Z"/>
</g>
  <g id="Regular-S" transform="matrix(1.0,0.0,0.0,1.0,1422.1540811900932,631.7941007213432)">  <path stroke-opacity="1" stroke="none" fill-rule="nonzero" fill-opacity="1" stroke-width="2.5px" stroke-linecap="round" fill="#000000" stroke-linejoin="round" stroke-miterlimit="4" stroke-dasharray="none" d="M49.472,1.179L1.179,49.472C-0.393,51.044,-0.393,53.592,1.179,55.163C2.75,56.735,5.298,56.735,6.87,55.163L55.163,6.87C56.735,5.298,56.735,2.75,55.163,1.179C53.592,-0.393,51.044,-0.393,49.472,1.179ZM1.179,6.87L49.472,55.163C51.044,56.735,53.592,56.735,55.163,55.163C56.735,53.592,56.735,51.044,55.163,49.472L6.87,1.179C5.298,-0.393,2.75,-0.393,1.179,1.179C-0.393,2.75,-0.393,5.298,1.179,6.87Z"/>
</g>
  <g id="Light-S" transform="matrix(1.0,0.0,0.0,1.0,1125.4440811900934,631.7941007213432)">  <path stroke-linejoin="round" stroke-linecap="round" fill-opacity="1" fill="#000000" fill-rule="nonzero" stroke-width="2.5px" stroke-dasharray="none" stroke-miterlimit="4" stroke-opacity="1" stroke="none" d="M49.946,1.653L1.653,49.946C0.343,51.256,0.343,53.379,1.653,54.689C2.963,55.999,5.086,55.999,6.396,54.689L54.689,6.396C55.999,5.086,55.999,2.963,54.689,1.653C53.379,0.343,51.256,0.343,49.946,1.653ZM1.653,6.396L49.946,54.689C51.256,55.999,53.379,55.999,54.689,54.689C55.999,53.379,55.999,51.256,54.689,49.946L6.396,1.653C5.086,0.343,2.963,0.343,1.653,1.653C0.343,2.963,0.343,5.086,1.653,6.396Z"/>
</g>
  <g id="Thin-S" transform="matrix(1.0,0.0,0.0,1.0,828.7340811900932,631.7941007213432)">  <path stroke="none" stroke-opacity="1" stroke-linecap="round" fill-rule="nonzero" fill-opacity="1" stroke-miterlimit="4" stroke-width="2.5px" stroke-linejoin="round" stroke-dasharray="none" fill="#000000" d="M50.42,2.127L2.127,50.42C1.08,51.468,1.08,53.167,2.127,54.215C3.175,55.263,4.874,55.263,5.922,54.215L54.215,5.922C55.263,4.874,55.263,3.175,54.215,2.127C53.167,1.08,51.468,1.08,50.42,2.127ZM2.127,5.922L50.42,54.215C51.468,55.263,53.167,55.263,54.215,54.215C55.263,53.167,55.263,51.468,54.215,50.42L5.922,2.127C4.874,1.08,3.175,1.08,2.127,2.127C1.08,3.175,1.08,4.874,2.127,5.922Z"/>
</g>
  <g id="Ultralight-S" transform="matrix(1.0,0.0,0.0,1.0,532.0240811900932,631.7941007213432)">  <path stroke-linecap="round" stroke-opacity="1" fill-rule="nonzero" stroke-linejoin="round" stroke-miterlimit="4" stroke-dasharray="none" stroke="none" fill-opacity="1" fill="#000000" stroke-width="2.5px" d="M50.895,2.602L2.602,50.895C1.816,51.681,1.816,52.955,2.602,53.74C3.387,54.526,4.661,54.526,5.447,53.74L53.74,5.447C54.526,4.661,54.526,3.387,53.74,2.602C52.955,1.816,51.681,1.816,50.895,2.602ZM2.602,5.447L50.895,53.74C51.681,54.526,52.955,54.526,53.74,53.74C54.526,52.955,54.526,51.681,53.74,50.895L5.447,2.602C4.661,1.816,3.387,1.816,2.602,2.602C1.816,3.387,1.816,4.661,2.602,5.447Z"/>
</g>
 </g>
</svg>
