<?xml version="1.0" encoding="UTF-8"?>
<!-- Generator: CustomSymbols v2.7.4.50 by @serious_bret https://bretlester.com/app_content/CustomSymbols/ -->
<!-- Guides: Left/Right -0.014/-0.014 Cap/Base -0.002/-0.002 -->
<!-- Settings: RefScale 1.0 Min/Max Stroke Scales 0.5/2.21 -->
<!DOCTYPE svg
PUBLIC "-//W3C//DTD SVG 1.1//EN"
       "http://www.w3.org/Graphics/SVG/1.1/DTD/svg11.dtd">
<svg version="1.1" xmlns="http://www.w3.org/2000/svg" xmlns:xlink="http://www.w3.org/1999/xlink" width="3300" height="2200">
<![CDATA[<svg xmlns="http://www.w3.org/2000/svg" width="25" height="25" fill="none" viewBox="0 0 25 25">
  <g id="layers-1--design-layer-layers-pile-stack-align">
    <path id="Union" fill="#D3D3D3" fill-rule="evenodd" d="M9.529.503c1.746-.67 4.157-.67 5.905-.004 1.416.54 2.913 1.12 4.309 1.79 1.402.674 2.623 1.398 3.753 2.081.773.467 1.506 1.25 1.504 2.337-.002 1.086-.738 1.868-1.514 2.334-1.131.678-2.35 1.393-3.743 2.06-1.387.666-2.866 1.247-4.271 1.787-1.747.671-4.158.67-5.906.004-1.416-.54-2.913-1.12-4.31-1.79-1.401-.673-2.622-1.398-3.752-2.08C.731 8.553-.002 7.77 0 6.684.002 5.598.738 4.816 1.514 4.35c1.131-.678 2.35-1.393 3.743-2.061C6.644 1.624 8.123 1.043 9.529.503ZM.17 13.25a1.34 1.34 0 0 1 1.822-.518c1.215.678 2.44 1.348 3.833 1.964 1.398.62 2.921 1.167 4.46 1.708 1.274.448 3.203.447 4.469-.002 1.522-.54 3.032-1.089 4.425-1.706 1.388-.614 2.618-1.279 3.831-1.95a1.339 1.339 0 1 1 1.297 2.345c-1.225.678-2.542 1.39-4.043 2.055-1.496.663-3.093 1.242-4.616 1.782-1.846.654-4.404.654-6.252.003-1.534-.539-3.15-1.118-4.656-1.785-1.512-.67-2.829-1.39-4.053-2.074A1.34 1.34 0 0 1 .17 13.25Zm0 5.582a1.339 1.339 0 0 1 1.822-.518c1.215.678 2.44 1.348 3.833 1.964 1.398.62 2.921 1.167 4.46 1.708 1.274.448 3.203.447 4.469-.002 1.522-.54 3.032-1.089 4.425-1.706 1.388-.614 2.618-1.279 3.831-1.95a1.34 1.34 0 1 1 1.297 2.345c-1.225.678-2.542 1.39-4.043 2.055-1.496.663-3.093 1.242-4.616 1.782-1.846.654-4.404.654-6.252.004-1.534-.54-3.15-1.119-4.656-1.786-1.512-.67-2.829-1.39-4.053-2.074a1.34 1.34 0 0 1-.517-1.822Z" clip-rule="evenodd"/>
  </g>
</svg>
]]>
 <g id="Notes">
  <rect height="2200" id="artboard" style="fill:white;opacity:1" width="3300" x="0" y="0"/>
  <line id="" style="fill:none;stroke:black;opacity:1;stroke-width:0.5;" x1="263" x2="3036" y1="292" y2="292"/>
  <text id="reftext1" style="stroke:none;fill:black;font-family:-apple-system,&quot;SF Pro Display&quot;,&quot;SF Pro Text&quot;,Helvetica,sans-serif;font-weight:bold;" transform="matrix(1 0 0 1 263 322)">Weight/Scale Variations</text>
  <text id="reftext2" style="stroke:none;fill:black;font-family:-apple-system,&quot;SF Pro Display&quot;,&quot;SF Pro Text&quot;,Helvetica,sans-serif;text-anchor:middle;" transform="matrix(1 0 0 1 559.711 322)">Ultralight</text>
  <text style="stroke:none;fill:black;font-family:-apple-system,&quot;SF Pro Display&quot;,&quot;SF Pro Text&quot;,Helvetica,sans-serif;text-anchor:middle;" transform="matrix(1 0 0 1 856.422 322)">Thin</text>
  <text style="stroke:none;fill:black;font-family:-apple-system,&quot;SF Pro Display&quot;,&quot;SF Pro Text&quot;,Helvetica,sans-serif;text-anchor:middle;" transform="matrix(1 0 0 1 1153.13 322)">Light</text>
  <text style="stroke:none;fill:black;font-family:-apple-system,&quot;SF Pro Display&quot;,&quot;SF Pro Text&quot;,Helvetica,sans-serif;text-anchor:middle;" transform="matrix(1 0 0 1 1449.84 322)">Regular</text>
  <text style="stroke:none;fill:black;font-family:-apple-system,&quot;SF Pro Display&quot;,&quot;SF Pro Text&quot;,Helvetica,sans-serif;text-anchor:middle;" transform="matrix(1 0 0 1 1746.56 322)">Medium</text>
  <text style="stroke:none;fill:black;font-family:-apple-system,&quot;SF Pro Display&quot;,&quot;SF Pro Text&quot;,Helvetica,sans-serif;text-anchor:middle;" transform="matrix(1 0 0 1 2043.27 322)">Semibold</text>
  <text style="stroke:none;fill:black;font-family:-apple-system,&quot;SF Pro Display&quot;,&quot;SF Pro Text&quot;,Helvetica,sans-serif;text-anchor:middle;" transform="matrix(1 0 0 1 2339.98 322)">Bold</text>
  <text style="stroke:none;fill:black;font-family:-apple-system,&quot;SF Pro Display&quot;,&quot;SF Pro Text&quot;,Helvetica,sans-serif;text-anchor:middle;" transform="matrix(1 0 0 1 2636.69 322)">Heavy</text>
  <text style="stroke:none;fill:black;font-family:-apple-system,&quot;SF Pro Display&quot;,&quot;SF Pro Text&quot;,Helvetica,sans-serif;text-anchor:middle;" transform="matrix(1 0 0 1 2933.4 322)">Black</text>
  <line id="" style="fill:none;stroke:black;opacity:1;stroke-width:0.5;" x1="263" x2="3036" y1="1903" y2="1903"/>
  <g id="" transform="matrix(1 0 0 1 263 1933)">
   <path d="M9.24805 0.830078C13.5547 0.830078 17.1387-2.74414 17.1387-7.05078C17.1387-11.3574 13.5449-14.9316 9.23828-14.9316C4.94141-14.9316 1.36719-11.3574 1.36719-7.05078C1.36719-2.74414 4.95117 0.830078 9.24805 0.830078ZM9.24805-0.654297C5.70312-0.654297 2.87109-3.49609 2.87109-7.05078C2.87109-10.6055 5.69336-13.4473 9.23828-13.4473C12.793-13.4473 15.6348-10.6055 15.6445-7.05078C15.6543-3.49609 12.8027-0.654297 9.24805-0.654297ZM6.39648-6.31836L8.50586-6.31836L8.50586-4.19922C8.50586-3.75977 8.79883-3.45703 9.22852-3.45703C9.67773-3.45703 9.9707-3.75977 9.9707-4.19922L9.9707-6.31836L12.0996-6.31836C12.5391-6.31836 12.8418-6.61133 12.8418-7.04102C12.8418-7.48047 12.5391-7.7832 12.0996-7.7832L9.9707-7.7832L9.9707-9.89258C9.9707-10.3418 9.67773-10.6445 9.22852-10.6445C8.79883-10.6445 8.50586-10.3418 8.50586-9.89258L8.50586-7.7832L6.39648-7.7832C5.94727-7.7832 5.64453-7.48047 5.64453-7.04102C5.64453-6.61133 5.94727-6.31836 6.39648-6.31836Z"/>
  </g>
  <g id="" transform="matrix(1 0 0 1 281.506 1933)">
   <path d="M11.709 2.91016C17.1582 2.91016 21.6699-1.61133 21.6699-7.05078C21.6699-12.5 17.1484-17.0117 11.6992-17.0117C6.25977-17.0117 1.74805-12.5 1.74805-7.05078C1.74805-1.61133 6.26953 2.91016 11.709 2.91016ZM11.709 1.25C7.09961 1.25 3.41797-2.44141 3.41797-7.05078C3.41797-11.6602 7.08984-15.3516 11.6992-15.3516C16.3086-15.3516 20-11.6602 20.0098-7.05078C20.0195-2.44141 16.3184 1.25 11.709 1.25ZM7.98828-6.23047L10.8789-6.23047L10.8789-3.32031C10.8789-2.83203 11.2109-2.5 11.6895-2.5C12.1777-2.5 12.5195-2.83203 12.5195-3.32031L12.5195-6.23047L15.4297-6.23047C15.918-6.23047 16.25-6.5625 16.25-7.04102C16.25-7.5293 15.918-7.87109 15.4297-7.87109L12.5195-7.87109L12.5195-10.7617C12.5195-11.2695 12.1777-11.6016 11.6895-11.6016C11.2109-11.6016 10.8789-11.2598 10.8789-10.7617L10.8789-7.87109L7.98828-7.87109C7.48047-7.87109 7.14844-7.5293 7.14844-7.04102C7.14844-6.5625 7.49023-6.23047 7.98828-6.23047Z"/>
  </g>
  <g id="" transform="matrix(1 0 0 1 304.924 1933)">
   <path d="M14.9707 5.66406C21.9336 5.66406 27.6953-0.0976562 27.6953-7.05078C27.6953-14.0137 21.9238-19.7754 14.9609-19.7754C8.00781-19.7754 2.25586-14.0137 2.25586-7.05078C2.25586-0.0976562 8.01758 5.66406 14.9707 5.66406ZM14.9707 3.84766C8.93555 3.84766 4.08203-1.01562 4.08203-7.05078C4.08203-13.0957 8.92578-17.9492 14.9609-17.9492C21.0059-17.9492 25.8594-13.0957 25.8691-7.05078C25.8789-1.01562 21.0156 3.84766 14.9707 3.84766ZM10.0586-6.14258L14.0625-6.14258L14.0625-2.12891C14.0625-1.5918 14.4336-1.2207 14.9512-1.2207C15.4883-1.2207 15.8594-1.5918 15.8594-2.12891L15.8594-6.14258L19.8828-6.14258C20.4102-6.14258 20.791-6.51367 20.791-7.03125C20.791-7.56836 20.4199-7.94922 19.8828-7.94922L15.8594-7.94922L15.8594-11.9531C15.8594-12.5098 15.4883-12.8809 14.9512-12.8809C14.4336-12.8809 14.0625-12.5 14.0625-11.9531L14.0625-7.94922L10.0586-7.94922C9.50195-7.94922 9.13086-7.56836 9.13086-7.03125C9.13086-6.51367 9.51172-6.14258 10.0586-6.14258Z"/>
  </g>
  <text style="stroke:none;fill:black;font-family:-apple-system,&quot;SF Pro Display&quot;,&quot;SF Pro Text&quot;,Helvetica,sans-serif;font-weight:bold;" transform="matrix(1 0 0 1 263 1953)">Design Variations</text>
  <text style="stroke:none;fill:black;font-family:-apple-system,&quot;SF Pro Display&quot;,&quot;SF Pro Text&quot;,Helvetica,sans-serif;" transform="matrix(1 0 0 1 263 1971)">Symbols are supported in up to nine weights and three scales.</text>
  <text style="stroke:none;fill:black;font-family:-apple-system,&quot;SF Pro Display&quot;,&quot;SF Pro Text&quot;,Helvetica,sans-serif;" transform="matrix(1 0 0 1 263 1989)">For optimal layout with text and other symbols, vertically align</text>
  <text style="stroke:none;fill:black;font-family:-apple-system,&quot;SF Pro Display&quot;,&quot;SF Pro Text&quot;,Helvetica,sans-serif;" transform="matrix(1 0 0 1 263 2007)">symbols with the adjacent text.</text>
  <line id="" style="fill:none;stroke:#00AEEF;stroke-width:0.5;opacity:1.0;" x1="776" x2="776" y1="1919" y2="1933"/>
  <g id="" transform="matrix(1 0 0 1 776 1933)">
   <path d="M3.31055 0.126953C3.82812 0.126953 4.08203-0.0683594 4.26758-0.605469L5.52734-4.0625L11.2891-4.0625L12.5488-0.605469C12.7344-0.0683594 12.9883 0.126953 13.4961 0.126953C14.0137 0.126953 14.3457-0.185547 14.3457-0.673828C14.3457-0.839844 14.3164-0.986328 14.2383-1.20117L9.6582-13.3887C9.43359-13.9941 9.0332-14.2871 8.4082-14.2871C7.80273-14.2871 7.39258-13.9941 7.17773-13.3984L2.59766-1.19141C2.51953-0.976562 2.49023-0.830078 2.49023-0.664062C2.49023-0.175781 2.80273 0.126953 3.31055 0.126953ZM6.00586-5.53711L8.37891-12.1094L8.42773-12.1094L10.8008-5.53711Z"/>
  </g>
  <line id="" style="fill:none;stroke:#00AEEF;stroke-width:0.5;opacity:1.0;" x1="792.836" x2="792.836" y1="1919" y2="1933"/>
  <text style="stroke:none;fill:black;font-family:-apple-system,&quot;SF Pro Display&quot;,&quot;SF Pro Text&quot;,Helvetica,sans-serif;font-weight:bold;" transform="matrix(1 0 0 1 776 1953)">Margins</text>
  <text style="stroke:none;fill:black;font-family:-apple-system,&quot;SF Pro Display&quot;,&quot;SF Pro Text&quot;,Helvetica,sans-serif;" transform="matrix(1 0 0 1 776 1971)">Leading and trailing margins on the left and right side of each symbol</text>
  <text style="stroke:none;fill:black;font-family:-apple-system,&quot;SF Pro Display&quot;,&quot;SF Pro Text&quot;,Helvetica,sans-serif;" transform="matrix(1 0 0 1 776 1989)">can be adjusted by modifying the x-location of the margin guidelines.</text>
  <text style="stroke:none;fill:black;font-family:-apple-system,&quot;SF Pro Display&quot;,&quot;SF Pro Text&quot;,Helvetica,sans-serif;" transform="matrix(1 0 0 1 776 2007)">Modifications are automatically applied proportionally to all</text>
  <text style="stroke:none;fill:black;font-family:-apple-system,&quot;SF Pro Display&quot;,&quot;SF Pro Text&quot;,Helvetica,sans-serif;" transform="matrix(1 0 0 1 776 2025)">scales and weights.</text>
  <g id="" transform="matrix(1 0 0 1 1289 1933)">
   <path d="M2.8418 1.86523L4.54102 3.57422C5.40039 4.44336 6.38672 4.38477 7.31445 3.35938L17.4902-7.85156C17.7539-7.76367 18.0273-7.7832 18.3398-7.8418L19.4043-8.03711L20.0684-7.36328L20.0293-6.80664C19.9902-6.30859 20.1172-5.92773 20.6055-5.44922L21.3672-4.70703C21.8457-4.22852 22.4609-4.19922 22.9297-4.66797L25.8398-7.58789C26.3086-8.05664 26.2891-8.65234 25.8105-9.13086L25.0391-9.89258C24.5605-10.3711 24.1895-10.5273 23.7109-10.4883L23.1348-10.4395L22.4902-11.0742L22.7344-12.1973C22.8613-12.7637 22.7051-13.2031 22.1191-13.7891L19.9219-15.9766C16.582-19.2969 12.1484-19.2188 9.25781-16.3281C8.83789-15.918 8.80859-15.3418 9.04297-14.9512C9.27734-14.5898 9.73633-14.3555 10.3809-14.5215C11.8457-14.8633 13.3691-14.9219 14.7949-13.9844L14.209-12.5293C14.0137-12.0508 13.9844-11.6504 14.1113-11.2891L3.04688-0.898438C2.06055 0.0195312 1.98242 0.996094 2.8418 1.86523ZM10.752-15.957C13.1836-17.7344 16.4746-17.4316 18.7012-15.2051L21.1328-12.793C21.3672-12.5586 21.4062-12.373 21.3379-12.0312L21.0156-10.5469L22.5195-9.0625L23.5059-9.12109C23.7598-9.13086 23.8379-9.11133 24.0332-8.91602L24.6094-8.33984L22.168-5.89844L21.5918-6.47461C21.3965-6.66992 21.3672-6.74805 21.377-7.01172L21.4453-7.98828L19.9512-9.47266L18.4277-9.21875C18.1055-9.15039 17.959-9.17969 17.7148-9.41406L15.7129-11.416C15.459-11.6504 15.4297-11.8164 15.5859-12.1875L16.4648-14.2773C14.9023-15.7324 12.8711-16.3574 10.8398-15.7617C10.6836-15.7227 10.625-15.8496 10.752-15.957ZM5.27344 2.30469L4.10156 1.14258C3.63281 0.683594 3.74023 0.341797 4.14062-0.0195312L14.9512-10.1953L16.416-8.71094L6.42578 2.27539C6.07422 2.67578 5.74219 2.77344 5.27344 2.30469Z"/>
  </g>
  <text style="stroke:none;fill:black;font-family:-apple-system,&quot;SF Pro Display&quot;,&quot;SF Pro Text&quot;,Helvetica,sans-serif;font-weight:bold;" transform="matrix(1 0 0 1 1289 1953)">Exporting</text>
  <text style="stroke:none;fill:black;font-family:-apple-system,&quot;SF Pro Display&quot;,&quot;SF Pro Text&quot;,Helvetica,sans-serif;" transform="matrix(1 0 0 1 1289 1971)">Symbols should be outlined when exporting to ensure the</text>
  <text style="stroke:none;fill:black;font-family:-apple-system,&quot;SF Pro Display&quot;,&quot;SF Pro Text&quot;,Helvetica,sans-serif;" transform="matrix(1 0 0 1 1289 1989)">design is preserved when submitting to Xcode.</text>
  <text id="template-version" style="stroke:none;fill:black;font-family:-apple-system,&quot;SF Pro Display&quot;,&quot;SF Pro Text&quot;,Helvetica,sans-serif;text-anchor:end;" transform="matrix(1 0 0 1 3036 1933)">Template v.2.0</text>
  <text style="stroke:none;fill:black;font-family:-apple-system,&quot;SF Pro Display&quot;,&quot;SF Pro Text&quot;,Helvetica,sans-serif;text-anchor:end;" transform="matrix(1 0 0 1 3036 1951)">Requires Xcode 12 or greater</text>
  <text style="stroke:none;fill:black;font-family:-apple-system,&quot;SF Pro Display&quot;,&quot;SF Pro Text&quot;,Helvetica,sans-serif;" transform="matrix(1 0 0 1 263 726)">Small</text>
  <text style="stroke:none;fill:black;font-family:-apple-system,&quot;SF Pro Display&quot;,&quot;SF Pro Text&quot;,Helvetica,sans-serif;" transform="matrix(1 0 0 1 263 1156)">Medium</text>
  <text style="stroke:none;fill:black;font-family:-apple-system,&quot;SF Pro Display&quot;,&quot;SF Pro Text&quot;,Helvetica,sans-serif;" transform="matrix(1 0 0 1 263 1586)">Large</text>
 </g>
 <g id="Guides">
  <g id="H-reference" style="fill:#27AAE1;stroke:none;" transform="matrix(1 0 0 1 339 696)">
   <path d="M0.976562 0L3.66211 0L12.9883-24.4629L45.752-24.4629L55.127 0L57.7637 0L30.6152-70.459L28.125-70.459ZM29.3457-67.1387L29.4434-67.1387L44.873-26.709L13.8672-26.709Z"/>
  </g>
  <line id="Baseline-S" style="fill:none;stroke:#27AAE1;opacity:1;stroke-width:0.5;" x1="263" x2="3036" y1="696" y2="696"/>
  <line id="Capline-S" style="fill:none;stroke:#27AAE1;opacity:1;stroke-width:0.5;" x1="263" x2="3036" y1="625.541" y2="625.541"/>
  <g id="H-reference" style="fill:#27AAE1;stroke:none;" transform="matrix(1 0 0 1 339 1126)">
   <path d="M0.976562 0L3.66211 0L12.9883-24.4629L45.752-24.4629L55.127 0L57.7637 0L30.6152-70.459L28.125-70.459ZM29.3457-67.1387L29.4434-67.1387L44.873-26.709L13.8672-26.709Z"/>
  </g>
  <line id="Baseline-M" style="fill:none;stroke:#27AAE1;opacity:1;stroke-width:0.5;" x1="263" x2="3036" y1="1126" y2="1126"/>
  <line id="Capline-M" style="fill:none;stroke:#27AAE1;opacity:1;stroke-width:0.5;" x1="263" x2="3036" y1="1055.54" y2="1055.54"/>
  <g id="H-reference" style="fill:#27AAE1;stroke:none;" transform="matrix(1 0 0 1 339 1556)">
   <path d="M0.976562 0L3.66211 0L12.9883-24.4629L45.752-24.4629L55.127 0L57.7637 0L30.6152-70.459L28.125-70.459ZM29.3457-67.1387L29.4434-67.1387L44.873-26.709L13.8672-26.709Z"/>
  </g>
  <line id="Baseline-L" style="fill:none;stroke:#27AAE1;opacity:1;stroke-width:0.5;" x1="263" x2="3036" y1="1556" y2="1556"/>
  <line id="Capline-L" style="fill:none;stroke:#27AAE1;opacity:1;stroke-width:0.5;" x1="263" x2="3036" y1="1485.54" y2="1485.54"/>
  <line id="left-margin" x1="1415.05786860371" x2="1415.05786860371" y1="1030.79" y2="1150.12" style="fill:none;stroke:#00AEEF;stroke-width:0.5;opacity:1.0;"/>
  <line id="right-margin" x1="1487.2021313962898" x2="1487.2021313962898" y1="1030.79" y2="1150.12" style="fill:none;stroke:#00AEEF;stroke-width:0.5;opacity:1.0;"/>
 </g>
 <g id="Symbols">
  <g id="Black-L" transform="matrix(1.0,0.0,0.0,1.0,2889.4143876447333,1475.5044071759835)">  <path clip-rule="evenodd" fill="#000000" stroke="none" stroke-linejoin="miter" stroke-opacity="1" stroke-linecap="butt" stroke-dasharray="none" stroke-width="1px" fill-opacity="1" fill-rule="evenodd" stroke-miterlimit="4" d="M34.507,1.821C40.83,-0.605,49.56,-0.605,55.89,1.807C61.018,3.762,66.439,5.863,71.494,8.289C76.571,10.73,80.993,13.352,85.085,15.825C87.884,17.516,90.538,20.351,90.531,24.288C90.524,28.22,87.859,31.052,85.049,32.74C80.953,35.195,76.539,37.784,71.494,40.199C66.472,42.611,61.116,44.715,56.028,46.671C49.702,49.101,40.971,49.097,34.641,46.685C29.513,44.73,24.092,42.629,19.033,40.203C13.96,37.766,9.538,35.141,5.446,32.671C2.647,30.973,-0.007,28.137,0,24.204C0.007,20.272,2.672,17.44,5.483,15.752C9.578,13.297,13.993,10.708,19.037,8.289C24.06,5.881,29.415,3.777,34.507,1.821ZM0.616,47.982C1.92,45.643,4.873,44.803,7.214,46.106C11.613,48.561,16.049,50.987,21.094,53.218C26.156,55.463,31.671,57.444,37.245,59.403C41.858,61.025,48.843,61.022,53.428,59.396C58.939,57.44,64.408,55.452,69.452,53.218C74.478,50.994,78.932,48.586,83.325,46.156C85.67,44.859,88.622,45.709,89.919,48.054C91.216,50.399,90.367,53.351,88.022,54.648C83.586,57.103,78.816,59.682,73.381,62.09C67.964,64.491,62.18,66.588,56.665,68.543C49.98,70.911,40.717,70.911,34.025,68.554C28.47,66.602,22.618,64.505,17.165,62.09C11.689,59.664,6.92,57.056,2.488,54.579C0.15,53.273,-0.688,50.321,0.616,47.982ZM0.616,68.195C1.242,67.071,2.288,66.242,3.526,65.89C4.763,65.539,6.09,65.693,7.214,66.32C11.613,68.775,16.049,71.201,21.094,73.432C26.156,75.677,31.671,77.658,37.245,79.617C41.858,81.239,48.843,81.235,53.428,79.61C58.939,77.654,64.408,75.666,69.452,73.432C74.478,71.208,78.932,68.8,83.325,66.37C84.844,65.505,86.711,65.523,88.213,66.419C89.714,67.314,90.618,68.948,90.579,70.696C90.539,72.444,89.562,74.035,88.022,74.862C83.586,77.317,78.816,79.896,73.381,82.304C67.964,84.705,62.18,86.801,56.665,88.757C49.98,91.125,40.717,91.125,34.025,88.771C28.47,86.816,22.618,84.719,17.165,82.304C11.689,79.878,6.92,77.27,2.488,74.793C0.15,73.487,-0.688,70.535,0.616,68.195ZM0.616,68.195"/>
</g>
  <g id="Heavy-L" transform="matrix(1.0,0.0,0.0,1.0,2592.7043876447333,1475.5044071759835)">  <path stroke-miterlimit="4" stroke-linecap="butt" stroke-width="1px" fill="#000000" clip-rule="evenodd" fill-rule="evenodd" stroke-dasharray="none" stroke="none" stroke-opacity="1" stroke-linejoin="miter" fill-opacity="1" d="M34.507,1.821C40.83,-0.605,49.56,-0.605,55.89,1.807C61.018,3.762,66.439,5.863,71.494,8.289C76.571,10.73,80.993,13.352,85.085,15.825C87.884,17.516,90.538,20.351,90.531,24.288C90.524,28.22,87.859,31.052,85.049,32.74C80.953,35.195,76.539,37.784,71.494,40.199C66.472,42.611,61.116,44.715,56.028,46.671C49.702,49.101,40.971,49.097,34.641,46.685C29.513,44.73,24.092,42.629,19.033,40.203C13.96,37.766,9.538,35.141,5.446,32.671C2.647,30.973,-0.007,28.137,0,24.204C0.007,20.272,2.672,17.44,5.483,15.752C9.578,13.297,13.993,10.708,19.037,8.289C24.06,5.881,29.415,3.777,34.507,1.821ZM0.616,47.982C1.92,45.643,4.873,44.803,7.214,46.106C11.613,48.561,16.049,50.987,21.094,53.218C26.156,55.463,31.671,57.444,37.245,59.403C41.858,61.025,48.843,61.022,53.428,59.396C58.939,57.44,64.408,55.452,69.452,53.218C74.478,50.994,78.932,48.586,83.325,46.156C85.67,44.859,88.622,45.709,89.919,48.054C91.216,50.399,90.367,53.351,88.022,54.648C83.586,57.103,78.816,59.682,73.381,62.09C67.964,64.491,62.18,66.588,56.665,68.543C49.98,70.911,40.717,70.911,34.025,68.554C28.47,66.602,22.618,64.505,17.165,62.09C11.689,59.664,6.92,57.056,2.488,54.579C0.15,53.273,-0.688,50.321,0.616,47.982ZM0.616,68.195C1.242,67.071,2.288,66.242,3.526,65.89C4.763,65.539,6.09,65.693,7.214,66.32C11.613,68.775,16.049,71.201,21.094,73.432C26.156,75.677,31.671,77.658,37.245,79.617C41.858,81.239,48.843,81.235,53.428,79.61C58.939,77.654,64.408,75.666,69.452,73.432C74.478,71.208,78.932,68.8,83.325,66.37C84.844,65.505,86.711,65.523,88.213,66.419C89.714,67.314,90.618,68.948,90.579,70.696C90.539,72.444,89.562,74.035,88.022,74.862C83.586,77.317,78.816,79.896,73.381,82.304C67.964,84.705,62.18,86.801,56.665,88.757C49.98,91.125,40.717,91.125,34.025,88.771C28.47,86.816,22.618,84.719,17.165,82.304C11.689,79.878,6.92,77.27,2.488,74.793C0.15,73.487,-0.688,70.535,0.616,68.195ZM0.616,68.195"/>
</g>
  <g id="Bold-L" transform="matrix(1.0,0.0,0.0,1.0,2295.9943876447333,1475.5044071759835)">  <path stroke-linecap="butt" clip-rule="evenodd" stroke-opacity="1" fill-rule="evenodd" stroke-dasharray="none" stroke-miterlimit="4" stroke-linejoin="miter" stroke="none" fill-opacity="1" fill="#000000" stroke-width="1px" d="M34.507,1.821C40.83,-0.605,49.56,-0.605,55.89,1.807C61.018,3.762,66.439,5.863,71.494,8.289C76.571,10.73,80.993,13.352,85.085,15.825C87.884,17.516,90.538,20.351,90.531,24.288C90.524,28.22,87.859,31.052,85.049,32.74C80.953,35.195,76.539,37.784,71.494,40.199C66.472,42.611,61.116,44.715,56.028,46.671C49.702,49.101,40.971,49.097,34.641,46.685C29.513,44.73,24.092,42.629,19.033,40.203C13.96,37.766,9.538,35.141,5.446,32.671C2.647,30.973,-0.007,28.137,0,24.204C0.007,20.272,2.672,17.44,5.483,15.752C9.578,13.297,13.993,10.708,19.037,8.289C24.06,5.881,29.415,3.777,34.507,1.821ZM0.616,47.982C1.92,45.643,4.873,44.803,7.214,46.106C11.613,48.561,16.049,50.987,21.094,53.218C26.156,55.463,31.671,57.444,37.245,59.403C41.858,61.025,48.843,61.022,53.428,59.396C58.939,57.44,64.408,55.452,69.452,53.218C74.478,50.994,78.932,48.586,83.325,46.156C85.67,44.859,88.622,45.709,89.919,48.054C91.216,50.399,90.367,53.351,88.022,54.648C83.586,57.103,78.816,59.682,73.381,62.09C67.964,64.491,62.18,66.588,56.665,68.543C49.98,70.911,40.717,70.911,34.025,68.554C28.47,66.602,22.618,64.505,17.165,62.09C11.689,59.664,6.92,57.056,2.488,54.579C0.15,53.273,-0.688,50.321,0.616,47.982ZM0.616,68.195C1.242,67.071,2.288,66.242,3.526,65.89C4.763,65.539,6.09,65.693,7.214,66.32C11.613,68.775,16.049,71.201,21.094,73.432C26.156,75.677,31.671,77.658,37.245,79.617C41.858,81.239,48.843,81.235,53.428,79.61C58.939,77.654,64.408,75.666,69.452,73.432C74.478,71.208,78.932,68.8,83.325,66.37C84.844,65.505,86.711,65.523,88.213,66.419C89.714,67.314,90.618,68.948,90.579,70.696C90.539,72.444,89.562,74.035,88.022,74.862C83.586,77.317,78.816,79.896,73.381,82.304C67.964,84.705,62.18,86.801,56.665,88.757C49.98,91.125,40.717,91.125,34.025,88.771C28.47,86.816,22.618,84.719,17.165,82.304C11.689,79.878,6.92,77.27,2.488,74.793C0.15,73.487,-0.688,70.535,0.616,68.195ZM0.616,68.195"/>
</g>
  <g id="Semibold-L" transform="matrix(1.0,0.0,0.0,1.0,1999.2843876447334,1475.5044071759835)">  <path stroke-opacity="1" stroke="none" fill-opacity="1" fill-rule="evenodd" stroke-linecap="butt" stroke-width="1px" fill="#000000" stroke-linejoin="miter" stroke-miterlimit="4" clip-rule="evenodd" stroke-dasharray="none" d="M34.507,1.821C40.83,-0.605,49.56,-0.605,55.89,1.807C61.018,3.762,66.439,5.863,71.494,8.289C76.571,10.73,80.993,13.352,85.085,15.825C87.884,17.516,90.538,20.351,90.531,24.288C90.524,28.22,87.859,31.052,85.049,32.74C80.953,35.195,76.539,37.784,71.494,40.199C66.472,42.611,61.116,44.715,56.028,46.671C49.702,49.101,40.971,49.097,34.641,46.685C29.513,44.73,24.092,42.629,19.033,40.203C13.96,37.766,9.538,35.141,5.446,32.671C2.647,30.973,-0.007,28.137,0,24.204C0.007,20.272,2.672,17.44,5.483,15.752C9.578,13.297,13.993,10.708,19.037,8.289C24.06,5.881,29.415,3.777,34.507,1.821ZM0.616,47.982C1.92,45.643,4.873,44.803,7.214,46.106C11.613,48.561,16.049,50.987,21.094,53.218C26.156,55.463,31.671,57.444,37.245,59.403C41.858,61.025,48.843,61.022,53.428,59.396C58.939,57.44,64.408,55.452,69.452,53.218C74.478,50.994,78.932,48.586,83.325,46.156C85.67,44.859,88.622,45.709,89.919,48.054C91.216,50.399,90.367,53.351,88.022,54.648C83.586,57.103,78.816,59.682,73.381,62.09C67.964,64.491,62.18,66.588,56.665,68.543C49.98,70.911,40.717,70.911,34.025,68.554C28.47,66.602,22.618,64.505,17.165,62.09C11.689,59.664,6.92,57.056,2.488,54.579C0.15,53.273,-0.688,50.321,0.616,47.982ZM0.616,68.195C1.242,67.071,2.288,66.242,3.526,65.89C4.763,65.539,6.09,65.693,7.214,66.32C11.613,68.775,16.049,71.201,21.094,73.432C26.156,75.677,31.671,77.658,37.245,79.617C41.858,81.239,48.843,81.235,53.428,79.61C58.939,77.654,64.408,75.666,69.452,73.432C74.478,71.208,78.932,68.8,83.325,66.37C84.844,65.505,86.711,65.523,88.213,66.419C89.714,67.314,90.618,68.948,90.579,70.696C90.539,72.444,89.562,74.035,88.022,74.862C83.586,77.317,78.816,79.896,73.381,82.304C67.964,84.705,62.18,86.801,56.665,88.757C49.98,91.125,40.717,91.125,34.025,88.771C28.47,86.816,22.618,84.719,17.165,82.304C11.689,79.878,6.92,77.27,2.488,74.793C0.15,73.487,-0.688,70.535,0.616,68.195ZM0.616,68.195"/>
</g>
  <g id="Medium-L" transform="matrix(1.0,0.0,0.0,1.0,1702.5743876447334,1475.5044071759835)">  <path stroke-miterlimit="4" fill-opacity="1" fill-rule="evenodd" stroke-opacity="1" stroke-linejoin="miter" stroke-width="1px" fill="#000000" stroke-dasharray="none" stroke-linecap="butt" clip-rule="evenodd" stroke="none" d="M34.507,1.821C40.83,-0.605,49.56,-0.605,55.89,1.807C61.018,3.762,66.439,5.863,71.494,8.289C76.571,10.73,80.993,13.352,85.085,15.825C87.884,17.516,90.538,20.351,90.531,24.288C90.524,28.22,87.859,31.052,85.049,32.74C80.953,35.195,76.539,37.784,71.494,40.199C66.472,42.611,61.116,44.715,56.028,46.671C49.702,49.101,40.971,49.097,34.641,46.685C29.513,44.73,24.092,42.629,19.033,40.203C13.96,37.766,9.538,35.141,5.446,32.671C2.647,30.973,-0.007,28.137,0,24.204C0.007,20.272,2.672,17.44,5.483,15.752C9.578,13.297,13.993,10.708,19.037,8.289C24.06,5.881,29.415,3.777,34.507,1.821ZM0.616,47.982C1.92,45.643,4.873,44.803,7.214,46.106C11.613,48.561,16.049,50.987,21.094,53.218C26.156,55.463,31.671,57.444,37.245,59.403C41.858,61.025,48.843,61.022,53.428,59.396C58.939,57.44,64.408,55.452,69.452,53.218C74.478,50.994,78.932,48.586,83.325,46.156C85.67,44.859,88.622,45.709,89.919,48.054C91.216,50.399,90.367,53.351,88.022,54.648C83.586,57.103,78.816,59.682,73.381,62.09C67.964,64.491,62.18,66.588,56.665,68.543C49.98,70.911,40.717,70.911,34.025,68.554C28.47,66.602,22.618,64.505,17.165,62.09C11.689,59.664,6.92,57.056,2.488,54.579C0.15,53.273,-0.688,50.321,0.616,47.982ZM0.616,68.195C1.242,67.071,2.288,66.242,3.526,65.89C4.763,65.539,6.09,65.693,7.214,66.32C11.613,68.775,16.049,71.201,21.094,73.432C26.156,75.677,31.671,77.658,37.245,79.617C41.858,81.239,48.843,81.235,53.428,79.61C58.939,77.654,64.408,75.666,69.452,73.432C74.478,71.208,78.932,68.8,83.325,66.37C84.844,65.505,86.711,65.523,88.213,66.419C89.714,67.314,90.618,68.948,90.579,70.696C90.539,72.444,89.562,74.035,88.022,74.862C83.586,77.317,78.816,79.896,73.381,82.304C67.964,84.705,62.18,86.801,56.665,88.757C49.98,91.125,40.717,91.125,34.025,88.771C28.47,86.816,22.618,84.719,17.165,82.304C11.689,79.878,6.92,77.27,2.488,74.793C0.15,73.487,-0.688,70.535,0.616,68.195ZM0.616,68.195"/>
</g>
  <g id="Regular-L" transform="matrix(1.0,0.0,0.0,1.0,1405.8643876447334,1475.5044071759835)">  <path stroke-linejoin="miter" stroke-linecap="butt" fill-opacity="1" clip-rule="evenodd" fill="#000000" fill-rule="evenodd" stroke-width="1px" stroke-dasharray="none" stroke-miterlimit="4" stroke-opacity="1" stroke="none" d="M34.507,1.821C40.83,-0.605,49.56,-0.605,55.89,1.807C61.018,3.762,66.439,5.863,71.494,8.289C76.571,10.73,80.993,13.352,85.085,15.825C87.884,17.516,90.538,20.351,90.531,24.288C90.524,28.22,87.859,31.052,85.049,32.74C80.953,35.195,76.539,37.784,71.494,40.199C66.472,42.611,61.116,44.715,56.028,46.671C49.702,49.101,40.971,49.097,34.641,46.685C29.513,44.73,24.092,42.629,19.033,40.203C13.96,37.766,9.538,35.141,5.446,32.671C2.647,30.973,-0.007,28.137,0,24.204C0.007,20.272,2.672,17.44,5.483,15.752C9.578,13.297,13.993,10.708,19.037,8.289C24.06,5.881,29.415,3.777,34.507,1.821ZM0.616,47.982C1.92,45.643,4.873,44.803,7.214,46.106C11.613,48.561,16.049,50.987,21.094,53.218C26.156,55.463,31.671,57.444,37.245,59.403C41.858,61.025,48.843,61.022,53.428,59.396C58.939,57.44,64.408,55.452,69.452,53.218C74.478,50.994,78.932,48.586,83.325,46.156C85.67,44.859,88.622,45.709,89.919,48.054C91.216,50.399,90.367,53.351,88.022,54.648C83.586,57.103,78.816,59.682,73.381,62.09C67.964,64.491,62.18,66.588,56.665,68.543C49.98,70.911,40.717,70.911,34.025,68.554C28.47,66.602,22.618,64.505,17.165,62.09C11.689,59.664,6.92,57.056,2.488,54.579C0.15,53.273,-0.688,50.321,0.616,47.982ZM0.616,68.195C1.242,67.071,2.288,66.242,3.526,65.89C4.763,65.539,6.09,65.693,7.214,66.32C11.613,68.775,16.049,71.201,21.094,73.432C26.156,75.677,31.671,77.658,37.245,79.617C41.858,81.239,48.843,81.235,53.428,79.61C58.939,77.654,64.408,75.666,69.452,73.432C74.478,71.208,78.932,68.8,83.325,66.37C84.844,65.505,86.711,65.523,88.213,66.419C89.714,67.314,90.618,68.948,90.579,70.696C90.539,72.444,89.562,74.035,88.022,74.862C83.586,77.317,78.816,79.896,73.381,82.304C67.964,84.705,62.18,86.801,56.665,88.757C49.98,91.125,40.717,91.125,34.025,88.771C28.47,86.816,22.618,84.719,17.165,82.304C11.689,79.878,6.92,77.27,2.488,74.793C0.15,73.487,-0.688,70.535,0.616,68.195ZM0.616,68.195"/>
</g>
  <g id="Light-L" transform="matrix(1.0,0.0,0.0,1.0,1109.1543876447336,1475.5044071759835)">  <path stroke-miterlimit="4" stroke-width="1px" stroke-dasharray="none" fill="#000000" stroke-linecap="butt" stroke-opacity="1" fill-rule="evenodd" stroke-linejoin="miter" stroke="none" fill-opacity="1" clip-rule="evenodd" d="M34.507,1.821C40.83,-0.605,49.56,-0.605,55.89,1.807C61.018,3.762,66.439,5.863,71.494,8.289C76.571,10.73,80.993,13.352,85.085,15.825C87.884,17.516,90.538,20.351,90.531,24.288C90.524,28.22,87.859,31.052,85.049,32.74C80.953,35.195,76.539,37.784,71.494,40.199C66.472,42.611,61.116,44.715,56.028,46.671C49.702,49.101,40.971,49.097,34.641,46.685C29.513,44.73,24.092,42.629,19.033,40.203C13.96,37.766,9.538,35.141,5.446,32.671C2.647,30.973,-0.007,28.137,0,24.204C0.007,20.272,2.672,17.44,5.483,15.752C9.578,13.297,13.993,10.708,19.037,8.289C24.06,5.881,29.415,3.777,34.507,1.821ZM0.616,47.982C1.92,45.643,4.873,44.803,7.214,46.106C11.613,48.561,16.049,50.987,21.094,53.218C26.156,55.463,31.671,57.444,37.245,59.403C41.858,61.025,48.843,61.022,53.428,59.396C58.939,57.44,64.408,55.452,69.452,53.218C74.478,50.994,78.932,48.586,83.325,46.156C85.67,44.859,88.622,45.709,89.919,48.054C91.216,50.399,90.367,53.351,88.022,54.648C83.586,57.103,78.816,59.682,73.381,62.09C67.964,64.491,62.18,66.588,56.665,68.543C49.98,70.911,40.717,70.911,34.025,68.554C28.47,66.602,22.618,64.505,17.165,62.09C11.689,59.664,6.92,57.056,2.488,54.579C0.15,53.273,-0.688,50.321,0.616,47.982ZM0.616,68.195C1.242,67.071,2.288,66.242,3.526,65.89C4.763,65.539,6.09,65.693,7.214,66.32C11.613,68.775,16.049,71.201,21.094,73.432C26.156,75.677,31.671,77.658,37.245,79.617C41.858,81.239,48.843,81.235,53.428,79.61C58.939,77.654,64.408,75.666,69.452,73.432C74.478,71.208,78.932,68.8,83.325,66.37C84.844,65.505,86.711,65.523,88.213,66.419C89.714,67.314,90.618,68.948,90.579,70.696C90.539,72.444,89.562,74.035,88.022,74.862C83.586,77.317,78.816,79.896,73.381,82.304C67.964,84.705,62.18,86.801,56.665,88.757C49.98,91.125,40.717,91.125,34.025,88.771C28.47,86.816,22.618,84.719,17.165,82.304C11.689,79.878,6.92,77.27,2.488,74.793C0.15,73.487,-0.688,70.535,0.616,68.195ZM0.616,68.195"/>
</g>
  <g id="Thin-L" transform="matrix(1.0,0.0,0.0,1.0,812.4443876447336,1475.5044071759835)">  <path stroke="none" stroke-opacity="1" fill-rule="evenodd" stroke-linecap="butt" fill-opacity="1" stroke-miterlimit="4" stroke-width="1px" stroke-linejoin="miter" clip-rule="evenodd" stroke-dasharray="none" fill="#000000" d="M34.507,1.821C40.83,-0.605,49.56,-0.605,55.89,1.807C61.018,3.762,66.439,5.863,71.494,8.289C76.571,10.73,80.993,13.352,85.085,15.825C87.884,17.516,90.538,20.351,90.531,24.288C90.524,28.22,87.859,31.052,85.049,32.74C80.953,35.195,76.539,37.784,71.494,40.199C66.472,42.611,61.116,44.715,56.028,46.671C49.702,49.101,40.971,49.097,34.641,46.685C29.513,44.73,24.092,42.629,19.033,40.203C13.96,37.766,9.538,35.141,5.446,32.671C2.647,30.973,-0.007,28.137,0,24.204C0.007,20.272,2.672,17.44,5.483,15.752C9.578,13.297,13.993,10.708,19.037,8.289C24.06,5.881,29.415,3.777,34.507,1.821ZM0.616,47.982C1.92,45.643,4.873,44.803,7.214,46.106C11.613,48.561,16.049,50.987,21.094,53.218C26.156,55.463,31.671,57.444,37.245,59.403C41.858,61.025,48.843,61.022,53.428,59.396C58.939,57.44,64.408,55.452,69.452,53.218C74.478,50.994,78.932,48.586,83.325,46.156C85.67,44.859,88.622,45.709,89.919,48.054C91.216,50.399,90.367,53.351,88.022,54.648C83.586,57.103,78.816,59.682,73.381,62.09C67.964,64.491,62.18,66.588,56.665,68.543C49.98,70.911,40.717,70.911,34.025,68.554C28.47,66.602,22.618,64.505,17.165,62.09C11.689,59.664,6.92,57.056,2.488,54.579C0.15,53.273,-0.688,50.321,0.616,47.982ZM0.616,68.195C1.242,67.071,2.288,66.242,3.526,65.89C4.763,65.539,6.09,65.693,7.214,66.32C11.613,68.775,16.049,71.201,21.094,73.432C26.156,75.677,31.671,77.658,37.245,79.617C41.858,81.239,48.843,81.235,53.428,79.61C58.939,77.654,64.408,75.666,69.452,73.432C74.478,71.208,78.932,68.8,83.325,66.37C84.844,65.505,86.711,65.523,88.213,66.419C89.714,67.314,90.618,68.948,90.579,70.696C90.539,72.444,89.562,74.035,88.022,74.862C83.586,77.317,78.816,79.896,73.381,82.304C67.964,84.705,62.18,86.801,56.665,88.757C49.98,91.125,40.717,91.125,34.025,88.771C28.47,86.816,22.618,84.719,17.165,82.304C11.689,79.878,6.92,77.27,2.488,74.793C0.15,73.487,-0.688,70.535,0.616,68.195ZM0.616,68.195"/>
</g>
  <g id="Ultralight-L" transform="matrix(1.0,0.0,0.0,1.0,515.7343876447336,1475.5044071759835)">  <path stroke-linejoin="miter" stroke="none" stroke-opacity="1" fill-rule="evenodd" fill-opacity="1" stroke-linecap="butt" fill="#000000" stroke-width="1px" stroke-dasharray="none" clip-rule="evenodd" stroke-miterlimit="4" d="M34.507,1.821C40.83,-0.605,49.56,-0.605,55.89,1.807C61.018,3.762,66.439,5.863,71.494,8.289C76.571,10.73,80.993,13.352,85.085,15.825C87.884,17.516,90.538,20.351,90.531,24.288C90.524,28.22,87.859,31.052,85.049,32.74C80.953,35.195,76.539,37.784,71.494,40.199C66.472,42.611,61.116,44.715,56.028,46.671C49.702,49.101,40.971,49.097,34.641,46.685C29.513,44.73,24.092,42.629,19.033,40.203C13.96,37.766,9.538,35.141,5.446,32.671C2.647,30.973,-0.007,28.137,0,24.204C0.007,20.272,2.672,17.44,5.483,15.752C9.578,13.297,13.993,10.708,19.037,8.289C24.06,5.881,29.415,3.777,34.507,1.821ZM0.616,47.982C1.92,45.643,4.873,44.803,7.214,46.106C11.613,48.561,16.049,50.987,21.094,53.218C26.156,55.463,31.671,57.444,37.245,59.403C41.858,61.025,48.843,61.022,53.428,59.396C58.939,57.44,64.408,55.452,69.452,53.218C74.478,50.994,78.932,48.586,83.325,46.156C85.67,44.859,88.622,45.709,89.919,48.054C91.216,50.399,90.367,53.351,88.022,54.648C83.586,57.103,78.816,59.682,73.381,62.09C67.964,64.491,62.18,66.588,56.665,68.543C49.98,70.911,40.717,70.911,34.025,68.554C28.47,66.602,22.618,64.505,17.165,62.09C11.689,59.664,6.92,57.056,2.488,54.579C0.15,53.273,-0.688,50.321,0.616,47.982ZM0.616,68.195C1.242,67.071,2.288,66.242,3.526,65.89C4.763,65.539,6.09,65.693,7.214,66.32C11.613,68.775,16.049,71.201,21.094,73.432C26.156,75.677,31.671,77.658,37.245,79.617C41.858,81.239,48.843,81.235,53.428,79.61C58.939,77.654,64.408,75.666,69.452,73.432C74.478,71.208,78.932,68.8,83.325,66.37C84.844,65.505,86.711,65.523,88.213,66.419C89.714,67.314,90.618,68.948,90.579,70.696C90.539,72.444,89.562,74.035,88.022,74.862C83.586,77.317,78.816,79.896,73.381,82.304C67.964,84.705,62.18,86.801,56.665,88.757C49.98,91.125,40.717,91.125,34.025,88.771C28.47,86.816,22.618,84.719,17.165,82.304C11.689,79.878,6.92,77.27,2.488,74.793C0.15,73.487,-0.688,70.535,0.616,68.195ZM0.616,68.195"/>
</g>
  <g id="Black-M" transform="matrix(1.0,0.0,0.0,1.0,2899.590378019173,1055.6803975504233)">  <path clip-rule="evenodd" fill="#000000" stroke="none" stroke-linejoin="miter" stroke-opacity="1" stroke-linecap="butt" stroke-dasharray="none" stroke-width="1px" fill-opacity="1" fill-rule="evenodd" stroke-miterlimit="4" d="M26.75,1.412C31.651,-0.469,38.419,-0.469,43.326,1.401C47.301,2.917,51.503,4.545,55.422,6.426C59.358,8.318,62.785,10.35,65.957,12.267C68.127,13.578,70.185,15.776,70.179,18.828C70.174,21.876,68.108,24.071,65.929,25.38C62.754,27.283,59.332,29.29,55.422,31.162C51.528,33.032,47.377,34.663,43.433,36.179C38.528,38.062,31.76,38.06,26.853,36.19C22.878,34.674,18.676,33.046,14.754,31.165C10.822,29.276,7.394,27.241,4.222,25.326C2.052,24.01,-0.006,21.812,0,18.763C0.006,15.715,2.072,13.519,4.25,12.211C7.425,10.308,10.847,8.301,14.757,6.426C18.651,4.559,22.803,2.928,26.75,1.412ZM0.477,37.195C1.489,35.382,3.778,34.731,5.592,35.741C9.003,37.644,12.441,39.525,16.352,41.254C20.276,42.995,24.552,44.53,28.872,46.049C32.448,47.306,37.863,47.304,41.417,46.043C45.689,44.527,49.928,42.986,53.839,41.254C57.735,39.531,61.188,37.664,64.593,35.78C66.411,34.775,68.699,35.433,69.705,37.251C70.71,39.069,70.052,41.358,68.234,42.363C64.795,44.266,61.098,46.265,56.884,48.132C52.685,49.993,48.202,51.618,43.927,53.134C38.745,54.97,31.564,54.97,26.376,53.143C22.07,51.629,17.534,50.004,13.306,48.132C9.062,46.251,5.365,44.23,1.929,42.31C0.116,41.297,-0.533,39.008,0.477,37.195ZM0.477,52.865C0.962,51.993,1.774,51.351,2.733,51.078C3.693,50.805,4.721,50.925,5.592,51.411C9.003,53.314,12.441,55.195,16.352,56.924C20.276,58.664,24.552,60.2,28.872,61.718C32.448,62.976,37.863,62.973,41.417,61.713C45.689,60.197,49.928,58.656,53.839,56.924C57.735,55.2,61.188,53.333,64.593,51.45C65.771,50.779,67.218,50.793,68.382,51.487C69.546,52.181,70.247,53.448,70.216,54.803C70.185,56.158,69.428,57.392,68.234,58.033C64.795,59.936,61.098,61.935,56.884,63.801C52.685,65.663,48.202,67.288,43.927,68.804C38.745,70.64,31.564,70.64,26.376,68.815C22.07,67.299,17.534,65.674,13.306,63.801C9.062,61.921,5.365,59.899,1.929,57.979C0.116,56.967,-0.533,54.678,0.477,52.865ZM0.477,52.865"/>
</g>
  <g id="Heavy-M" transform="matrix(1.0,0.0,0.0,1.0,2602.880378019173,1055.6803975504233)">  <path stroke-miterlimit="4" stroke-linecap="butt" stroke-width="1px" fill="#000000" clip-rule="evenodd" fill-rule="evenodd" stroke-dasharray="none" stroke="none" stroke-opacity="1" stroke-linejoin="miter" fill-opacity="1" d="M26.75,1.412C31.651,-0.469,38.419,-0.469,43.326,1.401C47.301,2.917,51.503,4.545,55.422,6.426C59.358,8.318,62.785,10.35,65.957,12.267C68.127,13.578,70.185,15.776,70.179,18.828C70.174,21.876,68.108,24.071,65.929,25.38C62.754,27.283,59.332,29.29,55.422,31.162C51.528,33.032,47.377,34.663,43.433,36.179C38.528,38.062,31.76,38.06,26.853,36.19C22.878,34.674,18.676,33.046,14.754,31.165C10.822,29.276,7.394,27.241,4.222,25.326C2.052,24.01,-0.006,21.812,0,18.763C0.006,15.715,2.072,13.519,4.25,12.211C7.425,10.308,10.847,8.301,14.757,6.426C18.651,4.559,22.803,2.928,26.75,1.412ZM0.477,37.195C1.489,35.382,3.778,34.731,5.592,35.741C9.003,37.644,12.441,39.525,16.352,41.254C20.276,42.995,24.552,44.53,28.872,46.049C32.448,47.306,37.863,47.304,41.417,46.043C45.689,44.527,49.928,42.986,53.839,41.254C57.735,39.531,61.188,37.664,64.593,35.78C66.411,34.775,68.699,35.433,69.705,37.251C70.71,39.069,70.052,41.358,68.234,42.363C64.795,44.266,61.098,46.265,56.884,48.132C52.685,49.993,48.202,51.618,43.927,53.134C38.745,54.97,31.564,54.97,26.376,53.143C22.07,51.629,17.534,50.004,13.306,48.132C9.062,46.251,5.365,44.23,1.929,42.31C0.116,41.297,-0.533,39.008,0.477,37.195ZM0.477,52.865C0.962,51.993,1.774,51.351,2.733,51.078C3.693,50.805,4.721,50.925,5.592,51.411C9.003,53.314,12.441,55.195,16.352,56.924C20.276,58.664,24.552,60.2,28.872,61.718C32.448,62.976,37.863,62.973,41.417,61.713C45.689,60.197,49.928,58.656,53.839,56.924C57.735,55.2,61.188,53.333,64.593,51.45C65.771,50.779,67.218,50.793,68.382,51.487C69.546,52.181,70.247,53.448,70.216,54.803C70.185,56.158,69.428,57.392,68.234,58.033C64.795,59.936,61.098,61.935,56.884,63.801C52.685,65.663,48.202,67.288,43.927,68.804C38.745,70.64,31.564,70.64,26.376,68.815C22.07,67.299,17.534,65.674,13.306,63.801C9.062,61.921,5.365,59.899,1.929,57.979C0.116,56.967,-0.533,54.678,0.477,52.865ZM0.477,52.865"/>
</g>
  <g id="Bold-M" transform="matrix(1.0,0.0,0.0,1.0,2306.170378019173,1055.6803975504233)">  <path stroke-linecap="butt" clip-rule="evenodd" stroke-opacity="1" fill-rule="evenodd" stroke-dasharray="none" stroke-miterlimit="4" stroke-linejoin="miter" stroke="none" fill-opacity="1" fill="#000000" stroke-width="1px" d="M26.75,1.412C31.651,-0.469,38.419,-0.469,43.326,1.401C47.301,2.917,51.503,4.545,55.422,6.426C59.358,8.318,62.785,10.35,65.957,12.267C68.127,13.578,70.185,15.776,70.179,18.828C70.174,21.876,68.108,24.071,65.929,25.38C62.754,27.283,59.332,29.29,55.422,31.162C51.528,33.032,47.377,34.663,43.433,36.179C38.528,38.062,31.76,38.06,26.853,36.19C22.878,34.674,18.676,33.046,14.754,31.165C10.822,29.276,7.394,27.241,4.222,25.326C2.052,24.01,-0.006,21.812,0,18.763C0.006,15.715,2.072,13.519,4.25,12.211C7.425,10.308,10.847,8.301,14.757,6.426C18.651,4.559,22.803,2.928,26.75,1.412ZM0.477,37.195C1.489,35.382,3.778,34.731,5.592,35.741C9.003,37.644,12.441,39.525,16.352,41.254C20.276,42.995,24.552,44.53,28.872,46.049C32.448,47.306,37.863,47.304,41.417,46.043C45.689,44.527,49.928,42.986,53.839,41.254C57.735,39.531,61.188,37.664,64.593,35.78C66.411,34.775,68.699,35.433,69.705,37.251C70.71,39.069,70.052,41.358,68.234,42.363C64.795,44.266,61.098,46.265,56.884,48.132C52.685,49.993,48.202,51.618,43.927,53.134C38.745,54.97,31.564,54.97,26.376,53.143C22.07,51.629,17.534,50.004,13.306,48.132C9.062,46.251,5.365,44.23,1.929,42.31C0.116,41.297,-0.533,39.008,0.477,37.195ZM0.477,52.865C0.962,51.993,1.774,51.351,2.733,51.078C3.693,50.805,4.721,50.925,5.592,51.411C9.003,53.314,12.441,55.195,16.352,56.924C20.276,58.664,24.552,60.2,28.872,61.718C32.448,62.976,37.863,62.973,41.417,61.713C45.689,60.197,49.928,58.656,53.839,56.924C57.735,55.2,61.188,53.333,64.593,51.45C65.771,50.779,67.218,50.793,68.382,51.487C69.546,52.181,70.247,53.448,70.216,54.803C70.185,56.158,69.428,57.392,68.234,58.033C64.795,59.936,61.098,61.935,56.884,63.801C52.685,65.663,48.202,67.288,43.927,68.804C38.745,70.64,31.564,70.64,26.376,68.815C22.07,67.299,17.534,65.674,13.306,63.801C9.062,61.921,5.365,59.899,1.929,57.979C0.116,56.967,-0.533,54.678,0.477,52.865ZM0.477,52.865"/>
</g>
  <g id="Semibold-M" transform="matrix(1.0,0.0,0.0,1.0,2009.4603780191733,1055.6803975504233)">  <path stroke-opacity="1" stroke="none" fill-opacity="1" fill-rule="evenodd" stroke-linecap="butt" stroke-width="1px" fill="#000000" stroke-linejoin="miter" stroke-miterlimit="4" clip-rule="evenodd" stroke-dasharray="none" d="M26.75,1.412C31.651,-0.469,38.419,-0.469,43.326,1.401C47.301,2.917,51.503,4.545,55.422,6.426C59.358,8.318,62.785,10.35,65.957,12.267C68.127,13.578,70.185,15.776,70.179,18.828C70.174,21.876,68.108,24.071,65.929,25.38C62.754,27.283,59.332,29.29,55.422,31.162C51.528,33.032,47.377,34.663,43.433,36.179C38.528,38.062,31.76,38.06,26.853,36.19C22.878,34.674,18.676,33.046,14.754,31.165C10.822,29.276,7.394,27.241,4.222,25.326C2.052,24.01,-0.006,21.812,0,18.763C0.006,15.715,2.072,13.519,4.25,12.211C7.425,10.308,10.847,8.301,14.757,6.426C18.651,4.559,22.803,2.928,26.75,1.412ZM0.477,37.195C1.489,35.382,3.778,34.731,5.592,35.741C9.003,37.644,12.441,39.525,16.352,41.254C20.276,42.995,24.552,44.53,28.872,46.049C32.448,47.306,37.863,47.304,41.417,46.043C45.689,44.527,49.928,42.986,53.839,41.254C57.735,39.531,61.188,37.664,64.593,35.78C66.411,34.775,68.699,35.433,69.705,37.251C70.71,39.069,70.052,41.358,68.234,42.363C64.795,44.266,61.098,46.265,56.884,48.132C52.685,49.993,48.202,51.618,43.927,53.134C38.745,54.97,31.564,54.97,26.376,53.143C22.07,51.629,17.534,50.004,13.306,48.132C9.062,46.251,5.365,44.23,1.929,42.31C0.116,41.297,-0.533,39.008,0.477,37.195ZM0.477,52.865C0.962,51.993,1.774,51.351,2.733,51.078C3.693,50.805,4.721,50.925,5.592,51.411C9.003,53.314,12.441,55.195,16.352,56.924C20.276,58.664,24.552,60.2,28.872,61.718C32.448,62.976,37.863,62.973,41.417,61.713C45.689,60.197,49.928,58.656,53.839,56.924C57.735,55.2,61.188,53.333,64.593,51.45C65.771,50.779,67.218,50.793,68.382,51.487C69.546,52.181,70.247,53.448,70.216,54.803C70.185,56.158,69.428,57.392,68.234,58.033C64.795,59.936,61.098,61.935,56.884,63.801C52.685,65.663,48.202,67.288,43.927,68.804C38.745,70.64,31.564,70.64,26.376,68.815C22.07,67.299,17.534,65.674,13.306,63.801C9.062,61.921,5.365,59.899,1.929,57.979C0.116,56.967,-0.533,54.678,0.477,52.865ZM0.477,52.865"/>
</g>
  <g id="Medium-M" transform="matrix(1.0,0.0,0.0,1.0,1712.7503780191732,1055.6803975504233)">  <path stroke-miterlimit="4" fill-opacity="1" fill-rule="evenodd" stroke-opacity="1" stroke-linejoin="miter" stroke-width="1px" fill="#000000" stroke-dasharray="none" stroke-linecap="butt" clip-rule="evenodd" stroke="none" d="M26.75,1.412C31.651,-0.469,38.419,-0.469,43.326,1.401C47.301,2.917,51.503,4.545,55.422,6.426C59.358,8.318,62.785,10.35,65.957,12.267C68.127,13.578,70.185,15.776,70.179,18.828C70.174,21.876,68.108,24.071,65.929,25.38C62.754,27.283,59.332,29.29,55.422,31.162C51.528,33.032,47.377,34.663,43.433,36.179C38.528,38.062,31.76,38.06,26.853,36.19C22.878,34.674,18.676,33.046,14.754,31.165C10.822,29.276,7.394,27.241,4.222,25.326C2.052,24.01,-0.006,21.812,0,18.763C0.006,15.715,2.072,13.519,4.25,12.211C7.425,10.308,10.847,8.301,14.757,6.426C18.651,4.559,22.803,2.928,26.75,1.412ZM0.477,37.195C1.489,35.382,3.778,34.731,5.592,35.741C9.003,37.644,12.441,39.525,16.352,41.254C20.276,42.995,24.552,44.53,28.872,46.049C32.448,47.306,37.863,47.304,41.417,46.043C45.689,44.527,49.928,42.986,53.839,41.254C57.735,39.531,61.188,37.664,64.593,35.78C66.411,34.775,68.699,35.433,69.705,37.251C70.71,39.069,70.052,41.358,68.234,42.363C64.795,44.266,61.098,46.265,56.884,48.132C52.685,49.993,48.202,51.618,43.927,53.134C38.745,54.97,31.564,54.97,26.376,53.143C22.07,51.629,17.534,50.004,13.306,48.132C9.062,46.251,5.365,44.23,1.929,42.31C0.116,41.297,-0.533,39.008,0.477,37.195ZM0.477,52.865C0.962,51.993,1.774,51.351,2.733,51.078C3.693,50.805,4.721,50.925,5.592,51.411C9.003,53.314,12.441,55.195,16.352,56.924C20.276,58.664,24.552,60.2,28.872,61.718C32.448,62.976,37.863,62.973,41.417,61.713C45.689,60.197,49.928,58.656,53.839,56.924C57.735,55.2,61.188,53.333,64.593,51.45C65.771,50.779,67.218,50.793,68.382,51.487C69.546,52.181,70.247,53.448,70.216,54.803C70.185,56.158,69.428,57.392,68.234,58.033C64.795,59.936,61.098,61.935,56.884,63.801C52.685,65.663,48.202,67.288,43.927,68.804C38.745,70.64,31.564,70.64,26.376,68.815C22.07,67.299,17.534,65.674,13.306,63.801C9.062,61.921,5.365,59.899,1.929,57.979C0.116,56.967,-0.533,54.678,0.477,52.865ZM0.477,52.865"/>
</g>
  <g id="Regular-M" transform="matrix(1.0,0.0,0.0,1.0,1416.0403780191732,1055.6803975504233)">  <path stroke-linejoin="miter" stroke-linecap="butt" fill-opacity="1" clip-rule="evenodd" fill="#000000" fill-rule="evenodd" stroke-width="1px" stroke-dasharray="none" stroke-miterlimit="4" stroke-opacity="1" stroke="none" d="M26.75,1.412C31.651,-0.469,38.419,-0.469,43.326,1.401C47.301,2.917,51.503,4.545,55.422,6.426C59.358,8.318,62.785,10.35,65.957,12.267C68.127,13.578,70.185,15.776,70.179,18.828C70.174,21.876,68.108,24.071,65.929,25.38C62.754,27.283,59.332,29.29,55.422,31.162C51.528,33.032,47.377,34.663,43.433,36.179C38.528,38.062,31.76,38.06,26.853,36.19C22.878,34.674,18.676,33.046,14.754,31.165C10.822,29.276,7.394,27.241,4.222,25.326C2.052,24.01,-0.006,21.812,0,18.763C0.006,15.715,2.072,13.519,4.25,12.211C7.425,10.308,10.847,8.301,14.757,6.426C18.651,4.559,22.803,2.928,26.75,1.412ZM0.477,37.195C1.489,35.382,3.778,34.731,5.592,35.741C9.003,37.644,12.441,39.525,16.352,41.254C20.276,42.995,24.552,44.53,28.872,46.049C32.448,47.306,37.863,47.304,41.417,46.043C45.689,44.527,49.928,42.986,53.839,41.254C57.735,39.531,61.188,37.664,64.593,35.78C66.411,34.775,68.699,35.433,69.705,37.251C70.71,39.069,70.052,41.358,68.234,42.363C64.795,44.266,61.098,46.265,56.884,48.132C52.685,49.993,48.202,51.618,43.927,53.134C38.745,54.97,31.564,54.97,26.376,53.143C22.07,51.629,17.534,50.004,13.306,48.132C9.062,46.251,5.365,44.23,1.929,42.31C0.116,41.297,-0.533,39.008,0.477,37.195ZM0.477,52.865C0.962,51.993,1.774,51.351,2.733,51.078C3.693,50.805,4.721,50.925,5.592,51.411C9.003,53.314,12.441,55.195,16.352,56.924C20.276,58.664,24.552,60.2,28.872,61.718C32.448,62.976,37.863,62.973,41.417,61.713C45.689,60.197,49.928,58.656,53.839,56.924C57.735,55.2,61.188,53.333,64.593,51.45C65.771,50.779,67.218,50.793,68.382,51.487C69.546,52.181,70.247,53.448,70.216,54.803C70.185,56.158,69.428,57.392,68.234,58.033C64.795,59.936,61.098,61.935,56.884,63.801C52.685,65.663,48.202,67.288,43.927,68.804C38.745,70.64,31.564,70.64,26.376,68.815C22.07,67.299,17.534,65.674,13.306,63.801C9.062,61.921,5.365,59.899,1.929,57.979C0.116,56.967,-0.533,54.678,0.477,52.865ZM0.477,52.865"/>
</g>
  <g id="Light-M" transform="matrix(1.0,0.0,0.0,1.0,1119.3303780191734,1055.6803975504233)">  <path stroke-miterlimit="4" stroke-width="1px" stroke-dasharray="none" fill="#000000" stroke-linecap="butt" stroke-opacity="1" fill-rule="evenodd" stroke-linejoin="miter" stroke="none" fill-opacity="1" clip-rule="evenodd" d="M26.75,1.412C31.651,-0.469,38.419,-0.469,43.326,1.401C47.301,2.917,51.503,4.545,55.422,6.426C59.358,8.318,62.785,10.35,65.957,12.267C68.127,13.578,70.185,15.776,70.179,18.828C70.174,21.876,68.108,24.071,65.929,25.38C62.754,27.283,59.332,29.29,55.422,31.162C51.528,33.032,47.377,34.663,43.433,36.179C38.528,38.062,31.76,38.06,26.853,36.19C22.878,34.674,18.676,33.046,14.754,31.165C10.822,29.276,7.394,27.241,4.222,25.326C2.052,24.01,-0.006,21.812,0,18.763C0.006,15.715,2.072,13.519,4.25,12.211C7.425,10.308,10.847,8.301,14.757,6.426C18.651,4.559,22.803,2.928,26.75,1.412ZM0.477,37.195C1.489,35.382,3.778,34.731,5.592,35.741C9.003,37.644,12.441,39.525,16.352,41.254C20.276,42.995,24.552,44.53,28.872,46.049C32.448,47.306,37.863,47.304,41.417,46.043C45.689,44.527,49.928,42.986,53.839,41.254C57.735,39.531,61.188,37.664,64.593,35.78C66.411,34.775,68.699,35.433,69.705,37.251C70.71,39.069,70.052,41.358,68.234,42.363C64.795,44.266,61.098,46.265,56.884,48.132C52.685,49.993,48.202,51.618,43.927,53.134C38.745,54.97,31.564,54.97,26.376,53.143C22.07,51.629,17.534,50.004,13.306,48.132C9.062,46.251,5.365,44.23,1.929,42.31C0.116,41.297,-0.533,39.008,0.477,37.195ZM0.477,52.865C0.962,51.993,1.774,51.351,2.733,51.078C3.693,50.805,4.721,50.925,5.592,51.411C9.003,53.314,12.441,55.195,16.352,56.924C20.276,58.664,24.552,60.2,28.872,61.718C32.448,62.976,37.863,62.973,41.417,61.713C45.689,60.197,49.928,58.656,53.839,56.924C57.735,55.2,61.188,53.333,64.593,51.45C65.771,50.779,67.218,50.793,68.382,51.487C69.546,52.181,70.247,53.448,70.216,54.803C70.185,56.158,69.428,57.392,68.234,58.033C64.795,59.936,61.098,61.935,56.884,63.801C52.685,65.663,48.202,67.288,43.927,68.804C38.745,70.64,31.564,70.64,26.376,68.815C22.07,67.299,17.534,65.674,13.306,63.801C9.062,61.921,5.365,59.899,1.929,57.979C0.116,56.967,-0.533,54.678,0.477,52.865ZM0.477,52.865"/>
</g>
  <g id="Thin-M" transform="matrix(1.0,0.0,0.0,1.0,822.6203780191734,1055.6803975504233)">  <path stroke="none" stroke-opacity="1" fill-rule="evenodd" stroke-linecap="butt" fill-opacity="1" stroke-miterlimit="4" stroke-width="1px" stroke-linejoin="miter" clip-rule="evenodd" stroke-dasharray="none" fill="#000000" d="M26.75,1.412C31.651,-0.469,38.419,-0.469,43.326,1.401C47.301,2.917,51.503,4.545,55.422,6.426C59.358,8.318,62.785,10.35,65.957,12.267C68.127,13.578,70.185,15.776,70.179,18.828C70.174,21.876,68.108,24.071,65.929,25.38C62.754,27.283,59.332,29.29,55.422,31.162C51.528,33.032,47.377,34.663,43.433,36.179C38.528,38.062,31.76,38.06,26.853,36.19C22.878,34.674,18.676,33.046,14.754,31.165C10.822,29.276,7.394,27.241,4.222,25.326C2.052,24.01,-0.006,21.812,0,18.763C0.006,15.715,2.072,13.519,4.25,12.211C7.425,10.308,10.847,8.301,14.757,6.426C18.651,4.559,22.803,2.928,26.75,1.412ZM0.477,37.195C1.489,35.382,3.778,34.731,5.592,35.741C9.003,37.644,12.441,39.525,16.352,41.254C20.276,42.995,24.552,44.53,28.872,46.049C32.448,47.306,37.863,47.304,41.417,46.043C45.689,44.527,49.928,42.986,53.839,41.254C57.735,39.531,61.188,37.664,64.593,35.78C66.411,34.775,68.699,35.433,69.705,37.251C70.71,39.069,70.052,41.358,68.234,42.363C64.795,44.266,61.098,46.265,56.884,48.132C52.685,49.993,48.202,51.618,43.927,53.134C38.745,54.97,31.564,54.97,26.376,53.143C22.07,51.629,17.534,50.004,13.306,48.132C9.062,46.251,5.365,44.23,1.929,42.31C0.116,41.297,-0.533,39.008,0.477,37.195ZM0.477,52.865C0.962,51.993,1.774,51.351,2.733,51.078C3.693,50.805,4.721,50.925,5.592,51.411C9.003,53.314,12.441,55.195,16.352,56.924C20.276,58.664,24.552,60.2,28.872,61.718C32.448,62.976,37.863,62.973,41.417,61.713C45.689,60.197,49.928,58.656,53.839,56.924C57.735,55.2,61.188,53.333,64.593,51.45C65.771,50.779,67.218,50.793,68.382,51.487C69.546,52.181,70.247,53.448,70.216,54.803C70.185,56.158,69.428,57.392,68.234,58.033C64.795,59.936,61.098,61.935,56.884,63.801C52.685,65.663,48.202,67.288,43.927,68.804C38.745,70.64,31.564,70.64,26.376,68.815C22.07,67.299,17.534,65.674,13.306,63.801C9.062,61.921,5.365,59.899,1.929,57.979C0.116,56.967,-0.533,54.678,0.477,52.865ZM0.477,52.865"/>
</g>
  <g id="Ultralight-M" transform="matrix(1.0,0.0,0.0,1.0,525.9103780191733,1055.6803975504233)">  <path stroke-linejoin="miter" stroke="none" stroke-opacity="1" fill-rule="evenodd" fill-opacity="1" stroke-linecap="butt" fill="#000000" stroke-width="1px" stroke-dasharray="none" clip-rule="evenodd" stroke-miterlimit="4" d="M26.75,1.412C31.651,-0.469,38.419,-0.469,43.326,1.401C47.301,2.917,51.503,4.545,55.422,6.426C59.358,8.318,62.785,10.35,65.957,12.267C68.127,13.578,70.185,15.776,70.179,18.828C70.174,21.876,68.108,24.071,65.929,25.38C62.754,27.283,59.332,29.29,55.422,31.162C51.528,33.032,47.377,34.663,43.433,36.179C38.528,38.062,31.76,38.06,26.853,36.19C22.878,34.674,18.676,33.046,14.754,31.165C10.822,29.276,7.394,27.241,4.222,25.326C2.052,24.01,-0.006,21.812,0,18.763C0.006,15.715,2.072,13.519,4.25,12.211C7.425,10.308,10.847,8.301,14.757,6.426C18.651,4.559,22.803,2.928,26.75,1.412ZM0.477,37.195C1.489,35.382,3.778,34.731,5.592,35.741C9.003,37.644,12.441,39.525,16.352,41.254C20.276,42.995,24.552,44.53,28.872,46.049C32.448,47.306,37.863,47.304,41.417,46.043C45.689,44.527,49.928,42.986,53.839,41.254C57.735,39.531,61.188,37.664,64.593,35.78C66.411,34.775,68.699,35.433,69.705,37.251C70.71,39.069,70.052,41.358,68.234,42.363C64.795,44.266,61.098,46.265,56.884,48.132C52.685,49.993,48.202,51.618,43.927,53.134C38.745,54.97,31.564,54.97,26.376,53.143C22.07,51.629,17.534,50.004,13.306,48.132C9.062,46.251,5.365,44.23,1.929,42.31C0.116,41.297,-0.533,39.008,0.477,37.195ZM0.477,52.865C0.962,51.993,1.774,51.351,2.733,51.078C3.693,50.805,4.721,50.925,5.592,51.411C9.003,53.314,12.441,55.195,16.352,56.924C20.276,58.664,24.552,60.2,28.872,61.718C32.448,62.976,37.863,62.973,41.417,61.713C45.689,60.197,49.928,58.656,53.839,56.924C57.735,55.2,61.188,53.333,64.593,51.45C65.771,50.779,67.218,50.793,68.382,51.487C69.546,52.181,70.247,53.448,70.216,54.803C70.185,56.158,69.428,57.392,68.234,58.033C64.795,59.936,61.098,61.935,56.884,63.801C52.685,65.663,48.202,67.288,43.927,68.804C38.745,70.64,31.564,70.64,26.376,68.815C22.07,67.299,17.534,65.674,13.306,63.801C9.062,61.921,5.365,59.899,1.929,57.979C0.116,56.967,-0.533,54.678,0.477,52.865ZM0.477,52.865"/>
</g>
  <g id="Black-S" transform="matrix(1.0,0.0,0.0,1.0,2907.2048259890125,633.2948455202627)">  <path clip-rule="evenodd" fill="#000000" stroke="none" stroke-linejoin="miter" stroke-opacity="1" stroke-linecap="butt" stroke-dasharray="none" stroke-width="1px" fill-opacity="1" fill-rule="evenodd" stroke-miterlimit="4" d="M20.945,1.106C24.783,-0.367,30.082,-0.367,33.924,1.097C37.037,2.284,40.327,3.559,43.395,5.031C46.477,6.513,49.161,8.104,51.645,9.605C53.344,10.632,54.955,12.353,54.95,14.742C54.946,17.129,53.328,18.848,51.623,19.872C49.137,21.362,46.457,22.934,43.395,24.4C40.347,25.864,37.096,27.141,34.008,28.328C30.168,29.803,24.868,29.801,21.026,28.337C17.914,27.15,14.623,25.875,11.553,24.402C8.473,22.923,5.79,21.33,3.306,19.83C1.607,18.8,-0.004,17.079,0,14.692C0.004,12.304,1.622,10.586,3.328,9.561C5.814,8.071,8.493,6.5,11.555,5.031C14.604,3.57,17.854,2.293,20.945,1.106ZM0.374,29.124C1.166,27.704,2.958,27.194,4.378,27.985C7.049,29.475,9.742,30.948,12.803,32.302C15.876,33.665,19.224,34.867,22.607,36.056C25.407,37.041,29.647,37.039,32.429,36.052C35.775,34.865,39.094,33.658,42.156,32.302C45.207,30.952,47.91,29.491,50.576,28.016C52,27.229,53.792,27.744,54.579,29.168C55.366,30.591,54.85,32.383,53.427,33.17C50.735,34.66,47.84,36.225,44.541,37.687C41.252,39.144,37.742,40.417,34.395,41.604C30.337,43.042,24.714,43.042,20.653,41.611C17.281,40.426,13.729,39.153,10.419,37.687C7.095,36.214,4.2,34.632,1.51,33.128C0.091,32.336,-0.417,30.543,0.374,29.124ZM0.374,41.393C0.754,40.711,1.389,40.207,2.14,39.994C2.891,39.78,3.696,39.874,4.378,40.254C7.049,41.745,9.742,43.217,12.803,44.571C15.876,45.934,19.224,47.136,22.607,48.326C25.407,49.31,29.647,49.308,32.429,48.321C35.775,47.134,39.094,45.928,42.156,44.571C45.207,43.222,47.91,41.76,50.576,40.285C51.498,39.76,52.632,39.771,53.543,40.315C54.455,40.858,55.003,41.85,54.979,42.911C54.955,43.972,54.362,44.938,53.427,45.44C50.735,46.93,47.84,48.495,44.541,49.956C41.252,51.414,37.742,52.686,34.395,53.873C30.337,55.311,24.714,55.311,20.653,53.882C17.281,52.695,13.729,51.423,10.419,49.956C7.095,48.484,4.2,46.901,1.51,45.398C0.091,44.605,-0.417,42.813,0.374,41.393ZM0.374,41.393"/>
</g>
  <g id="Heavy-S" transform="matrix(1.0,0.0,0.0,1.0,2610.4948259890125,633.2948455202627)">  <path stroke-miterlimit="4" stroke-linecap="butt" stroke-width="1px" fill="#000000" clip-rule="evenodd" fill-rule="evenodd" stroke-dasharray="none" stroke="none" stroke-opacity="1" stroke-linejoin="miter" fill-opacity="1" d="M20.945,1.106C24.783,-0.367,30.082,-0.367,33.924,1.097C37.037,2.284,40.327,3.559,43.395,5.031C46.477,6.513,49.161,8.104,51.645,9.605C53.344,10.632,54.955,12.353,54.95,14.742C54.946,17.129,53.328,18.848,51.623,19.872C49.137,21.362,46.457,22.934,43.395,24.4C40.347,25.864,37.096,27.141,34.008,28.328C30.168,29.803,24.868,29.801,21.026,28.337C17.914,27.15,14.623,25.875,11.553,24.402C8.473,22.923,5.79,21.33,3.306,19.83C1.607,18.8,-0.004,17.079,0,14.692C0.004,12.304,1.622,10.586,3.328,9.561C5.814,8.071,8.493,6.5,11.555,5.031C14.604,3.57,17.854,2.293,20.945,1.106ZM0.374,29.124C1.166,27.704,2.958,27.194,4.378,27.985C7.049,29.475,9.742,30.948,12.803,32.302C15.876,33.665,19.224,34.867,22.607,36.056C25.407,37.041,29.647,37.039,32.429,36.052C35.775,34.865,39.094,33.658,42.156,32.302C45.207,30.952,47.91,29.491,50.576,28.016C52,27.229,53.792,27.744,54.579,29.168C55.366,30.591,54.85,32.383,53.427,33.17C50.735,34.66,47.84,36.225,44.541,37.687C41.252,39.144,37.742,40.417,34.395,41.604C30.337,43.042,24.714,43.042,20.653,41.611C17.281,40.426,13.729,39.153,10.419,37.687C7.095,36.214,4.2,34.632,1.51,33.128C0.091,32.336,-0.417,30.543,0.374,29.124ZM0.374,41.393C0.754,40.711,1.389,40.207,2.14,39.994C2.891,39.78,3.696,39.874,4.378,40.254C7.049,41.745,9.742,43.217,12.803,44.571C15.876,45.934,19.224,47.136,22.607,48.326C25.407,49.31,29.647,49.308,32.429,48.321C35.775,47.134,39.094,45.928,42.156,44.571C45.207,43.222,47.91,41.76,50.576,40.285C51.498,39.76,52.632,39.771,53.543,40.315C54.455,40.858,55.003,41.85,54.979,42.911C54.955,43.972,54.362,44.938,53.427,45.44C50.735,46.93,47.84,48.495,44.541,49.956C41.252,51.414,37.742,52.686,34.395,53.873C30.337,55.311,24.714,55.311,20.653,53.882C17.281,52.695,13.729,51.423,10.419,49.956C7.095,48.484,4.2,46.901,1.51,45.398C0.091,44.605,-0.417,42.813,0.374,41.393ZM0.374,41.393"/>
</g>
  <g id="Bold-S" transform="matrix(1.0,0.0,0.0,1.0,2313.7848259890125,633.2948455202627)">  <path stroke-linecap="butt" clip-rule="evenodd" stroke-opacity="1" fill-rule="evenodd" stroke-dasharray="none" stroke-miterlimit="4" stroke-linejoin="miter" stroke="none" fill-opacity="1" fill="#000000" stroke-width="1px" d="M20.945,1.106C24.783,-0.367,30.082,-0.367,33.924,1.097C37.037,2.284,40.327,3.559,43.395,5.031C46.477,6.513,49.161,8.104,51.645,9.605C53.344,10.632,54.955,12.353,54.95,14.742C54.946,17.129,53.328,18.848,51.623,19.872C49.137,21.362,46.457,22.934,43.395,24.4C40.347,25.864,37.096,27.141,34.008,28.328C30.168,29.803,24.868,29.801,21.026,28.337C17.914,27.15,14.623,25.875,11.553,24.402C8.473,22.923,5.79,21.33,3.306,19.83C1.607,18.8,-0.004,17.079,0,14.692C0.004,12.304,1.622,10.586,3.328,9.561C5.814,8.071,8.493,6.5,11.555,5.031C14.604,3.57,17.854,2.293,20.945,1.106ZM0.374,29.124C1.166,27.704,2.958,27.194,4.378,27.985C7.049,29.475,9.742,30.948,12.803,32.302C15.876,33.665,19.224,34.867,22.607,36.056C25.407,37.041,29.647,37.039,32.429,36.052C35.775,34.865,39.094,33.658,42.156,32.302C45.207,30.952,47.91,29.491,50.576,28.016C52,27.229,53.792,27.744,54.579,29.168C55.366,30.591,54.85,32.383,53.427,33.17C50.735,34.66,47.84,36.225,44.541,37.687C41.252,39.144,37.742,40.417,34.395,41.604C30.337,43.042,24.714,43.042,20.653,41.611C17.281,40.426,13.729,39.153,10.419,37.687C7.095,36.214,4.2,34.632,1.51,33.128C0.091,32.336,-0.417,30.543,0.374,29.124ZM0.374,41.393C0.754,40.711,1.389,40.207,2.14,39.994C2.891,39.78,3.696,39.874,4.378,40.254C7.049,41.745,9.742,43.217,12.803,44.571C15.876,45.934,19.224,47.136,22.607,48.326C25.407,49.31,29.647,49.308,32.429,48.321C35.775,47.134,39.094,45.928,42.156,44.571C45.207,43.222,47.91,41.76,50.576,40.285C51.498,39.76,52.632,39.771,53.543,40.315C54.455,40.858,55.003,41.85,54.979,42.911C54.955,43.972,54.362,44.938,53.427,45.44C50.735,46.93,47.84,48.495,44.541,49.956C41.252,51.414,37.742,52.686,34.395,53.873C30.337,55.311,24.714,55.311,20.653,53.882C17.281,52.695,13.729,51.423,10.419,49.956C7.095,48.484,4.2,46.901,1.51,45.398C0.091,44.605,-0.417,42.813,0.374,41.393ZM0.374,41.393"/>
</g>
  <g id="Semibold-S" transform="matrix(1.0,0.0,0.0,1.0,2017.0748259890127,633.2948455202627)">  <path stroke-opacity="1" stroke="none" fill-opacity="1" fill-rule="evenodd" stroke-linecap="butt" stroke-width="1px" fill="#000000" stroke-linejoin="miter" stroke-miterlimit="4" clip-rule="evenodd" stroke-dasharray="none" d="M20.945,1.106C24.783,-0.367,30.082,-0.367,33.924,1.097C37.037,2.284,40.327,3.559,43.395,5.031C46.477,6.513,49.161,8.104,51.645,9.605C53.344,10.632,54.955,12.353,54.95,14.742C54.946,17.129,53.328,18.848,51.623,19.872C49.137,21.362,46.457,22.934,43.395,24.4C40.347,25.864,37.096,27.141,34.008,28.328C30.168,29.803,24.868,29.801,21.026,28.337C17.914,27.15,14.623,25.875,11.553,24.402C8.473,22.923,5.79,21.33,3.306,19.83C1.607,18.8,-0.004,17.079,0,14.692C0.004,12.304,1.622,10.586,3.328,9.561C5.814,8.071,8.493,6.5,11.555,5.031C14.604,3.57,17.854,2.293,20.945,1.106ZM0.374,29.124C1.166,27.704,2.958,27.194,4.378,27.985C7.049,29.475,9.742,30.948,12.803,32.302C15.876,33.665,19.224,34.867,22.607,36.056C25.407,37.041,29.647,37.039,32.429,36.052C35.775,34.865,39.094,33.658,42.156,32.302C45.207,30.952,47.91,29.491,50.576,28.016C52,27.229,53.792,27.744,54.579,29.168C55.366,30.591,54.85,32.383,53.427,33.17C50.735,34.66,47.84,36.225,44.541,37.687C41.252,39.144,37.742,40.417,34.395,41.604C30.337,43.042,24.714,43.042,20.653,41.611C17.281,40.426,13.729,39.153,10.419,37.687C7.095,36.214,4.2,34.632,1.51,33.128C0.091,32.336,-0.417,30.543,0.374,29.124ZM0.374,41.393C0.754,40.711,1.389,40.207,2.14,39.994C2.891,39.78,3.696,39.874,4.378,40.254C7.049,41.745,9.742,43.217,12.803,44.571C15.876,45.934,19.224,47.136,22.607,48.326C25.407,49.31,29.647,49.308,32.429,48.321C35.775,47.134,39.094,45.928,42.156,44.571C45.207,43.222,47.91,41.76,50.576,40.285C51.498,39.76,52.632,39.771,53.543,40.315C54.455,40.858,55.003,41.85,54.979,42.911C54.955,43.972,54.362,44.938,53.427,45.44C50.735,46.93,47.84,48.495,44.541,49.956C41.252,51.414,37.742,52.686,34.395,53.873C30.337,55.311,24.714,55.311,20.653,53.882C17.281,52.695,13.729,51.423,10.419,49.956C7.095,48.484,4.2,46.901,1.51,45.398C0.091,44.605,-0.417,42.813,0.374,41.393ZM0.374,41.393"/>
</g>
  <g id="Medium-S" transform="matrix(1.0,0.0,0.0,1.0,1720.3648259890126,633.2948455202627)">  <path stroke-miterlimit="4" fill-opacity="1" fill-rule="evenodd" stroke-opacity="1" stroke-linejoin="miter" stroke-width="1px" fill="#000000" stroke-dasharray="none" stroke-linecap="butt" clip-rule="evenodd" stroke="none" d="M20.945,1.106C24.783,-0.367,30.082,-0.367,33.924,1.097C37.037,2.284,40.327,3.559,43.395,5.031C46.477,6.513,49.161,8.104,51.645,9.605C53.344,10.632,54.955,12.353,54.95,14.742C54.946,17.129,53.328,18.848,51.623,19.872C49.137,21.362,46.457,22.934,43.395,24.4C40.347,25.864,37.096,27.141,34.008,28.328C30.168,29.803,24.868,29.801,21.026,28.337C17.914,27.15,14.623,25.875,11.553,24.402C8.473,22.923,5.79,21.33,3.306,19.83C1.607,18.8,-0.004,17.079,0,14.692C0.004,12.304,1.622,10.586,3.328,9.561C5.814,8.071,8.493,6.5,11.555,5.031C14.604,3.57,17.854,2.293,20.945,1.106ZM0.374,29.124C1.166,27.704,2.958,27.194,4.378,27.985C7.049,29.475,9.742,30.948,12.803,32.302C15.876,33.665,19.224,34.867,22.607,36.056C25.407,37.041,29.647,37.039,32.429,36.052C35.775,34.865,39.094,33.658,42.156,32.302C45.207,30.952,47.91,29.491,50.576,28.016C52,27.229,53.792,27.744,54.579,29.168C55.366,30.591,54.85,32.383,53.427,33.17C50.735,34.66,47.84,36.225,44.541,37.687C41.252,39.144,37.742,40.417,34.395,41.604C30.337,43.042,24.714,43.042,20.653,41.611C17.281,40.426,13.729,39.153,10.419,37.687C7.095,36.214,4.2,34.632,1.51,33.128C0.091,32.336,-0.417,30.543,0.374,29.124ZM0.374,41.393C0.754,40.711,1.389,40.207,2.14,39.994C2.891,39.78,3.696,39.874,4.378,40.254C7.049,41.745,9.742,43.217,12.803,44.571C15.876,45.934,19.224,47.136,22.607,48.326C25.407,49.31,29.647,49.308,32.429,48.321C35.775,47.134,39.094,45.928,42.156,44.571C45.207,43.222,47.91,41.76,50.576,40.285C51.498,39.76,52.632,39.771,53.543,40.315C54.455,40.858,55.003,41.85,54.979,42.911C54.955,43.972,54.362,44.938,53.427,45.44C50.735,46.93,47.84,48.495,44.541,49.956C41.252,51.414,37.742,52.686,34.395,53.873C30.337,55.311,24.714,55.311,20.653,53.882C17.281,52.695,13.729,51.423,10.419,49.956C7.095,48.484,4.2,46.901,1.51,45.398C0.091,44.605,-0.417,42.813,0.374,41.393ZM0.374,41.393"/>
</g>
  <g id="Regular-S" transform="matrix(1.0,0.0,0.0,1.0,1423.6548259890126,633.2948455202627)">  <path stroke-linejoin="miter" stroke-linecap="butt" fill-opacity="1" clip-rule="evenodd" fill="#000000" fill-rule="evenodd" stroke-width="1px" stroke-dasharray="none" stroke-miterlimit="4" stroke-opacity="1" stroke="none" d="M20.945,1.106C24.783,-0.367,30.082,-0.367,33.924,1.097C37.037,2.284,40.327,3.559,43.395,5.031C46.477,6.513,49.161,8.104,51.645,9.605C53.344,10.632,54.955,12.353,54.95,14.742C54.946,17.129,53.328,18.848,51.623,19.872C49.137,21.362,46.457,22.934,43.395,24.4C40.347,25.864,37.096,27.141,34.008,28.328C30.168,29.803,24.868,29.801,21.026,28.337C17.914,27.15,14.623,25.875,11.553,24.402C8.473,22.923,5.79,21.33,3.306,19.83C1.607,18.8,-0.004,17.079,0,14.692C0.004,12.304,1.622,10.586,3.328,9.561C5.814,8.071,8.493,6.5,11.555,5.031C14.604,3.57,17.854,2.293,20.945,1.106ZM0.374,29.124C1.166,27.704,2.958,27.194,4.378,27.985C7.049,29.475,9.742,30.948,12.803,32.302C15.876,33.665,19.224,34.867,22.607,36.056C25.407,37.041,29.647,37.039,32.429,36.052C35.775,34.865,39.094,33.658,42.156,32.302C45.207,30.952,47.91,29.491,50.576,28.016C52,27.229,53.792,27.744,54.579,29.168C55.366,30.591,54.85,32.383,53.427,33.17C50.735,34.66,47.84,36.225,44.541,37.687C41.252,39.144,37.742,40.417,34.395,41.604C30.337,43.042,24.714,43.042,20.653,41.611C17.281,40.426,13.729,39.153,10.419,37.687C7.095,36.214,4.2,34.632,1.51,33.128C0.091,32.336,-0.417,30.543,0.374,29.124ZM0.374,41.393C0.754,40.711,1.389,40.207,2.14,39.994C2.891,39.78,3.696,39.874,4.378,40.254C7.049,41.745,9.742,43.217,12.803,44.571C15.876,45.934,19.224,47.136,22.607,48.326C25.407,49.31,29.647,49.308,32.429,48.321C35.775,47.134,39.094,45.928,42.156,44.571C45.207,43.222,47.91,41.76,50.576,40.285C51.498,39.76,52.632,39.771,53.543,40.315C54.455,40.858,55.003,41.85,54.979,42.911C54.955,43.972,54.362,44.938,53.427,45.44C50.735,46.93,47.84,48.495,44.541,49.956C41.252,51.414,37.742,52.686,34.395,53.873C30.337,55.311,24.714,55.311,20.653,53.882C17.281,52.695,13.729,51.423,10.419,49.956C7.095,48.484,4.2,46.901,1.51,45.398C0.091,44.605,-0.417,42.813,0.374,41.393ZM0.374,41.393"/>
</g>
  <g id="Light-S" transform="matrix(1.0,0.0,0.0,1.0,1126.9448259890128,633.2948455202627)">  <path stroke-miterlimit="4" stroke-width="1px" stroke-dasharray="none" fill="#000000" stroke-linecap="butt" stroke-opacity="1" fill-rule="evenodd" stroke-linejoin="miter" stroke="none" fill-opacity="1" clip-rule="evenodd" d="M20.945,1.106C24.783,-0.367,30.082,-0.367,33.924,1.097C37.037,2.284,40.327,3.559,43.395,5.031C46.477,6.513,49.161,8.104,51.645,9.605C53.344,10.632,54.955,12.353,54.95,14.742C54.946,17.129,53.328,18.848,51.623,19.872C49.137,21.362,46.457,22.934,43.395,24.4C40.347,25.864,37.096,27.141,34.008,28.328C30.168,29.803,24.868,29.801,21.026,28.337C17.914,27.15,14.623,25.875,11.553,24.402C8.473,22.923,5.79,21.33,3.306,19.83C1.607,18.8,-0.004,17.079,0,14.692C0.004,12.304,1.622,10.586,3.328,9.561C5.814,8.071,8.493,6.5,11.555,5.031C14.604,3.57,17.854,2.293,20.945,1.106ZM0.374,29.124C1.166,27.704,2.958,27.194,4.378,27.985C7.049,29.475,9.742,30.948,12.803,32.302C15.876,33.665,19.224,34.867,22.607,36.056C25.407,37.041,29.647,37.039,32.429,36.052C35.775,34.865,39.094,33.658,42.156,32.302C45.207,30.952,47.91,29.491,50.576,28.016C52,27.229,53.792,27.744,54.579,29.168C55.366,30.591,54.85,32.383,53.427,33.17C50.735,34.66,47.84,36.225,44.541,37.687C41.252,39.144,37.742,40.417,34.395,41.604C30.337,43.042,24.714,43.042,20.653,41.611C17.281,40.426,13.729,39.153,10.419,37.687C7.095,36.214,4.2,34.632,1.51,33.128C0.091,32.336,-0.417,30.543,0.374,29.124ZM0.374,41.393C0.754,40.711,1.389,40.207,2.14,39.994C2.891,39.78,3.696,39.874,4.378,40.254C7.049,41.745,9.742,43.217,12.803,44.571C15.876,45.934,19.224,47.136,22.607,48.326C25.407,49.31,29.647,49.308,32.429,48.321C35.775,47.134,39.094,45.928,42.156,44.571C45.207,43.222,47.91,41.76,50.576,40.285C51.498,39.76,52.632,39.771,53.543,40.315C54.455,40.858,55.003,41.85,54.979,42.911C54.955,43.972,54.362,44.938,53.427,45.44C50.735,46.93,47.84,48.495,44.541,49.956C41.252,51.414,37.742,52.686,34.395,53.873C30.337,55.311,24.714,55.311,20.653,53.882C17.281,52.695,13.729,51.423,10.419,49.956C7.095,48.484,4.2,46.901,1.51,45.398C0.091,44.605,-0.417,42.813,0.374,41.393ZM0.374,41.393"/>
</g>
  <g id="Thin-S" transform="matrix(1.0,0.0,0.0,1.0,830.2348259890127,633.2948455202627)">  <path stroke="none" stroke-opacity="1" fill-rule="evenodd" stroke-linecap="butt" fill-opacity="1" stroke-miterlimit="4" stroke-width="1px" stroke-linejoin="miter" clip-rule="evenodd" stroke-dasharray="none" fill="#000000" d="M20.945,1.106C24.783,-0.367,30.082,-0.367,33.924,1.097C37.037,2.284,40.327,3.559,43.395,5.031C46.477,6.513,49.161,8.104,51.645,9.605C53.344,10.632,54.955,12.353,54.95,14.742C54.946,17.129,53.328,18.848,51.623,19.872C49.137,21.362,46.457,22.934,43.395,24.4C40.347,25.864,37.096,27.141,34.008,28.328C30.168,29.803,24.868,29.801,21.026,28.337C17.914,27.15,14.623,25.875,11.553,24.402C8.473,22.923,5.79,21.33,3.306,19.83C1.607,18.8,-0.004,17.079,0,14.692C0.004,12.304,1.622,10.586,3.328,9.561C5.814,8.071,8.493,6.5,11.555,5.031C14.604,3.57,17.854,2.293,20.945,1.106ZM0.374,29.124C1.166,27.704,2.958,27.194,4.378,27.985C7.049,29.475,9.742,30.948,12.803,32.302C15.876,33.665,19.224,34.867,22.607,36.056C25.407,37.041,29.647,37.039,32.429,36.052C35.775,34.865,39.094,33.658,42.156,32.302C45.207,30.952,47.91,29.491,50.576,28.016C52,27.229,53.792,27.744,54.579,29.168C55.366,30.591,54.85,32.383,53.427,33.17C50.735,34.66,47.84,36.225,44.541,37.687C41.252,39.144,37.742,40.417,34.395,41.604C30.337,43.042,24.714,43.042,20.653,41.611C17.281,40.426,13.729,39.153,10.419,37.687C7.095,36.214,4.2,34.632,1.51,33.128C0.091,32.336,-0.417,30.543,0.374,29.124ZM0.374,41.393C0.754,40.711,1.389,40.207,2.14,39.994C2.891,39.78,3.696,39.874,4.378,40.254C7.049,41.745,9.742,43.217,12.803,44.571C15.876,45.934,19.224,47.136,22.607,48.326C25.407,49.31,29.647,49.308,32.429,48.321C35.775,47.134,39.094,45.928,42.156,44.571C45.207,43.222,47.91,41.76,50.576,40.285C51.498,39.76,52.632,39.771,53.543,40.315C54.455,40.858,55.003,41.85,54.979,42.911C54.955,43.972,54.362,44.938,53.427,45.44C50.735,46.93,47.84,48.495,44.541,49.956C41.252,51.414,37.742,52.686,34.395,53.873C30.337,55.311,24.714,55.311,20.653,53.882C17.281,52.695,13.729,51.423,10.419,49.956C7.095,48.484,4.2,46.901,1.51,45.398C0.091,44.605,-0.417,42.813,0.374,41.393ZM0.374,41.393"/>
</g>
  <g id="Ultralight-S" transform="matrix(1.0,0.0,0.0,1.0,533.5248259890127,633.2948455202627)">  <path stroke-linejoin="miter" stroke="none" stroke-opacity="1" fill-rule="evenodd" fill-opacity="1" stroke-linecap="butt" fill="#000000" stroke-width="1px" stroke-dasharray="none" clip-rule="evenodd" stroke-miterlimit="4" d="M20.945,1.106C24.783,-0.367,30.082,-0.367,33.924,1.097C37.037,2.284,40.327,3.559,43.395,5.031C46.477,6.513,49.161,8.104,51.645,9.605C53.344,10.632,54.955,12.353,54.95,14.742C54.946,17.129,53.328,18.848,51.623,19.872C49.137,21.362,46.457,22.934,43.395,24.4C40.347,25.864,37.096,27.141,34.008,28.328C30.168,29.803,24.868,29.801,21.026,28.337C17.914,27.15,14.623,25.875,11.553,24.402C8.473,22.923,5.79,21.33,3.306,19.83C1.607,18.8,-0.004,17.079,0,14.692C0.004,12.304,1.622,10.586,3.328,9.561C5.814,8.071,8.493,6.5,11.555,5.031C14.604,3.57,17.854,2.293,20.945,1.106ZM0.374,29.124C1.166,27.704,2.958,27.194,4.378,27.985C7.049,29.475,9.742,30.948,12.803,32.302C15.876,33.665,19.224,34.867,22.607,36.056C25.407,37.041,29.647,37.039,32.429,36.052C35.775,34.865,39.094,33.658,42.156,32.302C45.207,30.952,47.91,29.491,50.576,28.016C52,27.229,53.792,27.744,54.579,29.168C55.366,30.591,54.85,32.383,53.427,33.17C50.735,34.66,47.84,36.225,44.541,37.687C41.252,39.144,37.742,40.417,34.395,41.604C30.337,43.042,24.714,43.042,20.653,41.611C17.281,40.426,13.729,39.153,10.419,37.687C7.095,36.214,4.2,34.632,1.51,33.128C0.091,32.336,-0.417,30.543,0.374,29.124ZM0.374,41.393C0.754,40.711,1.389,40.207,2.14,39.994C2.891,39.78,3.696,39.874,4.378,40.254C7.049,41.745,9.742,43.217,12.803,44.571C15.876,45.934,19.224,47.136,22.607,48.326C25.407,49.31,29.647,49.308,32.429,48.321C35.775,47.134,39.094,45.928,42.156,44.571C45.207,43.222,47.91,41.76,50.576,40.285C51.498,39.76,52.632,39.771,53.543,40.315C54.455,40.858,55.003,41.85,54.979,42.911C54.955,43.972,54.362,44.938,53.427,45.44C50.735,46.93,47.84,48.495,44.541,49.956C41.252,51.414,37.742,52.686,34.395,53.873C30.337,55.311,24.714,55.311,20.653,53.882C17.281,52.695,13.729,51.423,10.419,49.956C7.095,48.484,4.2,46.901,1.51,45.398C0.091,44.605,-0.417,42.813,0.374,41.393ZM0.374,41.393"/>
</g>
 </g>
</svg>
