<?xml version="1.0" encoding="UTF-8"?>
<!-- Generator: CustomSymbols v2.7.4.50 by @serious_bret https://bretlester.com/app_content/CustomSymbols/ -->
<!-- Guides: Left/Right -0.014/-0.014 Cap/Base 0.092/0.092 -->
<!-- Settings: RefScale 1.0 Min/Max Stroke Scales 0.5/2.2100000381469727 -->
<!DOCTYPE svg
PUBLIC "-//W3C//DTD SVG 1.1//EN"
       "http://www.w3.org/Graphics/SVG/1.1/DTD/svg11.dtd">
<svg version="1.1" xmlns="http://www.w3.org/2000/svg" xmlns:xlink="http://www.w3.org/1999/xlink" width="3300" height="2200">
<![CDATA[<svg xmlns="http://www.w3.org/2000/svg" width="33" height="30" fill="none" viewBox="0 0 33 30">
  <path id="Home" fill="#000" fill-rule="evenodd" d="M14.312.743a3.594 3.594 0 0 1 4.376 0l1.592 1.22a49.699 49.699 0 0 1 11.83 12.97l.51.812c1.02 1.618-.134 3.735-2.036 3.735h-1.667a34.475 34.475 0 0 1-.363 6.692C28.218 28.375 26.339 30 24.129 30h-4.614v-8.016c0-1.679-1.35-3.04-3.015-3.04s-3.014 1.361-3.014 3.04V30H8.87c-2.21 0-4.089-1.625-4.425-3.828a34.482 34.482 0 0 1-.363-6.692H2.416C.514 19.48-.64 17.363.38 15.744l.51-.81A49.696 49.696 0 0 1 12.72 1.962l1.592-1.22Z" clip-rule="evenodd"/>
</svg>
]]>
 <g id="Notes">
  <rect height="2200" id="artboard" style="fill:white;opacity:1" width="3300" x="0" y="0"/>
  <line id="" style="fill:none;stroke:black;opacity:1;stroke-width:0.5;" x1="263" x2="3036" y1="292" y2="292"/>
  <text id="reftext1" style="stroke:none;fill:black;font-family:-apple-system,&quot;SF Pro Display&quot;,&quot;SF Pro Text&quot;,Helvetica,sans-serif;font-weight:bold;" transform="matrix(1 0 0 1 263 322)">Weight/Scale Variations</text>
  <text id="reftext2" style="stroke:none;fill:black;font-family:-apple-system,&quot;SF Pro Display&quot;,&quot;SF Pro Text&quot;,Helvetica,sans-serif;text-anchor:middle;" transform="matrix(1 0 0 1 559.711 322)">Ultralight</text>
  <text style="stroke:none;fill:black;font-family:-apple-system,&quot;SF Pro Display&quot;,&quot;SF Pro Text&quot;,Helvetica,sans-serif;text-anchor:middle;" transform="matrix(1 0 0 1 856.422 322)">Thin</text>
  <text style="stroke:none;fill:black;font-family:-apple-system,&quot;SF Pro Display&quot;,&quot;SF Pro Text&quot;,Helvetica,sans-serif;text-anchor:middle;" transform="matrix(1 0 0 1 1153.13 322)">Light</text>
  <text style="stroke:none;fill:black;font-family:-apple-system,&quot;SF Pro Display&quot;,&quot;SF Pro Text&quot;,Helvetica,sans-serif;text-anchor:middle;" transform="matrix(1 0 0 1 1449.84 322)">Regular</text>
  <text style="stroke:none;fill:black;font-family:-apple-system,&quot;SF Pro Display&quot;,&quot;SF Pro Text&quot;,Helvetica,sans-serif;text-anchor:middle;" transform="matrix(1 0 0 1 1746.56 322)">Medium</text>
  <text style="stroke:none;fill:black;font-family:-apple-system,&quot;SF Pro Display&quot;,&quot;SF Pro Text&quot;,Helvetica,sans-serif;text-anchor:middle;" transform="matrix(1 0 0 1 2043.27 322)">Semibold</text>
  <text style="stroke:none;fill:black;font-family:-apple-system,&quot;SF Pro Display&quot;,&quot;SF Pro Text&quot;,Helvetica,sans-serif;text-anchor:middle;" transform="matrix(1 0 0 1 2339.98 322)">Bold</text>
  <text style="stroke:none;fill:black;font-family:-apple-system,&quot;SF Pro Display&quot;,&quot;SF Pro Text&quot;,Helvetica,sans-serif;text-anchor:middle;" transform="matrix(1 0 0 1 2636.69 322)">Heavy</text>
  <text style="stroke:none;fill:black;font-family:-apple-system,&quot;SF Pro Display&quot;,&quot;SF Pro Text&quot;,Helvetica,sans-serif;text-anchor:middle;" transform="matrix(1 0 0 1 2933.4 322)">Black</text>
  <line id="" style="fill:none;stroke:black;opacity:1;stroke-width:0.5;" x1="263" x2="3036" y1="1903" y2="1903"/>
  <g id="" transform="matrix(1 0 0 1 263 1933)">
   <path d="M9.24805 0.830078C13.5547 0.830078 17.1387-2.74414 17.1387-7.05078C17.1387-11.3574 13.5449-14.9316 9.23828-14.9316C4.94141-14.9316 1.36719-11.3574 1.36719-7.05078C1.36719-2.74414 4.95117 0.830078 9.24805 0.830078ZM9.24805-0.654297C5.70312-0.654297 2.87109-3.49609 2.87109-7.05078C2.87109-10.6055 5.69336-13.4473 9.23828-13.4473C12.793-13.4473 15.6348-10.6055 15.6445-7.05078C15.6543-3.49609 12.8027-0.654297 9.24805-0.654297ZM6.39648-6.31836L8.50586-6.31836L8.50586-4.19922C8.50586-3.75977 8.79883-3.45703 9.22852-3.45703C9.67773-3.45703 9.9707-3.75977 9.9707-4.19922L9.9707-6.31836L12.0996-6.31836C12.5391-6.31836 12.8418-6.61133 12.8418-7.04102C12.8418-7.48047 12.5391-7.7832 12.0996-7.7832L9.9707-7.7832L9.9707-9.89258C9.9707-10.3418 9.67773-10.6445 9.22852-10.6445C8.79883-10.6445 8.50586-10.3418 8.50586-9.89258L8.50586-7.7832L6.39648-7.7832C5.94727-7.7832 5.64453-7.48047 5.64453-7.04102C5.64453-6.61133 5.94727-6.31836 6.39648-6.31836Z"/>
  </g>
  <g id="" transform="matrix(1 0 0 1 281.506 1933)">
   <path d="M11.709 2.91016C17.1582 2.91016 21.6699-1.61133 21.6699-7.05078C21.6699-12.5 17.1484-17.0117 11.6992-17.0117C6.25977-17.0117 1.74805-12.5 1.74805-7.05078C1.74805-1.61133 6.26953 2.91016 11.709 2.91016ZM11.709 1.25C7.09961 1.25 3.41797-2.44141 3.41797-7.05078C3.41797-11.6602 7.08984-15.3516 11.6992-15.3516C16.3086-15.3516 20-11.6602 20.0098-7.05078C20.0195-2.44141 16.3184 1.25 11.709 1.25ZM7.98828-6.23047L10.8789-6.23047L10.8789-3.32031C10.8789-2.83203 11.2109-2.5 11.6895-2.5C12.1777-2.5 12.5195-2.83203 12.5195-3.32031L12.5195-6.23047L15.4297-6.23047C15.918-6.23047 16.25-6.5625 16.25-7.04102C16.25-7.5293 15.918-7.87109 15.4297-7.87109L12.5195-7.87109L12.5195-10.7617C12.5195-11.2695 12.1777-11.6016 11.6895-11.6016C11.2109-11.6016 10.8789-11.2598 10.8789-10.7617L10.8789-7.87109L7.98828-7.87109C7.48047-7.87109 7.14844-7.5293 7.14844-7.04102C7.14844-6.5625 7.49023-6.23047 7.98828-6.23047Z"/>
  </g>
  <g id="" transform="matrix(1 0 0 1 304.924 1933)">
   <path d="M14.9707 5.66406C21.9336 5.66406 27.6953-0.0976562 27.6953-7.05078C27.6953-14.0137 21.9238-19.7754 14.9609-19.7754C8.00781-19.7754 2.25586-14.0137 2.25586-7.05078C2.25586-0.0976562 8.01758 5.66406 14.9707 5.66406ZM14.9707 3.84766C8.93555 3.84766 4.08203-1.01562 4.08203-7.05078C4.08203-13.0957 8.92578-17.9492 14.9609-17.9492C21.0059-17.9492 25.8594-13.0957 25.8691-7.05078C25.8789-1.01562 21.0156 3.84766 14.9707 3.84766ZM10.0586-6.14258L14.0625-6.14258L14.0625-2.12891C14.0625-1.5918 14.4336-1.2207 14.9512-1.2207C15.4883-1.2207 15.8594-1.5918 15.8594-2.12891L15.8594-6.14258L19.8828-6.14258C20.4102-6.14258 20.791-6.51367 20.791-7.03125C20.791-7.56836 20.4199-7.94922 19.8828-7.94922L15.8594-7.94922L15.8594-11.9531C15.8594-12.5098 15.4883-12.8809 14.9512-12.8809C14.4336-12.8809 14.0625-12.5 14.0625-11.9531L14.0625-7.94922L10.0586-7.94922C9.50195-7.94922 9.13086-7.56836 9.13086-7.03125C9.13086-6.51367 9.51172-6.14258 10.0586-6.14258Z"/>
  </g>
  <text style="stroke:none;fill:black;font-family:-apple-system,&quot;SF Pro Display&quot;,&quot;SF Pro Text&quot;,Helvetica,sans-serif;font-weight:bold;" transform="matrix(1 0 0 1 263 1953)">Design Variations</text>
  <text style="stroke:none;fill:black;font-family:-apple-system,&quot;SF Pro Display&quot;,&quot;SF Pro Text&quot;,Helvetica,sans-serif;" transform="matrix(1 0 0 1 263 1971)">Symbols are supported in up to nine weights and three scales.</text>
  <text style="stroke:none;fill:black;font-family:-apple-system,&quot;SF Pro Display&quot;,&quot;SF Pro Text&quot;,Helvetica,sans-serif;" transform="matrix(1 0 0 1 263 1989)">For optimal layout with text and other symbols, vertically align</text>
  <text style="stroke:none;fill:black;font-family:-apple-system,&quot;SF Pro Display&quot;,&quot;SF Pro Text&quot;,Helvetica,sans-serif;" transform="matrix(1 0 0 1 263 2007)">symbols with the adjacent text.</text>
  <line id="" style="fill:none;stroke:#00AEEF;stroke-width:0.5;opacity:1.0;" x1="776" x2="776" y1="1919" y2="1933"/>
  <g id="" transform="matrix(1 0 0 1 776 1933)">
   <path d="M3.31055 0.126953C3.82812 0.126953 4.08203-0.0683594 4.26758-0.605469L5.52734-4.0625L11.2891-4.0625L12.5488-0.605469C12.7344-0.0683594 12.9883 0.126953 13.4961 0.126953C14.0137 0.126953 14.3457-0.185547 14.3457-0.673828C14.3457-0.839844 14.3164-0.986328 14.2383-1.20117L9.6582-13.3887C9.43359-13.9941 9.0332-14.2871 8.4082-14.2871C7.80273-14.2871 7.39258-13.9941 7.17773-13.3984L2.59766-1.19141C2.51953-0.976562 2.49023-0.830078 2.49023-0.664062C2.49023-0.175781 2.80273 0.126953 3.31055 0.126953ZM6.00586-5.53711L8.37891-12.1094L8.42773-12.1094L10.8008-5.53711Z"/>
  </g>
  <line id="" style="fill:none;stroke:#00AEEF;stroke-width:0.5;opacity:1.0;" x1="792.836" x2="792.836" y1="1919" y2="1933"/>
  <text style="stroke:none;fill:black;font-family:-apple-system,&quot;SF Pro Display&quot;,&quot;SF Pro Text&quot;,Helvetica,sans-serif;font-weight:bold;" transform="matrix(1 0 0 1 776 1953)">Margins</text>
  <text style="stroke:none;fill:black;font-family:-apple-system,&quot;SF Pro Display&quot;,&quot;SF Pro Text&quot;,Helvetica,sans-serif;" transform="matrix(1 0 0 1 776 1971)">Leading and trailing margins on the left and right side of each symbol</text>
  <text style="stroke:none;fill:black;font-family:-apple-system,&quot;SF Pro Display&quot;,&quot;SF Pro Text&quot;,Helvetica,sans-serif;" transform="matrix(1 0 0 1 776 1989)">can be adjusted by modifying the x-location of the margin guidelines.</text>
  <text style="stroke:none;fill:black;font-family:-apple-system,&quot;SF Pro Display&quot;,&quot;SF Pro Text&quot;,Helvetica,sans-serif;" transform="matrix(1 0 0 1 776 2007)">Modifications are automatically applied proportionally to all</text>
  <text style="stroke:none;fill:black;font-family:-apple-system,&quot;SF Pro Display&quot;,&quot;SF Pro Text&quot;,Helvetica,sans-serif;" transform="matrix(1 0 0 1 776 2025)">scales and weights.</text>
  <g id="" transform="matrix(1 0 0 1 1289 1933)">
   <path d="M2.8418 1.86523L4.54102 3.57422C5.40039 4.44336 6.38672 4.38477 7.31445 3.35938L17.4902-7.85156C17.7539-7.76367 18.0273-7.7832 18.3398-7.8418L19.4043-8.03711L20.0684-7.36328L20.0293-6.80664C19.9902-6.30859 20.1172-5.92773 20.6055-5.44922L21.3672-4.70703C21.8457-4.22852 22.4609-4.19922 22.9297-4.66797L25.8398-7.58789C26.3086-8.05664 26.2891-8.65234 25.8105-9.13086L25.0391-9.89258C24.5605-10.3711 24.1895-10.5273 23.7109-10.4883L23.1348-10.4395L22.4902-11.0742L22.7344-12.1973C22.8613-12.7637 22.7051-13.2031 22.1191-13.7891L19.9219-15.9766C16.582-19.2969 12.1484-19.2188 9.25781-16.3281C8.83789-15.918 8.80859-15.3418 9.04297-14.9512C9.27734-14.5898 9.73633-14.3555 10.3809-14.5215C11.8457-14.8633 13.3691-14.9219 14.7949-13.9844L14.209-12.5293C14.0137-12.0508 13.9844-11.6504 14.1113-11.2891L3.04688-0.898438C2.06055 0.0195312 1.98242 0.996094 2.8418 1.86523ZM10.752-15.957C13.1836-17.7344 16.4746-17.4316 18.7012-15.2051L21.1328-12.793C21.3672-12.5586 21.4062-12.373 21.3379-12.0312L21.0156-10.5469L22.5195-9.0625L23.5059-9.12109C23.7598-9.13086 23.8379-9.11133 24.0332-8.91602L24.6094-8.33984L22.168-5.89844L21.5918-6.47461C21.3965-6.66992 21.3672-6.74805 21.377-7.01172L21.4453-7.98828L19.9512-9.47266L18.4277-9.21875C18.1055-9.15039 17.959-9.17969 17.7148-9.41406L15.7129-11.416C15.459-11.6504 15.4297-11.8164 15.5859-12.1875L16.4648-14.2773C14.9023-15.7324 12.8711-16.3574 10.8398-15.7617C10.6836-15.7227 10.625-15.8496 10.752-15.957ZM5.27344 2.30469L4.10156 1.14258C3.63281 0.683594 3.74023 0.341797 4.14062-0.0195312L14.9512-10.1953L16.416-8.71094L6.42578 2.27539C6.07422 2.67578 5.74219 2.77344 5.27344 2.30469Z"/>
  </g>
  <text style="stroke:none;fill:black;font-family:-apple-system,&quot;SF Pro Display&quot;,&quot;SF Pro Text&quot;,Helvetica,sans-serif;font-weight:bold;" transform="matrix(1 0 0 1 1289 1953)">Exporting</text>
  <text style="stroke:none;fill:black;font-family:-apple-system,&quot;SF Pro Display&quot;,&quot;SF Pro Text&quot;,Helvetica,sans-serif;" transform="matrix(1 0 0 1 1289 1971)">Symbols should be outlined when exporting to ensure the</text>
  <text style="stroke:none;fill:black;font-family:-apple-system,&quot;SF Pro Display&quot;,&quot;SF Pro Text&quot;,Helvetica,sans-serif;" transform="matrix(1 0 0 1 1289 1989)">design is preserved when submitting to Xcode.</text>
  <text id="template-version" style="stroke:none;fill:black;font-family:-apple-system,&quot;SF Pro Display&quot;,&quot;SF Pro Text&quot;,Helvetica,sans-serif;text-anchor:end;" transform="matrix(1 0 0 1 3036 1933)">Template v.2.0</text>
  <text style="stroke:none;fill:black;font-family:-apple-system,&quot;SF Pro Display&quot;,&quot;SF Pro Text&quot;,Helvetica,sans-serif;text-anchor:end;" transform="matrix(1 0 0 1 3036 1951)">Requires Xcode 12 or greater</text>
  <text style="stroke:none;fill:black;font-family:-apple-system,&quot;SF Pro Display&quot;,&quot;SF Pro Text&quot;,Helvetica,sans-serif;" transform="matrix(1 0 0 1 263 726)">Small</text>
  <text style="stroke:none;fill:black;font-family:-apple-system,&quot;SF Pro Display&quot;,&quot;SF Pro Text&quot;,Helvetica,sans-serif;" transform="matrix(1 0 0 1 263 1156)">Medium</text>
  <text style="stroke:none;fill:black;font-family:-apple-system,&quot;SF Pro Display&quot;,&quot;SF Pro Text&quot;,Helvetica,sans-serif;" transform="matrix(1 0 0 1 263 1586)">Large</text>
 </g>
 <g id="Guides">
  <g id="H-reference" style="fill:#27AAE1;stroke:none;" transform="matrix(1 0 0 1 339 696)">
   <path d="M0.976562 0L3.66211 0L12.9883-24.4629L45.752-24.4629L55.127 0L57.7637 0L30.6152-70.459L28.125-70.459ZM29.3457-67.1387L29.4434-67.1387L44.873-26.709L13.8672-26.709Z"/>
  </g>
  <line id="Baseline-S" style="fill:none;stroke:#27AAE1;opacity:1;stroke-width:0.5;" x1="263" x2="3036" y1="696" y2="696"/>
  <line id="Capline-S" style="fill:none;stroke:#27AAE1;opacity:1;stroke-width:0.5;" x1="263" x2="3036" y1="625.541" y2="625.541"/>
  <g id="H-reference" style="fill:#27AAE1;stroke:none;" transform="matrix(1 0 0 1 339 1126)">
   <path d="M0.976562 0L3.66211 0L12.9883-24.4629L45.752-24.4629L55.127 0L57.7637 0L30.6152-70.459L28.125-70.459ZM29.3457-67.1387L29.4434-67.1387L44.873-26.709L13.8672-26.709Z"/>
  </g>
  <line id="Baseline-M" style="fill:none;stroke:#27AAE1;opacity:1;stroke-width:0.5;" x1="263" x2="3036" y1="1126" y2="1126"/>
  <line id="Capline-M" style="fill:none;stroke:#27AAE1;opacity:1;stroke-width:0.5;" x1="263" x2="3036" y1="1055.54" y2="1055.54"/>
  <g id="H-reference" style="fill:#27AAE1;stroke:none;" transform="matrix(1 0 0 1 339 1556)">
   <path d="M0.976562 0L3.66211 0L12.9883-24.4629L45.752-24.4629L55.127 0L57.7637 0L30.6152-70.459L28.125-70.459ZM29.3457-67.1387L29.4434-67.1387L44.873-26.709L13.8672-26.709Z"/>
  </g>
  <line id="Baseline-L" style="fill:none;stroke:#27AAE1;opacity:1;stroke-width:0.5;" x1="263" x2="3036" y1="1556" y2="1556"/>
  <line id="Capline-L" style="fill:none;stroke:#27AAE1;opacity:1;stroke-width:0.5;" x1="263" x2="3036" y1="1485.54" y2="1485.54"/>
  <line id="left-margin" x1="1402.308845693551" x2="1402.308845693551" y1="1030.79" y2="1150.12" style="fill:none;stroke:#00AEEF;stroke-width:0.5;opacity:1.0;"/>
  <line id="right-margin" x1="1499.9511543064489" x2="1499.9511543064489" y1="1030.79" y2="1150.12" style="fill:none;stroke:#00AEEF;stroke-width:0.5;opacity:1.0;"/>
 </g>
 <g id="Symbols">
  <g id="Black-L" transform="matrix(1.0,0.0,0.0,1.0,2873.4161001407397,1465.0755651137408)">  <path stroke-miterlimit="4" fill-opacity="1" stroke="none" stroke-opacity="1" stroke-linejoin="miter" clip-rule="evenodd" stroke-dasharray="none" stroke-width="1px" fill="#000000" fill-rule="evenodd" stroke-linecap="butt" d="M53.14,2.759C57.932,-0.918,64.596,-0.918,69.388,2.759L75.299,7.289C92.682,20.607,107.555,36.914,119.223,55.446L121.117,58.461C124.904,64.468,120.619,72.329,113.557,72.329L107.368,72.329C107.727,80.635,107.275,88.957,106.02,97.176C104.772,105.355,97.796,111.389,89.59,111.389L72.458,111.389L72.458,81.626C72.458,75.392,67.446,70.338,61.264,70.338C55.082,70.338,50.073,75.392,50.073,81.626L50.073,111.389L32.934,111.389C24.728,111.389,17.752,105.355,16.504,97.176C15.249,88.957,14.798,80.635,15.156,72.329L8.971,72.329C1.908,72.329,-2.376,64.468,1.411,58.457L3.305,55.449C14.972,36.915,29.845,20.606,47.229,7.285L53.14,2.755ZM53.14,2.759"/>
</g>
  <g id="Heavy-L" transform="matrix(1.0,0.0,0.0,1.0,2576.7061001407396,1465.0755651137408)">  <path stroke="none" stroke-linecap="butt" stroke-width="1px" fill-opacity="1" stroke-opacity="1" stroke-linejoin="miter" stroke-dasharray="none" stroke-miterlimit="4" fill="#000000" fill-rule="evenodd" clip-rule="evenodd" d="M53.14,2.759C57.932,-0.918,64.596,-0.918,69.388,2.759L75.299,7.289C92.682,20.607,107.555,36.914,119.223,55.446L121.117,58.461C124.904,64.468,120.619,72.329,113.557,72.329L107.368,72.329C107.727,80.635,107.275,88.957,106.02,97.176C104.772,105.355,97.796,111.389,89.59,111.389L72.458,111.389L72.458,81.626C72.458,75.392,67.446,70.338,61.264,70.338C55.082,70.338,50.073,75.392,50.073,81.626L50.073,111.389L32.934,111.389C24.728,111.389,17.752,105.355,16.504,97.176C15.249,88.957,14.798,80.635,15.156,72.329L8.971,72.329C1.908,72.329,-2.376,64.468,1.411,58.457L3.305,55.449C14.972,36.915,29.845,20.606,47.229,7.285L53.14,2.755ZM53.14,2.759"/>
</g>
  <g id="Bold-L" transform="matrix(1.0,0.0,0.0,1.0,2279.9961001407396,1465.0755651137408)">  <path fill="#000000" stroke-width="1px" stroke-linecap="butt" stroke="none" stroke-miterlimit="4" stroke-opacity="1" stroke-linejoin="miter" fill-rule="evenodd" stroke-dasharray="none" fill-opacity="1" clip-rule="evenodd" d="M53.14,2.759C57.932,-0.918,64.596,-0.918,69.388,2.759L75.299,7.289C92.682,20.607,107.555,36.914,119.223,55.446L121.117,58.461C124.904,64.468,120.619,72.329,113.557,72.329L107.368,72.329C107.727,80.635,107.275,88.957,106.02,97.176C104.772,105.355,97.796,111.389,89.59,111.389L72.458,111.389L72.458,81.626C72.458,75.392,67.446,70.338,61.264,70.338C55.082,70.338,50.073,75.392,50.073,81.626L50.073,111.389L32.934,111.389C24.728,111.389,17.752,105.355,16.504,97.176C15.249,88.957,14.798,80.635,15.156,72.329L8.971,72.329C1.908,72.329,-2.376,64.468,1.411,58.457L3.305,55.449C14.972,36.915,29.845,20.606,47.229,7.285L53.14,2.755ZM53.14,2.759"/>
</g>
  <g id="Semibold-L" transform="matrix(1.0,0.0,0.0,1.0,1983.2861001407398,1465.0755651137408)">  <path stroke-linejoin="miter" stroke-width="1px" stroke-linecap="butt" fill="#000000" clip-rule="evenodd" stroke-dasharray="none" stroke="none" stroke-opacity="1" stroke-miterlimit="4" fill-rule="evenodd" fill-opacity="1" d="M53.14,2.759C57.932,-0.918,64.596,-0.918,69.388,2.759L75.299,7.289C92.682,20.607,107.555,36.914,119.223,55.446L121.117,58.461C124.904,64.468,120.619,72.329,113.557,72.329L107.368,72.329C107.727,80.635,107.275,88.957,106.02,97.176C104.772,105.355,97.796,111.389,89.59,111.389L72.458,111.389L72.458,81.626C72.458,75.392,67.446,70.338,61.264,70.338C55.082,70.338,50.073,75.392,50.073,81.626L50.073,111.389L32.934,111.389C24.728,111.389,17.752,105.355,16.504,97.176C15.249,88.957,14.798,80.635,15.156,72.329L8.971,72.329C1.908,72.329,-2.376,64.468,1.411,58.457L3.305,55.449C14.972,36.915,29.845,20.606,47.229,7.285L53.14,2.755ZM53.14,2.759"/>
</g>
  <g id="Medium-L" transform="matrix(1.0,0.0,0.0,1.0,1686.5761001407398,1465.0755651137408)">  <path fill="#000000" fill-rule="evenodd" stroke-linecap="butt" fill-opacity="1" stroke-width="1px" stroke-linejoin="miter" stroke="none" stroke-miterlimit="4" stroke-opacity="1" stroke-dasharray="none" clip-rule="evenodd" d="M53.14,2.759C57.932,-0.918,64.596,-0.918,69.388,2.759L75.299,7.289C92.682,20.607,107.555,36.914,119.223,55.446L121.117,58.461C124.904,64.468,120.619,72.329,113.557,72.329L107.368,72.329C107.727,80.635,107.275,88.957,106.02,97.176C104.772,105.355,97.796,111.389,89.59,111.389L72.458,111.389L72.458,81.626C72.458,75.392,67.446,70.338,61.264,70.338C55.082,70.338,50.073,75.392,50.073,81.626L50.073,111.389L32.934,111.389C24.728,111.389,17.752,105.355,16.504,97.176C15.249,88.957,14.798,80.635,15.156,72.329L8.971,72.329C1.908,72.329,-2.376,64.468,1.411,58.457L3.305,55.449C14.972,36.915,29.845,20.606,47.229,7.285L53.14,2.755ZM53.14,2.759"/>
</g>
  <g id="Regular-L" transform="matrix(1.0,0.0,0.0,1.0,1389.8661001407397,1465.0755651137408)">  <path stroke-linecap="butt" fill-rule="evenodd" stroke-linejoin="miter" stroke-dasharray="none" fill-opacity="1" stroke-opacity="1" fill="#000000" stroke-miterlimit="4" stroke="none" stroke-width="1px" clip-rule="evenodd" d="M53.14,2.759C57.932,-0.918,64.596,-0.918,69.388,2.759L75.299,7.289C92.682,20.607,107.555,36.914,119.223,55.446L121.117,58.461C124.904,64.468,120.619,72.329,113.557,72.329L107.368,72.329C107.727,80.635,107.275,88.957,106.02,97.176C104.772,105.355,97.796,111.389,89.59,111.389L72.458,111.389L72.458,81.626C72.458,75.392,67.446,70.338,61.264,70.338C55.082,70.338,50.073,75.392,50.073,81.626L50.073,111.389L32.934,111.389C24.728,111.389,17.752,105.355,16.504,97.176C15.249,88.957,14.798,80.635,15.156,72.329L8.971,72.329C1.908,72.329,-2.376,64.468,1.411,58.457L3.305,55.449C14.972,36.915,29.845,20.606,47.229,7.285L53.14,2.755ZM53.14,2.759"/>
</g>
  <g id="Light-L" transform="matrix(1.0,0.0,0.0,1.0,1093.15610014074,1465.0755651137408)">  <path stroke-dasharray="none" stroke-linejoin="miter" stroke-linecap="butt" stroke="none" fill="#000000" fill-opacity="1" stroke-miterlimit="4" clip-rule="evenodd" fill-rule="evenodd" stroke-opacity="1" stroke-width="1px" d="M53.14,2.759C57.932,-0.918,64.596,-0.918,69.388,2.759L75.299,7.289C92.682,20.607,107.555,36.914,119.223,55.446L121.117,58.461C124.904,64.468,120.619,72.329,113.557,72.329L107.368,72.329C107.727,80.635,107.275,88.957,106.02,97.176C104.772,105.355,97.796,111.389,89.59,111.389L72.458,111.389L72.458,81.626C72.458,75.392,67.446,70.338,61.264,70.338C55.082,70.338,50.073,75.392,50.073,81.626L50.073,111.389L32.934,111.389C24.728,111.389,17.752,105.355,16.504,97.176C15.249,88.957,14.798,80.635,15.156,72.329L8.971,72.329C1.908,72.329,-2.376,64.468,1.411,58.457L3.305,55.449C14.972,36.915,29.845,20.606,47.229,7.285L53.14,2.755ZM53.14,2.759"/>
</g>
  <g id="Thin-L" transform="matrix(1.0,0.0,0.0,1.0,796.44610014074,1465.0755651137408)">  <path stroke-miterlimit="4" stroke-linecap="butt" stroke="none" fill="#000000" stroke-opacity="1" clip-rule="evenodd" stroke-linejoin="miter" fill-rule="evenodd" stroke-dasharray="none" fill-opacity="1" stroke-width="1px" d="M53.14,2.759C57.932,-0.918,64.596,-0.918,69.388,2.759L75.299,7.289C92.682,20.607,107.555,36.914,119.223,55.446L121.117,58.461C124.904,64.468,120.619,72.329,113.557,72.329L107.368,72.329C107.727,80.635,107.275,88.957,106.02,97.176C104.772,105.355,97.796,111.389,89.59,111.389L72.458,111.389L72.458,81.626C72.458,75.392,67.446,70.338,61.264,70.338C55.082,70.338,50.073,75.392,50.073,81.626L50.073,111.389L32.934,111.389C24.728,111.389,17.752,105.355,16.504,97.176C15.249,88.957,14.798,80.635,15.156,72.329L8.971,72.329C1.908,72.329,-2.376,64.468,1.411,58.457L3.305,55.449C14.972,36.915,29.845,20.606,47.229,7.285L53.14,2.755ZM53.14,2.759"/>
</g>
  <g id="Ultralight-L" transform="matrix(1.0,0.0,0.0,1.0,499.7361001407399,1465.0755651137408)">  <path stroke="none" stroke-linecap="butt" stroke-miterlimit="4" stroke-opacity="1" stroke-dasharray="none" stroke-width="1px" stroke-linejoin="miter" fill-rule="evenodd" clip-rule="evenodd" fill-opacity="1" fill="#000000" d="M53.14,2.759C57.932,-0.918,64.596,-0.918,69.388,2.759L75.299,7.289C92.682,20.607,107.555,36.914,119.223,55.446L121.117,58.461C124.904,64.468,120.619,72.329,113.557,72.329L107.368,72.329C107.727,80.635,107.275,88.957,106.02,97.176C104.772,105.355,97.796,111.389,89.59,111.389L72.458,111.389L72.458,81.626C72.458,75.392,67.446,70.338,61.264,70.338C55.082,70.338,50.073,75.392,50.073,81.626L50.073,111.389L32.934,111.389C24.728,111.389,17.752,105.355,16.504,97.176C15.249,88.957,14.798,80.635,15.156,72.329L8.971,72.329C1.908,72.329,-2.376,64.468,1.411,58.457L3.305,55.449C14.972,36.915,29.845,20.606,47.229,7.285L53.14,2.755ZM53.14,2.759"/>
</g>
  <g id="Black-M" transform="matrix(1.0,0.0,0.0,1.0,2887.1886047602634,1047.5960238587622)">  <path stroke-miterlimit="4" fill-opacity="1" stroke="none" stroke-opacity="1" stroke-linejoin="miter" clip-rule="evenodd" stroke-dasharray="none" stroke-width="1px" fill="#000000" fill-rule="evenodd" stroke-linecap="butt" d="M41.194,2.139C44.908,-0.712,50.074,-0.712,53.789,2.139L58.371,5.65C71.846,15.975,83.376,28.616,92.421,42.981L93.889,45.318C96.825,49.975,93.503,56.069,88.029,56.069L83.231,56.069C83.509,62.508,83.159,68.959,82.186,75.33C81.219,81.671,75.811,86.348,69.45,86.348L56.169,86.348L56.169,63.276C56.169,58.443,52.284,54.526,47.491,54.526C42.699,54.526,38.816,58.443,38.816,63.276L38.816,86.348L25.53,86.348C19.169,86.348,13.761,81.671,12.794,75.33C11.821,68.959,11.471,62.508,11.749,56.069L6.954,56.069C1.479,56.069,-1.842,49.975,1.094,45.315L2.562,42.984C11.606,28.616,23.136,15.973,36.612,5.647L41.194,2.136ZM41.194,2.139"/>
</g>
  <g id="Heavy-M" transform="matrix(1.0,0.0,0.0,1.0,2590.4786047602634,1047.5960238587622)">  <path stroke="none" stroke-linecap="butt" stroke-width="1px" fill-opacity="1" stroke-opacity="1" stroke-linejoin="miter" stroke-dasharray="none" stroke-miterlimit="4" fill="#000000" fill-rule="evenodd" clip-rule="evenodd" d="M41.194,2.139C44.908,-0.712,50.074,-0.712,53.789,2.139L58.371,5.65C71.846,15.975,83.376,28.616,92.421,42.981L93.889,45.318C96.825,49.975,93.503,56.069,88.029,56.069L83.231,56.069C83.509,62.508,83.159,68.959,82.186,75.33C81.219,81.671,75.811,86.348,69.45,86.348L56.169,86.348L56.169,63.276C56.169,58.443,52.284,54.526,47.491,54.526C42.699,54.526,38.816,58.443,38.816,63.276L38.816,86.348L25.53,86.348C19.169,86.348,13.761,81.671,12.794,75.33C11.821,68.959,11.471,62.508,11.749,56.069L6.954,56.069C1.479,56.069,-1.842,49.975,1.094,45.315L2.562,42.984C11.606,28.616,23.136,15.973,36.612,5.647L41.194,2.136ZM41.194,2.139"/>
</g>
  <g id="Bold-M" transform="matrix(1.0,0.0,0.0,1.0,2293.7686047602633,1047.5960238587622)">  <path fill="#000000" stroke-width="1px" stroke-linecap="butt" stroke="none" stroke-miterlimit="4" stroke-opacity="1" stroke-linejoin="miter" fill-rule="evenodd" stroke-dasharray="none" fill-opacity="1" clip-rule="evenodd" d="M41.194,2.139C44.908,-0.712,50.074,-0.712,53.789,2.139L58.371,5.65C71.846,15.975,83.376,28.616,92.421,42.981L93.889,45.318C96.825,49.975,93.503,56.069,88.029,56.069L83.231,56.069C83.509,62.508,83.159,68.959,82.186,75.33C81.219,81.671,75.811,86.348,69.45,86.348L56.169,86.348L56.169,63.276C56.169,58.443,52.284,54.526,47.491,54.526C42.699,54.526,38.816,58.443,38.816,63.276L38.816,86.348L25.53,86.348C19.169,86.348,13.761,81.671,12.794,75.33C11.821,68.959,11.471,62.508,11.749,56.069L6.954,56.069C1.479,56.069,-1.842,49.975,1.094,45.315L2.562,42.984C11.606,28.616,23.136,15.973,36.612,5.647L41.194,2.136ZM41.194,2.139"/>
</g>
  <g id="Semibold-M" transform="matrix(1.0,0.0,0.0,1.0,1997.0586047602635,1047.5960238587622)">  <path stroke-linejoin="miter" stroke-width="1px" stroke-linecap="butt" fill="#000000" clip-rule="evenodd" stroke-dasharray="none" stroke="none" stroke-opacity="1" stroke-miterlimit="4" fill-rule="evenodd" fill-opacity="1" d="M41.194,2.139C44.908,-0.712,50.074,-0.712,53.789,2.139L58.371,5.65C71.846,15.975,83.376,28.616,92.421,42.981L93.889,45.318C96.825,49.975,93.503,56.069,88.029,56.069L83.231,56.069C83.509,62.508,83.159,68.959,82.186,75.33C81.219,81.671,75.811,86.348,69.45,86.348L56.169,86.348L56.169,63.276C56.169,58.443,52.284,54.526,47.491,54.526C42.699,54.526,38.816,58.443,38.816,63.276L38.816,86.348L25.53,86.348C19.169,86.348,13.761,81.671,12.794,75.33C11.821,68.959,11.471,62.508,11.749,56.069L6.954,56.069C1.479,56.069,-1.842,49.975,1.094,45.315L2.562,42.984C11.606,28.616,23.136,15.973,36.612,5.647L41.194,2.136ZM41.194,2.139"/>
</g>
  <g id="Medium-M" transform="matrix(1.0,0.0,0.0,1.0,1700.3486047602635,1047.5960238587622)">  <path fill="#000000" fill-rule="evenodd" stroke-linecap="butt" fill-opacity="1" stroke-width="1px" stroke-linejoin="miter" stroke="none" stroke-miterlimit="4" stroke-opacity="1" stroke-dasharray="none" clip-rule="evenodd" d="M41.194,2.139C44.908,-0.712,50.074,-0.712,53.789,2.139L58.371,5.65C71.846,15.975,83.376,28.616,92.421,42.981L93.889,45.318C96.825,49.975,93.503,56.069,88.029,56.069L83.231,56.069C83.509,62.508,83.159,68.959,82.186,75.33C81.219,81.671,75.811,86.348,69.45,86.348L56.169,86.348L56.169,63.276C56.169,58.443,52.284,54.526,47.491,54.526C42.699,54.526,38.816,58.443,38.816,63.276L38.816,86.348L25.53,86.348C19.169,86.348,13.761,81.671,12.794,75.33C11.821,68.959,11.471,62.508,11.749,56.069L6.954,56.069C1.479,56.069,-1.842,49.975,1.094,45.315L2.562,42.984C11.606,28.616,23.136,15.973,36.612,5.647L41.194,2.136ZM41.194,2.139"/>
</g>
  <g id="Regular-M" transform="matrix(1.0,0.0,0.0,1.0,1403.6386047602634,1047.5960238587622)">  <path stroke-linecap="butt" fill-rule="evenodd" stroke-linejoin="miter" stroke-dasharray="none" fill-opacity="1" stroke-opacity="1" fill="#000000" stroke-miterlimit="4" stroke="none" stroke-width="1px" clip-rule="evenodd" d="M41.194,2.139C44.908,-0.712,50.074,-0.712,53.789,2.139L58.371,5.65C71.846,15.975,83.376,28.616,92.421,42.981L93.889,45.318C96.825,49.975,93.503,56.069,88.029,56.069L83.231,56.069C83.509,62.508,83.159,68.959,82.186,75.33C81.219,81.671,75.811,86.348,69.45,86.348L56.169,86.348L56.169,63.276C56.169,58.443,52.284,54.526,47.491,54.526C42.699,54.526,38.816,58.443,38.816,63.276L38.816,86.348L25.53,86.348C19.169,86.348,13.761,81.671,12.794,75.33C11.821,68.959,11.471,62.508,11.749,56.069L6.954,56.069C1.479,56.069,-1.842,49.975,1.094,45.315L2.562,42.984C11.606,28.616,23.136,15.973,36.612,5.647L41.194,2.136ZM41.194,2.139"/>
</g>
  <g id="Light-M" transform="matrix(1.0,0.0,0.0,1.0,1106.9286047602636,1047.5960238587622)">  <path stroke-dasharray="none" stroke-linejoin="miter" stroke-linecap="butt" stroke="none" fill="#000000" fill-opacity="1" stroke-miterlimit="4" clip-rule="evenodd" fill-rule="evenodd" stroke-opacity="1" stroke-width="1px" d="M41.194,2.139C44.908,-0.712,50.074,-0.712,53.789,2.139L58.371,5.65C71.846,15.975,83.376,28.616,92.421,42.981L93.889,45.318C96.825,49.975,93.503,56.069,88.029,56.069L83.231,56.069C83.509,62.508,83.159,68.959,82.186,75.33C81.219,81.671,75.811,86.348,69.45,86.348L56.169,86.348L56.169,63.276C56.169,58.443,52.284,54.526,47.491,54.526C42.699,54.526,38.816,58.443,38.816,63.276L38.816,86.348L25.53,86.348C19.169,86.348,13.761,81.671,12.794,75.33C11.821,68.959,11.471,62.508,11.749,56.069L6.954,56.069C1.479,56.069,-1.842,49.975,1.094,45.315L2.562,42.984C11.606,28.616,23.136,15.973,36.612,5.647L41.194,2.136ZM41.194,2.139"/>
</g>
  <g id="Thin-M" transform="matrix(1.0,0.0,0.0,1.0,810.2186047602635,1047.5960238587622)">  <path stroke-miterlimit="4" stroke-linecap="butt" stroke="none" fill="#000000" stroke-opacity="1" clip-rule="evenodd" stroke-linejoin="miter" fill-rule="evenodd" stroke-dasharray="none" fill-opacity="1" stroke-width="1px" d="M41.194,2.139C44.908,-0.712,50.074,-0.712,53.789,2.139L58.371,5.65C71.846,15.975,83.376,28.616,92.421,42.981L93.889,45.318C96.825,49.975,93.503,56.069,88.029,56.069L83.231,56.069C83.509,62.508,83.159,68.959,82.186,75.33C81.219,81.671,75.811,86.348,69.45,86.348L56.169,86.348L56.169,63.276C56.169,58.443,52.284,54.526,47.491,54.526C42.699,54.526,38.816,58.443,38.816,63.276L38.816,86.348L25.53,86.348C19.169,86.348,13.761,81.671,12.794,75.33C11.821,68.959,11.471,62.508,11.749,56.069L6.954,56.069C1.479,56.069,-1.842,49.975,1.094,45.315L2.562,42.984C11.606,28.616,23.136,15.973,36.612,5.647L41.194,2.136ZM41.194,2.139"/>
</g>
  <g id="Ultralight-M" transform="matrix(1.0,0.0,0.0,1.0,513.5086047602634,1047.5960238587622)">  <path stroke="none" stroke-linecap="butt" stroke-miterlimit="4" stroke-opacity="1" stroke-dasharray="none" stroke-width="1px" stroke-linejoin="miter" fill-rule="evenodd" clip-rule="evenodd" fill-opacity="1" fill="#000000" d="M41.194,2.139C44.908,-0.712,50.074,-0.712,53.789,2.139L58.371,5.65C71.846,15.975,83.376,28.616,92.421,42.981L93.889,45.318C96.825,49.975,93.503,56.069,88.029,56.069L83.231,56.069C83.509,62.508,83.159,68.959,82.186,75.33C81.219,81.671,75.811,86.348,69.45,86.348L56.169,86.348L56.169,63.276C56.169,58.443,52.284,54.526,47.491,54.526C42.699,54.526,38.816,58.443,38.816,63.276L38.816,86.348L25.53,86.348C19.169,86.348,13.761,81.671,12.794,75.33C11.821,68.959,11.471,62.508,11.749,56.069L6.954,56.069C1.479,56.069,-1.842,49.975,1.094,45.315L2.562,42.984C11.606,28.616,23.136,15.973,36.612,5.647L41.194,2.136ZM41.194,2.139"/>
</g>
  <g id="Black-S" transform="matrix(1.0,0.0,0.0,1.0,2897.4942375272863,626.9647809196921)">  <path stroke-miterlimit="4" fill-opacity="1" stroke="none" stroke-opacity="1" stroke-linejoin="miter" clip-rule="evenodd" stroke-dasharray="none" stroke-width="1px" fill="#000000" fill-rule="evenodd" stroke-linecap="butt" d="M32.255,1.674C35.163,-0.557,39.208,-0.557,42.117,1.674L45.705,4.424C56.256,12.508,65.284,22.406,72.366,33.654L73.515,35.484C75.814,39.131,73.213,43.902,68.927,43.902L65.17,43.902C65.387,48.944,65.113,53.995,64.352,58.983C63.594,63.948,59.36,67.61,54.379,67.61L43.981,67.61L43.981,49.545C43.981,45.761,40.938,42.694,37.186,42.694C33.433,42.694,30.393,45.761,30.393,49.545L30.393,67.61L19.99,67.61C15.01,67.61,10.775,63.948,10.018,58.983C9.256,53.995,8.982,48.944,9.2,43.902L5.445,43.902C1.158,43.902,-1.442,39.131,0.856,35.482L2.006,33.656C9.087,22.407,18.115,12.507,28.667,4.422L32.255,1.672ZM32.255,1.674"/>
</g>
  <g id="Heavy-S" transform="matrix(1.0,0.0,0.0,1.0,2600.784237527286,626.9647809196921)">  <path stroke="none" stroke-linecap="butt" stroke-width="1px" fill-opacity="1" stroke-opacity="1" stroke-linejoin="miter" stroke-dasharray="none" stroke-miterlimit="4" fill="#000000" fill-rule="evenodd" clip-rule="evenodd" d="M32.255,1.674C35.163,-0.557,39.208,-0.557,42.117,1.674L45.705,4.424C56.256,12.508,65.284,22.406,72.366,33.654L73.515,35.484C75.814,39.131,73.213,43.902,68.927,43.902L65.17,43.902C65.387,48.944,65.113,53.995,64.352,58.983C63.594,63.948,59.36,67.61,54.379,67.61L43.981,67.61L43.981,49.545C43.981,45.761,40.938,42.694,37.186,42.694C33.433,42.694,30.393,45.761,30.393,49.545L30.393,67.61L19.99,67.61C15.01,67.61,10.775,63.948,10.018,58.983C9.256,53.995,8.982,48.944,9.2,43.902L5.445,43.902C1.158,43.902,-1.442,39.131,0.856,35.482L2.006,33.656C9.087,22.407,18.115,12.507,28.667,4.422L32.255,1.672ZM32.255,1.674"/>
</g>
  <g id="Bold-S" transform="matrix(1.0,0.0,0.0,1.0,2304.074237527286,626.9647809196921)">  <path fill="#000000" stroke-width="1px" stroke-linecap="butt" stroke="none" stroke-miterlimit="4" stroke-opacity="1" stroke-linejoin="miter" fill-rule="evenodd" stroke-dasharray="none" fill-opacity="1" clip-rule="evenodd" d="M32.255,1.674C35.163,-0.557,39.208,-0.557,42.117,1.674L45.705,4.424C56.256,12.508,65.284,22.406,72.366,33.654L73.515,35.484C75.814,39.131,73.213,43.902,68.927,43.902L65.17,43.902C65.387,48.944,65.113,53.995,64.352,58.983C63.594,63.948,59.36,67.61,54.379,67.61L43.981,67.61L43.981,49.545C43.981,45.761,40.938,42.694,37.186,42.694C33.433,42.694,30.393,45.761,30.393,49.545L30.393,67.61L19.99,67.61C15.01,67.61,10.775,63.948,10.018,58.983C9.256,53.995,8.982,48.944,9.2,43.902L5.445,43.902C1.158,43.902,-1.442,39.131,0.856,35.482L2.006,33.656C9.087,22.407,18.115,12.507,28.667,4.422L32.255,1.672ZM32.255,1.674"/>
</g>
  <g id="Semibold-S" transform="matrix(1.0,0.0,0.0,1.0,2007.3642375272861,626.9647809196921)">  <path stroke-linejoin="miter" stroke-width="1px" stroke-linecap="butt" fill="#000000" clip-rule="evenodd" stroke-dasharray="none" stroke="none" stroke-opacity="1" stroke-miterlimit="4" fill-rule="evenodd" fill-opacity="1" d="M32.255,1.674C35.163,-0.557,39.208,-0.557,42.117,1.674L45.705,4.424C56.256,12.508,65.284,22.406,72.366,33.654L73.515,35.484C75.814,39.131,73.213,43.902,68.927,43.902L65.17,43.902C65.387,48.944,65.113,53.995,64.352,58.983C63.594,63.948,59.36,67.61,54.379,67.61L43.981,67.61L43.981,49.545C43.981,45.761,40.938,42.694,37.186,42.694C33.433,42.694,30.393,45.761,30.393,49.545L30.393,67.61L19.99,67.61C15.01,67.61,10.775,63.948,10.018,58.983C9.256,53.995,8.982,48.944,9.2,43.902L5.445,43.902C1.158,43.902,-1.442,39.131,0.856,35.482L2.006,33.656C9.087,22.407,18.115,12.507,28.667,4.422L32.255,1.672ZM32.255,1.674"/>
</g>
  <g id="Medium-S" transform="matrix(1.0,0.0,0.0,1.0,1710.654237527286,626.9647809196921)">  <path fill="#000000" fill-rule="evenodd" stroke-linecap="butt" fill-opacity="1" stroke-width="1px" stroke-linejoin="miter" stroke="none" stroke-miterlimit="4" stroke-opacity="1" stroke-dasharray="none" clip-rule="evenodd" d="M32.255,1.674C35.163,-0.557,39.208,-0.557,42.117,1.674L45.705,4.424C56.256,12.508,65.284,22.406,72.366,33.654L73.515,35.484C75.814,39.131,73.213,43.902,68.927,43.902L65.17,43.902C65.387,48.944,65.113,53.995,64.352,58.983C63.594,63.948,59.36,67.61,54.379,67.61L43.981,67.61L43.981,49.545C43.981,45.761,40.938,42.694,37.186,42.694C33.433,42.694,30.393,45.761,30.393,49.545L30.393,67.61L19.99,67.61C15.01,67.61,10.775,63.948,10.018,58.983C9.256,53.995,8.982,48.944,9.2,43.902L5.445,43.902C1.158,43.902,-1.442,39.131,0.856,35.482L2.006,33.656C9.087,22.407,18.115,12.507,28.667,4.422L32.255,1.672ZM32.255,1.674"/>
</g>
  <g id="Regular-S" transform="matrix(1.0,0.0,0.0,1.0,1413.944237527286,626.9647809196921)">  <path stroke-linecap="butt" fill-rule="evenodd" stroke-linejoin="miter" stroke-dasharray="none" fill-opacity="1" stroke-opacity="1" fill="#000000" stroke-miterlimit="4" stroke="none" stroke-width="1px" clip-rule="evenodd" d="M32.255,1.674C35.163,-0.557,39.208,-0.557,42.117,1.674L45.705,4.424C56.256,12.508,65.284,22.406,72.366,33.654L73.515,35.484C75.814,39.131,73.213,43.902,68.927,43.902L65.17,43.902C65.387,48.944,65.113,53.995,64.352,58.983C63.594,63.948,59.36,67.61,54.379,67.61L43.981,67.61L43.981,49.545C43.981,45.761,40.938,42.694,37.186,42.694C33.433,42.694,30.393,45.761,30.393,49.545L30.393,67.61L19.99,67.61C15.01,67.61,10.775,63.948,10.018,58.983C9.256,53.995,8.982,48.944,9.2,43.902L5.445,43.902C1.158,43.902,-1.442,39.131,0.856,35.482L2.006,33.656C9.087,22.407,18.115,12.507,28.667,4.422L32.255,1.672ZM32.255,1.674"/>
</g>
  <g id="Light-S" transform="matrix(1.0,0.0,0.0,1.0,1117.2342375272865,626.9647809196921)">  <path stroke-dasharray="none" stroke-linejoin="miter" stroke-linecap="butt" stroke="none" fill="#000000" fill-opacity="1" stroke-miterlimit="4" clip-rule="evenodd" fill-rule="evenodd" stroke-opacity="1" stroke-width="1px" d="M32.255,1.674C35.163,-0.557,39.208,-0.557,42.117,1.674L45.705,4.424C56.256,12.508,65.284,22.406,72.366,33.654L73.515,35.484C75.814,39.131,73.213,43.902,68.927,43.902L65.17,43.902C65.387,48.944,65.113,53.995,64.352,58.983C63.594,63.948,59.36,67.61,54.379,67.61L43.981,67.61L43.981,49.545C43.981,45.761,40.938,42.694,37.186,42.694C33.433,42.694,30.393,45.761,30.393,49.545L30.393,67.61L19.99,67.61C15.01,67.61,10.775,63.948,10.018,58.983C9.256,53.995,8.982,48.944,9.2,43.902L5.445,43.902C1.158,43.902,-1.442,39.131,0.856,35.482L2.006,33.656C9.087,22.407,18.115,12.507,28.667,4.422L32.255,1.672ZM32.255,1.674"/>
</g>
  <g id="Thin-S" transform="matrix(1.0,0.0,0.0,1.0,820.5242375272863,626.9647809196921)">  <path stroke-miterlimit="4" stroke-linecap="butt" stroke="none" fill="#000000" stroke-opacity="1" clip-rule="evenodd" stroke-linejoin="miter" fill-rule="evenodd" stroke-dasharray="none" fill-opacity="1" stroke-width="1px" d="M32.255,1.674C35.163,-0.557,39.208,-0.557,42.117,1.674L45.705,4.424C56.256,12.508,65.284,22.406,72.366,33.654L73.515,35.484C75.814,39.131,73.213,43.902,68.927,43.902L65.17,43.902C65.387,48.944,65.113,53.995,64.352,58.983C63.594,63.948,59.36,67.61,54.379,67.61L43.981,67.61L43.981,49.545C43.981,45.761,40.938,42.694,37.186,42.694C33.433,42.694,30.393,45.761,30.393,49.545L30.393,67.61L19.99,67.61C15.01,67.61,10.775,63.948,10.018,58.983C9.256,53.995,8.982,48.944,9.2,43.902L5.445,43.902C1.158,43.902,-1.442,39.131,0.856,35.482L2.006,33.656C9.087,22.407,18.115,12.507,28.667,4.422L32.255,1.672ZM32.255,1.674"/>
</g>
  <g id="Ultralight-S" transform="matrix(1.0,0.0,0.0,1.0,523.8142375272863,626.9647809196921)">  <path stroke="none" stroke-linecap="butt" stroke-miterlimit="4" stroke-opacity="1" stroke-dasharray="none" stroke-width="1px" stroke-linejoin="miter" fill-rule="evenodd" clip-rule="evenodd" fill-opacity="1" fill="#000000" d="M32.255,1.674C35.163,-0.557,39.208,-0.557,42.117,1.674L45.705,4.424C56.256,12.508,65.284,22.406,72.366,33.654L73.515,35.484C75.814,39.131,73.213,43.902,68.927,43.902L65.17,43.902C65.387,48.944,65.113,53.995,64.352,58.983C63.594,63.948,59.36,67.61,54.379,67.61L43.981,67.61L43.981,49.545C43.981,45.761,40.938,42.694,37.186,42.694C33.433,42.694,30.393,45.761,30.393,49.545L30.393,67.61L19.99,67.61C15.01,67.61,10.775,63.948,10.018,58.983C9.256,53.995,8.982,48.944,9.2,43.902L5.445,43.902C1.158,43.902,-1.442,39.131,0.856,35.482L2.006,33.656C9.087,22.407,18.115,12.507,28.667,4.422L32.255,1.672ZM32.255,1.674"/>
</g>
 </g>
</svg>
