<?xml version="1.0" encoding="UTF-8"?>
<!-- Generator: CustomSymbols v2.7.4.50 by @serious_bret https://bretlester.com/app_content/CustomSymbols/ -->
<!-- Guides: Left/Right -0.008/-0.008 Cap/Base -0.009/-0.009 -->
<!-- Settings: RefScale 1.0 Min/Max Stroke Scales 0.5/2.21 -->
<!DOCTYPE svg
PUBLIC "-//W3C//DTD SVG 1.1//EN"
       "http://www.w3.org/Graphics/SVG/1.1/DTD/svg11.dtd">
<svg version="1.1" xmlns="http://www.w3.org/2000/svg" xmlns:xlink="http://www.w3.org/1999/xlink" width="3300" height="2200">
<![CDATA[<svg xmlns="http://www.w3.org/2000/svg" width="29" height="29" fill="none" viewBox="0 0 29 29">
  <path id="Union" fill="#000" fill-rule="evenodd" d="M6.223 0c-.985 0-1.938.09-2.829.19A3.652 3.652 0 0 0 .18 3.414C.084 4.302 0 5.247 0 6.223c0 .975.084 1.92.179 2.807a3.652 3.652 0 0 0 3.215 3.226c.891.1 1.844.19 2.829.19.984 0 1.937-.09 2.828-.19a3.652 3.652 0 0 0 3.215-3.226c.095-.886.18-1.832.18-2.807 0-.976-.085-1.921-.18-2.808A3.652 3.652 0 0 0 9.051.189C8.16.09 7.207 0 6.223 0Zm17.575 18.146a1.607 1.607 0 0 0-3.214 0V21.1H17.63a1.607 1.607 0 0 0 0 3.214h2.954v2.953a1.607 1.607 0 1 0 3.214 0v-2.953h2.953a1.607 1.607 0 0 0 0-3.214h-2.953v-2.954ZM6.223 16.484c-.985 0-1.938.09-2.829.19A3.652 3.652 0 0 0 .18 19.897c-.096.888-.18 1.834-.18 2.809 0 .976.084 1.921.179 2.808a3.652 3.652 0 0 0 3.215 3.226c.891.099 1.844.189 2.829.189.984 0 1.937-.09 2.828-.19a3.652 3.652 0 0 0 3.215-3.225c.095-.887.18-1.832.18-2.808 0-.975-.085-1.92-.18-2.808a3.652 3.652 0 0 0-3.215-3.225c-.891-.1-1.844-.19-2.828-.19ZM22.19 0c-.984 0-1.937.09-2.828.19a3.652 3.652 0 0 0-3.216 3.225c-.095.887-.179 1.832-.179 2.808 0 .975.084 1.92.18 2.807a3.652 3.652 0 0 0 3.215 3.226c.89.1 1.844.19 2.828.19.984 0 1.937-.09 2.828-.19a3.653 3.653 0 0 0 3.216-3.226c.094-.886.178-1.832.178-2.807 0-.976-.084-1.921-.178-2.808A3.653 3.653 0 0 0 25.018.189C24.129.09 23.175 0 22.19 0Z" clip-rule="evenodd"/>
</svg>
]]>
 <g id="Notes">
  <rect height="2200" id="artboard" style="fill:white;opacity:1" width="3300" x="0" y="0"/>
  <line id="" style="fill:none;stroke:black;opacity:1;stroke-width:0.5;" x1="263" x2="3036" y1="292" y2="292"/>
  <text id="reftext1" style="stroke:none;fill:black;font-family:-apple-system,&quot;SF Pro Display&quot;,&quot;SF Pro Text&quot;,Helvetica,sans-serif;font-weight:bold;" transform="matrix(1 0 0 1 263 322)">Weight/Scale Variations</text>
  <text id="reftext2" style="stroke:none;fill:black;font-family:-apple-system,&quot;SF Pro Display&quot;,&quot;SF Pro Text&quot;,Helvetica,sans-serif;text-anchor:middle;" transform="matrix(1 0 0 1 559.711 322)">Ultralight</text>
  <text style="stroke:none;fill:black;font-family:-apple-system,&quot;SF Pro Display&quot;,&quot;SF Pro Text&quot;,Helvetica,sans-serif;text-anchor:middle;" transform="matrix(1 0 0 1 856.422 322)">Thin</text>
  <text style="stroke:none;fill:black;font-family:-apple-system,&quot;SF Pro Display&quot;,&quot;SF Pro Text&quot;,Helvetica,sans-serif;text-anchor:middle;" transform="matrix(1 0 0 1 1153.13 322)">Light</text>
  <text style="stroke:none;fill:black;font-family:-apple-system,&quot;SF Pro Display&quot;,&quot;SF Pro Text&quot;,Helvetica,sans-serif;text-anchor:middle;" transform="matrix(1 0 0 1 1449.84 322)">Regular</text>
  <text style="stroke:none;fill:black;font-family:-apple-system,&quot;SF Pro Display&quot;,&quot;SF Pro Text&quot;,Helvetica,sans-serif;text-anchor:middle;" transform="matrix(1 0 0 1 1746.56 322)">Medium</text>
  <text style="stroke:none;fill:black;font-family:-apple-system,&quot;SF Pro Display&quot;,&quot;SF Pro Text&quot;,Helvetica,sans-serif;text-anchor:middle;" transform="matrix(1 0 0 1 2043.27 322)">Semibold</text>
  <text style="stroke:none;fill:black;font-family:-apple-system,&quot;SF Pro Display&quot;,&quot;SF Pro Text&quot;,Helvetica,sans-serif;text-anchor:middle;" transform="matrix(1 0 0 1 2339.98 322)">Bold</text>
  <text style="stroke:none;fill:black;font-family:-apple-system,&quot;SF Pro Display&quot;,&quot;SF Pro Text&quot;,Helvetica,sans-serif;text-anchor:middle;" transform="matrix(1 0 0 1 2636.69 322)">Heavy</text>
  <text style="stroke:none;fill:black;font-family:-apple-system,&quot;SF Pro Display&quot;,&quot;SF Pro Text&quot;,Helvetica,sans-serif;text-anchor:middle;" transform="matrix(1 0 0 1 2933.4 322)">Black</text>
  <line id="" style="fill:none;stroke:black;opacity:1;stroke-width:0.5;" x1="263" x2="3036" y1="1903" y2="1903"/>
  <g id="" transform="matrix(1 0 0 1 263 1933)">
   <path d="M9.24805 0.830078C13.5547 0.830078 17.1387-2.74414 17.1387-7.05078C17.1387-11.3574 13.5449-14.9316 9.23828-14.9316C4.94141-14.9316 1.36719-11.3574 1.36719-7.05078C1.36719-2.74414 4.95117 0.830078 9.24805 0.830078ZM9.24805-0.654297C5.70312-0.654297 2.87109-3.49609 2.87109-7.05078C2.87109-10.6055 5.69336-13.4473 9.23828-13.4473C12.793-13.4473 15.6348-10.6055 15.6445-7.05078C15.6543-3.49609 12.8027-0.654297 9.24805-0.654297ZM6.39648-6.31836L8.50586-6.31836L8.50586-4.19922C8.50586-3.75977 8.79883-3.45703 9.22852-3.45703C9.67773-3.45703 9.9707-3.75977 9.9707-4.19922L9.9707-6.31836L12.0996-6.31836C12.5391-6.31836 12.8418-6.61133 12.8418-7.04102C12.8418-7.48047 12.5391-7.7832 12.0996-7.7832L9.9707-7.7832L9.9707-9.89258C9.9707-10.3418 9.67773-10.6445 9.22852-10.6445C8.79883-10.6445 8.50586-10.3418 8.50586-9.89258L8.50586-7.7832L6.39648-7.7832C5.94727-7.7832 5.64453-7.48047 5.64453-7.04102C5.64453-6.61133 5.94727-6.31836 6.39648-6.31836Z"/>
  </g>
  <g id="" transform="matrix(1 0 0 1 281.506 1933)">
   <path d="M11.709 2.91016C17.1582 2.91016 21.6699-1.61133 21.6699-7.05078C21.6699-12.5 17.1484-17.0117 11.6992-17.0117C6.25977-17.0117 1.74805-12.5 1.74805-7.05078C1.74805-1.61133 6.26953 2.91016 11.709 2.91016ZM11.709 1.25C7.09961 1.25 3.41797-2.44141 3.41797-7.05078C3.41797-11.6602 7.08984-15.3516 11.6992-15.3516C16.3086-15.3516 20-11.6602 20.0098-7.05078C20.0195-2.44141 16.3184 1.25 11.709 1.25ZM7.98828-6.23047L10.8789-6.23047L10.8789-3.32031C10.8789-2.83203 11.2109-2.5 11.6895-2.5C12.1777-2.5 12.5195-2.83203 12.5195-3.32031L12.5195-6.23047L15.4297-6.23047C15.918-6.23047 16.25-6.5625 16.25-7.04102C16.25-7.5293 15.918-7.87109 15.4297-7.87109L12.5195-7.87109L12.5195-10.7617C12.5195-11.2695 12.1777-11.6016 11.6895-11.6016C11.2109-11.6016 10.8789-11.2598 10.8789-10.7617L10.8789-7.87109L7.98828-7.87109C7.48047-7.87109 7.14844-7.5293 7.14844-7.04102C7.14844-6.5625 7.49023-6.23047 7.98828-6.23047Z"/>
  </g>
  <g id="" transform="matrix(1 0 0 1 304.924 1933)">
   <path d="M14.9707 5.66406C21.9336 5.66406 27.6953-0.0976562 27.6953-7.05078C27.6953-14.0137 21.9238-19.7754 14.9609-19.7754C8.00781-19.7754 2.25586-14.0137 2.25586-7.05078C2.25586-0.0976562 8.01758 5.66406 14.9707 5.66406ZM14.9707 3.84766C8.93555 3.84766 4.08203-1.01562 4.08203-7.05078C4.08203-13.0957 8.92578-17.9492 14.9609-17.9492C21.0059-17.9492 25.8594-13.0957 25.8691-7.05078C25.8789-1.01562 21.0156 3.84766 14.9707 3.84766ZM10.0586-6.14258L14.0625-6.14258L14.0625-2.12891C14.0625-1.5918 14.4336-1.2207 14.9512-1.2207C15.4883-1.2207 15.8594-1.5918 15.8594-2.12891L15.8594-6.14258L19.8828-6.14258C20.4102-6.14258 20.791-6.51367 20.791-7.03125C20.791-7.56836 20.4199-7.94922 19.8828-7.94922L15.8594-7.94922L15.8594-11.9531C15.8594-12.5098 15.4883-12.8809 14.9512-12.8809C14.4336-12.8809 14.0625-12.5 14.0625-11.9531L14.0625-7.94922L10.0586-7.94922C9.50195-7.94922 9.13086-7.56836 9.13086-7.03125C9.13086-6.51367 9.51172-6.14258 10.0586-6.14258Z"/>
  </g>
  <text style="stroke:none;fill:black;font-family:-apple-system,&quot;SF Pro Display&quot;,&quot;SF Pro Text&quot;,Helvetica,sans-serif;font-weight:bold;" transform="matrix(1 0 0 1 263 1953)">Design Variations</text>
  <text style="stroke:none;fill:black;font-family:-apple-system,&quot;SF Pro Display&quot;,&quot;SF Pro Text&quot;,Helvetica,sans-serif;" transform="matrix(1 0 0 1 263 1971)">Symbols are supported in up to nine weights and three scales.</text>
  <text style="stroke:none;fill:black;font-family:-apple-system,&quot;SF Pro Display&quot;,&quot;SF Pro Text&quot;,Helvetica,sans-serif;" transform="matrix(1 0 0 1 263 1989)">For optimal layout with text and other symbols, vertically align</text>
  <text style="stroke:none;fill:black;font-family:-apple-system,&quot;SF Pro Display&quot;,&quot;SF Pro Text&quot;,Helvetica,sans-serif;" transform="matrix(1 0 0 1 263 2007)">symbols with the adjacent text.</text>
  <line id="" style="fill:none;stroke:#00AEEF;stroke-width:0.5;opacity:1.0;" x1="776" x2="776" y1="1919" y2="1933"/>
  <g id="" transform="matrix(1 0 0 1 776 1933)">
   <path d="M3.31055 0.126953C3.82812 0.126953 4.08203-0.0683594 4.26758-0.605469L5.52734-4.0625L11.2891-4.0625L12.5488-0.605469C12.7344-0.0683594 12.9883 0.126953 13.4961 0.126953C14.0137 0.126953 14.3457-0.185547 14.3457-0.673828C14.3457-0.839844 14.3164-0.986328 14.2383-1.20117L9.6582-13.3887C9.43359-13.9941 9.0332-14.2871 8.4082-14.2871C7.80273-14.2871 7.39258-13.9941 7.17773-13.3984L2.59766-1.19141C2.51953-0.976562 2.49023-0.830078 2.49023-0.664062C2.49023-0.175781 2.80273 0.126953 3.31055 0.126953ZM6.00586-5.53711L8.37891-12.1094L8.42773-12.1094L10.8008-5.53711Z"/>
  </g>
  <line id="" style="fill:none;stroke:#00AEEF;stroke-width:0.5;opacity:1.0;" x1="792.836" x2="792.836" y1="1919" y2="1933"/>
  <text style="stroke:none;fill:black;font-family:-apple-system,&quot;SF Pro Display&quot;,&quot;SF Pro Text&quot;,Helvetica,sans-serif;font-weight:bold;" transform="matrix(1 0 0 1 776 1953)">Margins</text>
  <text style="stroke:none;fill:black;font-family:-apple-system,&quot;SF Pro Display&quot;,&quot;SF Pro Text&quot;,Helvetica,sans-serif;" transform="matrix(1 0 0 1 776 1971)">Leading and trailing margins on the left and right side of each symbol</text>
  <text style="stroke:none;fill:black;font-family:-apple-system,&quot;SF Pro Display&quot;,&quot;SF Pro Text&quot;,Helvetica,sans-serif;" transform="matrix(1 0 0 1 776 1989)">can be adjusted by modifying the x-location of the margin guidelines.</text>
  <text style="stroke:none;fill:black;font-family:-apple-system,&quot;SF Pro Display&quot;,&quot;SF Pro Text&quot;,Helvetica,sans-serif;" transform="matrix(1 0 0 1 776 2007)">Modifications are automatically applied proportionally to all</text>
  <text style="stroke:none;fill:black;font-family:-apple-system,&quot;SF Pro Display&quot;,&quot;SF Pro Text&quot;,Helvetica,sans-serif;" transform="matrix(1 0 0 1 776 2025)">scales and weights.</text>
  <g id="" transform="matrix(1 0 0 1 1289 1933)">
   <path d="M2.8418 1.86523L4.54102 3.57422C5.40039 4.44336 6.38672 4.38477 7.31445 3.35938L17.4902-7.85156C17.7539-7.76367 18.0273-7.7832 18.3398-7.8418L19.4043-8.03711L20.0684-7.36328L20.0293-6.80664C19.9902-6.30859 20.1172-5.92773 20.6055-5.44922L21.3672-4.70703C21.8457-4.22852 22.4609-4.19922 22.9297-4.66797L25.8398-7.58789C26.3086-8.05664 26.2891-8.65234 25.8105-9.13086L25.0391-9.89258C24.5605-10.3711 24.1895-10.5273 23.7109-10.4883L23.1348-10.4395L22.4902-11.0742L22.7344-12.1973C22.8613-12.7637 22.7051-13.2031 22.1191-13.7891L19.9219-15.9766C16.582-19.2969 12.1484-19.2188 9.25781-16.3281C8.83789-15.918 8.80859-15.3418 9.04297-14.9512C9.27734-14.5898 9.73633-14.3555 10.3809-14.5215C11.8457-14.8633 13.3691-14.9219 14.7949-13.9844L14.209-12.5293C14.0137-12.0508 13.9844-11.6504 14.1113-11.2891L3.04688-0.898438C2.06055 0.0195312 1.98242 0.996094 2.8418 1.86523ZM10.752-15.957C13.1836-17.7344 16.4746-17.4316 18.7012-15.2051L21.1328-12.793C21.3672-12.5586 21.4062-12.373 21.3379-12.0312L21.0156-10.5469L22.5195-9.0625L23.5059-9.12109C23.7598-9.13086 23.8379-9.11133 24.0332-8.91602L24.6094-8.33984L22.168-5.89844L21.5918-6.47461C21.3965-6.66992 21.3672-6.74805 21.377-7.01172L21.4453-7.98828L19.9512-9.47266L18.4277-9.21875C18.1055-9.15039 17.959-9.17969 17.7148-9.41406L15.7129-11.416C15.459-11.6504 15.4297-11.8164 15.5859-12.1875L16.4648-14.2773C14.9023-15.7324 12.8711-16.3574 10.8398-15.7617C10.6836-15.7227 10.625-15.8496 10.752-15.957ZM5.27344 2.30469L4.10156 1.14258C3.63281 0.683594 3.74023 0.341797 4.14062-0.0195312L14.9512-10.1953L16.416-8.71094L6.42578 2.27539C6.07422 2.67578 5.74219 2.77344 5.27344 2.30469Z"/>
  </g>
  <text style="stroke:none;fill:black;font-family:-apple-system,&quot;SF Pro Display&quot;,&quot;SF Pro Text&quot;,Helvetica,sans-serif;font-weight:bold;" transform="matrix(1 0 0 1 1289 1953)">Exporting</text>
  <text style="stroke:none;fill:black;font-family:-apple-system,&quot;SF Pro Display&quot;,&quot;SF Pro Text&quot;,Helvetica,sans-serif;" transform="matrix(1 0 0 1 1289 1971)">Symbols should be outlined when exporting to ensure the</text>
  <text style="stroke:none;fill:black;font-family:-apple-system,&quot;SF Pro Display&quot;,&quot;SF Pro Text&quot;,Helvetica,sans-serif;" transform="matrix(1 0 0 1 1289 1989)">design is preserved when submitting to Xcode.</text>
  <text id="template-version" style="stroke:none;fill:black;font-family:-apple-system,&quot;SF Pro Display&quot;,&quot;SF Pro Text&quot;,Helvetica,sans-serif;text-anchor:end;" transform="matrix(1 0 0 1 3036 1933)">Template v.2.0</text>
  <text style="stroke:none;fill:black;font-family:-apple-system,&quot;SF Pro Display&quot;,&quot;SF Pro Text&quot;,Helvetica,sans-serif;text-anchor:end;" transform="matrix(1 0 0 1 3036 1951)">Requires Xcode 12 or greater</text>
  <text style="stroke:none;fill:black;font-family:-apple-system,&quot;SF Pro Display&quot;,&quot;SF Pro Text&quot;,Helvetica,sans-serif;" transform="matrix(1 0 0 1 263 726)">Small</text>
  <text style="stroke:none;fill:black;font-family:-apple-system,&quot;SF Pro Display&quot;,&quot;SF Pro Text&quot;,Helvetica,sans-serif;" transform="matrix(1 0 0 1 263 1156)">Medium</text>
  <text style="stroke:none;fill:black;font-family:-apple-system,&quot;SF Pro Display&quot;,&quot;SF Pro Text&quot;,Helvetica,sans-serif;" transform="matrix(1 0 0 1 263 1586)">Large</text>
 </g>
 <g id="Guides">
  <g id="H-reference" style="fill:#27AAE1;stroke:none;" transform="matrix(1 0 0 1 339 696)">
   <path d="M0.976562 0L3.66211 0L12.9883-24.4629L45.752-24.4629L55.127 0L57.7637 0L30.6152-70.459L28.125-70.459ZM29.3457-67.1387L29.4434-67.1387L44.873-26.709L13.8672-26.709Z"/>
  </g>
  <line id="Baseline-S" style="fill:none;stroke:#27AAE1;opacity:1;stroke-width:0.5;" x1="263" x2="3036" y1="696" y2="696"/>
  <line id="Capline-S" style="fill:none;stroke:#27AAE1;opacity:1;stroke-width:0.5;" x1="263" x2="3036" y1="625.541" y2="625.541"/>
  <g id="H-reference" style="fill:#27AAE1;stroke:none;" transform="matrix(1 0 0 1 339 1126)">
   <path d="M0.976562 0L3.66211 0L12.9883-24.4629L45.752-24.4629L55.127 0L57.7637 0L30.6152-70.459L28.125-70.459ZM29.3457-67.1387L29.4434-67.1387L44.873-26.709L13.8672-26.709Z"/>
  </g>
  <line id="Baseline-M" style="fill:none;stroke:#27AAE1;opacity:1;stroke-width:0.5;" x1="263" x2="3036" y1="1126" y2="1126"/>
  <line id="Capline-M" style="fill:none;stroke:#27AAE1;opacity:1;stroke-width:0.5;" x1="263" x2="3036" y1="1055.54" y2="1055.54"/>
  <g id="H-reference" style="fill:#27AAE1;stroke:none;" transform="matrix(1 0 0 1 339 1556)">
   <path d="M0.976562 0L3.66211 0L12.9883-24.4629L45.752-24.4629L55.127 0L57.7637 0L30.6152-70.459L28.125-70.459ZM29.3457-67.1387L29.4434-67.1387L44.873-26.709L13.8672-26.709Z"/>
  </g>
  <line id="Baseline-L" style="fill:none;stroke:#27AAE1;opacity:1;stroke-width:0.5;" x1="263" x2="3036" y1="1556" y2="1556"/>
  <line id="Capline-L" style="fill:none;stroke:#27AAE1;opacity:1;stroke-width:0.5;" x1="263" x2="3036" y1="1485.54" y2="1485.54"/>
  <line id="left-margin" x1="1415.9692336382611" x2="1415.9692336382611" y1="1030.79" y2="1150.12" style="fill:none;stroke:#00AEEF;stroke-width:0.5;opacity:1.0;"/>
  <line id="right-margin" x1="1486.2907663617386" x2="1486.2907663617386" y1="1030.79" y2="1150.12" style="fill:none;stroke:#00AEEF;stroke-width:0.5;opacity:1.0;"/>
 </g>
 <g id="Symbols">
  <g id="Black-L" transform="matrix(1.0,0.0,0.0,1.0,2890.0369009777137,1476.1269205089636)">  <path stroke-miterlimit="4" fill-rule="evenodd" stroke-dasharray="none" stroke="none" fill="#000000" fill-opacity="1" stroke-linecap="butt" stroke-opacity="1" clip-rule="evenodd" stroke-linejoin="miter" stroke-width="1px" d="M19.16,0C16.127,0,13.193,0.277,10.45,0.585C5.24,1.182,1.135,5.3,0.554,10.511C0.259,13.245,0,16.155,0,19.16C0,22.161,0.259,25.071,0.551,27.802C1.129,33.017,5.237,37.138,10.45,37.734C13.193,38.042,16.127,38.319,19.16,38.319C22.189,38.319,25.123,38.042,27.867,37.734C33.079,37.138,37.187,33.017,37.765,27.802C38.057,25.074,38.319,22.161,38.319,19.16C38.319,16.155,38.057,13.245,37.765,10.514C37.187,5.3,33.079,1.178,27.867,0.582C25.123,0.277,22.189,0,19.16,0ZM73.27,55.869C73.27,53.136,71.055,50.921,68.322,50.921C65.59,50.921,63.375,53.136,63.375,55.869L63.375,64.963L54.28,64.963C51.547,64.963,49.332,67.179,49.332,69.911C49.332,72.644,51.547,74.859,54.28,74.859L63.375,74.859L63.375,83.951C63.375,85.718,64.318,87.352,65.849,88.235C67.379,89.119,69.265,89.119,70.796,88.235C72.327,87.352,73.27,85.718,73.27,83.951L73.27,74.859L82.362,74.859C85.094,74.859,87.31,72.644,87.31,69.911C87.31,67.179,85.094,64.963,82.362,64.963L73.27,64.963L73.27,55.869ZM19.16,50.752C16.127,50.752,13.193,51.029,10.45,51.336C5.241,51.933,1.136,56.049,0.554,61.26C0.259,63.994,0,66.906,0,69.908C0,72.913,0.259,75.822,0.551,78.553C1.129,83.768,5.237,87.89,10.45,88.486C13.193,88.791,16.127,89.068,19.16,89.068C22.189,89.068,25.123,88.791,27.867,88.483C33.078,87.887,37.186,83.767,37.765,78.553C38.057,75.822,38.319,72.913,38.319,69.908C38.319,66.906,38.057,63.997,37.765,61.263C37.186,56.049,33.078,51.929,27.867,51.333C25.123,51.026,22.189,50.748,19.16,50.748ZM68.319,0C65.29,0,62.356,0.277,59.612,0.585C54.4,1.179,50.291,5.3,49.711,10.514C49.418,13.245,49.16,16.155,49.16,19.16C49.16,22.161,49.418,25.071,49.714,27.802C50.292,33.017,54.4,37.138,59.612,37.734C62.353,38.042,65.29,38.319,68.319,38.319C71.349,38.319,74.283,38.042,77.026,37.734C82.24,37.139,86.348,33.017,86.928,27.802C87.217,25.074,87.476,22.161,87.476,19.16C87.476,16.155,87.217,13.245,86.928,10.514C86.348,5.299,82.24,1.178,77.026,0.582C74.289,0.277,71.352,0,68.319,0ZM68.319,0"/>
</g>
  <g id="Heavy-L" transform="matrix(1.0,0.0,0.0,1.0,2593.3269009777136,1476.1269205089636)">  <path fill-rule="evenodd" stroke="none" fill="#000000" stroke-dasharray="none" clip-rule="evenodd" stroke-miterlimit="4" fill-opacity="1" stroke-width="1px" stroke-linejoin="miter" stroke-linecap="butt" stroke-opacity="1" d="M19.16,0C16.127,0,13.193,0.277,10.45,0.585C5.24,1.182,1.135,5.3,0.554,10.511C0.259,13.245,0,16.155,0,19.16C0,22.161,0.259,25.071,0.551,27.802C1.129,33.017,5.237,37.138,10.45,37.734C13.193,38.042,16.127,38.319,19.16,38.319C22.189,38.319,25.123,38.042,27.867,37.734C33.079,37.138,37.187,33.017,37.765,27.802C38.057,25.074,38.319,22.161,38.319,19.16C38.319,16.155,38.057,13.245,37.765,10.514C37.187,5.3,33.079,1.178,27.867,0.582C25.123,0.277,22.189,0,19.16,0ZM73.27,55.869C73.27,53.136,71.055,50.921,68.322,50.921C65.59,50.921,63.375,53.136,63.375,55.869L63.375,64.963L54.28,64.963C51.547,64.963,49.332,67.179,49.332,69.911C49.332,72.644,51.547,74.859,54.28,74.859L63.375,74.859L63.375,83.951C63.375,85.718,64.318,87.352,65.849,88.235C67.379,89.119,69.265,89.119,70.796,88.235C72.327,87.352,73.27,85.718,73.27,83.951L73.27,74.859L82.362,74.859C85.094,74.859,87.31,72.644,87.31,69.911C87.31,67.179,85.094,64.963,82.362,64.963L73.27,64.963L73.27,55.869ZM19.16,50.752C16.127,50.752,13.193,51.029,10.45,51.336C5.241,51.933,1.136,56.049,0.554,61.26C0.259,63.994,0,66.906,0,69.908C0,72.913,0.259,75.822,0.551,78.553C1.129,83.768,5.237,87.89,10.45,88.486C13.193,88.791,16.127,89.068,19.16,89.068C22.189,89.068,25.123,88.791,27.867,88.483C33.078,87.887,37.186,83.767,37.765,78.553C38.057,75.822,38.319,72.913,38.319,69.908C38.319,66.906,38.057,63.997,37.765,61.263C37.186,56.049,33.078,51.929,27.867,51.333C25.123,51.026,22.189,50.748,19.16,50.748ZM68.319,0C65.29,0,62.356,0.277,59.612,0.585C54.4,1.179,50.291,5.3,49.711,10.514C49.418,13.245,49.16,16.155,49.16,19.16C49.16,22.161,49.418,25.071,49.714,27.802C50.292,33.017,54.4,37.138,59.612,37.734C62.353,38.042,65.29,38.319,68.319,38.319C71.349,38.319,74.283,38.042,77.026,37.734C82.24,37.139,86.348,33.017,86.928,27.802C87.217,25.074,87.476,22.161,87.476,19.16C87.476,16.155,87.217,13.245,86.928,10.514C86.348,5.299,82.24,1.178,77.026,0.582C74.289,0.277,71.352,0,68.319,0ZM68.319,0"/>
</g>
  <g id="Bold-L" transform="matrix(1.0,0.0,0.0,1.0,2296.6169009777136,1476.1269205089636)">  <path clip-rule="evenodd" stroke="none" stroke-dasharray="none" stroke-opacity="1" stroke-linecap="butt" stroke-linejoin="miter" fill="#000000" fill-rule="evenodd" stroke-width="1px" fill-opacity="1" stroke-miterlimit="4" d="M19.16,0C16.127,0,13.193,0.277,10.45,0.585C5.24,1.182,1.135,5.3,0.554,10.511C0.259,13.245,0,16.155,0,19.16C0,22.161,0.259,25.071,0.551,27.802C1.129,33.017,5.237,37.138,10.45,37.734C13.193,38.042,16.127,38.319,19.16,38.319C22.189,38.319,25.123,38.042,27.867,37.734C33.079,37.138,37.187,33.017,37.765,27.802C38.057,25.074,38.319,22.161,38.319,19.16C38.319,16.155,38.057,13.245,37.765,10.514C37.187,5.3,33.079,1.178,27.867,0.582C25.123,0.277,22.189,0,19.16,0ZM73.27,55.869C73.27,53.136,71.055,50.921,68.322,50.921C65.59,50.921,63.375,53.136,63.375,55.869L63.375,64.963L54.28,64.963C51.547,64.963,49.332,67.179,49.332,69.911C49.332,72.644,51.547,74.859,54.28,74.859L63.375,74.859L63.375,83.951C63.375,85.718,64.318,87.352,65.849,88.235C67.379,89.119,69.265,89.119,70.796,88.235C72.327,87.352,73.27,85.718,73.27,83.951L73.27,74.859L82.362,74.859C85.094,74.859,87.31,72.644,87.31,69.911C87.31,67.179,85.094,64.963,82.362,64.963L73.27,64.963L73.27,55.869ZM19.16,50.752C16.127,50.752,13.193,51.029,10.45,51.336C5.241,51.933,1.136,56.049,0.554,61.26C0.259,63.994,0,66.906,0,69.908C0,72.913,0.259,75.822,0.551,78.553C1.129,83.768,5.237,87.89,10.45,88.486C13.193,88.791,16.127,89.068,19.16,89.068C22.189,89.068,25.123,88.791,27.867,88.483C33.078,87.887,37.186,83.767,37.765,78.553C38.057,75.822,38.319,72.913,38.319,69.908C38.319,66.906,38.057,63.997,37.765,61.263C37.186,56.049,33.078,51.929,27.867,51.333C25.123,51.026,22.189,50.748,19.16,50.748ZM68.319,0C65.29,0,62.356,0.277,59.612,0.585C54.4,1.179,50.291,5.3,49.711,10.514C49.418,13.245,49.16,16.155,49.16,19.16C49.16,22.161,49.418,25.071,49.714,27.802C50.292,33.017,54.4,37.138,59.612,37.734C62.353,38.042,65.29,38.319,68.319,38.319C71.349,38.319,74.283,38.042,77.026,37.734C82.24,37.139,86.348,33.017,86.928,27.802C87.217,25.074,87.476,22.161,87.476,19.16C87.476,16.155,87.217,13.245,86.928,10.514C86.348,5.299,82.24,1.178,77.026,0.582C74.289,0.277,71.352,0,68.319,0ZM68.319,0"/>
</g>
  <g id="Semibold-L" transform="matrix(1.0,0.0,0.0,1.0,1999.9069009777136,1476.1269205089636)">  <path stroke-opacity="1" fill-rule="evenodd" stroke-miterlimit="4" clip-rule="evenodd" stroke-dasharray="none" fill-opacity="1" fill="#000000" stroke-linecap="butt" stroke-linejoin="miter" stroke-width="1px" stroke="none" d="M19.16,0C16.127,0,13.193,0.277,10.45,0.585C5.24,1.182,1.135,5.3,0.554,10.511C0.259,13.245,0,16.155,0,19.16C0,22.161,0.259,25.071,0.551,27.802C1.129,33.017,5.237,37.138,10.45,37.734C13.193,38.042,16.127,38.319,19.16,38.319C22.189,38.319,25.123,38.042,27.867,37.734C33.079,37.138,37.187,33.017,37.765,27.802C38.057,25.074,38.319,22.161,38.319,19.16C38.319,16.155,38.057,13.245,37.765,10.514C37.187,5.3,33.079,1.178,27.867,0.582C25.123,0.277,22.189,0,19.16,0ZM73.27,55.869C73.27,53.136,71.055,50.921,68.322,50.921C65.59,50.921,63.375,53.136,63.375,55.869L63.375,64.963L54.28,64.963C51.547,64.963,49.332,67.179,49.332,69.911C49.332,72.644,51.547,74.859,54.28,74.859L63.375,74.859L63.375,83.951C63.375,85.718,64.318,87.352,65.849,88.235C67.379,89.119,69.265,89.119,70.796,88.235C72.327,87.352,73.27,85.718,73.27,83.951L73.27,74.859L82.362,74.859C85.094,74.859,87.31,72.644,87.31,69.911C87.31,67.179,85.094,64.963,82.362,64.963L73.27,64.963L73.27,55.869ZM19.16,50.752C16.127,50.752,13.193,51.029,10.45,51.336C5.241,51.933,1.136,56.049,0.554,61.26C0.259,63.994,0,66.906,0,69.908C0,72.913,0.259,75.822,0.551,78.553C1.129,83.768,5.237,87.89,10.45,88.486C13.193,88.791,16.127,89.068,19.16,89.068C22.189,89.068,25.123,88.791,27.867,88.483C33.078,87.887,37.186,83.767,37.765,78.553C38.057,75.822,38.319,72.913,38.319,69.908C38.319,66.906,38.057,63.997,37.765,61.263C37.186,56.049,33.078,51.929,27.867,51.333C25.123,51.026,22.189,50.748,19.16,50.748ZM68.319,0C65.29,0,62.356,0.277,59.612,0.585C54.4,1.179,50.291,5.3,49.711,10.514C49.418,13.245,49.16,16.155,49.16,19.16C49.16,22.161,49.418,25.071,49.714,27.802C50.292,33.017,54.4,37.138,59.612,37.734C62.353,38.042,65.29,38.319,68.319,38.319C71.349,38.319,74.283,38.042,77.026,37.734C82.24,37.139,86.348,33.017,86.928,27.802C87.217,25.074,87.476,22.161,87.476,19.16C87.476,16.155,87.217,13.245,86.928,10.514C86.348,5.299,82.24,1.178,77.026,0.582C74.289,0.277,71.352,0,68.319,0ZM68.319,0"/>
</g>
  <g id="Medium-L" transform="matrix(1.0,0.0,0.0,1.0,1703.1969009777135,1476.1269205089636)">  <path stroke-linecap="butt" fill="#000000" stroke-opacity="1" fill-opacity="1" stroke-linejoin="miter" fill-rule="evenodd" stroke-dasharray="none" clip-rule="evenodd" stroke="none" stroke-miterlimit="4" stroke-width="1px" d="M19.16,0C16.127,0,13.193,0.277,10.45,0.585C5.24,1.182,1.135,5.3,0.554,10.511C0.259,13.245,0,16.155,0,19.16C0,22.161,0.259,25.071,0.551,27.802C1.129,33.017,5.237,37.138,10.45,37.734C13.193,38.042,16.127,38.319,19.16,38.319C22.189,38.319,25.123,38.042,27.867,37.734C33.079,37.138,37.187,33.017,37.765,27.802C38.057,25.074,38.319,22.161,38.319,19.16C38.319,16.155,38.057,13.245,37.765,10.514C37.187,5.3,33.079,1.178,27.867,0.582C25.123,0.277,22.189,0,19.16,0ZM73.27,55.869C73.27,53.136,71.055,50.921,68.322,50.921C65.59,50.921,63.375,53.136,63.375,55.869L63.375,64.963L54.28,64.963C51.547,64.963,49.332,67.179,49.332,69.911C49.332,72.644,51.547,74.859,54.28,74.859L63.375,74.859L63.375,83.951C63.375,85.718,64.318,87.352,65.849,88.235C67.379,89.119,69.265,89.119,70.796,88.235C72.327,87.352,73.27,85.718,73.27,83.951L73.27,74.859L82.362,74.859C85.094,74.859,87.31,72.644,87.31,69.911C87.31,67.179,85.094,64.963,82.362,64.963L73.27,64.963L73.27,55.869ZM19.16,50.752C16.127,50.752,13.193,51.029,10.45,51.336C5.241,51.933,1.136,56.049,0.554,61.26C0.259,63.994,0,66.906,0,69.908C0,72.913,0.259,75.822,0.551,78.553C1.129,83.768,5.237,87.89,10.45,88.486C13.193,88.791,16.127,89.068,19.16,89.068C22.189,89.068,25.123,88.791,27.867,88.483C33.078,87.887,37.186,83.767,37.765,78.553C38.057,75.822,38.319,72.913,38.319,69.908C38.319,66.906,38.057,63.997,37.765,61.263C37.186,56.049,33.078,51.929,27.867,51.333C25.123,51.026,22.189,50.748,19.16,50.748ZM68.319,0C65.29,0,62.356,0.277,59.612,0.585C54.4,1.179,50.291,5.3,49.711,10.514C49.418,13.245,49.16,16.155,49.16,19.16C49.16,22.161,49.418,25.071,49.714,27.802C50.292,33.017,54.4,37.138,59.612,37.734C62.353,38.042,65.29,38.319,68.319,38.319C71.349,38.319,74.283,38.042,77.026,37.734C82.24,37.139,86.348,33.017,86.928,27.802C87.217,25.074,87.476,22.161,87.476,19.16C87.476,16.155,87.217,13.245,86.928,10.514C86.348,5.299,82.24,1.178,77.026,0.582C74.289,0.277,71.352,0,68.319,0ZM68.319,0"/>
</g>
  <g id="Regular-L" transform="matrix(1.0,0.0,0.0,1.0,1406.4869009777135,1476.1269205089636)">  <path fill="#000000" stroke-linecap="butt" stroke-linejoin="miter" fill-rule="evenodd" fill-opacity="1" stroke="none" stroke-width="1px" clip-rule="evenodd" stroke-miterlimit="4" stroke-dasharray="none" stroke-opacity="1" d="M19.16,0C16.127,0,13.193,0.277,10.45,0.585C5.24,1.182,1.135,5.3,0.554,10.511C0.259,13.245,0,16.155,0,19.16C0,22.161,0.259,25.071,0.551,27.802C1.129,33.017,5.237,37.138,10.45,37.734C13.193,38.042,16.127,38.319,19.16,38.319C22.189,38.319,25.123,38.042,27.867,37.734C33.079,37.138,37.187,33.017,37.765,27.802C38.057,25.074,38.319,22.161,38.319,19.16C38.319,16.155,38.057,13.245,37.765,10.514C37.187,5.3,33.079,1.178,27.867,0.582C25.123,0.277,22.189,0,19.16,0ZM73.27,55.869C73.27,53.136,71.055,50.921,68.322,50.921C65.59,50.921,63.375,53.136,63.375,55.869L63.375,64.963L54.28,64.963C51.547,64.963,49.332,67.179,49.332,69.911C49.332,72.644,51.547,74.859,54.28,74.859L63.375,74.859L63.375,83.951C63.375,85.718,64.318,87.352,65.849,88.235C67.379,89.119,69.265,89.119,70.796,88.235C72.327,87.352,73.27,85.718,73.27,83.951L73.27,74.859L82.362,74.859C85.094,74.859,87.31,72.644,87.31,69.911C87.31,67.179,85.094,64.963,82.362,64.963L73.27,64.963L73.27,55.869ZM19.16,50.752C16.127,50.752,13.193,51.029,10.45,51.336C5.241,51.933,1.136,56.049,0.554,61.26C0.259,63.994,0,66.906,0,69.908C0,72.913,0.259,75.822,0.551,78.553C1.129,83.768,5.237,87.89,10.45,88.486C13.193,88.791,16.127,89.068,19.16,89.068C22.189,89.068,25.123,88.791,27.867,88.483C33.078,87.887,37.186,83.767,37.765,78.553C38.057,75.822,38.319,72.913,38.319,69.908C38.319,66.906,38.057,63.997,37.765,61.263C37.186,56.049,33.078,51.929,27.867,51.333C25.123,51.026,22.189,50.748,19.16,50.748ZM68.319,0C65.29,0,62.356,0.277,59.612,0.585C54.4,1.179,50.291,5.3,49.711,10.514C49.418,13.245,49.16,16.155,49.16,19.16C49.16,22.161,49.418,25.071,49.714,27.802C50.292,33.017,54.4,37.138,59.612,37.734C62.353,38.042,65.29,38.319,68.319,38.319C71.349,38.319,74.283,38.042,77.026,37.734C82.24,37.139,86.348,33.017,86.928,27.802C87.217,25.074,87.476,22.161,87.476,19.16C87.476,16.155,87.217,13.245,86.928,10.514C86.348,5.299,82.24,1.178,77.026,0.582C74.289,0.277,71.352,0,68.319,0ZM68.319,0"/>
</g>
  <g id="Light-L" transform="matrix(1.0,0.0,0.0,1.0,1109.7769009777137,1476.1269205089636)">  <path stroke="none" stroke-miterlimit="4" stroke-dasharray="none" clip-rule="evenodd" fill-opacity="1" stroke-width="1px" stroke-linejoin="miter" stroke-opacity="1" fill-rule="evenodd" stroke-linecap="butt" fill="#000000" d="M19.16,0C16.127,0,13.193,0.277,10.45,0.585C5.24,1.182,1.135,5.3,0.554,10.511C0.259,13.245,0,16.155,0,19.16C0,22.161,0.259,25.071,0.551,27.802C1.129,33.017,5.237,37.138,10.45,37.734C13.193,38.042,16.127,38.319,19.16,38.319C22.189,38.319,25.123,38.042,27.867,37.734C33.079,37.138,37.187,33.017,37.765,27.802C38.057,25.074,38.319,22.161,38.319,19.16C38.319,16.155,38.057,13.245,37.765,10.514C37.187,5.3,33.079,1.178,27.867,0.582C25.123,0.277,22.189,0,19.16,0ZM73.27,55.869C73.27,53.136,71.055,50.921,68.322,50.921C65.59,50.921,63.375,53.136,63.375,55.869L63.375,64.963L54.28,64.963C51.547,64.963,49.332,67.179,49.332,69.911C49.332,72.644,51.547,74.859,54.28,74.859L63.375,74.859L63.375,83.951C63.375,85.718,64.318,87.352,65.849,88.235C67.379,89.119,69.265,89.119,70.796,88.235C72.327,87.352,73.27,85.718,73.27,83.951L73.27,74.859L82.362,74.859C85.094,74.859,87.31,72.644,87.31,69.911C87.31,67.179,85.094,64.963,82.362,64.963L73.27,64.963L73.27,55.869ZM19.16,50.752C16.127,50.752,13.193,51.029,10.45,51.336C5.241,51.933,1.136,56.049,0.554,61.26C0.259,63.994,0,66.906,0,69.908C0,72.913,0.259,75.822,0.551,78.553C1.129,83.768,5.237,87.89,10.45,88.486C13.193,88.791,16.127,89.068,19.16,89.068C22.189,89.068,25.123,88.791,27.867,88.483C33.078,87.887,37.186,83.767,37.765,78.553C38.057,75.822,38.319,72.913,38.319,69.908C38.319,66.906,38.057,63.997,37.765,61.263C37.186,56.049,33.078,51.929,27.867,51.333C25.123,51.026,22.189,50.748,19.16,50.748ZM68.319,0C65.29,0,62.356,0.277,59.612,0.585C54.4,1.179,50.291,5.3,49.711,10.514C49.418,13.245,49.16,16.155,49.16,19.16C49.16,22.161,49.418,25.071,49.714,27.802C50.292,33.017,54.4,37.138,59.612,37.734C62.353,38.042,65.29,38.319,68.319,38.319C71.349,38.319,74.283,38.042,77.026,37.734C82.24,37.139,86.348,33.017,86.928,27.802C87.217,25.074,87.476,22.161,87.476,19.16C87.476,16.155,87.217,13.245,86.928,10.514C86.348,5.299,82.24,1.178,77.026,0.582C74.289,0.277,71.352,0,68.319,0ZM68.319,0"/>
</g>
  <g id="Thin-L" transform="matrix(1.0,0.0,0.0,1.0,813.0669009777137,1476.1269205089636)">  <path stroke-opacity="1" stroke-miterlimit="4" fill-rule="evenodd" fill-opacity="1" stroke-width="1px" stroke="none" stroke-linecap="butt" clip-rule="evenodd" stroke-linejoin="miter" fill="#000000" stroke-dasharray="none" d="M19.16,0C16.127,0,13.193,0.277,10.45,0.585C5.24,1.182,1.135,5.3,0.554,10.511C0.259,13.245,0,16.155,0,19.16C0,22.161,0.259,25.071,0.551,27.802C1.129,33.017,5.237,37.138,10.45,37.734C13.193,38.042,16.127,38.319,19.16,38.319C22.189,38.319,25.123,38.042,27.867,37.734C33.079,37.138,37.187,33.017,37.765,27.802C38.057,25.074,38.319,22.161,38.319,19.16C38.319,16.155,38.057,13.245,37.765,10.514C37.187,5.3,33.079,1.178,27.867,0.582C25.123,0.277,22.189,0,19.16,0ZM73.27,55.869C73.27,53.136,71.055,50.921,68.322,50.921C65.59,50.921,63.375,53.136,63.375,55.869L63.375,64.963L54.28,64.963C51.547,64.963,49.332,67.179,49.332,69.911C49.332,72.644,51.547,74.859,54.28,74.859L63.375,74.859L63.375,83.951C63.375,85.718,64.318,87.352,65.849,88.235C67.379,89.119,69.265,89.119,70.796,88.235C72.327,87.352,73.27,85.718,73.27,83.951L73.27,74.859L82.362,74.859C85.094,74.859,87.31,72.644,87.31,69.911C87.31,67.179,85.094,64.963,82.362,64.963L73.27,64.963L73.27,55.869ZM19.16,50.752C16.127,50.752,13.193,51.029,10.45,51.336C5.241,51.933,1.136,56.049,0.554,61.26C0.259,63.994,0,66.906,0,69.908C0,72.913,0.259,75.822,0.551,78.553C1.129,83.768,5.237,87.89,10.45,88.486C13.193,88.791,16.127,89.068,19.16,89.068C22.189,89.068,25.123,88.791,27.867,88.483C33.078,87.887,37.186,83.767,37.765,78.553C38.057,75.822,38.319,72.913,38.319,69.908C38.319,66.906,38.057,63.997,37.765,61.263C37.186,56.049,33.078,51.929,27.867,51.333C25.123,51.026,22.189,50.748,19.16,50.748ZM68.319,0C65.29,0,62.356,0.277,59.612,0.585C54.4,1.179,50.291,5.3,49.711,10.514C49.418,13.245,49.16,16.155,49.16,19.16C49.16,22.161,49.418,25.071,49.714,27.802C50.292,33.017,54.4,37.138,59.612,37.734C62.353,38.042,65.29,38.319,68.319,38.319C71.349,38.319,74.283,38.042,77.026,37.734C82.24,37.139,86.348,33.017,86.928,27.802C87.217,25.074,87.476,22.161,87.476,19.16C87.476,16.155,87.217,13.245,86.928,10.514C86.348,5.299,82.24,1.178,77.026,0.582C74.289,0.277,71.352,0,68.319,0ZM68.319,0"/>
</g>
  <g id="Ultralight-L" transform="matrix(1.0,0.0,0.0,1.0,516.3569009777136,1476.1269205089636)">  <path fill-opacity="1" stroke-linecap="butt" clip-rule="evenodd" stroke-miterlimit="4" fill-rule="evenodd" stroke-dasharray="none" stroke-linejoin="miter" fill="#000000" stroke="none" stroke-width="1px" stroke-opacity="1" d="M19.16,0C16.127,0,13.193,0.277,10.45,0.585C5.24,1.182,1.135,5.3,0.554,10.511C0.259,13.245,0,16.155,0,19.16C0,22.161,0.259,25.071,0.551,27.802C1.129,33.017,5.237,37.138,10.45,37.734C13.193,38.042,16.127,38.319,19.16,38.319C22.189,38.319,25.123,38.042,27.867,37.734C33.079,37.138,37.187,33.017,37.765,27.802C38.057,25.074,38.319,22.161,38.319,19.16C38.319,16.155,38.057,13.245,37.765,10.514C37.187,5.3,33.079,1.178,27.867,0.582C25.123,0.277,22.189,0,19.16,0ZM73.27,55.869C73.27,53.136,71.055,50.921,68.322,50.921C65.59,50.921,63.375,53.136,63.375,55.869L63.375,64.963L54.28,64.963C51.547,64.963,49.332,67.179,49.332,69.911C49.332,72.644,51.547,74.859,54.28,74.859L63.375,74.859L63.375,83.951C63.375,85.718,64.318,87.352,65.849,88.235C67.379,89.119,69.265,89.119,70.796,88.235C72.327,87.352,73.27,85.718,73.27,83.951L73.27,74.859L82.362,74.859C85.094,74.859,87.31,72.644,87.31,69.911C87.31,67.179,85.094,64.963,82.362,64.963L73.27,64.963L73.27,55.869ZM19.16,50.752C16.127,50.752,13.193,51.029,10.45,51.336C5.241,51.933,1.136,56.049,0.554,61.26C0.259,63.994,0,66.906,0,69.908C0,72.913,0.259,75.822,0.551,78.553C1.129,83.768,5.237,87.89,10.45,88.486C13.193,88.791,16.127,89.068,19.16,89.068C22.189,89.068,25.123,88.791,27.867,88.483C33.078,87.887,37.186,83.767,37.765,78.553C38.057,75.822,38.319,72.913,38.319,69.908C38.319,66.906,38.057,63.997,37.765,61.263C37.186,56.049,33.078,51.929,27.867,51.333C25.123,51.026,22.189,50.748,19.16,50.748ZM68.319,0C65.29,0,62.356,0.277,59.612,0.585C54.4,1.179,50.291,5.3,49.711,10.514C49.418,13.245,49.16,16.155,49.16,19.16C49.16,22.161,49.418,25.071,49.714,27.802C50.292,33.017,54.4,37.138,59.612,37.734C62.353,38.042,65.29,38.319,68.319,38.319C71.349,38.319,74.283,38.042,77.026,37.734C82.24,37.139,86.348,33.017,86.928,27.802C87.217,25.074,87.476,22.161,87.476,19.16C87.476,16.155,87.217,13.245,86.928,10.514C86.348,5.299,82.24,1.178,77.026,0.582C74.289,0.277,71.352,0,68.319,0ZM68.319,0"/>
</g>
  <g id="Black-M" transform="matrix(1.0,0.0,0.0,1.0,2900.0729464943515,1056.1629660256017)">  <path stroke-miterlimit="4" fill-rule="evenodd" stroke-dasharray="none" stroke="none" fill="#000000" fill-opacity="1" stroke-linecap="butt" stroke-opacity="1" clip-rule="evenodd" stroke-linejoin="miter" stroke-width="1px" d="M14.852,0C12.501,0,10.227,0.215,8.1,0.453C4.062,0.916,0.88,4.108,0.43,8.148C0.2,10.268,0,12.523,0,14.852C0,17.179,0.2,19.435,0.427,21.552C0.875,25.594,4.06,28.789,8.1,29.251C10.227,29.49,12.501,29.705,14.852,29.705C17.201,29.705,19.475,29.49,21.602,29.251C25.643,28.789,28.827,25.594,29.275,21.552C29.502,19.437,29.705,17.179,29.705,14.852C29.705,12.523,29.502,10.268,29.275,8.151C28.827,4.108,25.643,0.913,21.602,0.451C19.475,0.215,17.201,0,14.852,0ZM56.799,43.309C56.799,41.191,55.081,39.474,52.963,39.474C50.845,39.474,49.128,41.191,49.128,43.309L49.128,50.359L42.077,50.359C39.959,50.359,38.242,52.076,38.242,54.195C38.242,56.313,39.959,58.03,42.077,58.03L49.128,58.03L49.128,65.078C49.128,66.448,49.859,67.714,51.045,68.4C52.232,69.085,53.694,69.085,54.881,68.4C56.068,67.714,56.799,66.448,56.799,65.078L56.799,58.03L63.846,58.03C65.965,58.03,67.682,56.313,67.682,54.195C67.682,52.076,65.965,50.359,63.846,50.359L56.799,50.359L56.799,43.309ZM14.852,39.342C12.501,39.342,10.227,39.557,8.1,39.796C4.063,40.258,0.881,43.449,0.43,47.488C0.2,49.607,0,51.865,0,54.192C0,56.522,0.2,58.777,0.427,60.894C0.875,64.936,4.06,68.132,8.1,68.594C10.227,68.83,12.501,69.045,14.852,69.045C17.201,69.045,19.475,68.83,21.602,68.591C25.642,68.129,28.826,64.936,29.275,60.894C29.502,58.777,29.705,56.522,29.705,54.192C29.705,51.865,29.502,49.61,29.275,47.49C28.826,43.449,25.642,40.255,21.602,39.793C19.475,39.555,17.201,39.34,14.852,39.34ZM52.961,0C50.612,0,48.338,0.215,46.211,0.453C42.17,0.914,38.985,4.108,38.536,8.151C38.309,10.268,38.108,12.523,38.108,14.852C38.108,17.179,38.309,19.435,38.538,21.552C38.986,25.594,42.17,28.789,46.211,29.251C48.335,29.49,50.612,29.705,52.961,29.705C55.309,29.705,57.584,29.49,59.71,29.251C63.752,28.79,66.937,25.595,67.386,21.552C67.61,19.437,67.811,17.179,67.811,14.852C67.811,12.523,67.61,10.268,67.386,8.151C66.937,4.108,63.752,0.913,59.71,0.451C57.589,0.215,55.312,0,52.961,0ZM52.961,0"/>
</g>
  <g id="Heavy-M" transform="matrix(1.0,0.0,0.0,1.0,2603.3629464943515,1056.1629660256017)">  <path fill-rule="evenodd" stroke="none" fill="#000000" stroke-dasharray="none" clip-rule="evenodd" stroke-miterlimit="4" fill-opacity="1" stroke-width="1px" stroke-linejoin="miter" stroke-linecap="butt" stroke-opacity="1" d="M14.852,0C12.501,0,10.227,0.215,8.1,0.453C4.062,0.916,0.88,4.108,0.43,8.148C0.2,10.268,0,12.523,0,14.852C0,17.179,0.2,19.435,0.427,21.552C0.875,25.594,4.06,28.789,8.1,29.251C10.227,29.49,12.501,29.705,14.852,29.705C17.201,29.705,19.475,29.49,21.602,29.251C25.643,28.789,28.827,25.594,29.275,21.552C29.502,19.437,29.705,17.179,29.705,14.852C29.705,12.523,29.502,10.268,29.275,8.151C28.827,4.108,25.643,0.913,21.602,0.451C19.475,0.215,17.201,0,14.852,0ZM56.799,43.309C56.799,41.191,55.081,39.474,52.963,39.474C50.845,39.474,49.128,41.191,49.128,43.309L49.128,50.359L42.077,50.359C39.959,50.359,38.242,52.076,38.242,54.195C38.242,56.313,39.959,58.03,42.077,58.03L49.128,58.03L49.128,65.078C49.128,66.448,49.859,67.714,51.045,68.4C52.232,69.085,53.694,69.085,54.881,68.4C56.068,67.714,56.799,66.448,56.799,65.078L56.799,58.03L63.846,58.03C65.965,58.03,67.682,56.313,67.682,54.195C67.682,52.076,65.965,50.359,63.846,50.359L56.799,50.359L56.799,43.309ZM14.852,39.342C12.501,39.342,10.227,39.557,8.1,39.796C4.063,40.258,0.881,43.449,0.43,47.488C0.2,49.607,0,51.865,0,54.192C0,56.522,0.2,58.777,0.427,60.894C0.875,64.936,4.06,68.132,8.1,68.594C10.227,68.83,12.501,69.045,14.852,69.045C17.201,69.045,19.475,68.83,21.602,68.591C25.642,68.129,28.826,64.936,29.275,60.894C29.502,58.777,29.705,56.522,29.705,54.192C29.705,51.865,29.502,49.61,29.275,47.49C28.826,43.449,25.642,40.255,21.602,39.793C19.475,39.555,17.201,39.34,14.852,39.34ZM52.961,0C50.612,0,48.338,0.215,46.211,0.453C42.17,0.914,38.985,4.108,38.536,8.151C38.309,10.268,38.108,12.523,38.108,14.852C38.108,17.179,38.309,19.435,38.538,21.552C38.986,25.594,42.17,28.789,46.211,29.251C48.335,29.49,50.612,29.705,52.961,29.705C55.309,29.705,57.584,29.49,59.71,29.251C63.752,28.79,66.937,25.595,67.386,21.552C67.61,19.437,67.811,17.179,67.811,14.852C67.811,12.523,67.61,10.268,67.386,8.151C66.937,4.108,63.752,0.913,59.71,0.451C57.589,0.215,55.312,0,52.961,0ZM52.961,0"/>
</g>
  <g id="Bold-M" transform="matrix(1.0,0.0,0.0,1.0,2306.6529464943515,1056.1629660256017)">  <path clip-rule="evenodd" stroke="none" stroke-dasharray="none" stroke-opacity="1" stroke-linecap="butt" stroke-linejoin="miter" fill="#000000" fill-rule="evenodd" stroke-width="1px" fill-opacity="1" stroke-miterlimit="4" d="M14.852,0C12.501,0,10.227,0.215,8.1,0.453C4.062,0.916,0.88,4.108,0.43,8.148C0.2,10.268,0,12.523,0,14.852C0,17.179,0.2,19.435,0.427,21.552C0.875,25.594,4.06,28.789,8.1,29.251C10.227,29.49,12.501,29.705,14.852,29.705C17.201,29.705,19.475,29.49,21.602,29.251C25.643,28.789,28.827,25.594,29.275,21.552C29.502,19.437,29.705,17.179,29.705,14.852C29.705,12.523,29.502,10.268,29.275,8.151C28.827,4.108,25.643,0.913,21.602,0.451C19.475,0.215,17.201,0,14.852,0ZM56.799,43.309C56.799,41.191,55.081,39.474,52.963,39.474C50.845,39.474,49.128,41.191,49.128,43.309L49.128,50.359L42.077,50.359C39.959,50.359,38.242,52.076,38.242,54.195C38.242,56.313,39.959,58.03,42.077,58.03L49.128,58.03L49.128,65.078C49.128,66.448,49.859,67.714,51.045,68.4C52.232,69.085,53.694,69.085,54.881,68.4C56.068,67.714,56.799,66.448,56.799,65.078L56.799,58.03L63.846,58.03C65.965,58.03,67.682,56.313,67.682,54.195C67.682,52.076,65.965,50.359,63.846,50.359L56.799,50.359L56.799,43.309ZM14.852,39.342C12.501,39.342,10.227,39.557,8.1,39.796C4.063,40.258,0.881,43.449,0.43,47.488C0.2,49.607,0,51.865,0,54.192C0,56.522,0.2,58.777,0.427,60.894C0.875,64.936,4.06,68.132,8.1,68.594C10.227,68.83,12.501,69.045,14.852,69.045C17.201,69.045,19.475,68.83,21.602,68.591C25.642,68.129,28.826,64.936,29.275,60.894C29.502,58.777,29.705,56.522,29.705,54.192C29.705,51.865,29.502,49.61,29.275,47.49C28.826,43.449,25.642,40.255,21.602,39.793C19.475,39.555,17.201,39.34,14.852,39.34ZM52.961,0C50.612,0,48.338,0.215,46.211,0.453C42.17,0.914,38.985,4.108,38.536,8.151C38.309,10.268,38.108,12.523,38.108,14.852C38.108,17.179,38.309,19.435,38.538,21.552C38.986,25.594,42.17,28.789,46.211,29.251C48.335,29.49,50.612,29.705,52.961,29.705C55.309,29.705,57.584,29.49,59.71,29.251C63.752,28.79,66.937,25.595,67.386,21.552C67.61,19.437,67.811,17.179,67.811,14.852C67.811,12.523,67.61,10.268,67.386,8.151C66.937,4.108,63.752,0.913,59.71,0.451C57.589,0.215,55.312,0,52.961,0ZM52.961,0"/>
</g>
  <g id="Semibold-M" transform="matrix(1.0,0.0,0.0,1.0,2009.9429464943516,1056.1629660256017)">  <path stroke-opacity="1" fill-rule="evenodd" stroke-miterlimit="4" clip-rule="evenodd" stroke-dasharray="none" fill-opacity="1" fill="#000000" stroke-linecap="butt" stroke-linejoin="miter" stroke-width="1px" stroke="none" d="M14.852,0C12.501,0,10.227,0.215,8.1,0.453C4.062,0.916,0.88,4.108,0.43,8.148C0.2,10.268,0,12.523,0,14.852C0,17.179,0.2,19.435,0.427,21.552C0.875,25.594,4.06,28.789,8.1,29.251C10.227,29.49,12.501,29.705,14.852,29.705C17.201,29.705,19.475,29.49,21.602,29.251C25.643,28.789,28.827,25.594,29.275,21.552C29.502,19.437,29.705,17.179,29.705,14.852C29.705,12.523,29.502,10.268,29.275,8.151C28.827,4.108,25.643,0.913,21.602,0.451C19.475,0.215,17.201,0,14.852,0ZM56.799,43.309C56.799,41.191,55.081,39.474,52.963,39.474C50.845,39.474,49.128,41.191,49.128,43.309L49.128,50.359L42.077,50.359C39.959,50.359,38.242,52.076,38.242,54.195C38.242,56.313,39.959,58.03,42.077,58.03L49.128,58.03L49.128,65.078C49.128,66.448,49.859,67.714,51.045,68.4C52.232,69.085,53.694,69.085,54.881,68.4C56.068,67.714,56.799,66.448,56.799,65.078L56.799,58.03L63.846,58.03C65.965,58.03,67.682,56.313,67.682,54.195C67.682,52.076,65.965,50.359,63.846,50.359L56.799,50.359L56.799,43.309ZM14.852,39.342C12.501,39.342,10.227,39.557,8.1,39.796C4.063,40.258,0.881,43.449,0.43,47.488C0.2,49.607,0,51.865,0,54.192C0,56.522,0.2,58.777,0.427,60.894C0.875,64.936,4.06,68.132,8.1,68.594C10.227,68.83,12.501,69.045,14.852,69.045C17.201,69.045,19.475,68.83,21.602,68.591C25.642,68.129,28.826,64.936,29.275,60.894C29.502,58.777,29.705,56.522,29.705,54.192C29.705,51.865,29.502,49.61,29.275,47.49C28.826,43.449,25.642,40.255,21.602,39.793C19.475,39.555,17.201,39.34,14.852,39.34ZM52.961,0C50.612,0,48.338,0.215,46.211,0.453C42.17,0.914,38.985,4.108,38.536,8.151C38.309,10.268,38.108,12.523,38.108,14.852C38.108,17.179,38.309,19.435,38.538,21.552C38.986,25.594,42.17,28.789,46.211,29.251C48.335,29.49,50.612,29.705,52.961,29.705C55.309,29.705,57.584,29.49,59.71,29.251C63.752,28.79,66.937,25.595,67.386,21.552C67.61,19.437,67.811,17.179,67.811,14.852C67.811,12.523,67.61,10.268,67.386,8.151C66.937,4.108,63.752,0.913,59.71,0.451C57.589,0.215,55.312,0,52.961,0ZM52.961,0"/>
</g>
  <g id="Medium-M" transform="matrix(1.0,0.0,0.0,1.0,1713.2329464943516,1056.1629660256017)">  <path stroke-linecap="butt" fill="#000000" stroke-opacity="1" fill-opacity="1" stroke-linejoin="miter" fill-rule="evenodd" stroke-dasharray="none" clip-rule="evenodd" stroke="none" stroke-miterlimit="4" stroke-width="1px" d="M14.852,0C12.501,0,10.227,0.215,8.1,0.453C4.062,0.916,0.88,4.108,0.43,8.148C0.2,10.268,0,12.523,0,14.852C0,17.179,0.2,19.435,0.427,21.552C0.875,25.594,4.06,28.789,8.1,29.251C10.227,29.49,12.501,29.705,14.852,29.705C17.201,29.705,19.475,29.49,21.602,29.251C25.643,28.789,28.827,25.594,29.275,21.552C29.502,19.437,29.705,17.179,29.705,14.852C29.705,12.523,29.502,10.268,29.275,8.151C28.827,4.108,25.643,0.913,21.602,0.451C19.475,0.215,17.201,0,14.852,0ZM56.799,43.309C56.799,41.191,55.081,39.474,52.963,39.474C50.845,39.474,49.128,41.191,49.128,43.309L49.128,50.359L42.077,50.359C39.959,50.359,38.242,52.076,38.242,54.195C38.242,56.313,39.959,58.03,42.077,58.03L49.128,58.03L49.128,65.078C49.128,66.448,49.859,67.714,51.045,68.4C52.232,69.085,53.694,69.085,54.881,68.4C56.068,67.714,56.799,66.448,56.799,65.078L56.799,58.03L63.846,58.03C65.965,58.03,67.682,56.313,67.682,54.195C67.682,52.076,65.965,50.359,63.846,50.359L56.799,50.359L56.799,43.309ZM14.852,39.342C12.501,39.342,10.227,39.557,8.1,39.796C4.063,40.258,0.881,43.449,0.43,47.488C0.2,49.607,0,51.865,0,54.192C0,56.522,0.2,58.777,0.427,60.894C0.875,64.936,4.06,68.132,8.1,68.594C10.227,68.83,12.501,69.045,14.852,69.045C17.201,69.045,19.475,68.83,21.602,68.591C25.642,68.129,28.826,64.936,29.275,60.894C29.502,58.777,29.705,56.522,29.705,54.192C29.705,51.865,29.502,49.61,29.275,47.49C28.826,43.449,25.642,40.255,21.602,39.793C19.475,39.555,17.201,39.34,14.852,39.34ZM52.961,0C50.612,0,48.338,0.215,46.211,0.453C42.17,0.914,38.985,4.108,38.536,8.151C38.309,10.268,38.108,12.523,38.108,14.852C38.108,17.179,38.309,19.435,38.538,21.552C38.986,25.594,42.17,28.789,46.211,29.251C48.335,29.49,50.612,29.705,52.961,29.705C55.309,29.705,57.584,29.49,59.71,29.251C63.752,28.79,66.937,25.595,67.386,21.552C67.61,19.437,67.811,17.179,67.811,14.852C67.811,12.523,67.61,10.268,67.386,8.151C66.937,4.108,63.752,0.913,59.71,0.451C57.589,0.215,55.312,0,52.961,0ZM52.961,0"/>
</g>
  <g id="Regular-M" transform="matrix(1.0,0.0,0.0,1.0,1416.5229464943516,1056.1629660256017)">  <path fill="#000000" stroke-linecap="butt" stroke-linejoin="miter" fill-rule="evenodd" fill-opacity="1" stroke="none" stroke-width="1px" clip-rule="evenodd" stroke-miterlimit="4" stroke-dasharray="none" stroke-opacity="1" d="M14.852,0C12.501,0,10.227,0.215,8.1,0.453C4.062,0.916,0.88,4.108,0.43,8.148C0.2,10.268,0,12.523,0,14.852C0,17.179,0.2,19.435,0.427,21.552C0.875,25.594,4.06,28.789,8.1,29.251C10.227,29.49,12.501,29.705,14.852,29.705C17.201,29.705,19.475,29.49,21.602,29.251C25.643,28.789,28.827,25.594,29.275,21.552C29.502,19.437,29.705,17.179,29.705,14.852C29.705,12.523,29.502,10.268,29.275,8.151C28.827,4.108,25.643,0.913,21.602,0.451C19.475,0.215,17.201,0,14.852,0ZM56.799,43.309C56.799,41.191,55.081,39.474,52.963,39.474C50.845,39.474,49.128,41.191,49.128,43.309L49.128,50.359L42.077,50.359C39.959,50.359,38.242,52.076,38.242,54.195C38.242,56.313,39.959,58.03,42.077,58.03L49.128,58.03L49.128,65.078C49.128,66.448,49.859,67.714,51.045,68.4C52.232,69.085,53.694,69.085,54.881,68.4C56.068,67.714,56.799,66.448,56.799,65.078L56.799,58.03L63.846,58.03C65.965,58.03,67.682,56.313,67.682,54.195C67.682,52.076,65.965,50.359,63.846,50.359L56.799,50.359L56.799,43.309ZM14.852,39.342C12.501,39.342,10.227,39.557,8.1,39.796C4.063,40.258,0.881,43.449,0.43,47.488C0.2,49.607,0,51.865,0,54.192C0,56.522,0.2,58.777,0.427,60.894C0.875,64.936,4.06,68.132,8.1,68.594C10.227,68.83,12.501,69.045,14.852,69.045C17.201,69.045,19.475,68.83,21.602,68.591C25.642,68.129,28.826,64.936,29.275,60.894C29.502,58.777,29.705,56.522,29.705,54.192C29.705,51.865,29.502,49.61,29.275,47.49C28.826,43.449,25.642,40.255,21.602,39.793C19.475,39.555,17.201,39.34,14.852,39.34ZM52.961,0C50.612,0,48.338,0.215,46.211,0.453C42.17,0.914,38.985,4.108,38.536,8.151C38.309,10.268,38.108,12.523,38.108,14.852C38.108,17.179,38.309,19.435,38.538,21.552C38.986,25.594,42.17,28.789,46.211,29.251C48.335,29.49,50.612,29.705,52.961,29.705C55.309,29.705,57.584,29.49,59.71,29.251C63.752,28.79,66.937,25.595,67.386,21.552C67.61,19.437,67.811,17.179,67.811,14.852C67.811,12.523,67.61,10.268,67.386,8.151C66.937,4.108,63.752,0.913,59.71,0.451C57.589,0.215,55.312,0,52.961,0ZM52.961,0"/>
</g>
  <g id="Light-M" transform="matrix(1.0,0.0,0.0,1.0,1119.8129464943518,1056.1629660256017)">  <path stroke="none" stroke-miterlimit="4" stroke-dasharray="none" clip-rule="evenodd" fill-opacity="1" stroke-width="1px" stroke-linejoin="miter" stroke-opacity="1" fill-rule="evenodd" stroke-linecap="butt" fill="#000000" d="M14.852,0C12.501,0,10.227,0.215,8.1,0.453C4.062,0.916,0.88,4.108,0.43,8.148C0.2,10.268,0,12.523,0,14.852C0,17.179,0.2,19.435,0.427,21.552C0.875,25.594,4.06,28.789,8.1,29.251C10.227,29.49,12.501,29.705,14.852,29.705C17.201,29.705,19.475,29.49,21.602,29.251C25.643,28.789,28.827,25.594,29.275,21.552C29.502,19.437,29.705,17.179,29.705,14.852C29.705,12.523,29.502,10.268,29.275,8.151C28.827,4.108,25.643,0.913,21.602,0.451C19.475,0.215,17.201,0,14.852,0ZM56.799,43.309C56.799,41.191,55.081,39.474,52.963,39.474C50.845,39.474,49.128,41.191,49.128,43.309L49.128,50.359L42.077,50.359C39.959,50.359,38.242,52.076,38.242,54.195C38.242,56.313,39.959,58.03,42.077,58.03L49.128,58.03L49.128,65.078C49.128,66.448,49.859,67.714,51.045,68.4C52.232,69.085,53.694,69.085,54.881,68.4C56.068,67.714,56.799,66.448,56.799,65.078L56.799,58.03L63.846,58.03C65.965,58.03,67.682,56.313,67.682,54.195C67.682,52.076,65.965,50.359,63.846,50.359L56.799,50.359L56.799,43.309ZM14.852,39.342C12.501,39.342,10.227,39.557,8.1,39.796C4.063,40.258,0.881,43.449,0.43,47.488C0.2,49.607,0,51.865,0,54.192C0,56.522,0.2,58.777,0.427,60.894C0.875,64.936,4.06,68.132,8.1,68.594C10.227,68.83,12.501,69.045,14.852,69.045C17.201,69.045,19.475,68.83,21.602,68.591C25.642,68.129,28.826,64.936,29.275,60.894C29.502,58.777,29.705,56.522,29.705,54.192C29.705,51.865,29.502,49.61,29.275,47.49C28.826,43.449,25.642,40.255,21.602,39.793C19.475,39.555,17.201,39.34,14.852,39.34ZM52.961,0C50.612,0,48.338,0.215,46.211,0.453C42.17,0.914,38.985,4.108,38.536,8.151C38.309,10.268,38.108,12.523,38.108,14.852C38.108,17.179,38.309,19.435,38.538,21.552C38.986,25.594,42.17,28.789,46.211,29.251C48.335,29.49,50.612,29.705,52.961,29.705C55.309,29.705,57.584,29.49,59.71,29.251C63.752,28.79,66.937,25.595,67.386,21.552C67.61,19.437,67.811,17.179,67.811,14.852C67.811,12.523,67.61,10.268,67.386,8.151C66.937,4.108,63.752,0.913,59.71,0.451C57.589,0.215,55.312,0,52.961,0ZM52.961,0"/>
</g>
  <g id="Thin-M" transform="matrix(1.0,0.0,0.0,1.0,823.1029464943517,1056.1629660256017)">  <path stroke-opacity="1" stroke-miterlimit="4" fill-rule="evenodd" fill-opacity="1" stroke-width="1px" stroke="none" stroke-linecap="butt" clip-rule="evenodd" stroke-linejoin="miter" fill="#000000" stroke-dasharray="none" d="M14.852,0C12.501,0,10.227,0.215,8.1,0.453C4.062,0.916,0.88,4.108,0.43,8.148C0.2,10.268,0,12.523,0,14.852C0,17.179,0.2,19.435,0.427,21.552C0.875,25.594,4.06,28.789,8.1,29.251C10.227,29.49,12.501,29.705,14.852,29.705C17.201,29.705,19.475,29.49,21.602,29.251C25.643,28.789,28.827,25.594,29.275,21.552C29.502,19.437,29.705,17.179,29.705,14.852C29.705,12.523,29.502,10.268,29.275,8.151C28.827,4.108,25.643,0.913,21.602,0.451C19.475,0.215,17.201,0,14.852,0ZM56.799,43.309C56.799,41.191,55.081,39.474,52.963,39.474C50.845,39.474,49.128,41.191,49.128,43.309L49.128,50.359L42.077,50.359C39.959,50.359,38.242,52.076,38.242,54.195C38.242,56.313,39.959,58.03,42.077,58.03L49.128,58.03L49.128,65.078C49.128,66.448,49.859,67.714,51.045,68.4C52.232,69.085,53.694,69.085,54.881,68.4C56.068,67.714,56.799,66.448,56.799,65.078L56.799,58.03L63.846,58.03C65.965,58.03,67.682,56.313,67.682,54.195C67.682,52.076,65.965,50.359,63.846,50.359L56.799,50.359L56.799,43.309ZM14.852,39.342C12.501,39.342,10.227,39.557,8.1,39.796C4.063,40.258,0.881,43.449,0.43,47.488C0.2,49.607,0,51.865,0,54.192C0,56.522,0.2,58.777,0.427,60.894C0.875,64.936,4.06,68.132,8.1,68.594C10.227,68.83,12.501,69.045,14.852,69.045C17.201,69.045,19.475,68.83,21.602,68.591C25.642,68.129,28.826,64.936,29.275,60.894C29.502,58.777,29.705,56.522,29.705,54.192C29.705,51.865,29.502,49.61,29.275,47.49C28.826,43.449,25.642,40.255,21.602,39.793C19.475,39.555,17.201,39.34,14.852,39.34ZM52.961,0C50.612,0,48.338,0.215,46.211,0.453C42.17,0.914,38.985,4.108,38.536,8.151C38.309,10.268,38.108,12.523,38.108,14.852C38.108,17.179,38.309,19.435,38.538,21.552C38.986,25.594,42.17,28.789,46.211,29.251C48.335,29.49,50.612,29.705,52.961,29.705C55.309,29.705,57.584,29.49,59.71,29.251C63.752,28.79,66.937,25.595,67.386,21.552C67.61,19.437,67.811,17.179,67.811,14.852C67.811,12.523,67.61,10.268,67.386,8.151C66.937,4.108,63.752,0.913,59.71,0.451C57.589,0.215,55.312,0,52.961,0ZM52.961,0"/>
</g>
  <g id="Ultralight-M" transform="matrix(1.0,0.0,0.0,1.0,526.3929464943517,1056.1629660256017)">  <path fill-opacity="1" stroke-linecap="butt" clip-rule="evenodd" stroke-miterlimit="4" fill-rule="evenodd" stroke-dasharray="none" stroke-linejoin="miter" fill="#000000" stroke="none" stroke-width="1px" stroke-opacity="1" d="M14.852,0C12.501,0,10.227,0.215,8.1,0.453C4.062,0.916,0.88,4.108,0.43,8.148C0.2,10.268,0,12.523,0,14.852C0,17.179,0.2,19.435,0.427,21.552C0.875,25.594,4.06,28.789,8.1,29.251C10.227,29.49,12.501,29.705,14.852,29.705C17.201,29.705,19.475,29.49,21.602,29.251C25.643,28.789,28.827,25.594,29.275,21.552C29.502,19.437,29.705,17.179,29.705,14.852C29.705,12.523,29.502,10.268,29.275,8.151C28.827,4.108,25.643,0.913,21.602,0.451C19.475,0.215,17.201,0,14.852,0ZM56.799,43.309C56.799,41.191,55.081,39.474,52.963,39.474C50.845,39.474,49.128,41.191,49.128,43.309L49.128,50.359L42.077,50.359C39.959,50.359,38.242,52.076,38.242,54.195C38.242,56.313,39.959,58.03,42.077,58.03L49.128,58.03L49.128,65.078C49.128,66.448,49.859,67.714,51.045,68.4C52.232,69.085,53.694,69.085,54.881,68.4C56.068,67.714,56.799,66.448,56.799,65.078L56.799,58.03L63.846,58.03C65.965,58.03,67.682,56.313,67.682,54.195C67.682,52.076,65.965,50.359,63.846,50.359L56.799,50.359L56.799,43.309ZM14.852,39.342C12.501,39.342,10.227,39.557,8.1,39.796C4.063,40.258,0.881,43.449,0.43,47.488C0.2,49.607,0,51.865,0,54.192C0,56.522,0.2,58.777,0.427,60.894C0.875,64.936,4.06,68.132,8.1,68.594C10.227,68.83,12.501,69.045,14.852,69.045C17.201,69.045,19.475,68.83,21.602,68.591C25.642,68.129,28.826,64.936,29.275,60.894C29.502,58.777,29.705,56.522,29.705,54.192C29.705,51.865,29.502,49.61,29.275,47.49C28.826,43.449,25.642,40.255,21.602,39.793C19.475,39.555,17.201,39.34,14.852,39.34ZM52.961,0C50.612,0,48.338,0.215,46.211,0.453C42.17,0.914,38.985,4.108,38.536,8.151C38.309,10.268,38.108,12.523,38.108,14.852C38.108,17.179,38.309,19.435,38.538,21.552C38.986,25.594,42.17,28.789,46.211,29.251C48.335,29.49,50.612,29.705,52.961,29.705C55.309,29.705,57.584,29.49,59.71,29.251C63.752,28.79,66.937,25.595,67.386,21.552C67.61,19.437,67.811,17.179,67.811,14.852C67.811,12.523,67.61,10.268,67.386,8.151C66.937,4.108,63.752,0.913,59.71,0.451C57.589,0.215,55.312,0,52.961,0ZM52.961,0"/>
</g>
  <g id="Black-S" transform="matrix(1.0,0.0,0.0,1.0,2907.582677105077,633.6726966363274)">  <path stroke-miterlimit="4" fill-rule="evenodd" stroke-dasharray="none" stroke="none" fill="#000000" fill-opacity="1" stroke-linecap="butt" stroke-opacity="1" clip-rule="evenodd" stroke-linejoin="miter" stroke-width="1px" d="M11.629,0C9.789,0,8.008,0.168,6.343,0.355C3.181,0.717,0.689,3.217,0.336,6.38C0.157,8.039,0,9.805,0,11.629C0,13.451,0.157,15.217,0.335,16.875C0.685,20.04,3.179,22.542,6.343,22.904C8.008,23.091,9.789,23.259,11.629,23.259C13.468,23.259,15.249,23.091,16.914,22.904C20.078,22.542,22.572,20.04,22.922,16.875C23.1,15.219,23.259,13.451,23.259,11.629C23.259,9.805,23.1,8.039,22.922,6.382C22.572,3.217,20.078,0.715,16.914,0.353C15.249,0.168,13.468,0,11.629,0ZM44.473,33.911C44.473,32.252,43.129,30.908,41.47,30.908C39.812,30.908,38.467,32.252,38.467,33.911L38.467,39.431L32.947,39.431C31.288,39.431,29.943,40.776,29.943,42.434C29.943,44.093,31.288,45.438,32.947,45.438L38.467,45.438L38.467,50.956C38.467,52.029,39.039,53.02,39.969,53.557C40.898,54.093,42.043,54.093,42.972,53.557C43.901,53.02,44.473,52.029,44.473,50.956L44.473,45.438L49.992,45.438C51.65,45.438,52.995,44.093,52.995,42.434C52.995,40.776,51.65,39.431,49.992,39.431L44.473,39.431L44.473,33.911ZM11.629,30.805C9.789,30.805,8.008,30.973,6.343,31.16C3.181,31.522,0.69,34.021,0.336,37.183C0.157,38.843,0,40.61,0,42.433C0,44.256,0.157,46.022,0.335,47.68C0.685,50.845,3.179,53.347,6.343,53.709C8.008,53.894,9.789,54.062,11.629,54.062C13.468,54.062,15.249,53.894,16.914,53.707C20.078,53.345,22.571,50.845,22.922,47.68C23.1,46.022,23.259,44.256,23.259,42.433C23.259,40.61,23.1,38.844,22.922,37.185C22.571,34.021,20.078,31.52,16.914,31.158C15.249,30.971,13.468,30.803,11.629,30.803ZM41.468,0C39.629,0,37.848,0.168,36.183,0.355C33.019,0.716,30.525,3.217,30.173,6.382C29.996,8.039,29.839,9.805,29.839,11.629C29.839,13.451,29.996,15.217,30.175,16.875C30.526,20.04,33.019,22.542,36.183,22.904C37.847,23.091,39.629,23.259,41.468,23.259C43.307,23.259,45.088,23.091,46.753,22.904C49.918,22.542,52.411,20.041,52.763,16.875C52.939,15.219,53.096,13.451,53.096,11.629C53.096,9.805,52.939,8.039,52.763,6.382C52.411,3.216,49.918,0.715,46.753,0.353C45.092,0.168,43.309,0,41.468,0ZM41.468,0"/>
</g>
  <g id="Heavy-S" transform="matrix(1.0,0.0,0.0,1.0,2610.872677105077,633.6726966363274)">  <path fill-rule="evenodd" stroke="none" fill="#000000" stroke-dasharray="none" clip-rule="evenodd" stroke-miterlimit="4" fill-opacity="1" stroke-width="1px" stroke-linejoin="miter" stroke-linecap="butt" stroke-opacity="1" d="M11.629,0C9.789,0,8.008,0.168,6.343,0.355C3.181,0.717,0.689,3.217,0.336,6.38C0.157,8.039,0,9.805,0,11.629C0,13.451,0.157,15.217,0.335,16.875C0.685,20.04,3.179,22.542,6.343,22.904C8.008,23.091,9.789,23.259,11.629,23.259C13.468,23.259,15.249,23.091,16.914,22.904C20.078,22.542,22.572,20.04,22.922,16.875C23.1,15.219,23.259,13.451,23.259,11.629C23.259,9.805,23.1,8.039,22.922,6.382C22.572,3.217,20.078,0.715,16.914,0.353C15.249,0.168,13.468,0,11.629,0ZM44.473,33.911C44.473,32.252,43.129,30.908,41.47,30.908C39.812,30.908,38.467,32.252,38.467,33.911L38.467,39.431L32.947,39.431C31.288,39.431,29.943,40.776,29.943,42.434C29.943,44.093,31.288,45.438,32.947,45.438L38.467,45.438L38.467,50.956C38.467,52.029,39.039,53.02,39.969,53.557C40.898,54.093,42.043,54.093,42.972,53.557C43.901,53.02,44.473,52.029,44.473,50.956L44.473,45.438L49.992,45.438C51.65,45.438,52.995,44.093,52.995,42.434C52.995,40.776,51.65,39.431,49.992,39.431L44.473,39.431L44.473,33.911ZM11.629,30.805C9.789,30.805,8.008,30.973,6.343,31.16C3.181,31.522,0.69,34.021,0.336,37.183C0.157,38.843,0,40.61,0,42.433C0,44.256,0.157,46.022,0.335,47.68C0.685,50.845,3.179,53.347,6.343,53.709C8.008,53.894,9.789,54.062,11.629,54.062C13.468,54.062,15.249,53.894,16.914,53.707C20.078,53.345,22.571,50.845,22.922,47.68C23.1,46.022,23.259,44.256,23.259,42.433C23.259,40.61,23.1,38.844,22.922,37.185C22.571,34.021,20.078,31.52,16.914,31.158C15.249,30.971,13.468,30.803,11.629,30.803ZM41.468,0C39.629,0,37.848,0.168,36.183,0.355C33.019,0.716,30.525,3.217,30.173,6.382C29.996,8.039,29.839,9.805,29.839,11.629C29.839,13.451,29.996,15.217,30.175,16.875C30.526,20.04,33.019,22.542,36.183,22.904C37.847,23.091,39.629,23.259,41.468,23.259C43.307,23.259,45.088,23.091,46.753,22.904C49.918,22.542,52.411,20.041,52.763,16.875C52.939,15.219,53.096,13.451,53.096,11.629C53.096,9.805,52.939,8.039,52.763,6.382C52.411,3.216,49.918,0.715,46.753,0.353C45.092,0.168,43.309,0,41.468,0ZM41.468,0"/>
</g>
  <g id="Bold-S" transform="matrix(1.0,0.0,0.0,1.0,2314.162677105077,633.6726966363274)">  <path clip-rule="evenodd" stroke="none" stroke-dasharray="none" stroke-opacity="1" stroke-linecap="butt" stroke-linejoin="miter" fill="#000000" fill-rule="evenodd" stroke-width="1px" fill-opacity="1" stroke-miterlimit="4" d="M11.629,0C9.789,0,8.008,0.168,6.343,0.355C3.181,0.717,0.689,3.217,0.336,6.38C0.157,8.039,0,9.805,0,11.629C0,13.451,0.157,15.217,0.335,16.875C0.685,20.04,3.179,22.542,6.343,22.904C8.008,23.091,9.789,23.259,11.629,23.259C13.468,23.259,15.249,23.091,16.914,22.904C20.078,22.542,22.572,20.04,22.922,16.875C23.1,15.219,23.259,13.451,23.259,11.629C23.259,9.805,23.1,8.039,22.922,6.382C22.572,3.217,20.078,0.715,16.914,0.353C15.249,0.168,13.468,0,11.629,0ZM44.473,33.911C44.473,32.252,43.129,30.908,41.47,30.908C39.812,30.908,38.467,32.252,38.467,33.911L38.467,39.431L32.947,39.431C31.288,39.431,29.943,40.776,29.943,42.434C29.943,44.093,31.288,45.438,32.947,45.438L38.467,45.438L38.467,50.956C38.467,52.029,39.039,53.02,39.969,53.557C40.898,54.093,42.043,54.093,42.972,53.557C43.901,53.02,44.473,52.029,44.473,50.956L44.473,45.438L49.992,45.438C51.65,45.438,52.995,44.093,52.995,42.434C52.995,40.776,51.65,39.431,49.992,39.431L44.473,39.431L44.473,33.911ZM11.629,30.805C9.789,30.805,8.008,30.973,6.343,31.16C3.181,31.522,0.69,34.021,0.336,37.183C0.157,38.843,0,40.61,0,42.433C0,44.256,0.157,46.022,0.335,47.68C0.685,50.845,3.179,53.347,6.343,53.709C8.008,53.894,9.789,54.062,11.629,54.062C13.468,54.062,15.249,53.894,16.914,53.707C20.078,53.345,22.571,50.845,22.922,47.68C23.1,46.022,23.259,44.256,23.259,42.433C23.259,40.61,23.1,38.844,22.922,37.185C22.571,34.021,20.078,31.52,16.914,31.158C15.249,30.971,13.468,30.803,11.629,30.803ZM41.468,0C39.629,0,37.848,0.168,36.183,0.355C33.019,0.716,30.525,3.217,30.173,6.382C29.996,8.039,29.839,9.805,29.839,11.629C29.839,13.451,29.996,15.217,30.175,16.875C30.526,20.04,33.019,22.542,36.183,22.904C37.847,23.091,39.629,23.259,41.468,23.259C43.307,23.259,45.088,23.091,46.753,22.904C49.918,22.542,52.411,20.041,52.763,16.875C52.939,15.219,53.096,13.451,53.096,11.629C53.096,9.805,52.939,8.039,52.763,6.382C52.411,3.216,49.918,0.715,46.753,0.353C45.092,0.168,43.309,0,41.468,0ZM41.468,0"/>
</g>
  <g id="Semibold-S" transform="matrix(1.0,0.0,0.0,1.0,2017.4526771050773,633.6726966363274)">  <path stroke-opacity="1" fill-rule="evenodd" stroke-miterlimit="4" clip-rule="evenodd" stroke-dasharray="none" fill-opacity="1" fill="#000000" stroke-linecap="butt" stroke-linejoin="miter" stroke-width="1px" stroke="none" d="M11.629,0C9.789,0,8.008,0.168,6.343,0.355C3.181,0.717,0.689,3.217,0.336,6.38C0.157,8.039,0,9.805,0,11.629C0,13.451,0.157,15.217,0.335,16.875C0.685,20.04,3.179,22.542,6.343,22.904C8.008,23.091,9.789,23.259,11.629,23.259C13.468,23.259,15.249,23.091,16.914,22.904C20.078,22.542,22.572,20.04,22.922,16.875C23.1,15.219,23.259,13.451,23.259,11.629C23.259,9.805,23.1,8.039,22.922,6.382C22.572,3.217,20.078,0.715,16.914,0.353C15.249,0.168,13.468,0,11.629,0ZM44.473,33.911C44.473,32.252,43.129,30.908,41.47,30.908C39.812,30.908,38.467,32.252,38.467,33.911L38.467,39.431L32.947,39.431C31.288,39.431,29.943,40.776,29.943,42.434C29.943,44.093,31.288,45.438,32.947,45.438L38.467,45.438L38.467,50.956C38.467,52.029,39.039,53.02,39.969,53.557C40.898,54.093,42.043,54.093,42.972,53.557C43.901,53.02,44.473,52.029,44.473,50.956L44.473,45.438L49.992,45.438C51.65,45.438,52.995,44.093,52.995,42.434C52.995,40.776,51.65,39.431,49.992,39.431L44.473,39.431L44.473,33.911ZM11.629,30.805C9.789,30.805,8.008,30.973,6.343,31.16C3.181,31.522,0.69,34.021,0.336,37.183C0.157,38.843,0,40.61,0,42.433C0,44.256,0.157,46.022,0.335,47.68C0.685,50.845,3.179,53.347,6.343,53.709C8.008,53.894,9.789,54.062,11.629,54.062C13.468,54.062,15.249,53.894,16.914,53.707C20.078,53.345,22.571,50.845,22.922,47.68C23.1,46.022,23.259,44.256,23.259,42.433C23.259,40.61,23.1,38.844,22.922,37.185C22.571,34.021,20.078,31.52,16.914,31.158C15.249,30.971,13.468,30.803,11.629,30.803ZM41.468,0C39.629,0,37.848,0.168,36.183,0.355C33.019,0.716,30.525,3.217,30.173,6.382C29.996,8.039,29.839,9.805,29.839,11.629C29.839,13.451,29.996,15.217,30.175,16.875C30.526,20.04,33.019,22.542,36.183,22.904C37.847,23.091,39.629,23.259,41.468,23.259C43.307,23.259,45.088,23.091,46.753,22.904C49.918,22.542,52.411,20.041,52.763,16.875C52.939,15.219,53.096,13.451,53.096,11.629C53.096,9.805,52.939,8.039,52.763,6.382C52.411,3.216,49.918,0.715,46.753,0.353C45.092,0.168,43.309,0,41.468,0ZM41.468,0"/>
</g>
  <g id="Medium-S" transform="matrix(1.0,0.0,0.0,1.0,1720.7426771050773,633.6726966363274)">  <path stroke-linecap="butt" fill="#000000" stroke-opacity="1" fill-opacity="1" stroke-linejoin="miter" fill-rule="evenodd" stroke-dasharray="none" clip-rule="evenodd" stroke="none" stroke-miterlimit="4" stroke-width="1px" d="M11.629,0C9.789,0,8.008,0.168,6.343,0.355C3.181,0.717,0.689,3.217,0.336,6.38C0.157,8.039,0,9.805,0,11.629C0,13.451,0.157,15.217,0.335,16.875C0.685,20.04,3.179,22.542,6.343,22.904C8.008,23.091,9.789,23.259,11.629,23.259C13.468,23.259,15.249,23.091,16.914,22.904C20.078,22.542,22.572,20.04,22.922,16.875C23.1,15.219,23.259,13.451,23.259,11.629C23.259,9.805,23.1,8.039,22.922,6.382C22.572,3.217,20.078,0.715,16.914,0.353C15.249,0.168,13.468,0,11.629,0ZM44.473,33.911C44.473,32.252,43.129,30.908,41.47,30.908C39.812,30.908,38.467,32.252,38.467,33.911L38.467,39.431L32.947,39.431C31.288,39.431,29.943,40.776,29.943,42.434C29.943,44.093,31.288,45.438,32.947,45.438L38.467,45.438L38.467,50.956C38.467,52.029,39.039,53.02,39.969,53.557C40.898,54.093,42.043,54.093,42.972,53.557C43.901,53.02,44.473,52.029,44.473,50.956L44.473,45.438L49.992,45.438C51.65,45.438,52.995,44.093,52.995,42.434C52.995,40.776,51.65,39.431,49.992,39.431L44.473,39.431L44.473,33.911ZM11.629,30.805C9.789,30.805,8.008,30.973,6.343,31.16C3.181,31.522,0.69,34.021,0.336,37.183C0.157,38.843,0,40.61,0,42.433C0,44.256,0.157,46.022,0.335,47.68C0.685,50.845,3.179,53.347,6.343,53.709C8.008,53.894,9.789,54.062,11.629,54.062C13.468,54.062,15.249,53.894,16.914,53.707C20.078,53.345,22.571,50.845,22.922,47.68C23.1,46.022,23.259,44.256,23.259,42.433C23.259,40.61,23.1,38.844,22.922,37.185C22.571,34.021,20.078,31.52,16.914,31.158C15.249,30.971,13.468,30.803,11.629,30.803ZM41.468,0C39.629,0,37.848,0.168,36.183,0.355C33.019,0.716,30.525,3.217,30.173,6.382C29.996,8.039,29.839,9.805,29.839,11.629C29.839,13.451,29.996,15.217,30.175,16.875C30.526,20.04,33.019,22.542,36.183,22.904C37.847,23.091,39.629,23.259,41.468,23.259C43.307,23.259,45.088,23.091,46.753,22.904C49.918,22.542,52.411,20.041,52.763,16.875C52.939,15.219,53.096,13.451,53.096,11.629C53.096,9.805,52.939,8.039,52.763,6.382C52.411,3.216,49.918,0.715,46.753,0.353C45.092,0.168,43.309,0,41.468,0ZM41.468,0"/>
</g>
  <g id="Regular-S" transform="matrix(1.0,0.0,0.0,1.0,1424.0326771050773,633.6726966363274)">  <path fill="#000000" stroke-linecap="butt" stroke-linejoin="miter" fill-rule="evenodd" fill-opacity="1" stroke="none" stroke-width="1px" clip-rule="evenodd" stroke-miterlimit="4" stroke-dasharray="none" stroke-opacity="1" d="M11.629,0C9.789,0,8.008,0.168,6.343,0.355C3.181,0.717,0.689,3.217,0.336,6.38C0.157,8.039,0,9.805,0,11.629C0,13.451,0.157,15.217,0.335,16.875C0.685,20.04,3.179,22.542,6.343,22.904C8.008,23.091,9.789,23.259,11.629,23.259C13.468,23.259,15.249,23.091,16.914,22.904C20.078,22.542,22.572,20.04,22.922,16.875C23.1,15.219,23.259,13.451,23.259,11.629C23.259,9.805,23.1,8.039,22.922,6.382C22.572,3.217,20.078,0.715,16.914,0.353C15.249,0.168,13.468,0,11.629,0ZM44.473,33.911C44.473,32.252,43.129,30.908,41.47,30.908C39.812,30.908,38.467,32.252,38.467,33.911L38.467,39.431L32.947,39.431C31.288,39.431,29.943,40.776,29.943,42.434C29.943,44.093,31.288,45.438,32.947,45.438L38.467,45.438L38.467,50.956C38.467,52.029,39.039,53.02,39.969,53.557C40.898,54.093,42.043,54.093,42.972,53.557C43.901,53.02,44.473,52.029,44.473,50.956L44.473,45.438L49.992,45.438C51.65,45.438,52.995,44.093,52.995,42.434C52.995,40.776,51.65,39.431,49.992,39.431L44.473,39.431L44.473,33.911ZM11.629,30.805C9.789,30.805,8.008,30.973,6.343,31.16C3.181,31.522,0.69,34.021,0.336,37.183C0.157,38.843,0,40.61,0,42.433C0,44.256,0.157,46.022,0.335,47.68C0.685,50.845,3.179,53.347,6.343,53.709C8.008,53.894,9.789,54.062,11.629,54.062C13.468,54.062,15.249,53.894,16.914,53.707C20.078,53.345,22.571,50.845,22.922,47.68C23.1,46.022,23.259,44.256,23.259,42.433C23.259,40.61,23.1,38.844,22.922,37.185C22.571,34.021,20.078,31.52,16.914,31.158C15.249,30.971,13.468,30.803,11.629,30.803ZM41.468,0C39.629,0,37.848,0.168,36.183,0.355C33.019,0.716,30.525,3.217,30.173,6.382C29.996,8.039,29.839,9.805,29.839,11.629C29.839,13.451,29.996,15.217,30.175,16.875C30.526,20.04,33.019,22.542,36.183,22.904C37.847,23.091,39.629,23.259,41.468,23.259C43.307,23.259,45.088,23.091,46.753,22.904C49.918,22.542,52.411,20.041,52.763,16.875C52.939,15.219,53.096,13.451,53.096,11.629C53.096,9.805,52.939,8.039,52.763,6.382C52.411,3.216,49.918,0.715,46.753,0.353C45.092,0.168,43.309,0,41.468,0ZM41.468,0"/>
</g>
  <g id="Light-S" transform="matrix(1.0,0.0,0.0,1.0,1127.3226771050774,633.6726966363274)">  <path stroke="none" stroke-miterlimit="4" stroke-dasharray="none" clip-rule="evenodd" fill-opacity="1" stroke-width="1px" stroke-linejoin="miter" stroke-opacity="1" fill-rule="evenodd" stroke-linecap="butt" fill="#000000" d="M11.629,0C9.789,0,8.008,0.168,6.343,0.355C3.181,0.717,0.689,3.217,0.336,6.38C0.157,8.039,0,9.805,0,11.629C0,13.451,0.157,15.217,0.335,16.875C0.685,20.04,3.179,22.542,6.343,22.904C8.008,23.091,9.789,23.259,11.629,23.259C13.468,23.259,15.249,23.091,16.914,22.904C20.078,22.542,22.572,20.04,22.922,16.875C23.1,15.219,23.259,13.451,23.259,11.629C23.259,9.805,23.1,8.039,22.922,6.382C22.572,3.217,20.078,0.715,16.914,0.353C15.249,0.168,13.468,0,11.629,0ZM44.473,33.911C44.473,32.252,43.129,30.908,41.47,30.908C39.812,30.908,38.467,32.252,38.467,33.911L38.467,39.431L32.947,39.431C31.288,39.431,29.943,40.776,29.943,42.434C29.943,44.093,31.288,45.438,32.947,45.438L38.467,45.438L38.467,50.956C38.467,52.029,39.039,53.02,39.969,53.557C40.898,54.093,42.043,54.093,42.972,53.557C43.901,53.02,44.473,52.029,44.473,50.956L44.473,45.438L49.992,45.438C51.65,45.438,52.995,44.093,52.995,42.434C52.995,40.776,51.65,39.431,49.992,39.431L44.473,39.431L44.473,33.911ZM11.629,30.805C9.789,30.805,8.008,30.973,6.343,31.16C3.181,31.522,0.69,34.021,0.336,37.183C0.157,38.843,0,40.61,0,42.433C0,44.256,0.157,46.022,0.335,47.68C0.685,50.845,3.179,53.347,6.343,53.709C8.008,53.894,9.789,54.062,11.629,54.062C13.468,54.062,15.249,53.894,16.914,53.707C20.078,53.345,22.571,50.845,22.922,47.68C23.1,46.022,23.259,44.256,23.259,42.433C23.259,40.61,23.1,38.844,22.922,37.185C22.571,34.021,20.078,31.52,16.914,31.158C15.249,30.971,13.468,30.803,11.629,30.803ZM41.468,0C39.629,0,37.848,0.168,36.183,0.355C33.019,0.716,30.525,3.217,30.173,6.382C29.996,8.039,29.839,9.805,29.839,11.629C29.839,13.451,29.996,15.217,30.175,16.875C30.526,20.04,33.019,22.542,36.183,22.904C37.847,23.091,39.629,23.259,41.468,23.259C43.307,23.259,45.088,23.091,46.753,22.904C49.918,22.542,52.411,20.041,52.763,16.875C52.939,15.219,53.096,13.451,53.096,11.629C53.096,9.805,52.939,8.039,52.763,6.382C52.411,3.216,49.918,0.715,46.753,0.353C45.092,0.168,43.309,0,41.468,0ZM41.468,0"/>
</g>
  <g id="Thin-S" transform="matrix(1.0,0.0,0.0,1.0,830.6126771050774,633.6726966363274)">  <path stroke-opacity="1" stroke-miterlimit="4" fill-rule="evenodd" fill-opacity="1" stroke-width="1px" stroke="none" stroke-linecap="butt" clip-rule="evenodd" stroke-linejoin="miter" fill="#000000" stroke-dasharray="none" d="M11.629,0C9.789,0,8.008,0.168,6.343,0.355C3.181,0.717,0.689,3.217,0.336,6.38C0.157,8.039,0,9.805,0,11.629C0,13.451,0.157,15.217,0.335,16.875C0.685,20.04,3.179,22.542,6.343,22.904C8.008,23.091,9.789,23.259,11.629,23.259C13.468,23.259,15.249,23.091,16.914,22.904C20.078,22.542,22.572,20.04,22.922,16.875C23.1,15.219,23.259,13.451,23.259,11.629C23.259,9.805,23.1,8.039,22.922,6.382C22.572,3.217,20.078,0.715,16.914,0.353C15.249,0.168,13.468,0,11.629,0ZM44.473,33.911C44.473,32.252,43.129,30.908,41.47,30.908C39.812,30.908,38.467,32.252,38.467,33.911L38.467,39.431L32.947,39.431C31.288,39.431,29.943,40.776,29.943,42.434C29.943,44.093,31.288,45.438,32.947,45.438L38.467,45.438L38.467,50.956C38.467,52.029,39.039,53.02,39.969,53.557C40.898,54.093,42.043,54.093,42.972,53.557C43.901,53.02,44.473,52.029,44.473,50.956L44.473,45.438L49.992,45.438C51.65,45.438,52.995,44.093,52.995,42.434C52.995,40.776,51.65,39.431,49.992,39.431L44.473,39.431L44.473,33.911ZM11.629,30.805C9.789,30.805,8.008,30.973,6.343,31.16C3.181,31.522,0.69,34.021,0.336,37.183C0.157,38.843,0,40.61,0,42.433C0,44.256,0.157,46.022,0.335,47.68C0.685,50.845,3.179,53.347,6.343,53.709C8.008,53.894,9.789,54.062,11.629,54.062C13.468,54.062,15.249,53.894,16.914,53.707C20.078,53.345,22.571,50.845,22.922,47.68C23.1,46.022,23.259,44.256,23.259,42.433C23.259,40.61,23.1,38.844,22.922,37.185C22.571,34.021,20.078,31.52,16.914,31.158C15.249,30.971,13.468,30.803,11.629,30.803ZM41.468,0C39.629,0,37.848,0.168,36.183,0.355C33.019,0.716,30.525,3.217,30.173,6.382C29.996,8.039,29.839,9.805,29.839,11.629C29.839,13.451,29.996,15.217,30.175,16.875C30.526,20.04,33.019,22.542,36.183,22.904C37.847,23.091,39.629,23.259,41.468,23.259C43.307,23.259,45.088,23.091,46.753,22.904C49.918,22.542,52.411,20.041,52.763,16.875C52.939,15.219,53.096,13.451,53.096,11.629C53.096,9.805,52.939,8.039,52.763,6.382C52.411,3.216,49.918,0.715,46.753,0.353C45.092,0.168,43.309,0,41.468,0ZM41.468,0"/>
</g>
  <g id="Ultralight-S" transform="matrix(1.0,0.0,0.0,1.0,533.9026771050774,633.6726966363274)">  <path fill-opacity="1" stroke-linecap="butt" clip-rule="evenodd" stroke-miterlimit="4" fill-rule="evenodd" stroke-dasharray="none" stroke-linejoin="miter" fill="#000000" stroke="none" stroke-width="1px" stroke-opacity="1" d="M11.629,0C9.789,0,8.008,0.168,6.343,0.355C3.181,0.717,0.689,3.217,0.336,6.38C0.157,8.039,0,9.805,0,11.629C0,13.451,0.157,15.217,0.335,16.875C0.685,20.04,3.179,22.542,6.343,22.904C8.008,23.091,9.789,23.259,11.629,23.259C13.468,23.259,15.249,23.091,16.914,22.904C20.078,22.542,22.572,20.04,22.922,16.875C23.1,15.219,23.259,13.451,23.259,11.629C23.259,9.805,23.1,8.039,22.922,6.382C22.572,3.217,20.078,0.715,16.914,0.353C15.249,0.168,13.468,0,11.629,0ZM44.473,33.911C44.473,32.252,43.129,30.908,41.47,30.908C39.812,30.908,38.467,32.252,38.467,33.911L38.467,39.431L32.947,39.431C31.288,39.431,29.943,40.776,29.943,42.434C29.943,44.093,31.288,45.438,32.947,45.438L38.467,45.438L38.467,50.956C38.467,52.029,39.039,53.02,39.969,53.557C40.898,54.093,42.043,54.093,42.972,53.557C43.901,53.02,44.473,52.029,44.473,50.956L44.473,45.438L49.992,45.438C51.65,45.438,52.995,44.093,52.995,42.434C52.995,40.776,51.65,39.431,49.992,39.431L44.473,39.431L44.473,33.911ZM11.629,30.805C9.789,30.805,8.008,30.973,6.343,31.16C3.181,31.522,0.69,34.021,0.336,37.183C0.157,38.843,0,40.61,0,42.433C0,44.256,0.157,46.022,0.335,47.68C0.685,50.845,3.179,53.347,6.343,53.709C8.008,53.894,9.789,54.062,11.629,54.062C13.468,54.062,15.249,53.894,16.914,53.707C20.078,53.345,22.571,50.845,22.922,47.68C23.1,46.022,23.259,44.256,23.259,42.433C23.259,40.61,23.1,38.844,22.922,37.185C22.571,34.021,20.078,31.52,16.914,31.158C15.249,30.971,13.468,30.803,11.629,30.803ZM41.468,0C39.629,0,37.848,0.168,36.183,0.355C33.019,0.716,30.525,3.217,30.173,6.382C29.996,8.039,29.839,9.805,29.839,11.629C29.839,13.451,29.996,15.217,30.175,16.875C30.526,20.04,33.019,22.542,36.183,22.904C37.847,23.091,39.629,23.259,41.468,23.259C43.307,23.259,45.088,23.091,46.753,22.904C49.918,22.542,52.411,20.041,52.763,16.875C52.939,15.219,53.096,13.451,53.096,11.629C53.096,9.805,52.939,8.039,52.763,6.382C52.411,3.216,49.918,0.715,46.753,0.353C45.092,0.168,43.309,0,41.468,0ZM41.468,0"/>
</g>
 </g>
</svg>
