<?xml version="1.0" encoding="UTF-8"?>
<!-- Generator: CustomSymbols v2.7.4.50 by @serious_bret https://bretlester.com/app_content/CustomSymbols/ -->
<!-- Guides: Left/Right -0.003/-0.003 Cap/Base -0.008/-0.008 -->
<!-- Settings: RefScale 1.0 Min/Max Stroke Scales 0.5/2.2100000381469727 -->
<!DOCTYPE svg
PUBLIC "-//W3C//DTD SVG 1.1//EN"
       "http://www.w3.org/Graphics/SVG/1.1/DTD/svg11.dtd">
<svg version="1.1" xmlns="http://www.w3.org/2000/svg" xmlns:xlink="http://www.w3.org/1999/xlink" width="3300" height="2200">
<![CDATA[<svg xmlns="http://www.w3.org/2000/svg" width="32" height="30" fill="none" viewBox="0 0 32 30">
  <g id="Type=Settings">
    <path id="Subtract" fill="#000" fill-rule="evenodd" d="M13.382 1.318c1.299-1.757 3.937-1.757 5.236 0a5.34 5.34 0 0 0 5.094 2.096c2.172-.33 4.046 1.535 3.715 3.696a5.29 5.29 0 0 0 2.105 5.07 3.223 3.223 0 0 1 0 5.21 5.29 5.29 0 0 0-2.105 5.069c.331 2.16-1.543 4.026-3.715 3.696a5.34 5.34 0 0 0-5.094 2.095c-1.299 1.758-3.937 1.758-5.236 0a5.34 5.34 0 0 0-5.094-2.095c-2.172.33-4.046-1.535-3.714-3.696a5.29 5.29 0 0 0-2.107-5.07 3.224 3.224 0 0 1 0-5.21 5.29 5.29 0 0 0 2.107-5.07c-.332-2.16 1.542-4.025 3.714-3.695a5.34 5.34 0 0 0 5.094-2.096Zm9.351 13.466c0 4.288-2.424 6.7-6.733 6.7-4.31 0-6.733-2.412-6.733-6.7s2.424-6.7 6.733-6.7c4.31 0 6.733 2.412 6.733 6.7Z" clip-rule="evenodd"/>
  </g>
</svg>
]]>
 <g id="Notes">
  <rect height="2200" id="artboard" style="fill:white;opacity:1" width="3300" x="0" y="0"/>
  <line id="" style="fill:none;stroke:black;opacity:1;stroke-width:0.5;" x1="263" x2="3036" y1="292" y2="292"/>
  <text id="reftext1" style="stroke:none;fill:black;font-family:-apple-system,&quot;SF Pro Display&quot;,&quot;SF Pro Text&quot;,Helvetica,sans-serif;font-weight:bold;" transform="matrix(1 0 0 1 263 322)">Weight/Scale Variations</text>
  <text id="reftext2" style="stroke:none;fill:black;font-family:-apple-system,&quot;SF Pro Display&quot;,&quot;SF Pro Text&quot;,Helvetica,sans-serif;text-anchor:middle;" transform="matrix(1 0 0 1 559.711 322)">Ultralight</text>
  <text style="stroke:none;fill:black;font-family:-apple-system,&quot;SF Pro Display&quot;,&quot;SF Pro Text&quot;,Helvetica,sans-serif;text-anchor:middle;" transform="matrix(1 0 0 1 856.422 322)">Thin</text>
  <text style="stroke:none;fill:black;font-family:-apple-system,&quot;SF Pro Display&quot;,&quot;SF Pro Text&quot;,Helvetica,sans-serif;text-anchor:middle;" transform="matrix(1 0 0 1 1153.13 322)">Light</text>
  <text style="stroke:none;fill:black;font-family:-apple-system,&quot;SF Pro Display&quot;,&quot;SF Pro Text&quot;,Helvetica,sans-serif;text-anchor:middle;" transform="matrix(1 0 0 1 1449.84 322)">Regular</text>
  <text style="stroke:none;fill:black;font-family:-apple-system,&quot;SF Pro Display&quot;,&quot;SF Pro Text&quot;,Helvetica,sans-serif;text-anchor:middle;" transform="matrix(1 0 0 1 1746.56 322)">Medium</text>
  <text style="stroke:none;fill:black;font-family:-apple-system,&quot;SF Pro Display&quot;,&quot;SF Pro Text&quot;,Helvetica,sans-serif;text-anchor:middle;" transform="matrix(1 0 0 1 2043.27 322)">Semibold</text>
  <text style="stroke:none;fill:black;font-family:-apple-system,&quot;SF Pro Display&quot;,&quot;SF Pro Text&quot;,Helvetica,sans-serif;text-anchor:middle;" transform="matrix(1 0 0 1 2339.98 322)">Bold</text>
  <text style="stroke:none;fill:black;font-family:-apple-system,&quot;SF Pro Display&quot;,&quot;SF Pro Text&quot;,Helvetica,sans-serif;text-anchor:middle;" transform="matrix(1 0 0 1 2636.69 322)">Heavy</text>
  <text style="stroke:none;fill:black;font-family:-apple-system,&quot;SF Pro Display&quot;,&quot;SF Pro Text&quot;,Helvetica,sans-serif;text-anchor:middle;" transform="matrix(1 0 0 1 2933.4 322)">Black</text>
  <line id="" style="fill:none;stroke:black;opacity:1;stroke-width:0.5;" x1="263" x2="3036" y1="1903" y2="1903"/>
  <g id="" transform="matrix(1 0 0 1 263 1933)">
   <path d="M9.24805 0.830078C13.5547 0.830078 17.1387-2.74414 17.1387-7.05078C17.1387-11.3574 13.5449-14.9316 9.23828-14.9316C4.94141-14.9316 1.36719-11.3574 1.36719-7.05078C1.36719-2.74414 4.95117 0.830078 9.24805 0.830078ZM9.24805-0.654297C5.70312-0.654297 2.87109-3.49609 2.87109-7.05078C2.87109-10.6055 5.69336-13.4473 9.23828-13.4473C12.793-13.4473 15.6348-10.6055 15.6445-7.05078C15.6543-3.49609 12.8027-0.654297 9.24805-0.654297ZM6.39648-6.31836L8.50586-6.31836L8.50586-4.19922C8.50586-3.75977 8.79883-3.45703 9.22852-3.45703C9.67773-3.45703 9.9707-3.75977 9.9707-4.19922L9.9707-6.31836L12.0996-6.31836C12.5391-6.31836 12.8418-6.61133 12.8418-7.04102C12.8418-7.48047 12.5391-7.7832 12.0996-7.7832L9.9707-7.7832L9.9707-9.89258C9.9707-10.3418 9.67773-10.6445 9.22852-10.6445C8.79883-10.6445 8.50586-10.3418 8.50586-9.89258L8.50586-7.7832L6.39648-7.7832C5.94727-7.7832 5.64453-7.48047 5.64453-7.04102C5.64453-6.61133 5.94727-6.31836 6.39648-6.31836Z"/>
  </g>
  <g id="" transform="matrix(1 0 0 1 281.506 1933)">
   <path d="M11.709 2.91016C17.1582 2.91016 21.6699-1.61133 21.6699-7.05078C21.6699-12.5 17.1484-17.0117 11.6992-17.0117C6.25977-17.0117 1.74805-12.5 1.74805-7.05078C1.74805-1.61133 6.26953 2.91016 11.709 2.91016ZM11.709 1.25C7.09961 1.25 3.41797-2.44141 3.41797-7.05078C3.41797-11.6602 7.08984-15.3516 11.6992-15.3516C16.3086-15.3516 20-11.6602 20.0098-7.05078C20.0195-2.44141 16.3184 1.25 11.709 1.25ZM7.98828-6.23047L10.8789-6.23047L10.8789-3.32031C10.8789-2.83203 11.2109-2.5 11.6895-2.5C12.1777-2.5 12.5195-2.83203 12.5195-3.32031L12.5195-6.23047L15.4297-6.23047C15.918-6.23047 16.25-6.5625 16.25-7.04102C16.25-7.5293 15.918-7.87109 15.4297-7.87109L12.5195-7.87109L12.5195-10.7617C12.5195-11.2695 12.1777-11.6016 11.6895-11.6016C11.2109-11.6016 10.8789-11.2598 10.8789-10.7617L10.8789-7.87109L7.98828-7.87109C7.48047-7.87109 7.14844-7.5293 7.14844-7.04102C7.14844-6.5625 7.49023-6.23047 7.98828-6.23047Z"/>
  </g>
  <g id="" transform="matrix(1 0 0 1 304.924 1933)">
   <path d="M14.9707 5.66406C21.9336 5.66406 27.6953-0.0976562 27.6953-7.05078C27.6953-14.0137 21.9238-19.7754 14.9609-19.7754C8.00781-19.7754 2.25586-14.0137 2.25586-7.05078C2.25586-0.0976562 8.01758 5.66406 14.9707 5.66406ZM14.9707 3.84766C8.93555 3.84766 4.08203-1.01562 4.08203-7.05078C4.08203-13.0957 8.92578-17.9492 14.9609-17.9492C21.0059-17.9492 25.8594-13.0957 25.8691-7.05078C25.8789-1.01562 21.0156 3.84766 14.9707 3.84766ZM10.0586-6.14258L14.0625-6.14258L14.0625-2.12891C14.0625-1.5918 14.4336-1.2207 14.9512-1.2207C15.4883-1.2207 15.8594-1.5918 15.8594-2.12891L15.8594-6.14258L19.8828-6.14258C20.4102-6.14258 20.791-6.51367 20.791-7.03125C20.791-7.56836 20.4199-7.94922 19.8828-7.94922L15.8594-7.94922L15.8594-11.9531C15.8594-12.5098 15.4883-12.8809 14.9512-12.8809C14.4336-12.8809 14.0625-12.5 14.0625-11.9531L14.0625-7.94922L10.0586-7.94922C9.50195-7.94922 9.13086-7.56836 9.13086-7.03125C9.13086-6.51367 9.51172-6.14258 10.0586-6.14258Z"/>
  </g>
  <text style="stroke:none;fill:black;font-family:-apple-system,&quot;SF Pro Display&quot;,&quot;SF Pro Text&quot;,Helvetica,sans-serif;font-weight:bold;" transform="matrix(1 0 0 1 263 1953)">Design Variations</text>
  <text style="stroke:none;fill:black;font-family:-apple-system,&quot;SF Pro Display&quot;,&quot;SF Pro Text&quot;,Helvetica,sans-serif;" transform="matrix(1 0 0 1 263 1971)">Symbols are supported in up to nine weights and three scales.</text>
  <text style="stroke:none;fill:black;font-family:-apple-system,&quot;SF Pro Display&quot;,&quot;SF Pro Text&quot;,Helvetica,sans-serif;" transform="matrix(1 0 0 1 263 1989)">For optimal layout with text and other symbols, vertically align</text>
  <text style="stroke:none;fill:black;font-family:-apple-system,&quot;SF Pro Display&quot;,&quot;SF Pro Text&quot;,Helvetica,sans-serif;" transform="matrix(1 0 0 1 263 2007)">symbols with the adjacent text.</text>
  <line id="" style="fill:none;stroke:#00AEEF;stroke-width:0.5;opacity:1.0;" x1="776" x2="776" y1="1919" y2="1933"/>
  <g id="" transform="matrix(1 0 0 1 776 1933)">
   <path d="M3.31055 0.126953C3.82812 0.126953 4.08203-0.0683594 4.26758-0.605469L5.52734-4.0625L11.2891-4.0625L12.5488-0.605469C12.7344-0.0683594 12.9883 0.126953 13.4961 0.126953C14.0137 0.126953 14.3457-0.185547 14.3457-0.673828C14.3457-0.839844 14.3164-0.986328 14.2383-1.20117L9.6582-13.3887C9.43359-13.9941 9.0332-14.2871 8.4082-14.2871C7.80273-14.2871 7.39258-13.9941 7.17773-13.3984L2.59766-1.19141C2.51953-0.976562 2.49023-0.830078 2.49023-0.664062C2.49023-0.175781 2.80273 0.126953 3.31055 0.126953ZM6.00586-5.53711L8.37891-12.1094L8.42773-12.1094L10.8008-5.53711Z"/>
  </g>
  <line id="" style="fill:none;stroke:#00AEEF;stroke-width:0.5;opacity:1.0;" x1="792.836" x2="792.836" y1="1919" y2="1933"/>
  <text style="stroke:none;fill:black;font-family:-apple-system,&quot;SF Pro Display&quot;,&quot;SF Pro Text&quot;,Helvetica,sans-serif;font-weight:bold;" transform="matrix(1 0 0 1 776 1953)">Margins</text>
  <text style="stroke:none;fill:black;font-family:-apple-system,&quot;SF Pro Display&quot;,&quot;SF Pro Text&quot;,Helvetica,sans-serif;" transform="matrix(1 0 0 1 776 1971)">Leading and trailing margins on the left and right side of each symbol</text>
  <text style="stroke:none;fill:black;font-family:-apple-system,&quot;SF Pro Display&quot;,&quot;SF Pro Text&quot;,Helvetica,sans-serif;" transform="matrix(1 0 0 1 776 1989)">can be adjusted by modifying the x-location of the margin guidelines.</text>
  <text style="stroke:none;fill:black;font-family:-apple-system,&quot;SF Pro Display&quot;,&quot;SF Pro Text&quot;,Helvetica,sans-serif;" transform="matrix(1 0 0 1 776 2007)">Modifications are automatically applied proportionally to all</text>
  <text style="stroke:none;fill:black;font-family:-apple-system,&quot;SF Pro Display&quot;,&quot;SF Pro Text&quot;,Helvetica,sans-serif;" transform="matrix(1 0 0 1 776 2025)">scales and weights.</text>
  <g id="" transform="matrix(1 0 0 1 1289 1933)">
   <path d="M2.8418 1.86523L4.54102 3.57422C5.40039 4.44336 6.38672 4.38477 7.31445 3.35938L17.4902-7.85156C17.7539-7.76367 18.0273-7.7832 18.3398-7.8418L19.4043-8.03711L20.0684-7.36328L20.0293-6.80664C19.9902-6.30859 20.1172-5.92773 20.6055-5.44922L21.3672-4.70703C21.8457-4.22852 22.4609-4.19922 22.9297-4.66797L25.8398-7.58789C26.3086-8.05664 26.2891-8.65234 25.8105-9.13086L25.0391-9.89258C24.5605-10.3711 24.1895-10.5273 23.7109-10.4883L23.1348-10.4395L22.4902-11.0742L22.7344-12.1973C22.8613-12.7637 22.7051-13.2031 22.1191-13.7891L19.9219-15.9766C16.582-19.2969 12.1484-19.2188 9.25781-16.3281C8.83789-15.918 8.80859-15.3418 9.04297-14.9512C9.27734-14.5898 9.73633-14.3555 10.3809-14.5215C11.8457-14.8633 13.3691-14.9219 14.7949-13.9844L14.209-12.5293C14.0137-12.0508 13.9844-11.6504 14.1113-11.2891L3.04688-0.898438C2.06055 0.0195312 1.98242 0.996094 2.8418 1.86523ZM10.752-15.957C13.1836-17.7344 16.4746-17.4316 18.7012-15.2051L21.1328-12.793C21.3672-12.5586 21.4062-12.373 21.3379-12.0312L21.0156-10.5469L22.5195-9.0625L23.5059-9.12109C23.7598-9.13086 23.8379-9.11133 24.0332-8.91602L24.6094-8.33984L22.168-5.89844L21.5918-6.47461C21.3965-6.66992 21.3672-6.74805 21.377-7.01172L21.4453-7.98828L19.9512-9.47266L18.4277-9.21875C18.1055-9.15039 17.959-9.17969 17.7148-9.41406L15.7129-11.416C15.459-11.6504 15.4297-11.8164 15.5859-12.1875L16.4648-14.2773C14.9023-15.7324 12.8711-16.3574 10.8398-15.7617C10.6836-15.7227 10.625-15.8496 10.752-15.957ZM5.27344 2.30469L4.10156 1.14258C3.63281 0.683594 3.74023 0.341797 4.14062-0.0195312L14.9512-10.1953L16.416-8.71094L6.42578 2.27539C6.07422 2.67578 5.74219 2.77344 5.27344 2.30469Z"/>
  </g>
  <text style="stroke:none;fill:black;font-family:-apple-system,&quot;SF Pro Display&quot;,&quot;SF Pro Text&quot;,Helvetica,sans-serif;font-weight:bold;" transform="matrix(1 0 0 1 1289 1953)">Exporting</text>
  <text style="stroke:none;fill:black;font-family:-apple-system,&quot;SF Pro Display&quot;,&quot;SF Pro Text&quot;,Helvetica,sans-serif;" transform="matrix(1 0 0 1 1289 1971)">Symbols should be outlined when exporting to ensure the</text>
  <text style="stroke:none;fill:black;font-family:-apple-system,&quot;SF Pro Display&quot;,&quot;SF Pro Text&quot;,Helvetica,sans-serif;" transform="matrix(1 0 0 1 1289 1989)">design is preserved when submitting to Xcode.</text>
  <text id="template-version" style="stroke:none;fill:black;font-family:-apple-system,&quot;SF Pro Display&quot;,&quot;SF Pro Text&quot;,Helvetica,sans-serif;text-anchor:end;" transform="matrix(1 0 0 1 3036 1933)">Template v.2.0</text>
  <text style="stroke:none;fill:black;font-family:-apple-system,&quot;SF Pro Display&quot;,&quot;SF Pro Text&quot;,Helvetica,sans-serif;text-anchor:end;" transform="matrix(1 0 0 1 3036 1951)">Requires Xcode 12 or greater</text>
  <text style="stroke:none;fill:black;font-family:-apple-system,&quot;SF Pro Display&quot;,&quot;SF Pro Text&quot;,Helvetica,sans-serif;" transform="matrix(1 0 0 1 263 726)">Small</text>
  <text style="stroke:none;fill:black;font-family:-apple-system,&quot;SF Pro Display&quot;,&quot;SF Pro Text&quot;,Helvetica,sans-serif;" transform="matrix(1 0 0 1 263 1156)">Medium</text>
  <text style="stroke:none;fill:black;font-family:-apple-system,&quot;SF Pro Display&quot;,&quot;SF Pro Text&quot;,Helvetica,sans-serif;" transform="matrix(1 0 0 1 263 1586)">Large</text>
 </g>
 <g id="Guides">
  <g id="H-reference" style="fill:#27AAE1;stroke:none;" transform="matrix(1 0 0 1 339 696)">
   <path d="M0.976562 0L3.66211 0L12.9883-24.4629L45.752-24.4629L55.127 0L57.7637 0L30.6152-70.459L28.125-70.459ZM29.3457-67.1387L29.4434-67.1387L44.873-26.709L13.8672-26.709Z"/>
  </g>
  <line id="Baseline-S" style="fill:none;stroke:#27AAE1;opacity:1;stroke-width:0.5;" x1="263" x2="3036" y1="696" y2="696"/>
  <line id="Capline-S" style="fill:none;stroke:#27AAE1;opacity:1;stroke-width:0.5;" x1="263" x2="3036" y1="625.541" y2="625.541"/>
  <g id="H-reference" style="fill:#27AAE1;stroke:none;" transform="matrix(1 0 0 1 339 1126)">
   <path d="M0.976562 0L3.66211 0L12.9883-24.4629L45.752-24.4629L55.127 0L57.7637 0L30.6152-70.459L28.125-70.459ZM29.3457-67.1387L29.4434-67.1387L44.873-26.709L13.8672-26.709Z"/>
  </g>
  <line id="Baseline-M" style="fill:none;stroke:#27AAE1;opacity:1;stroke-width:0.5;" x1="263" x2="3036" y1="1126" y2="1126"/>
  <line id="Capline-M" style="fill:none;stroke:#27AAE1;opacity:1;stroke-width:0.5;" x1="263" x2="3036" y1="1055.54" y2="1055.54"/>
  <g id="H-reference" style="fill:#27AAE1;stroke:none;" transform="matrix(1 0 0 1 339 1556)">
   <path d="M0.976562 0L3.66211 0L12.9883-24.4629L45.752-24.4629L55.127 0L57.7637 0L30.6152-70.459L28.125-70.459ZM29.3457-67.1387L29.4434-67.1387L44.873-26.709L13.8672-26.709Z"/>
  </g>
  <line id="Baseline-L" style="fill:none;stroke:#27AAE1;opacity:1;stroke-width:0.5;" x1="263" x2="3036" y1="1556" y2="1556"/>
  <line id="Capline-L" style="fill:none;stroke:#27AAE1;opacity:1;stroke-width:0.5;" x1="263" x2="3036" y1="1485.54" y2="1485.54"/>
  <line id="left-margin" x1="1413.9212227280182" x2="1413.9212227280182" y1="1030.79" y2="1150.12" style="fill:none;stroke:#00AEEF;stroke-width:0.5;opacity:1.0;"/>
  <line id="right-margin" x1="1488.3387772719816" x2="1488.3387772719816" y1="1030.79" y2="1150.12" style="fill:none;stroke:#00AEEF;stroke-width:0.5;opacity:1.0;"/>
 </g>
 <g id="Symbols">
  <g id="Black-L" transform="matrix(1.0,0.0,0.0,1.0,2886.96695558563,1476.0390403927781)">  <path fill="#000000" stroke-dasharray="none" fill-rule="evenodd" fill-opacity="1" stroke-opacity="1" stroke="none" clip-rule="evenodd" stroke-linecap="butt" stroke-linejoin="miter" stroke-miterlimit="4" stroke-width="1px" d="M39.906,3.93C43.78,-1.309,51.646,-1.309,55.52,3.93C59.035,8.666,64.88,11.071,70.711,10.181C77.188,9.197,82.776,14.758,81.789,21.202C80.898,27.018,83.318,32.847,88.066,36.322C90.549,38.131,92.018,41.018,92.018,44.09C92.018,47.162,90.549,50.049,88.066,51.858C83.319,55.332,80.899,61.159,81.789,66.974C82.776,73.415,77.188,78.98,70.711,77.996C64.881,77.105,59.036,79.509,55.52,84.243C51.646,89.486,43.78,89.486,39.906,84.243C36.39,79.509,30.545,77.105,24.715,77.996C18.238,78.98,12.65,73.418,13.64,66.974C14.53,61.157,12.107,55.328,7.357,51.855C4.875,50.045,3.407,47.159,3.407,44.087C3.407,41.015,4.875,38.128,7.357,36.319C12.107,32.845,14.53,27.017,13.64,21.2C12.65,14.758,18.238,9.197,24.715,10.181C30.546,11.071,36.391,8.666,39.906,3.93ZM67.791,44.087C67.791,56.874,60.563,64.067,47.713,64.067C34.86,64.067,27.635,56.874,27.635,44.087C27.635,31.3,34.863,24.107,47.713,24.107C60.566,24.107,67.791,31.3,67.791,44.087ZM67.791,44.087"/>
</g>
  <g id="Heavy-L" transform="matrix(1.0,0.0,0.0,1.0,2590.25695558563,1476.0390403927781)">  <path stroke-linecap="butt" stroke-width="1px" clip-rule="evenodd" fill="#000000" stroke="none" fill-rule="evenodd" fill-opacity="1" stroke-linejoin="miter" stroke-dasharray="none" stroke-miterlimit="4" stroke-opacity="1" d="M39.906,3.93C43.78,-1.309,51.646,-1.309,55.52,3.93C59.035,8.666,64.88,11.071,70.711,10.181C77.188,9.197,82.776,14.758,81.789,21.202C80.898,27.018,83.318,32.847,88.066,36.322C90.549,38.131,92.018,41.018,92.018,44.09C92.018,47.162,90.549,50.049,88.066,51.858C83.319,55.332,80.899,61.159,81.789,66.974C82.776,73.415,77.188,78.98,70.711,77.996C64.881,77.105,59.036,79.509,55.52,84.243C51.646,89.486,43.78,89.486,39.906,84.243C36.39,79.509,30.545,77.105,24.715,77.996C18.238,78.98,12.65,73.418,13.64,66.974C14.53,61.157,12.107,55.328,7.357,51.855C4.875,50.045,3.407,47.159,3.407,44.087C3.407,41.015,4.875,38.128,7.357,36.319C12.107,32.845,14.53,27.017,13.64,21.2C12.65,14.758,18.238,9.197,24.715,10.181C30.546,11.071,36.391,8.666,39.906,3.93ZM67.791,44.087C67.791,56.874,60.563,64.067,47.713,64.067C34.86,64.067,27.635,56.874,27.635,44.087C27.635,31.3,34.863,24.107,47.713,24.107C60.566,24.107,67.791,31.3,67.791,44.087ZM67.791,44.087"/>
</g>
  <g id="Bold-L" transform="matrix(1.0,0.0,0.0,1.0,2293.54695558563,1476.0390403927781)">  <path stroke-opacity="1" stroke-linejoin="miter" stroke="none" stroke-linecap="butt" fill-opacity="1" fill-rule="evenodd" stroke-dasharray="none" clip-rule="evenodd" stroke-width="1px" fill="#000000" stroke-miterlimit="4" d="M39.906,3.93C43.78,-1.309,51.646,-1.309,55.52,3.93C59.035,8.666,64.88,11.071,70.711,10.181C77.188,9.197,82.776,14.758,81.789,21.202C80.898,27.018,83.318,32.847,88.066,36.322C90.549,38.131,92.018,41.018,92.018,44.09C92.018,47.162,90.549,50.049,88.066,51.858C83.319,55.332,80.899,61.159,81.789,66.974C82.776,73.415,77.188,78.98,70.711,77.996C64.881,77.105,59.036,79.509,55.52,84.243C51.646,89.486,43.78,89.486,39.906,84.243C36.39,79.509,30.545,77.105,24.715,77.996C18.238,78.98,12.65,73.418,13.64,66.974C14.53,61.157,12.107,55.328,7.357,51.855C4.875,50.045,3.407,47.159,3.407,44.087C3.407,41.015,4.875,38.128,7.357,36.319C12.107,32.845,14.53,27.017,13.64,21.2C12.65,14.758,18.238,9.197,24.715,10.181C30.546,11.071,36.391,8.666,39.906,3.93ZM67.791,44.087C67.791,56.874,60.563,64.067,47.713,64.067C34.86,64.067,27.635,56.874,27.635,44.087C27.635,31.3,34.863,24.107,47.713,24.107C60.566,24.107,67.791,31.3,67.791,44.087ZM67.791,44.087"/>
</g>
  <g id="Semibold-L" transform="matrix(1.0,0.0,0.0,1.0,1996.8369555856298,1476.0390403927781)">  <path stroke-linecap="butt" stroke-width="1px" stroke="none" stroke-miterlimit="4" stroke-linejoin="miter" stroke-opacity="1" fill-rule="evenodd" fill-opacity="1" stroke-dasharray="none" clip-rule="evenodd" fill="#000000" d="M39.906,3.93C43.78,-1.309,51.646,-1.309,55.52,3.93C59.035,8.666,64.88,11.071,70.711,10.181C77.188,9.197,82.776,14.758,81.789,21.202C80.898,27.018,83.318,32.847,88.066,36.322C90.549,38.131,92.018,41.018,92.018,44.09C92.018,47.162,90.549,50.049,88.066,51.858C83.319,55.332,80.899,61.159,81.789,66.974C82.776,73.415,77.188,78.98,70.711,77.996C64.881,77.105,59.036,79.509,55.52,84.243C51.646,89.486,43.78,89.486,39.906,84.243C36.39,79.509,30.545,77.105,24.715,77.996C18.238,78.98,12.65,73.418,13.64,66.974C14.53,61.157,12.107,55.328,7.357,51.855C4.875,50.045,3.407,47.159,3.407,44.087C3.407,41.015,4.875,38.128,7.357,36.319C12.107,32.845,14.53,27.017,13.64,21.2C12.65,14.758,18.238,9.197,24.715,10.181C30.546,11.071,36.391,8.666,39.906,3.93ZM67.791,44.087C67.791,56.874,60.563,64.067,47.713,64.067C34.86,64.067,27.635,56.874,27.635,44.087C27.635,31.3,34.863,24.107,47.713,24.107C60.566,24.107,67.791,31.3,67.791,44.087ZM67.791,44.087"/>
</g>
  <g id="Medium-L" transform="matrix(1.0,0.0,0.0,1.0,1700.1269555856297,1476.0390403927781)">  <path stroke-width="1px" stroke-miterlimit="4" stroke-linecap="butt" clip-rule="evenodd" fill-opacity="1" stroke-dasharray="none" fill-rule="evenodd" stroke-linejoin="miter" fill="#000000" stroke="none" stroke-opacity="1" d="M39.906,3.93C43.78,-1.309,51.646,-1.309,55.52,3.93C59.035,8.666,64.88,11.071,70.711,10.181C77.188,9.197,82.776,14.758,81.789,21.202C80.898,27.018,83.318,32.847,88.066,36.322C90.549,38.131,92.018,41.018,92.018,44.09C92.018,47.162,90.549,50.049,88.066,51.858C83.319,55.332,80.899,61.159,81.789,66.974C82.776,73.415,77.188,78.98,70.711,77.996C64.881,77.105,59.036,79.509,55.52,84.243C51.646,89.486,43.78,89.486,39.906,84.243C36.39,79.509,30.545,77.105,24.715,77.996C18.238,78.98,12.65,73.418,13.64,66.974C14.53,61.157,12.107,55.328,7.357,51.855C4.875,50.045,3.407,47.159,3.407,44.087C3.407,41.015,4.875,38.128,7.357,36.319C12.107,32.845,14.53,27.017,13.64,21.2C12.65,14.758,18.238,9.197,24.715,10.181C30.546,11.071,36.391,8.666,39.906,3.93ZM67.791,44.087C67.791,56.874,60.563,64.067,47.713,64.067C34.86,64.067,27.635,56.874,27.635,44.087C27.635,31.3,34.863,24.107,47.713,24.107C60.566,24.107,67.791,31.3,67.791,44.087ZM67.791,44.087"/>
</g>
  <g id="Regular-L" transform="matrix(1.0,0.0,0.0,1.0,1403.4169555856297,1476.0390403927781)">  <path stroke-linecap="butt" stroke-width="1px" fill-opacity="1" fill-rule="evenodd" clip-rule="evenodd" fill="#000000" stroke-linejoin="miter" stroke="none" stroke-miterlimit="4" stroke-opacity="1" stroke-dasharray="none" d="M39.906,3.93C43.78,-1.309,51.646,-1.309,55.52,3.93C59.035,8.666,64.88,11.071,70.711,10.181C77.188,9.197,82.776,14.758,81.789,21.202C80.898,27.018,83.318,32.847,88.066,36.322C90.549,38.131,92.018,41.018,92.018,44.09C92.018,47.162,90.549,50.049,88.066,51.858C83.319,55.332,80.899,61.159,81.789,66.974C82.776,73.415,77.188,78.98,70.711,77.996C64.881,77.105,59.036,79.509,55.52,84.243C51.646,89.486,43.78,89.486,39.906,84.243C36.39,79.509,30.545,77.105,24.715,77.996C18.238,78.98,12.65,73.418,13.64,66.974C14.53,61.157,12.107,55.328,7.357,51.855C4.875,50.045,3.407,47.159,3.407,44.087C3.407,41.015,4.875,38.128,7.357,36.319C12.107,32.845,14.53,27.017,13.64,21.2C12.65,14.758,18.238,9.197,24.715,10.181C30.546,11.071,36.391,8.666,39.906,3.93ZM67.791,44.087C67.791,56.874,60.563,64.067,47.713,64.067C34.86,64.067,27.635,56.874,27.635,44.087C27.635,31.3,34.863,24.107,47.713,24.107C60.566,24.107,67.791,31.3,67.791,44.087ZM67.791,44.087"/>
</g>
  <g id="Light-L" transform="matrix(1.0,0.0,0.0,1.0,1106.70695558563,1476.0390403927781)">  <path fill-rule="evenodd" stroke-linecap="butt" stroke="none" stroke-dasharray="none" stroke-opacity="1" stroke-miterlimit="4" fill-opacity="1" stroke-linejoin="miter" stroke-width="1px" fill="#000000" clip-rule="evenodd" d="M39.906,3.93C43.78,-1.309,51.646,-1.309,55.52,3.93C59.035,8.666,64.88,11.071,70.711,10.181C77.188,9.197,82.776,14.758,81.789,21.202C80.898,27.018,83.318,32.847,88.066,36.322C90.549,38.131,92.018,41.018,92.018,44.09C92.018,47.162,90.549,50.049,88.066,51.858C83.319,55.332,80.899,61.159,81.789,66.974C82.776,73.415,77.188,78.98,70.711,77.996C64.881,77.105,59.036,79.509,55.52,84.243C51.646,89.486,43.78,89.486,39.906,84.243C36.39,79.509,30.545,77.105,24.715,77.996C18.238,78.98,12.65,73.418,13.64,66.974C14.53,61.157,12.107,55.328,7.357,51.855C4.875,50.045,3.407,47.159,3.407,44.087C3.407,41.015,4.875,38.128,7.357,36.319C12.107,32.845,14.53,27.017,13.64,21.2C12.65,14.758,18.238,9.197,24.715,10.181C30.546,11.071,36.391,8.666,39.906,3.93ZM67.791,44.087C67.791,56.874,60.563,64.067,47.713,64.067C34.86,64.067,27.635,56.874,27.635,44.087C27.635,31.3,34.863,24.107,47.713,24.107C60.566,24.107,67.791,31.3,67.791,44.087ZM67.791,44.087"/>
</g>
  <g id="Thin-L" transform="matrix(1.0,0.0,0.0,1.0,809.99695558563,1476.0390403927781)">  <path stroke-miterlimit="4" stroke-opacity="1" stroke-linejoin="miter" stroke-linecap="butt" stroke-width="1px" stroke-dasharray="none" fill="#000000" fill-rule="evenodd" stroke="none" fill-opacity="1" clip-rule="evenodd" d="M39.906,3.93C43.78,-1.309,51.646,-1.309,55.52,3.93C59.035,8.666,64.88,11.071,70.711,10.181C77.188,9.197,82.776,14.758,81.789,21.202C80.898,27.018,83.318,32.847,88.066,36.322C90.549,38.131,92.018,41.018,92.018,44.09C92.018,47.162,90.549,50.049,88.066,51.858C83.319,55.332,80.899,61.159,81.789,66.974C82.776,73.415,77.188,78.98,70.711,77.996C64.881,77.105,59.036,79.509,55.52,84.243C51.646,89.486,43.78,89.486,39.906,84.243C36.39,79.509,30.545,77.105,24.715,77.996C18.238,78.98,12.65,73.418,13.64,66.974C14.53,61.157,12.107,55.328,7.357,51.855C4.875,50.045,3.407,47.159,3.407,44.087C3.407,41.015,4.875,38.128,7.357,36.319C12.107,32.845,14.53,27.017,13.64,21.2C12.65,14.758,18.238,9.197,24.715,10.181C30.546,11.071,36.391,8.666,39.906,3.93ZM67.791,44.087C67.791,56.874,60.563,64.067,47.713,64.067C34.86,64.067,27.635,56.874,27.635,44.087C27.635,31.3,34.863,24.107,47.713,24.107C60.566,24.107,67.791,31.3,67.791,44.087ZM67.791,44.087"/>
</g>
  <g id="Ultralight-L" transform="matrix(1.0,0.0,0.0,1.0,513.2869555856299,1476.0390403927781)">  <path fill-rule="evenodd" clip-rule="evenodd" stroke-miterlimit="4" stroke-dasharray="none" fill="#000000" stroke-opacity="1" stroke-linejoin="miter" fill-opacity="1" stroke="none" stroke-linecap="butt" stroke-width="1px" d="M39.906,3.93C43.78,-1.309,51.646,-1.309,55.52,3.93C59.035,8.666,64.88,11.071,70.711,10.181C77.188,9.197,82.776,14.758,81.789,21.202C80.898,27.018,83.318,32.847,88.066,36.322C90.549,38.131,92.018,41.018,92.018,44.09C92.018,47.162,90.549,50.049,88.066,51.858C83.319,55.332,80.899,61.159,81.789,66.974C82.776,73.415,77.188,78.98,70.711,77.996C64.881,77.105,59.036,79.509,55.52,84.243C51.646,89.486,43.78,89.486,39.906,84.243C36.39,79.509,30.545,77.105,24.715,77.996C18.238,78.98,12.65,73.418,13.64,66.974C14.53,61.157,12.107,55.328,7.357,51.855C4.875,50.045,3.407,47.159,3.407,44.087C3.407,41.015,4.875,38.128,7.357,36.319C12.107,32.845,14.53,27.017,13.64,21.2C12.65,14.758,18.238,9.197,24.715,10.181C30.546,11.071,36.391,8.666,39.906,3.93ZM67.791,44.087C67.791,56.874,60.563,64.067,47.713,64.067C34.86,64.067,27.635,56.874,27.635,44.087C27.635,31.3,34.863,24.107,47.713,24.107C60.566,24.107,67.791,31.3,67.791,44.087ZM67.791,44.087"/>
</g>
  <g id="Black-M" transform="matrix(1.0,0.0,0.0,1.0,2897.6931438648294,1056.0948419045276)">  <path fill="#000000" stroke-dasharray="none" fill-rule="evenodd" fill-opacity="1" stroke-opacity="1" stroke="none" clip-rule="evenodd" stroke-linecap="butt" stroke-linejoin="miter" stroke-miterlimit="4" stroke-width="1px" d="M30.935,3.047C33.938,-1.015,40.036,-1.015,43.039,3.047C45.764,6.718,50.295,8.582,54.815,7.892C59.835,7.129,64.168,11.44,63.402,16.436C62.712,20.945,64.588,25.463,68.268,28.156C70.193,29.559,71.332,31.797,71.332,34.178C71.332,36.56,70.193,38.798,68.268,40.2C64.588,42.893,62.713,47.41,63.402,51.918C64.168,56.911,59.835,61.225,54.815,60.462C50.295,59.771,45.764,61.635,43.039,65.305C40.036,69.369,33.938,69.369,30.935,65.305C28.209,61.635,23.678,59.771,19.159,60.462C14.138,61.225,9.806,56.914,10.574,51.918C11.263,47.409,9.385,42.89,5.703,40.198C3.779,38.795,2.641,36.557,2.641,34.176C2.641,31.795,3.779,29.557,5.703,28.154C9.385,25.461,11.263,20.943,10.574,16.434C9.806,11.44,14.138,7.129,19.159,7.892C23.679,8.582,28.21,6.718,30.935,3.047ZM52.551,34.176C52.551,44.088,46.948,49.664,36.987,49.664C27.024,49.664,21.422,44.088,21.422,34.176C21.422,24.263,27.026,18.688,36.987,18.688C46.95,18.688,52.551,24.263,52.551,34.176ZM52.551,34.176"/>
</g>
  <g id="Heavy-M" transform="matrix(1.0,0.0,0.0,1.0,2600.9831438648293,1056.0948419045276)">  <path stroke-linecap="butt" stroke-width="1px" clip-rule="evenodd" fill="#000000" stroke="none" fill-rule="evenodd" fill-opacity="1" stroke-linejoin="miter" stroke-dasharray="none" stroke-miterlimit="4" stroke-opacity="1" d="M30.935,3.047C33.938,-1.015,40.036,-1.015,43.039,3.047C45.764,6.718,50.295,8.582,54.815,7.892C59.835,7.129,64.168,11.44,63.402,16.436C62.712,20.945,64.588,25.463,68.268,28.156C70.193,29.559,71.332,31.797,71.332,34.178C71.332,36.56,70.193,38.798,68.268,40.2C64.588,42.893,62.713,47.41,63.402,51.918C64.168,56.911,59.835,61.225,54.815,60.462C50.295,59.771,45.764,61.635,43.039,65.305C40.036,69.369,33.938,69.369,30.935,65.305C28.209,61.635,23.678,59.771,19.159,60.462C14.138,61.225,9.806,56.914,10.574,51.918C11.263,47.409,9.385,42.89,5.703,40.198C3.779,38.795,2.641,36.557,2.641,34.176C2.641,31.795,3.779,29.557,5.703,28.154C9.385,25.461,11.263,20.943,10.574,16.434C9.806,11.44,14.138,7.129,19.159,7.892C23.679,8.582,28.21,6.718,30.935,3.047ZM52.551,34.176C52.551,44.088,46.948,49.664,36.987,49.664C27.024,49.664,21.422,44.088,21.422,34.176C21.422,24.263,27.026,18.688,36.987,18.688C46.95,18.688,52.551,24.263,52.551,34.176ZM52.551,34.176"/>
</g>
  <g id="Bold-M" transform="matrix(1.0,0.0,0.0,1.0,2304.2731438648293,1056.0948419045276)">  <path stroke-opacity="1" stroke-linejoin="miter" stroke="none" stroke-linecap="butt" fill-opacity="1" fill-rule="evenodd" stroke-dasharray="none" clip-rule="evenodd" stroke-width="1px" fill="#000000" stroke-miterlimit="4" d="M30.935,3.047C33.938,-1.015,40.036,-1.015,43.039,3.047C45.764,6.718,50.295,8.582,54.815,7.892C59.835,7.129,64.168,11.44,63.402,16.436C62.712,20.945,64.588,25.463,68.268,28.156C70.193,29.559,71.332,31.797,71.332,34.178C71.332,36.56,70.193,38.798,68.268,40.2C64.588,42.893,62.713,47.41,63.402,51.918C64.168,56.911,59.835,61.225,54.815,60.462C50.295,59.771,45.764,61.635,43.039,65.305C40.036,69.369,33.938,69.369,30.935,65.305C28.209,61.635,23.678,59.771,19.159,60.462C14.138,61.225,9.806,56.914,10.574,51.918C11.263,47.409,9.385,42.89,5.703,40.198C3.779,38.795,2.641,36.557,2.641,34.176C2.641,31.795,3.779,29.557,5.703,28.154C9.385,25.461,11.263,20.943,10.574,16.434C9.806,11.44,14.138,7.129,19.159,7.892C23.679,8.582,28.21,6.718,30.935,3.047ZM52.551,34.176C52.551,44.088,46.948,49.664,36.987,49.664C27.024,49.664,21.422,44.088,21.422,34.176C21.422,24.263,27.026,18.688,36.987,18.688C46.95,18.688,52.551,24.263,52.551,34.176ZM52.551,34.176"/>
</g>
  <g id="Semibold-M" transform="matrix(1.0,0.0,0.0,1.0,2007.5631438648293,1056.0948419045276)">  <path stroke-linecap="butt" stroke-width="1px" stroke="none" stroke-miterlimit="4" stroke-linejoin="miter" stroke-opacity="1" fill-rule="evenodd" fill-opacity="1" stroke-dasharray="none" clip-rule="evenodd" fill="#000000" d="M30.935,3.047C33.938,-1.015,40.036,-1.015,43.039,3.047C45.764,6.718,50.295,8.582,54.815,7.892C59.835,7.129,64.168,11.44,63.402,16.436C62.712,20.945,64.588,25.463,68.268,28.156C70.193,29.559,71.332,31.797,71.332,34.178C71.332,36.56,70.193,38.798,68.268,40.2C64.588,42.893,62.713,47.41,63.402,51.918C64.168,56.911,59.835,61.225,54.815,60.462C50.295,59.771,45.764,61.635,43.039,65.305C40.036,69.369,33.938,69.369,30.935,65.305C28.209,61.635,23.678,59.771,19.159,60.462C14.138,61.225,9.806,56.914,10.574,51.918C11.263,47.409,9.385,42.89,5.703,40.198C3.779,38.795,2.641,36.557,2.641,34.176C2.641,31.795,3.779,29.557,5.703,28.154C9.385,25.461,11.263,20.943,10.574,16.434C9.806,11.44,14.138,7.129,19.159,7.892C23.679,8.582,28.21,6.718,30.935,3.047ZM52.551,34.176C52.551,44.088,46.948,49.664,36.987,49.664C27.024,49.664,21.422,44.088,21.422,34.176C21.422,24.263,27.026,18.688,36.987,18.688C46.95,18.688,52.551,24.263,52.551,34.176ZM52.551,34.176"/>
</g>
  <g id="Medium-M" transform="matrix(1.0,0.0,0.0,1.0,1710.8531438648292,1056.0948419045276)">  <path stroke-width="1px" stroke-miterlimit="4" stroke-linecap="butt" clip-rule="evenodd" fill-opacity="1" stroke-dasharray="none" fill-rule="evenodd" stroke-linejoin="miter" fill="#000000" stroke="none" stroke-opacity="1" d="M30.935,3.047C33.938,-1.015,40.036,-1.015,43.039,3.047C45.764,6.718,50.295,8.582,54.815,7.892C59.835,7.129,64.168,11.44,63.402,16.436C62.712,20.945,64.588,25.463,68.268,28.156C70.193,29.559,71.332,31.797,71.332,34.178C71.332,36.56,70.193,38.798,68.268,40.2C64.588,42.893,62.713,47.41,63.402,51.918C64.168,56.911,59.835,61.225,54.815,60.462C50.295,59.771,45.764,61.635,43.039,65.305C40.036,69.369,33.938,69.369,30.935,65.305C28.209,61.635,23.678,59.771,19.159,60.462C14.138,61.225,9.806,56.914,10.574,51.918C11.263,47.409,9.385,42.89,5.703,40.198C3.779,38.795,2.641,36.557,2.641,34.176C2.641,31.795,3.779,29.557,5.703,28.154C9.385,25.461,11.263,20.943,10.574,16.434C9.806,11.44,14.138,7.129,19.159,7.892C23.679,8.582,28.21,6.718,30.935,3.047ZM52.551,34.176C52.551,44.088,46.948,49.664,36.987,49.664C27.024,49.664,21.422,44.088,21.422,34.176C21.422,24.263,27.026,18.688,36.987,18.688C46.95,18.688,52.551,24.263,52.551,34.176ZM52.551,34.176"/>
</g>
  <g id="Regular-M" transform="matrix(1.0,0.0,0.0,1.0,1414.1431438648292,1056.0948419045276)">  <path stroke-linecap="butt" stroke-width="1px" fill-opacity="1" fill-rule="evenodd" clip-rule="evenodd" fill="#000000" stroke-linejoin="miter" stroke="none" stroke-miterlimit="4" stroke-opacity="1" stroke-dasharray="none" d="M30.935,3.047C33.938,-1.015,40.036,-1.015,43.039,3.047C45.764,6.718,50.295,8.582,54.815,7.892C59.835,7.129,64.168,11.44,63.402,16.436C62.712,20.945,64.588,25.463,68.268,28.156C70.193,29.559,71.332,31.797,71.332,34.178C71.332,36.56,70.193,38.798,68.268,40.2C64.588,42.893,62.713,47.41,63.402,51.918C64.168,56.911,59.835,61.225,54.815,60.462C50.295,59.771,45.764,61.635,43.039,65.305C40.036,69.369,33.938,69.369,30.935,65.305C28.209,61.635,23.678,59.771,19.159,60.462C14.138,61.225,9.806,56.914,10.574,51.918C11.263,47.409,9.385,42.89,5.703,40.198C3.779,38.795,2.641,36.557,2.641,34.176C2.641,31.795,3.779,29.557,5.703,28.154C9.385,25.461,11.263,20.943,10.574,16.434C9.806,11.44,14.138,7.129,19.159,7.892C23.679,8.582,28.21,6.718,30.935,3.047ZM52.551,34.176C52.551,44.088,46.948,49.664,36.987,49.664C27.024,49.664,21.422,44.088,21.422,34.176C21.422,24.263,27.026,18.688,36.987,18.688C46.95,18.688,52.551,24.263,52.551,34.176ZM52.551,34.176"/>
</g>
  <g id="Light-M" transform="matrix(1.0,0.0,0.0,1.0,1117.4331438648294,1056.0948419045276)">  <path fill-rule="evenodd" stroke-linecap="butt" stroke="none" stroke-dasharray="none" stroke-opacity="1" stroke-miterlimit="4" fill-opacity="1" stroke-linejoin="miter" stroke-width="1px" fill="#000000" clip-rule="evenodd" d="M30.935,3.047C33.938,-1.015,40.036,-1.015,43.039,3.047C45.764,6.718,50.295,8.582,54.815,7.892C59.835,7.129,64.168,11.44,63.402,16.436C62.712,20.945,64.588,25.463,68.268,28.156C70.193,29.559,71.332,31.797,71.332,34.178C71.332,36.56,70.193,38.798,68.268,40.2C64.588,42.893,62.713,47.41,63.402,51.918C64.168,56.911,59.835,61.225,54.815,60.462C50.295,59.771,45.764,61.635,43.039,65.305C40.036,69.369,33.938,69.369,30.935,65.305C28.209,61.635,23.678,59.771,19.159,60.462C14.138,61.225,9.806,56.914,10.574,51.918C11.263,47.409,9.385,42.89,5.703,40.198C3.779,38.795,2.641,36.557,2.641,34.176C2.641,31.795,3.779,29.557,5.703,28.154C9.385,25.461,11.263,20.943,10.574,16.434C9.806,11.44,14.138,7.129,19.159,7.892C23.679,8.582,28.21,6.718,30.935,3.047ZM52.551,34.176C52.551,44.088,46.948,49.664,36.987,49.664C27.024,49.664,21.422,44.088,21.422,34.176C21.422,24.263,27.026,18.688,36.987,18.688C46.95,18.688,52.551,24.263,52.551,34.176ZM52.551,34.176"/>
</g>
  <g id="Thin-M" transform="matrix(1.0,0.0,0.0,1.0,820.7231438648295,1056.0948419045276)">  <path stroke-miterlimit="4" stroke-opacity="1" stroke-linejoin="miter" stroke-linecap="butt" stroke-width="1px" stroke-dasharray="none" fill="#000000" fill-rule="evenodd" stroke="none" fill-opacity="1" clip-rule="evenodd" d="M30.935,3.047C33.938,-1.015,40.036,-1.015,43.039,3.047C45.764,6.718,50.295,8.582,54.815,7.892C59.835,7.129,64.168,11.44,63.402,16.436C62.712,20.945,64.588,25.463,68.268,28.156C70.193,29.559,71.332,31.797,71.332,34.178C71.332,36.56,70.193,38.798,68.268,40.2C64.588,42.893,62.713,47.41,63.402,51.918C64.168,56.911,59.835,61.225,54.815,60.462C50.295,59.771,45.764,61.635,43.039,65.305C40.036,69.369,33.938,69.369,30.935,65.305C28.209,61.635,23.678,59.771,19.159,60.462C14.138,61.225,9.806,56.914,10.574,51.918C11.263,47.409,9.385,42.89,5.703,40.198C3.779,38.795,2.641,36.557,2.641,34.176C2.641,31.795,3.779,29.557,5.703,28.154C9.385,25.461,11.263,20.943,10.574,16.434C9.806,11.44,14.138,7.129,19.159,7.892C23.679,8.582,28.21,6.718,30.935,3.047ZM52.551,34.176C52.551,44.088,46.948,49.664,36.987,49.664C27.024,49.664,21.422,44.088,21.422,34.176C21.422,24.263,27.026,18.688,36.987,18.688C46.95,18.688,52.551,24.263,52.551,34.176ZM52.551,34.176"/>
</g>
  <g id="Ultralight-M" transform="matrix(1.0,0.0,0.0,1.0,524.0131438648294,1056.0948419045276)">  <path fill-rule="evenodd" clip-rule="evenodd" stroke-miterlimit="4" stroke-dasharray="none" fill="#000000" stroke-opacity="1" stroke-linejoin="miter" fill-opacity="1" stroke="none" stroke-linecap="butt" stroke-width="1px" d="M30.935,3.047C33.938,-1.015,40.036,-1.015,43.039,3.047C45.764,6.718,50.295,8.582,54.815,7.892C59.835,7.129,64.168,11.44,63.402,16.436C62.712,20.945,64.588,25.463,68.268,28.156C70.193,29.559,71.332,31.797,71.332,34.178C71.332,36.56,70.193,38.798,68.268,40.2C64.588,42.893,62.713,47.41,63.402,51.918C64.168,56.911,59.835,61.225,54.815,60.462C50.295,59.771,45.764,61.635,43.039,65.305C40.036,69.369,33.938,69.369,30.935,65.305C28.209,61.635,23.678,59.771,19.159,60.462C14.138,61.225,9.806,56.914,10.574,51.918C11.263,47.409,9.385,42.89,5.703,40.198C3.779,38.795,2.641,36.557,2.641,34.176C2.641,31.795,3.779,29.557,5.703,28.154C9.385,25.461,11.263,20.943,10.574,16.434C9.806,11.44,14.138,7.129,19.159,7.892C23.679,8.582,28.21,6.718,30.935,3.047ZM52.551,34.176C52.551,44.088,46.948,49.664,36.987,49.664C27.024,49.664,21.422,44.088,21.422,34.176C21.422,24.263,27.026,18.688,36.987,18.688C46.95,18.688,52.551,24.263,52.551,34.176ZM52.551,34.176"/>
</g>
  <g id="Black-S" transform="matrix(1.0,0.0,0.0,1.0,2905.7192916461613,633.6193554495263)">  <path fill="#000000" stroke-dasharray="none" fill-rule="evenodd" fill-opacity="1" stroke-opacity="1" stroke="none" clip-rule="evenodd" stroke-linecap="butt" stroke-linejoin="miter" stroke-miterlimit="4" stroke-width="1px" d="M24.222,2.386C26.573,-0.795,31.348,-0.795,33.699,2.386C35.833,5.26,39.381,6.72,42.92,6.179C46.851,5.582,50.243,8.958,49.644,12.869C49.103,16.4,50.572,19.937,53.454,22.046C54.961,23.144,55.853,24.897,55.853,26.762C55.853,28.626,54.961,30.379,53.454,31.477C50.573,33.585,49.104,37.122,49.644,40.652C50.243,44.561,46.851,47.939,42.92,47.342C39.381,46.801,35.834,48.26,33.699,51.134C31.348,54.316,26.573,54.316,24.222,51.134C22.088,48.26,18.54,46.801,15.002,47.342C11.07,47.939,7.678,44.563,8.279,40.652C8.819,37.121,7.349,33.583,4.465,31.475C2.959,30.376,2.068,28.624,2.068,26.76C2.068,24.895,2.959,23.143,4.465,22.045C7.349,19.936,8.819,16.398,8.279,12.868C7.678,8.958,11.07,5.582,15.002,6.179C18.541,6.72,22.088,5.26,24.222,2.386ZM41.148,26.76C41.148,34.521,36.76,38.887,28.961,38.887C21.159,38.887,16.774,34.521,16.774,26.76C16.774,18.998,21.161,14.632,28.961,14.632C36.762,14.632,41.148,18.998,41.148,26.76ZM41.148,26.76"/>
</g>
  <g id="Heavy-S" transform="matrix(1.0,0.0,0.0,1.0,2609.0092916461613,633.6193554495263)">  <path stroke-linecap="butt" stroke-width="1px" clip-rule="evenodd" fill="#000000" stroke="none" fill-rule="evenodd" fill-opacity="1" stroke-linejoin="miter" stroke-dasharray="none" stroke-miterlimit="4" stroke-opacity="1" d="M24.222,2.386C26.573,-0.795,31.348,-0.795,33.699,2.386C35.833,5.26,39.381,6.72,42.92,6.179C46.851,5.582,50.243,8.958,49.644,12.869C49.103,16.4,50.572,19.937,53.454,22.046C54.961,23.144,55.853,24.897,55.853,26.762C55.853,28.626,54.961,30.379,53.454,31.477C50.573,33.585,49.104,37.122,49.644,40.652C50.243,44.561,46.851,47.939,42.92,47.342C39.381,46.801,35.834,48.26,33.699,51.134C31.348,54.316,26.573,54.316,24.222,51.134C22.088,48.26,18.54,46.801,15.002,47.342C11.07,47.939,7.678,44.563,8.279,40.652C8.819,37.121,7.349,33.583,4.465,31.475C2.959,30.376,2.068,28.624,2.068,26.76C2.068,24.895,2.959,23.143,4.465,22.045C7.349,19.936,8.819,16.398,8.279,12.868C7.678,8.958,11.07,5.582,15.002,6.179C18.541,6.72,22.088,5.26,24.222,2.386ZM41.148,26.76C41.148,34.521,36.76,38.887,28.961,38.887C21.159,38.887,16.774,34.521,16.774,26.76C16.774,18.998,21.161,14.632,28.961,14.632C36.762,14.632,41.148,18.998,41.148,26.76ZM41.148,26.76"/>
</g>
  <g id="Bold-S" transform="matrix(1.0,0.0,0.0,1.0,2312.2992916461612,633.6193554495263)">  <path stroke-opacity="1" stroke-linejoin="miter" stroke="none" stroke-linecap="butt" fill-opacity="1" fill-rule="evenodd" stroke-dasharray="none" clip-rule="evenodd" stroke-width="1px" fill="#000000" stroke-miterlimit="4" d="M24.222,2.386C26.573,-0.795,31.348,-0.795,33.699,2.386C35.833,5.26,39.381,6.72,42.92,6.179C46.851,5.582,50.243,8.958,49.644,12.869C49.103,16.4,50.572,19.937,53.454,22.046C54.961,23.144,55.853,24.897,55.853,26.762C55.853,28.626,54.961,30.379,53.454,31.477C50.573,33.585,49.104,37.122,49.644,40.652C50.243,44.561,46.851,47.939,42.92,47.342C39.381,46.801,35.834,48.26,33.699,51.134C31.348,54.316,26.573,54.316,24.222,51.134C22.088,48.26,18.54,46.801,15.002,47.342C11.07,47.939,7.678,44.563,8.279,40.652C8.819,37.121,7.349,33.583,4.465,31.475C2.959,30.376,2.068,28.624,2.068,26.76C2.068,24.895,2.959,23.143,4.465,22.045C7.349,19.936,8.819,16.398,8.279,12.868C7.678,8.958,11.07,5.582,15.002,6.179C18.541,6.72,22.088,5.26,24.222,2.386ZM41.148,26.76C41.148,34.521,36.76,38.887,28.961,38.887C21.159,38.887,16.774,34.521,16.774,26.76C16.774,18.998,21.161,14.632,28.961,14.632C36.762,14.632,41.148,18.998,41.148,26.76ZM41.148,26.76"/>
</g>
  <g id="Semibold-S" transform="matrix(1.0,0.0,0.0,1.0,2015.5892916461614,633.6193554495263)">  <path stroke-linecap="butt" stroke-width="1px" stroke="none" stroke-miterlimit="4" stroke-linejoin="miter" stroke-opacity="1" fill-rule="evenodd" fill-opacity="1" stroke-dasharray="none" clip-rule="evenodd" fill="#000000" d="M24.222,2.386C26.573,-0.795,31.348,-0.795,33.699,2.386C35.833,5.26,39.381,6.72,42.92,6.179C46.851,5.582,50.243,8.958,49.644,12.869C49.103,16.4,50.572,19.937,53.454,22.046C54.961,23.144,55.853,24.897,55.853,26.762C55.853,28.626,54.961,30.379,53.454,31.477C50.573,33.585,49.104,37.122,49.644,40.652C50.243,44.561,46.851,47.939,42.92,47.342C39.381,46.801,35.834,48.26,33.699,51.134C31.348,54.316,26.573,54.316,24.222,51.134C22.088,48.26,18.54,46.801,15.002,47.342C11.07,47.939,7.678,44.563,8.279,40.652C8.819,37.121,7.349,33.583,4.465,31.475C2.959,30.376,2.068,28.624,2.068,26.76C2.068,24.895,2.959,23.143,4.465,22.045C7.349,19.936,8.819,16.398,8.279,12.868C7.678,8.958,11.07,5.582,15.002,6.179C18.541,6.72,22.088,5.26,24.222,2.386ZM41.148,26.76C41.148,34.521,36.76,38.887,28.961,38.887C21.159,38.887,16.774,34.521,16.774,26.76C16.774,18.998,21.161,14.632,28.961,14.632C36.762,14.632,41.148,18.998,41.148,26.76ZM41.148,26.76"/>
</g>
  <g id="Medium-S" transform="matrix(1.0,0.0,0.0,1.0,1718.8792916461614,633.6193554495263)">  <path stroke-width="1px" stroke-miterlimit="4" stroke-linecap="butt" clip-rule="evenodd" fill-opacity="1" stroke-dasharray="none" fill-rule="evenodd" stroke-linejoin="miter" fill="#000000" stroke="none" stroke-opacity="1" d="M24.222,2.386C26.573,-0.795,31.348,-0.795,33.699,2.386C35.833,5.26,39.381,6.72,42.92,6.179C46.851,5.582,50.243,8.958,49.644,12.869C49.103,16.4,50.572,19.937,53.454,22.046C54.961,23.144,55.853,24.897,55.853,26.762C55.853,28.626,54.961,30.379,53.454,31.477C50.573,33.585,49.104,37.122,49.644,40.652C50.243,44.561,46.851,47.939,42.92,47.342C39.381,46.801,35.834,48.26,33.699,51.134C31.348,54.316,26.573,54.316,24.222,51.134C22.088,48.26,18.54,46.801,15.002,47.342C11.07,47.939,7.678,44.563,8.279,40.652C8.819,37.121,7.349,33.583,4.465,31.475C2.959,30.376,2.068,28.624,2.068,26.76C2.068,24.895,2.959,23.143,4.465,22.045C7.349,19.936,8.819,16.398,8.279,12.868C7.678,8.958,11.07,5.582,15.002,6.179C18.541,6.72,22.088,5.26,24.222,2.386ZM41.148,26.76C41.148,34.521,36.76,38.887,28.961,38.887C21.159,38.887,16.774,34.521,16.774,26.76C16.774,18.998,21.161,14.632,28.961,14.632C36.762,14.632,41.148,18.998,41.148,26.76ZM41.148,26.76"/>
</g>
  <g id="Regular-S" transform="matrix(1.0,0.0,0.0,1.0,1422.1692916461614,633.6193554495263)">  <path stroke-linecap="butt" stroke-width="1px" fill-opacity="1" fill-rule="evenodd" clip-rule="evenodd" fill="#000000" stroke-linejoin="miter" stroke="none" stroke-miterlimit="4" stroke-opacity="1" stroke-dasharray="none" d="M24.222,2.386C26.573,-0.795,31.348,-0.795,33.699,2.386C35.833,5.26,39.381,6.72,42.92,6.179C46.851,5.582,50.243,8.958,49.644,12.869C49.103,16.4,50.572,19.937,53.454,22.046C54.961,23.144,55.853,24.897,55.853,26.762C55.853,28.626,54.961,30.379,53.454,31.477C50.573,33.585,49.104,37.122,49.644,40.652C50.243,44.561,46.851,47.939,42.92,47.342C39.381,46.801,35.834,48.26,33.699,51.134C31.348,54.316,26.573,54.316,24.222,51.134C22.088,48.26,18.54,46.801,15.002,47.342C11.07,47.939,7.678,44.563,8.279,40.652C8.819,37.121,7.349,33.583,4.465,31.475C2.959,30.376,2.068,28.624,2.068,26.76C2.068,24.895,2.959,23.143,4.465,22.045C7.349,19.936,8.819,16.398,8.279,12.868C7.678,8.958,11.07,5.582,15.002,6.179C18.541,6.72,22.088,5.26,24.222,2.386ZM41.148,26.76C41.148,34.521,36.76,38.887,28.961,38.887C21.159,38.887,16.774,34.521,16.774,26.76C16.774,18.998,21.161,14.632,28.961,14.632C36.762,14.632,41.148,18.998,41.148,26.76ZM41.148,26.76"/>
</g>
  <g id="Light-S" transform="matrix(1.0,0.0,0.0,1.0,1125.4592916461615,633.6193554495263)">  <path fill-rule="evenodd" stroke-linecap="butt" stroke="none" stroke-dasharray="none" stroke-opacity="1" stroke-miterlimit="4" fill-opacity="1" stroke-linejoin="miter" stroke-width="1px" fill="#000000" clip-rule="evenodd" d="M24.222,2.386C26.573,-0.795,31.348,-0.795,33.699,2.386C35.833,5.26,39.381,6.72,42.92,6.179C46.851,5.582,50.243,8.958,49.644,12.869C49.103,16.4,50.572,19.937,53.454,22.046C54.961,23.144,55.853,24.897,55.853,26.762C55.853,28.626,54.961,30.379,53.454,31.477C50.573,33.585,49.104,37.122,49.644,40.652C50.243,44.561,46.851,47.939,42.92,47.342C39.381,46.801,35.834,48.26,33.699,51.134C31.348,54.316,26.573,54.316,24.222,51.134C22.088,48.26,18.54,46.801,15.002,47.342C11.07,47.939,7.678,44.563,8.279,40.652C8.819,37.121,7.349,33.583,4.465,31.475C2.959,30.376,2.068,28.624,2.068,26.76C2.068,24.895,2.959,23.143,4.465,22.045C7.349,19.936,8.819,16.398,8.279,12.868C7.678,8.958,11.07,5.582,15.002,6.179C18.541,6.72,22.088,5.26,24.222,2.386ZM41.148,26.76C41.148,34.521,36.76,38.887,28.961,38.887C21.159,38.887,16.774,34.521,16.774,26.76C16.774,18.998,21.161,14.632,28.961,14.632C36.762,14.632,41.148,18.998,41.148,26.76ZM41.148,26.76"/>
</g>
  <g id="Thin-S" transform="matrix(1.0,0.0,0.0,1.0,828.7492916461615,633.6193554495263)">  <path stroke-miterlimit="4" stroke-opacity="1" stroke-linejoin="miter" stroke-linecap="butt" stroke-width="1px" stroke-dasharray="none" fill="#000000" fill-rule="evenodd" stroke="none" fill-opacity="1" clip-rule="evenodd" d="M24.222,2.386C26.573,-0.795,31.348,-0.795,33.699,2.386C35.833,5.26,39.381,6.72,42.92,6.179C46.851,5.582,50.243,8.958,49.644,12.869C49.103,16.4,50.572,19.937,53.454,22.046C54.961,23.144,55.853,24.897,55.853,26.762C55.853,28.626,54.961,30.379,53.454,31.477C50.573,33.585,49.104,37.122,49.644,40.652C50.243,44.561,46.851,47.939,42.92,47.342C39.381,46.801,35.834,48.26,33.699,51.134C31.348,54.316,26.573,54.316,24.222,51.134C22.088,48.26,18.54,46.801,15.002,47.342C11.07,47.939,7.678,44.563,8.279,40.652C8.819,37.121,7.349,33.583,4.465,31.475C2.959,30.376,2.068,28.624,2.068,26.76C2.068,24.895,2.959,23.143,4.465,22.045C7.349,19.936,8.819,16.398,8.279,12.868C7.678,8.958,11.07,5.582,15.002,6.179C18.541,6.72,22.088,5.26,24.222,2.386ZM41.148,26.76C41.148,34.521,36.76,38.887,28.961,38.887C21.159,38.887,16.774,34.521,16.774,26.76C16.774,18.998,21.161,14.632,28.961,14.632C36.762,14.632,41.148,18.998,41.148,26.76ZM41.148,26.76"/>
</g>
  <g id="Ultralight-S" transform="matrix(1.0,0.0,0.0,1.0,532.0392916461615,633.6193554495263)">  <path fill-rule="evenodd" clip-rule="evenodd" stroke-miterlimit="4" stroke-dasharray="none" fill="#000000" stroke-opacity="1" stroke-linejoin="miter" fill-opacity="1" stroke="none" stroke-linecap="butt" stroke-width="1px" d="M24.222,2.386C26.573,-0.795,31.348,-0.795,33.699,2.386C35.833,5.26,39.381,6.72,42.92,6.179C46.851,5.582,50.243,8.958,49.644,12.869C49.103,16.4,50.572,19.937,53.454,22.046C54.961,23.144,55.853,24.897,55.853,26.762C55.853,28.626,54.961,30.379,53.454,31.477C50.573,33.585,49.104,37.122,49.644,40.652C50.243,44.561,46.851,47.939,42.92,47.342C39.381,46.801,35.834,48.26,33.699,51.134C31.348,54.316,26.573,54.316,24.222,51.134C22.088,48.26,18.54,46.801,15.002,47.342C11.07,47.939,7.678,44.563,8.279,40.652C8.819,37.121,7.349,33.583,4.465,31.475C2.959,30.376,2.068,28.624,2.068,26.76C2.068,24.895,2.959,23.143,4.465,22.045C7.349,19.936,8.819,16.398,8.279,12.868C7.678,8.958,11.07,5.582,15.002,6.179C18.541,6.72,22.088,5.26,24.222,2.386ZM41.148,26.76C41.148,34.521,36.76,38.887,28.961,38.887C21.159,38.887,16.774,34.521,16.774,26.76C16.774,18.998,21.161,14.632,28.961,14.632C36.762,14.632,41.148,18.998,41.148,26.76ZM41.148,26.76"/>
</g>
 </g>
</svg>
