<?xml version="1.0" encoding="UTF-8"?>
<!-- Generator: CustomSymbols v2.7.4.50 by @serious_bret https://bretlester.com/app_content/CustomSymbols/ -->
<!-- Guides: Left/Right -0.014/-0.014 Cap/Base -0.002/-0.002 -->
<!-- Settings: RefScale 1.0 Min/Max Stroke Scales 0.5/2.21 -->
<!DOCTYPE svg
PUBLIC "-//W3C//DTD SVG 1.1//EN"
       "http://www.w3.org/Graphics/SVG/1.1/DTD/svg11.dtd">
<svg version="1.1" xmlns="http://www.w3.org/2000/svg" xmlns:xlink="http://www.w3.org/1999/xlink" width="3300" height="2200">
<![CDATA[<svg xmlns="http://www.w3.org/2000/svg" viewBox="0 0 100 100">
  <path fill-rule="evenodd" clip-rule="evenodd" d="
    M49.97 0
    C38.99 0 29.91 3.1 23.58 9.44
    C17.24 15.78 14.14 24.86 14.14 35.84
    C14.14 46.83 17.24 55.91 23.58 62.25
    C29.91 68.59 38.99 71.69 49.97 71.69
    C60.95 71.69 70.03 68.59 76.36 62.25
    C82.7 55.91 85.8 46.83 85.8 35.84
    C85.8 24.86 82.7 15.78 76.36 9.44
    C70.03 3.1 60.95 0 49.97 0
    Z

    M45.94 21.73
    C47.51 17.47 53.33 17.33 54.82 21.61
    C55.4 23.26 55.9 25.04 56.41 27.16
    C58.66 27.14 60.56 27.17 62.37 27.27
    C66.92 27.52 68.74 33.05 65.06 35.74
    C64.25 36.33 63.38 36.93 62.43 37.54
    C61.3 38.28 60.79 39.67 61.19 40.95
    C61.74 42.72 62.18 44.3 62.55 45.87
    C63.59 50.24 58.91 53.61 55.28 50.94
    C53.67 49.76 52.07 48.39 50.22 46.64
    C48.41 48.31 46.83 49.64 45.25 50.79
    C41.59 53.47 36.8 50.12 37.87 45.86
    C38.23 44.41 38.67 42.88 39.22 41.17
    C39.64 39.88 39.13 38.47 38.0 37.74
    C36.97 37.07 36.05 36.44 35.18 35.8
    C31.55 33.13 33.32 27.66 37.82 27.43
    C39.7 27.33 41.69 27.32 44.07 27.37
    C44.68 25.28 45.24 23.52 45.94 21.73
    Z

    M0.26 76.73
    C2.77 70.46 6.83 64.77 11.12 60.01
    C12.81 63.03 14.9 65.83 17.42 68.35
    C22.47 73.41 28.66 76.73 35.51 78.58
    C32.12 84.02 29.44 90.37 27.83 97.3
    C27.49 98.73 26.31 99.82 24.86 100
    C23.41 100.18 21.97 99.49 21.24 98.22
    L13.35 84.54
    L2.64 81.46
    C1.67 81.18 0.86 80.5 0.42 79.59
    C-0.02 78.68 -0.06 77.62 0.26 76.73
    Z

    M72.17 97.31
    C70.56 90.37 67.88 84.01 64.49 78.57
    C71.32 76.72 77.49 73.41 82.52 68.36
    C85.05 65.83 87.15 63.02 88.85 59.99
    C93.15 64.76 97.22 70.46 99.74 76.75
    C100.06 77.64 100.02 78.7 99.58 79.61
    C99.14 80.52 98.33 81.2 97.36 81.48
    L86.65 84.56
    L78.77 98.23
    C78.04 99.5 76.6 100.19 75.15 100
    C73.7 99.82 72.52 98.73 72.17 97.31
    Z
  "/>
</svg>
]]>
 <g id="Notes">
  <rect height="2200" id="artboard" style="fill:white;opacity:1" width="3300" x="0" y="0"/>
  <line id="" style="fill:none;stroke:black;opacity:1;stroke-width:0.5;" x1="263" x2="3036" y1="292" y2="292"/>
  <text id="reftext1" style="stroke:none;fill:black;font-family:-apple-system,&quot;SF Pro Display&quot;,&quot;SF Pro Text&quot;,Helvetica,sans-serif;font-weight:bold;" transform="matrix(1 0 0 1 263 322)">Weight/Scale Variations</text>
  <text id="reftext2" style="stroke:none;fill:black;font-family:-apple-system,&quot;SF Pro Display&quot;,&quot;SF Pro Text&quot;,Helvetica,sans-serif;text-anchor:middle;" transform="matrix(1 0 0 1 559.711 322)">Ultralight</text>
  <text style="stroke:none;fill:black;font-family:-apple-system,&quot;SF Pro Display&quot;,&quot;SF Pro Text&quot;,Helvetica,sans-serif;text-anchor:middle;" transform="matrix(1 0 0 1 856.422 322)">Thin</text>
  <text style="stroke:none;fill:black;font-family:-apple-system,&quot;SF Pro Display&quot;,&quot;SF Pro Text&quot;,Helvetica,sans-serif;text-anchor:middle;" transform="matrix(1 0 0 1 1153.13 322)">Light</text>
  <text style="stroke:none;fill:black;font-family:-apple-system,&quot;SF Pro Display&quot;,&quot;SF Pro Text&quot;,Helvetica,sans-serif;text-anchor:middle;" transform="matrix(1 0 0 1 1449.84 322)">Regular</text>
  <text style="stroke:none;fill:black;font-family:-apple-system,&quot;SF Pro Display&quot;,&quot;SF Pro Text&quot;,Helvetica,sans-serif;text-anchor:middle;" transform="matrix(1 0 0 1 1746.56 322)">Medium</text>
  <text style="stroke:none;fill:black;font-family:-apple-system,&quot;SF Pro Display&quot;,&quot;SF Pro Text&quot;,Helvetica,sans-serif;text-anchor:middle;" transform="matrix(1 0 0 1 2043.27 322)">Semibold</text>
  <text style="stroke:none;fill:black;font-family:-apple-system,&quot;SF Pro Display&quot;,&quot;SF Pro Text&quot;,Helvetica,sans-serif;text-anchor:middle;" transform="matrix(1 0 0 1 2339.98 322)">Bold</text>
  <text style="stroke:none;fill:black;font-family:-apple-system,&quot;SF Pro Display&quot;,&quot;SF Pro Text&quot;,Helvetica,sans-serif;text-anchor:middle;" transform="matrix(1 0 0 1 2636.69 322)">Heavy</text>
  <text style="stroke:none;fill:black;font-family:-apple-system,&quot;SF Pro Display&quot;,&quot;SF Pro Text&quot;,Helvetica,sans-serif;text-anchor:middle;" transform="matrix(1 0 0 1 2933.4 322)">Black</text>
  <line id="" style="fill:none;stroke:black;opacity:1;stroke-width:0.5;" x1="263" x2="3036" y1="1903" y2="1903"/>
  <g id="" transform="matrix(1 0 0 1 263 1933)">
   <path d="M9.24805 0.830078C13.5547 0.830078 17.1387-2.74414 17.1387-7.05078C17.1387-11.3574 13.5449-14.9316 9.23828-14.9316C4.94141-14.9316 1.36719-11.3574 1.36719-7.05078C1.36719-2.74414 4.95117 0.830078 9.24805 0.830078ZM9.24805-0.654297C5.70312-0.654297 2.87109-3.49609 2.87109-7.05078C2.87109-10.6055 5.69336-13.4473 9.23828-13.4473C12.793-13.4473 15.6348-10.6055 15.6445-7.05078C15.6543-3.49609 12.8027-0.654297 9.24805-0.654297ZM6.39648-6.31836L8.50586-6.31836L8.50586-4.19922C8.50586-3.75977 8.79883-3.45703 9.22852-3.45703C9.67773-3.45703 9.9707-3.75977 9.9707-4.19922L9.9707-6.31836L12.0996-6.31836C12.5391-6.31836 12.8418-6.61133 12.8418-7.04102C12.8418-7.48047 12.5391-7.7832 12.0996-7.7832L9.9707-7.7832L9.9707-9.89258C9.9707-10.3418 9.67773-10.6445 9.22852-10.6445C8.79883-10.6445 8.50586-10.3418 8.50586-9.89258L8.50586-7.7832L6.39648-7.7832C5.94727-7.7832 5.64453-7.48047 5.64453-7.04102C5.64453-6.61133 5.94727-6.31836 6.39648-6.31836Z"/>
  </g>
  <g id="" transform="matrix(1 0 0 1 281.506 1933)">
   <path d="M11.709 2.91016C17.1582 2.91016 21.6699-1.61133 21.6699-7.05078C21.6699-12.5 17.1484-17.0117 11.6992-17.0117C6.25977-17.0117 1.74805-12.5 1.74805-7.05078C1.74805-1.61133 6.26953 2.91016 11.709 2.91016ZM11.709 1.25C7.09961 1.25 3.41797-2.44141 3.41797-7.05078C3.41797-11.6602 7.08984-15.3516 11.6992-15.3516C16.3086-15.3516 20-11.6602 20.0098-7.05078C20.0195-2.44141 16.3184 1.25 11.709 1.25ZM7.98828-6.23047L10.8789-6.23047L10.8789-3.32031C10.8789-2.83203 11.2109-2.5 11.6895-2.5C12.1777-2.5 12.5195-2.83203 12.5195-3.32031L12.5195-6.23047L15.4297-6.23047C15.918-6.23047 16.25-6.5625 16.25-7.04102C16.25-7.5293 15.918-7.87109 15.4297-7.87109L12.5195-7.87109L12.5195-10.7617C12.5195-11.2695 12.1777-11.6016 11.6895-11.6016C11.2109-11.6016 10.8789-11.2598 10.8789-10.7617L10.8789-7.87109L7.98828-7.87109C7.48047-7.87109 7.14844-7.5293 7.14844-7.04102C7.14844-6.5625 7.49023-6.23047 7.98828-6.23047Z"/>
  </g>
  <g id="" transform="matrix(1 0 0 1 304.924 1933)">
   <path d="M14.9707 5.66406C21.9336 5.66406 27.6953-0.0976562 27.6953-7.05078C27.6953-14.0137 21.9238-19.7754 14.9609-19.7754C8.00781-19.7754 2.25586-14.0137 2.25586-7.05078C2.25586-0.0976562 8.01758 5.66406 14.9707 5.66406ZM14.9707 3.84766C8.93555 3.84766 4.08203-1.01562 4.08203-7.05078C4.08203-13.0957 8.92578-17.9492 14.9609-17.9492C21.0059-17.9492 25.8594-13.0957 25.8691-7.05078C25.8789-1.01562 21.0156 3.84766 14.9707 3.84766ZM10.0586-6.14258L14.0625-6.14258L14.0625-2.12891C14.0625-1.5918 14.4336-1.2207 14.9512-1.2207C15.4883-1.2207 15.8594-1.5918 15.8594-2.12891L15.8594-6.14258L19.8828-6.14258C20.4102-6.14258 20.791-6.51367 20.791-7.03125C20.791-7.56836 20.4199-7.94922 19.8828-7.94922L15.8594-7.94922L15.8594-11.9531C15.8594-12.5098 15.4883-12.8809 14.9512-12.8809C14.4336-12.8809 14.0625-12.5 14.0625-11.9531L14.0625-7.94922L10.0586-7.94922C9.50195-7.94922 9.13086-7.56836 9.13086-7.03125C9.13086-6.51367 9.51172-6.14258 10.0586-6.14258Z"/>
  </g>
  <text style="stroke:none;fill:black;font-family:-apple-system,&quot;SF Pro Display&quot;,&quot;SF Pro Text&quot;,Helvetica,sans-serif;font-weight:bold;" transform="matrix(1 0 0 1 263 1953)">Design Variations</text>
  <text style="stroke:none;fill:black;font-family:-apple-system,&quot;SF Pro Display&quot;,&quot;SF Pro Text&quot;,Helvetica,sans-serif;" transform="matrix(1 0 0 1 263 1971)">Symbols are supported in up to nine weights and three scales.</text>
  <text style="stroke:none;fill:black;font-family:-apple-system,&quot;SF Pro Display&quot;,&quot;SF Pro Text&quot;,Helvetica,sans-serif;" transform="matrix(1 0 0 1 263 1989)">For optimal layout with text and other symbols, vertically align</text>
  <text style="stroke:none;fill:black;font-family:-apple-system,&quot;SF Pro Display&quot;,&quot;SF Pro Text&quot;,Helvetica,sans-serif;" transform="matrix(1 0 0 1 263 2007)">symbols with the adjacent text.</text>
  <line id="" style="fill:none;stroke:#00AEEF;stroke-width:0.5;opacity:1.0;" x1="776" x2="776" y1="1919" y2="1933"/>
  <g id="" transform="matrix(1 0 0 1 776 1933)">
   <path d="M3.31055 0.126953C3.82812 0.126953 4.08203-0.0683594 4.26758-0.605469L5.52734-4.0625L11.2891-4.0625L12.5488-0.605469C12.7344-0.0683594 12.9883 0.126953 13.4961 0.126953C14.0137 0.126953 14.3457-0.185547 14.3457-0.673828C14.3457-0.839844 14.3164-0.986328 14.2383-1.20117L9.6582-13.3887C9.43359-13.9941 9.0332-14.2871 8.4082-14.2871C7.80273-14.2871 7.39258-13.9941 7.17773-13.3984L2.59766-1.19141C2.51953-0.976562 2.49023-0.830078 2.49023-0.664062C2.49023-0.175781 2.80273 0.126953 3.31055 0.126953ZM6.00586-5.53711L8.37891-12.1094L8.42773-12.1094L10.8008-5.53711Z"/>
  </g>
  <line id="" style="fill:none;stroke:#00AEEF;stroke-width:0.5;opacity:1.0;" x1="792.836" x2="792.836" y1="1919" y2="1933"/>
  <text style="stroke:none;fill:black;font-family:-apple-system,&quot;SF Pro Display&quot;,&quot;SF Pro Text&quot;,Helvetica,sans-serif;font-weight:bold;" transform="matrix(1 0 0 1 776 1953)">Margins</text>
  <text style="stroke:none;fill:black;font-family:-apple-system,&quot;SF Pro Display&quot;,&quot;SF Pro Text&quot;,Helvetica,sans-serif;" transform="matrix(1 0 0 1 776 1971)">Leading and trailing margins on the left and right side of each symbol</text>
  <text style="stroke:none;fill:black;font-family:-apple-system,&quot;SF Pro Display&quot;,&quot;SF Pro Text&quot;,Helvetica,sans-serif;" transform="matrix(1 0 0 1 776 1989)">can be adjusted by modifying the x-location of the margin guidelines.</text>
  <text style="stroke:none;fill:black;font-family:-apple-system,&quot;SF Pro Display&quot;,&quot;SF Pro Text&quot;,Helvetica,sans-serif;" transform="matrix(1 0 0 1 776 2007)">Modifications are automatically applied proportionally to all</text>
  <text style="stroke:none;fill:black;font-family:-apple-system,&quot;SF Pro Display&quot;,&quot;SF Pro Text&quot;,Helvetica,sans-serif;" transform="matrix(1 0 0 1 776 2025)">scales and weights.</text>
  <g id="" transform="matrix(1 0 0 1 1289 1933)">
   <path d="M2.8418 1.86523L4.54102 3.57422C5.40039 4.44336 6.38672 4.38477 7.31445 3.35938L17.4902-7.85156C17.7539-7.76367 18.0273-7.7832 18.3398-7.8418L19.4043-8.03711L20.0684-7.36328L20.0293-6.80664C19.9902-6.30859 20.1172-5.92773 20.6055-5.44922L21.3672-4.70703C21.8457-4.22852 22.4609-4.19922 22.9297-4.66797L25.8398-7.58789C26.3086-8.05664 26.2891-8.65234 25.8105-9.13086L25.0391-9.89258C24.5605-10.3711 24.1895-10.5273 23.7109-10.4883L23.1348-10.4395L22.4902-11.0742L22.7344-12.1973C22.8613-12.7637 22.7051-13.2031 22.1191-13.7891L19.9219-15.9766C16.582-19.2969 12.1484-19.2188 9.25781-16.3281C8.83789-15.918 8.80859-15.3418 9.04297-14.9512C9.27734-14.5898 9.73633-14.3555 10.3809-14.5215C11.8457-14.8633 13.3691-14.9219 14.7949-13.9844L14.209-12.5293C14.0137-12.0508 13.9844-11.6504 14.1113-11.2891L3.04688-0.898438C2.06055 0.0195312 1.98242 0.996094 2.8418 1.86523ZM10.752-15.957C13.1836-17.7344 16.4746-17.4316 18.7012-15.2051L21.1328-12.793C21.3672-12.5586 21.4062-12.373 21.3379-12.0312L21.0156-10.5469L22.5195-9.0625L23.5059-9.12109C23.7598-9.13086 23.8379-9.11133 24.0332-8.91602L24.6094-8.33984L22.168-5.89844L21.5918-6.47461C21.3965-6.66992 21.3672-6.74805 21.377-7.01172L21.4453-7.98828L19.9512-9.47266L18.4277-9.21875C18.1055-9.15039 17.959-9.17969 17.7148-9.41406L15.7129-11.416C15.459-11.6504 15.4297-11.8164 15.5859-12.1875L16.4648-14.2773C14.9023-15.7324 12.8711-16.3574 10.8398-15.7617C10.6836-15.7227 10.625-15.8496 10.752-15.957ZM5.27344 2.30469L4.10156 1.14258C3.63281 0.683594 3.74023 0.341797 4.14062-0.0195312L14.9512-10.1953L16.416-8.71094L6.42578 2.27539C6.07422 2.67578 5.74219 2.77344 5.27344 2.30469Z"/>
  </g>
  <text style="stroke:none;fill:black;font-family:-apple-system,&quot;SF Pro Display&quot;,&quot;SF Pro Text&quot;,Helvetica,sans-serif;font-weight:bold;" transform="matrix(1 0 0 1 1289 1953)">Exporting</text>
  <text style="stroke:none;fill:black;font-family:-apple-system,&quot;SF Pro Display&quot;,&quot;SF Pro Text&quot;,Helvetica,sans-serif;" transform="matrix(1 0 0 1 1289 1971)">Symbols should be outlined when exporting to ensure the</text>
  <text style="stroke:none;fill:black;font-family:-apple-system,&quot;SF Pro Display&quot;,&quot;SF Pro Text&quot;,Helvetica,sans-serif;" transform="matrix(1 0 0 1 1289 1989)">design is preserved when submitting to Xcode.</text>
  <text id="template-version" style="stroke:none;fill:black;font-family:-apple-system,&quot;SF Pro Display&quot;,&quot;SF Pro Text&quot;,Helvetica,sans-serif;text-anchor:end;" transform="matrix(1 0 0 1 3036 1933)">Template v.2.0</text>
  <text style="stroke:none;fill:black;font-family:-apple-system,&quot;SF Pro Display&quot;,&quot;SF Pro Text&quot;,Helvetica,sans-serif;text-anchor:end;" transform="matrix(1 0 0 1 3036 1951)">Requires Xcode 12 or greater</text>
  <text style="stroke:none;fill:black;font-family:-apple-system,&quot;SF Pro Display&quot;,&quot;SF Pro Text&quot;,Helvetica,sans-serif;" transform="matrix(1 0 0 1 263 726)">Small</text>
  <text style="stroke:none;fill:black;font-family:-apple-system,&quot;SF Pro Display&quot;,&quot;SF Pro Text&quot;,Helvetica,sans-serif;" transform="matrix(1 0 0 1 263 1156)">Medium</text>
  <text style="stroke:none;fill:black;font-family:-apple-system,&quot;SF Pro Display&quot;,&quot;SF Pro Text&quot;,Helvetica,sans-serif;" transform="matrix(1 0 0 1 263 1586)">Large</text>
 </g>
 <g id="Guides">
  <g id="H-reference" style="fill:#27AAE1;stroke:none;" transform="matrix(1 0 0 1 339 696)">
   <path d="M0.976562 0L3.66211 0L12.9883-24.4629L45.752-24.4629L55.127 0L57.7637 0L30.6152-70.459L28.125-70.459ZM29.3457-67.1387L29.4434-67.1387L44.873-26.709L13.8672-26.709Z"/>
  </g>
  <line id="Baseline-S" style="fill:none;stroke:#27AAE1;opacity:1;stroke-width:0.5;" x1="263" x2="3036" y1="696" y2="696"/>
  <line id="Capline-S" style="fill:none;stroke:#27AAE1;opacity:1;stroke-width:0.5;" x1="263" x2="3036" y1="625.541" y2="625.541"/>
  <g id="H-reference" style="fill:#27AAE1;stroke:none;" transform="matrix(1 0 0 1 339 1126)">
   <path d="M0.976562 0L3.66211 0L12.9883-24.4629L45.752-24.4629L55.127 0L57.7637 0L30.6152-70.459L28.125-70.459ZM29.3457-67.1387L29.4434-67.1387L44.873-26.709L13.8672-26.709Z"/>
  </g>
  <line id="Baseline-M" style="fill:none;stroke:#27AAE1;opacity:1;stroke-width:0.5;" x1="263" x2="3036" y1="1126" y2="1126"/>
  <line id="Capline-M" style="fill:none;stroke:#27AAE1;opacity:1;stroke-width:0.5;" x1="263" x2="3036" y1="1055.54" y2="1055.54"/>
  <g id="H-reference" style="fill:#27AAE1;stroke:none;" transform="matrix(1 0 0 1 339 1556)">
   <path d="M0.976562 0L3.66211 0L12.9883-24.4629L45.752-24.4629L55.127 0L57.7637 0L30.6152-70.459L28.125-70.459ZM29.3457-67.1387L29.4434-67.1387L44.873-26.709L13.8672-26.709Z"/>
  </g>
  <line id="Baseline-L" style="fill:none;stroke:#27AAE1;opacity:1;stroke-width:0.5;" x1="263" x2="3036" y1="1556" y2="1556"/>
  <line id="Capline-L" style="fill:none;stroke:#27AAE1;opacity:1;stroke-width:0.5;" x1="263" x2="3036" y1="1485.54" y2="1485.54"/>
  <line id="left-margin" x1="1415.05786860371" x2="1415.05786860371" y1="1030.79" y2="1150.12" style="fill:none;stroke:#00AEEF;stroke-width:0.5;opacity:1.0;"/>
  <line id="right-margin" x1="1487.2021313962898" x2="1487.2021313962898" y1="1030.79" y2="1150.12" style="fill:none;stroke:#00AEEF;stroke-width:0.5;opacity:1.0;"/>
 </g>
 <g id="Symbols">
  <g id="Black-L" transform="matrix(1.0,0.0,0.0,1.0,2889.4143876447333,1475.5044071759835)">  <path stroke-linejoin="miter" fill="#000000" stroke-dasharray="none" clip-rule="evenodd" stroke="none" stroke-opacity="1" fill-opacity="1" stroke-miterlimit="4" fill-rule="evenodd" stroke-linecap="butt" stroke-width="1px" d="M45.238,0C35.298,0,27.078,2.806,21.347,8.546C15.608,14.286,12.801,22.506,12.801,32.446C12.801,42.396,15.608,50.616,21.347,56.356C27.078,62.095,35.298,64.902,45.238,64.902C55.179,64.902,63.399,62.095,69.13,56.356C74.869,50.616,77.676,42.396,77.676,32.446C77.676,22.506,74.869,14.286,69.13,8.546C63.399,2.806,55.179,0,45.238,0ZM41.59,19.672C43.011,15.816,48.28,15.689,49.629,19.564C50.154,21.058,50.607,22.669,51.069,24.588C53.106,24.57,54.826,24.597,56.464,24.688C60.583,24.914,62.231,29.921,58.9,32.356C58.166,32.89,57.379,33.433,56.519,33.985C55.496,34.655,55.034,35.914,55.396,37.073C55.894,38.675,56.292,40.105,56.627,41.527C57.569,45.483,53.332,48.534,50.046,46.117C48.588,45.048,47.14,43.808,45.465,42.224C43.826,43.736,42.396,44.94,40.965,45.981C37.652,48.407,33.315,45.374,34.284,41.518C34.61,40.205,35.008,38.82,35.506,37.272C35.887,36.104,35.425,34.827,34.402,34.166C33.469,33.56,32.637,32.99,31.849,32.41C28.563,29.993,30.165,25.041,34.239,24.833C35.941,24.742,37.742,24.733,39.897,24.778C40.449,22.886,40.956,21.293,41.59,19.672ZM0.235,69.465C2.508,63.788,6.183,58.637,10.067,54.328C11.597,57.062,13.489,59.597,15.771,61.878C20.342,66.459,25.946,69.465,32.148,71.139C29.079,76.064,26.652,81.813,25.195,88.087C24.887,89.381,23.819,90.368,22.506,90.531C21.193,90.694,19.89,90.07,19.229,88.92L12.086,76.535L2.39,73.747C1.512,73.493,0.779,72.878,0.38,72.054C-0.018,71.23,-0.054,70.27,0.235,69.465ZM65.336,88.096C63.879,81.813,61.453,76.055,58.384,71.13C64.567,69.456,70.153,66.459,74.706,61.887C76.997,59.597,78.898,57.053,80.437,54.31C84.33,58.628,88.014,63.788,90.296,69.483C90.586,70.288,90.549,71.248,90.151,72.072C89.753,72.896,89.019,73.511,88.141,73.765L78.445,76.553L71.311,88.929C70.651,90.079,69.347,90.703,68.034,90.531C66.722,90.368,65.653,89.381,65.336,88.096ZM65.336,88.096"/>
</g>
  <g id="Heavy-L" transform="matrix(1.0,0.0,0.0,1.0,2592.7043876447333,1475.5044071759835)">  <path stroke-linejoin="miter" fill-opacity="1" stroke-linecap="butt" fill="#000000" stroke-miterlimit="4" stroke-dasharray="none" stroke-opacity="1" clip-rule="evenodd" stroke-width="1px" fill-rule="evenodd" stroke="none" d="M45.238,0C35.298,0,27.078,2.806,21.347,8.546C15.608,14.286,12.801,22.506,12.801,32.446C12.801,42.396,15.608,50.616,21.347,56.356C27.078,62.095,35.298,64.902,45.238,64.902C55.179,64.902,63.399,62.095,69.13,56.356C74.869,50.616,77.676,42.396,77.676,32.446C77.676,22.506,74.869,14.286,69.13,8.546C63.399,2.806,55.179,0,45.238,0ZM41.59,19.672C43.011,15.816,48.28,15.689,49.629,19.564C50.154,21.058,50.607,22.669,51.069,24.588C53.106,24.57,54.826,24.597,56.464,24.688C60.583,24.914,62.231,29.921,58.9,32.356C58.166,32.89,57.379,33.433,56.519,33.985C55.496,34.655,55.034,35.914,55.396,37.073C55.894,38.675,56.292,40.105,56.627,41.527C57.569,45.483,53.332,48.534,50.046,46.117C48.588,45.048,47.14,43.808,45.465,42.224C43.826,43.736,42.396,44.94,40.965,45.981C37.652,48.407,33.315,45.374,34.284,41.518C34.61,40.205,35.008,38.82,35.506,37.272C35.887,36.104,35.425,34.827,34.402,34.166C33.469,33.56,32.637,32.99,31.849,32.41C28.563,29.993,30.165,25.041,34.239,24.833C35.941,24.742,37.742,24.733,39.897,24.778C40.449,22.886,40.956,21.293,41.59,19.672ZM0.235,69.465C2.508,63.788,6.183,58.637,10.067,54.328C11.597,57.062,13.489,59.597,15.771,61.878C20.342,66.459,25.946,69.465,32.148,71.139C29.079,76.064,26.652,81.813,25.195,88.087C24.887,89.381,23.819,90.368,22.506,90.531C21.193,90.694,19.89,90.07,19.229,88.92L12.086,76.535L2.39,73.747C1.512,73.493,0.779,72.878,0.38,72.054C-0.018,71.23,-0.054,70.27,0.235,69.465ZM65.336,88.096C63.879,81.813,61.453,76.055,58.384,71.13C64.567,69.456,70.153,66.459,74.706,61.887C76.997,59.597,78.898,57.053,80.437,54.31C84.33,58.628,88.014,63.788,90.296,69.483C90.586,70.288,90.549,71.248,90.151,72.072C89.753,72.896,89.019,73.511,88.141,73.765L78.445,76.553L71.311,88.929C70.651,90.079,69.347,90.703,68.034,90.531C66.722,90.368,65.653,89.381,65.336,88.096ZM65.336,88.096"/>
</g>
  <g id="Bold-L" transform="matrix(1.0,0.0,0.0,1.0,2295.9943876447333,1475.5044071759835)">  <path stroke="none" stroke-dasharray="none" fill-rule="evenodd" stroke-linejoin="miter" clip-rule="evenodd" fill="#000000" fill-opacity="1" stroke-opacity="1" stroke-miterlimit="4" stroke-width="1px" stroke-linecap="butt" d="M45.238,0C35.298,0,27.078,2.806,21.347,8.546C15.608,14.286,12.801,22.506,12.801,32.446C12.801,42.396,15.608,50.616,21.347,56.356C27.078,62.095,35.298,64.902,45.238,64.902C55.179,64.902,63.399,62.095,69.13,56.356C74.869,50.616,77.676,42.396,77.676,32.446C77.676,22.506,74.869,14.286,69.13,8.546C63.399,2.806,55.179,0,45.238,0ZM41.59,19.672C43.011,15.816,48.28,15.689,49.629,19.564C50.154,21.058,50.607,22.669,51.069,24.588C53.106,24.57,54.826,24.597,56.464,24.688C60.583,24.914,62.231,29.921,58.9,32.356C58.166,32.89,57.379,33.433,56.519,33.985C55.496,34.655,55.034,35.914,55.396,37.073C55.894,38.675,56.292,40.105,56.627,41.527C57.569,45.483,53.332,48.534,50.046,46.117C48.588,45.048,47.14,43.808,45.465,42.224C43.826,43.736,42.396,44.94,40.965,45.981C37.652,48.407,33.315,45.374,34.284,41.518C34.61,40.205,35.008,38.82,35.506,37.272C35.887,36.104,35.425,34.827,34.402,34.166C33.469,33.56,32.637,32.99,31.849,32.41C28.563,29.993,30.165,25.041,34.239,24.833C35.941,24.742,37.742,24.733,39.897,24.778C40.449,22.886,40.956,21.293,41.59,19.672ZM0.235,69.465C2.508,63.788,6.183,58.637,10.067,54.328C11.597,57.062,13.489,59.597,15.771,61.878C20.342,66.459,25.946,69.465,32.148,71.139C29.079,76.064,26.652,81.813,25.195,88.087C24.887,89.381,23.819,90.368,22.506,90.531C21.193,90.694,19.89,90.07,19.229,88.92L12.086,76.535L2.39,73.747C1.512,73.493,0.779,72.878,0.38,72.054C-0.018,71.23,-0.054,70.27,0.235,69.465ZM65.336,88.096C63.879,81.813,61.453,76.055,58.384,71.13C64.567,69.456,70.153,66.459,74.706,61.887C76.997,59.597,78.898,57.053,80.437,54.31C84.33,58.628,88.014,63.788,90.296,69.483C90.586,70.288,90.549,71.248,90.151,72.072C89.753,72.896,89.019,73.511,88.141,73.765L78.445,76.553L71.311,88.929C70.651,90.079,69.347,90.703,68.034,90.531C66.722,90.368,65.653,89.381,65.336,88.096ZM65.336,88.096"/>
</g>
  <g id="Semibold-L" transform="matrix(1.0,0.0,0.0,1.0,1999.2843876447334,1475.5044071759835)">  <path stroke="none" stroke-opacity="1" fill="#000000" fill-rule="evenodd" stroke-linejoin="miter" stroke-width="1px" stroke-miterlimit="4" clip-rule="evenodd" stroke-dasharray="none" fill-opacity="1" stroke-linecap="butt" d="M45.238,0C35.298,0,27.078,2.806,21.347,8.546C15.608,14.286,12.801,22.506,12.801,32.446C12.801,42.396,15.608,50.616,21.347,56.356C27.078,62.095,35.298,64.902,45.238,64.902C55.179,64.902,63.399,62.095,69.13,56.356C74.869,50.616,77.676,42.396,77.676,32.446C77.676,22.506,74.869,14.286,69.13,8.546C63.399,2.806,55.179,0,45.238,0ZM41.59,19.672C43.011,15.816,48.28,15.689,49.629,19.564C50.154,21.058,50.607,22.669,51.069,24.588C53.106,24.57,54.826,24.597,56.464,24.688C60.583,24.914,62.231,29.921,58.9,32.356C58.166,32.89,57.379,33.433,56.519,33.985C55.496,34.655,55.034,35.914,55.396,37.073C55.894,38.675,56.292,40.105,56.627,41.527C57.569,45.483,53.332,48.534,50.046,46.117C48.588,45.048,47.14,43.808,45.465,42.224C43.826,43.736,42.396,44.94,40.965,45.981C37.652,48.407,33.315,45.374,34.284,41.518C34.61,40.205,35.008,38.82,35.506,37.272C35.887,36.104,35.425,34.827,34.402,34.166C33.469,33.56,32.637,32.99,31.849,32.41C28.563,29.993,30.165,25.041,34.239,24.833C35.941,24.742,37.742,24.733,39.897,24.778C40.449,22.886,40.956,21.293,41.59,19.672ZM0.235,69.465C2.508,63.788,6.183,58.637,10.067,54.328C11.597,57.062,13.489,59.597,15.771,61.878C20.342,66.459,25.946,69.465,32.148,71.139C29.079,76.064,26.652,81.813,25.195,88.087C24.887,89.381,23.819,90.368,22.506,90.531C21.193,90.694,19.89,90.07,19.229,88.92L12.086,76.535L2.39,73.747C1.512,73.493,0.779,72.878,0.38,72.054C-0.018,71.23,-0.054,70.27,0.235,69.465ZM65.336,88.096C63.879,81.813,61.453,76.055,58.384,71.13C64.567,69.456,70.153,66.459,74.706,61.887C76.997,59.597,78.898,57.053,80.437,54.31C84.33,58.628,88.014,63.788,90.296,69.483C90.586,70.288,90.549,71.248,90.151,72.072C89.753,72.896,89.019,73.511,88.141,73.765L78.445,76.553L71.311,88.929C70.651,90.079,69.347,90.703,68.034,90.531C66.722,90.368,65.653,89.381,65.336,88.096ZM65.336,88.096"/>
</g>
  <g id="Medium-L" transform="matrix(1.0,0.0,0.0,1.0,1702.5743876447334,1475.5044071759835)">  <path stroke-miterlimit="4" stroke-width="1px" stroke-linecap="butt" clip-rule="evenodd" stroke-dasharray="none" stroke-opacity="1" stroke-linejoin="miter" stroke="none" fill-rule="evenodd" fill="#000000" fill-opacity="1" d="M45.238,0C35.298,0,27.078,2.806,21.347,8.546C15.608,14.286,12.801,22.506,12.801,32.446C12.801,42.396,15.608,50.616,21.347,56.356C27.078,62.095,35.298,64.902,45.238,64.902C55.179,64.902,63.399,62.095,69.13,56.356C74.869,50.616,77.676,42.396,77.676,32.446C77.676,22.506,74.869,14.286,69.13,8.546C63.399,2.806,55.179,0,45.238,0ZM41.59,19.672C43.011,15.816,48.28,15.689,49.629,19.564C50.154,21.058,50.607,22.669,51.069,24.588C53.106,24.57,54.826,24.597,56.464,24.688C60.583,24.914,62.231,29.921,58.9,32.356C58.166,32.89,57.379,33.433,56.519,33.985C55.496,34.655,55.034,35.914,55.396,37.073C55.894,38.675,56.292,40.105,56.627,41.527C57.569,45.483,53.332,48.534,50.046,46.117C48.588,45.048,47.14,43.808,45.465,42.224C43.826,43.736,42.396,44.94,40.965,45.981C37.652,48.407,33.315,45.374,34.284,41.518C34.61,40.205,35.008,38.82,35.506,37.272C35.887,36.104,35.425,34.827,34.402,34.166C33.469,33.56,32.637,32.99,31.849,32.41C28.563,29.993,30.165,25.041,34.239,24.833C35.941,24.742,37.742,24.733,39.897,24.778C40.449,22.886,40.956,21.293,41.59,19.672ZM0.235,69.465C2.508,63.788,6.183,58.637,10.067,54.328C11.597,57.062,13.489,59.597,15.771,61.878C20.342,66.459,25.946,69.465,32.148,71.139C29.079,76.064,26.652,81.813,25.195,88.087C24.887,89.381,23.819,90.368,22.506,90.531C21.193,90.694,19.89,90.07,19.229,88.92L12.086,76.535L2.39,73.747C1.512,73.493,0.779,72.878,0.38,72.054C-0.018,71.23,-0.054,70.27,0.235,69.465ZM65.336,88.096C63.879,81.813,61.453,76.055,58.384,71.13C64.567,69.456,70.153,66.459,74.706,61.887C76.997,59.597,78.898,57.053,80.437,54.31C84.33,58.628,88.014,63.788,90.296,69.483C90.586,70.288,90.549,71.248,90.151,72.072C89.753,72.896,89.019,73.511,88.141,73.765L78.445,76.553L71.311,88.929C70.651,90.079,69.347,90.703,68.034,90.531C66.722,90.368,65.653,89.381,65.336,88.096ZM65.336,88.096"/>
</g>
  <g id="Regular-L" transform="matrix(1.0,0.0,0.0,1.0,1405.8643876447334,1475.5044071759835)">  <path fill="#000000" fill-rule="evenodd" clip-rule="evenodd" stroke-linejoin="miter" stroke-linecap="butt" stroke-miterlimit="4" stroke-width="1px" stroke-opacity="1" stroke="none" fill-opacity="1" stroke-dasharray="none" d="M45.238,0C35.298,0,27.078,2.806,21.347,8.546C15.608,14.286,12.801,22.506,12.801,32.446C12.801,42.396,15.608,50.616,21.347,56.356C27.078,62.095,35.298,64.902,45.238,64.902C55.179,64.902,63.399,62.095,69.13,56.356C74.869,50.616,77.676,42.396,77.676,32.446C77.676,22.506,74.869,14.286,69.13,8.546C63.399,2.806,55.179,0,45.238,0ZM41.59,19.672C43.011,15.816,48.28,15.689,49.629,19.564C50.154,21.058,50.607,22.669,51.069,24.588C53.106,24.57,54.826,24.597,56.464,24.688C60.583,24.914,62.231,29.921,58.9,32.356C58.166,32.89,57.379,33.433,56.519,33.985C55.496,34.655,55.034,35.914,55.396,37.073C55.894,38.675,56.292,40.105,56.627,41.527C57.569,45.483,53.332,48.534,50.046,46.117C48.588,45.048,47.14,43.808,45.465,42.224C43.826,43.736,42.396,44.94,40.965,45.981C37.652,48.407,33.315,45.374,34.284,41.518C34.61,40.205,35.008,38.82,35.506,37.272C35.887,36.104,35.425,34.827,34.402,34.166C33.469,33.56,32.637,32.99,31.849,32.41C28.563,29.993,30.165,25.041,34.239,24.833C35.941,24.742,37.742,24.733,39.897,24.778C40.449,22.886,40.956,21.293,41.59,19.672ZM0.235,69.465C2.508,63.788,6.183,58.637,10.067,54.328C11.597,57.062,13.489,59.597,15.771,61.878C20.342,66.459,25.946,69.465,32.148,71.139C29.079,76.064,26.652,81.813,25.195,88.087C24.887,89.381,23.819,90.368,22.506,90.531C21.193,90.694,19.89,90.07,19.229,88.92L12.086,76.535L2.39,73.747C1.512,73.493,0.779,72.878,0.38,72.054C-0.018,71.23,-0.054,70.27,0.235,69.465ZM65.336,88.096C63.879,81.813,61.453,76.055,58.384,71.13C64.567,69.456,70.153,66.459,74.706,61.887C76.997,59.597,78.898,57.053,80.437,54.31C84.33,58.628,88.014,63.788,90.296,69.483C90.586,70.288,90.549,71.248,90.151,72.072C89.753,72.896,89.019,73.511,88.141,73.765L78.445,76.553L71.311,88.929C70.651,90.079,69.347,90.703,68.034,90.531C66.722,90.368,65.653,89.381,65.336,88.096ZM65.336,88.096"/>
</g>
  <g id="Light-L" transform="matrix(1.0,0.0,0.0,1.0,1109.1543876447336,1475.5044071759835)">  <path stroke-width="1px" stroke-linejoin="miter" stroke-opacity="1" stroke-miterlimit="4" stroke-dasharray="none" stroke-linecap="butt" fill-opacity="1" fill-rule="evenodd" fill="#000000" clip-rule="evenodd" stroke="none" d="M45.238,0C35.298,0,27.078,2.806,21.347,8.546C15.608,14.286,12.801,22.506,12.801,32.446C12.801,42.396,15.608,50.616,21.347,56.356C27.078,62.095,35.298,64.902,45.238,64.902C55.179,64.902,63.399,62.095,69.13,56.356C74.869,50.616,77.676,42.396,77.676,32.446C77.676,22.506,74.869,14.286,69.13,8.546C63.399,2.806,55.179,0,45.238,0ZM41.59,19.672C43.011,15.816,48.28,15.689,49.629,19.564C50.154,21.058,50.607,22.669,51.069,24.588C53.106,24.57,54.826,24.597,56.464,24.688C60.583,24.914,62.231,29.921,58.9,32.356C58.166,32.89,57.379,33.433,56.519,33.985C55.496,34.655,55.034,35.914,55.396,37.073C55.894,38.675,56.292,40.105,56.627,41.527C57.569,45.483,53.332,48.534,50.046,46.117C48.588,45.048,47.14,43.808,45.465,42.224C43.826,43.736,42.396,44.94,40.965,45.981C37.652,48.407,33.315,45.374,34.284,41.518C34.61,40.205,35.008,38.82,35.506,37.272C35.887,36.104,35.425,34.827,34.402,34.166C33.469,33.56,32.637,32.99,31.849,32.41C28.563,29.993,30.165,25.041,34.239,24.833C35.941,24.742,37.742,24.733,39.897,24.778C40.449,22.886,40.956,21.293,41.59,19.672ZM0.235,69.465C2.508,63.788,6.183,58.637,10.067,54.328C11.597,57.062,13.489,59.597,15.771,61.878C20.342,66.459,25.946,69.465,32.148,71.139C29.079,76.064,26.652,81.813,25.195,88.087C24.887,89.381,23.819,90.368,22.506,90.531C21.193,90.694,19.89,90.07,19.229,88.92L12.086,76.535L2.39,73.747C1.512,73.493,0.779,72.878,0.38,72.054C-0.018,71.23,-0.054,70.27,0.235,69.465ZM65.336,88.096C63.879,81.813,61.453,76.055,58.384,71.13C64.567,69.456,70.153,66.459,74.706,61.887C76.997,59.597,78.898,57.053,80.437,54.31C84.33,58.628,88.014,63.788,90.296,69.483C90.586,70.288,90.549,71.248,90.151,72.072C89.753,72.896,89.019,73.511,88.141,73.765L78.445,76.553L71.311,88.929C70.651,90.079,69.347,90.703,68.034,90.531C66.722,90.368,65.653,89.381,65.336,88.096ZM65.336,88.096"/>
</g>
  <g id="Thin-L" transform="matrix(1.0,0.0,0.0,1.0,812.4443876447336,1475.5044071759835)">  <path stroke-dasharray="none" fill-opacity="1" clip-rule="evenodd" stroke-linejoin="miter" stroke-miterlimit="4" stroke-width="1px" stroke-opacity="1" fill="#000000" stroke="none" fill-rule="evenodd" stroke-linecap="butt" d="M45.238,0C35.298,0,27.078,2.806,21.347,8.546C15.608,14.286,12.801,22.506,12.801,32.446C12.801,42.396,15.608,50.616,21.347,56.356C27.078,62.095,35.298,64.902,45.238,64.902C55.179,64.902,63.399,62.095,69.13,56.356C74.869,50.616,77.676,42.396,77.676,32.446C77.676,22.506,74.869,14.286,69.13,8.546C63.399,2.806,55.179,0,45.238,0ZM41.59,19.672C43.011,15.816,48.28,15.689,49.629,19.564C50.154,21.058,50.607,22.669,51.069,24.588C53.106,24.57,54.826,24.597,56.464,24.688C60.583,24.914,62.231,29.921,58.9,32.356C58.166,32.89,57.379,33.433,56.519,33.985C55.496,34.655,55.034,35.914,55.396,37.073C55.894,38.675,56.292,40.105,56.627,41.527C57.569,45.483,53.332,48.534,50.046,46.117C48.588,45.048,47.14,43.808,45.465,42.224C43.826,43.736,42.396,44.94,40.965,45.981C37.652,48.407,33.315,45.374,34.284,41.518C34.61,40.205,35.008,38.82,35.506,37.272C35.887,36.104,35.425,34.827,34.402,34.166C33.469,33.56,32.637,32.99,31.849,32.41C28.563,29.993,30.165,25.041,34.239,24.833C35.941,24.742,37.742,24.733,39.897,24.778C40.449,22.886,40.956,21.293,41.59,19.672ZM0.235,69.465C2.508,63.788,6.183,58.637,10.067,54.328C11.597,57.062,13.489,59.597,15.771,61.878C20.342,66.459,25.946,69.465,32.148,71.139C29.079,76.064,26.652,81.813,25.195,88.087C24.887,89.381,23.819,90.368,22.506,90.531C21.193,90.694,19.89,90.07,19.229,88.92L12.086,76.535L2.39,73.747C1.512,73.493,0.779,72.878,0.38,72.054C-0.018,71.23,-0.054,70.27,0.235,69.465ZM65.336,88.096C63.879,81.813,61.453,76.055,58.384,71.13C64.567,69.456,70.153,66.459,74.706,61.887C76.997,59.597,78.898,57.053,80.437,54.31C84.33,58.628,88.014,63.788,90.296,69.483C90.586,70.288,90.549,71.248,90.151,72.072C89.753,72.896,89.019,73.511,88.141,73.765L78.445,76.553L71.311,88.929C70.651,90.079,69.347,90.703,68.034,90.531C66.722,90.368,65.653,89.381,65.336,88.096ZM65.336,88.096"/>
</g>
  <g id="Ultralight-L" transform="matrix(1.0,0.0,0.0,1.0,515.7343876447336,1475.5044071759835)">  <path stroke-linecap="butt" fill="#000000" fill-opacity="1" stroke-dasharray="none" stroke-opacity="1" stroke-linejoin="miter" stroke="none" stroke-miterlimit="4" fill-rule="evenodd" stroke-width="1px" clip-rule="evenodd" d="M45.238,0C35.298,0,27.078,2.806,21.347,8.546C15.608,14.286,12.801,22.506,12.801,32.446C12.801,42.396,15.608,50.616,21.347,56.356C27.078,62.095,35.298,64.902,45.238,64.902C55.179,64.902,63.399,62.095,69.13,56.356C74.869,50.616,77.676,42.396,77.676,32.446C77.676,22.506,74.869,14.286,69.13,8.546C63.399,2.806,55.179,0,45.238,0ZM41.59,19.672C43.011,15.816,48.28,15.689,49.629,19.564C50.154,21.058,50.607,22.669,51.069,24.588C53.106,24.57,54.826,24.597,56.464,24.688C60.583,24.914,62.231,29.921,58.9,32.356C58.166,32.89,57.379,33.433,56.519,33.985C55.496,34.655,55.034,35.914,55.396,37.073C55.894,38.675,56.292,40.105,56.627,41.527C57.569,45.483,53.332,48.534,50.046,46.117C48.588,45.048,47.14,43.808,45.465,42.224C43.826,43.736,42.396,44.94,40.965,45.981C37.652,48.407,33.315,45.374,34.284,41.518C34.61,40.205,35.008,38.82,35.506,37.272C35.887,36.104,35.425,34.827,34.402,34.166C33.469,33.56,32.637,32.99,31.849,32.41C28.563,29.993,30.165,25.041,34.239,24.833C35.941,24.742,37.742,24.733,39.897,24.778C40.449,22.886,40.956,21.293,41.59,19.672ZM0.235,69.465C2.508,63.788,6.183,58.637,10.067,54.328C11.597,57.062,13.489,59.597,15.771,61.878C20.342,66.459,25.946,69.465,32.148,71.139C29.079,76.064,26.652,81.813,25.195,88.087C24.887,89.381,23.819,90.368,22.506,90.531C21.193,90.694,19.89,90.07,19.229,88.92L12.086,76.535L2.39,73.747C1.512,73.493,0.779,72.878,0.38,72.054C-0.018,71.23,-0.054,70.27,0.235,69.465ZM65.336,88.096C63.879,81.813,61.453,76.055,58.384,71.13C64.567,69.456,70.153,66.459,74.706,61.887C76.997,59.597,78.898,57.053,80.437,54.31C84.33,58.628,88.014,63.788,90.296,69.483C90.586,70.288,90.549,71.248,90.151,72.072C89.753,72.896,89.019,73.511,88.141,73.765L78.445,76.553L71.311,88.929C70.651,90.079,69.347,90.703,68.034,90.531C66.722,90.368,65.653,89.381,65.336,88.096ZM65.336,88.096"/>
</g>
  <g id="Black-M" transform="matrix(1.0,0.0,0.0,1.0,2899.590378019173,1055.6803975504233)">  <path stroke-linejoin="miter" fill="#000000" stroke-dasharray="none" clip-rule="evenodd" stroke="none" stroke-opacity="1" fill-opacity="1" stroke-miterlimit="4" fill-rule="evenodd" stroke-linecap="butt" stroke-width="1px" d="M35.069,0C27.363,0,20.991,2.176,16.548,6.625C12.099,11.074,9.923,17.447,9.923,25.152C9.923,32.865,12.099,39.237,16.548,43.687C20.991,48.136,27.363,50.312,35.069,50.312C42.774,50.312,49.147,48.136,53.589,43.687C58.038,39.237,60.214,32.865,60.214,25.152C60.214,17.447,58.038,11.074,53.589,6.625C49.147,2.176,42.774,0,35.069,0ZM32.24,15.25C33.342,12.26,37.427,12.162,38.472,15.166C38.879,16.324,39.23,17.573,39.588,19.061C41.167,19.047,42.501,19.068,43.771,19.138C46.964,19.313,48.241,23.194,45.659,25.082C45.09,25.496,44.48,25.917,43.813,26.345C43.02,26.865,42.662,27.84,42.943,28.738C43.329,29.981,43.637,31.089,43.897,32.191C44.627,35.258,41.343,37.623,38.795,35.749C37.665,34.921,36.542,33.96,35.244,32.732C33.974,33.904,32.865,34.837,31.756,35.644C29.188,37.525,25.826,35.174,26.577,32.184C26.83,31.167,27.138,30.093,27.524,28.893C27.819,27.987,27.461,26.998,26.668,26.486C25.945,26.015,25.3,25.573,24.689,25.124C22.142,23.25,23.384,19.412,26.542,19.25C27.861,19.18,29.258,19.173,30.928,19.208C31.356,17.741,31.749,16.506,32.24,15.25ZM0.182,53.849C1.944,49.448,4.793,45.455,7.804,42.115C8.99,44.234,10.457,46.199,12.225,47.968C15.769,51.519,20.113,53.849,24.921,55.147C22.542,58.965,20.661,63.421,19.531,68.284C19.292,69.288,18.464,70.053,17.447,70.179C16.429,70.306,15.418,69.821,14.906,68.93L9.369,59.33L1.853,57.168C1.172,56.972,0.604,56.494,0.295,55.856C-0.014,55.217,-0.042,54.473,0.182,53.849ZM50.648,68.291C49.518,63.421,47.638,58.958,45.259,55.14C50.052,53.842,54.382,51.519,57.912,47.975C59.687,46.199,61.161,44.227,62.354,42.101C65.372,45.448,68.228,49.448,69.997,53.863C70.221,54.487,70.193,55.231,69.884,55.87C69.576,56.508,69.007,56.986,68.327,57.182L60.81,59.344L55.28,68.937C54.768,69.828,53.757,70.313,52.74,70.179C51.722,70.053,50.894,69.288,50.648,68.291ZM50.648,68.291"/>
</g>
  <g id="Heavy-M" transform="matrix(1.0,0.0,0.0,1.0,2602.880378019173,1055.6803975504233)">  <path stroke-linejoin="miter" fill-opacity="1" stroke-linecap="butt" fill="#000000" stroke-miterlimit="4" stroke-dasharray="none" stroke-opacity="1" clip-rule="evenodd" stroke-width="1px" fill-rule="evenodd" stroke="none" d="M35.069,0C27.363,0,20.991,2.176,16.548,6.625C12.099,11.074,9.923,17.447,9.923,25.152C9.923,32.865,12.099,39.237,16.548,43.687C20.991,48.136,27.363,50.312,35.069,50.312C42.774,50.312,49.147,48.136,53.589,43.687C58.038,39.237,60.214,32.865,60.214,25.152C60.214,17.447,58.038,11.074,53.589,6.625C49.147,2.176,42.774,0,35.069,0ZM32.24,15.25C33.342,12.26,37.427,12.162,38.472,15.166C38.879,16.324,39.23,17.573,39.588,19.061C41.167,19.047,42.501,19.068,43.771,19.138C46.964,19.313,48.241,23.194,45.659,25.082C45.09,25.496,44.48,25.917,43.813,26.345C43.02,26.865,42.662,27.84,42.943,28.738C43.329,29.981,43.637,31.089,43.897,32.191C44.627,35.258,41.343,37.623,38.795,35.749C37.665,34.921,36.542,33.96,35.244,32.732C33.974,33.904,32.865,34.837,31.756,35.644C29.188,37.525,25.826,35.174,26.577,32.184C26.83,31.167,27.138,30.093,27.524,28.893C27.819,27.987,27.461,26.998,26.668,26.486C25.945,26.015,25.3,25.573,24.689,25.124C22.142,23.25,23.384,19.412,26.542,19.25C27.861,19.18,29.258,19.173,30.928,19.208C31.356,17.741,31.749,16.506,32.24,15.25ZM0.182,53.849C1.944,49.448,4.793,45.455,7.804,42.115C8.99,44.234,10.457,46.199,12.225,47.968C15.769,51.519,20.113,53.849,24.921,55.147C22.542,58.965,20.661,63.421,19.531,68.284C19.292,69.288,18.464,70.053,17.447,70.179C16.429,70.306,15.418,69.821,14.906,68.93L9.369,59.33L1.853,57.168C1.172,56.972,0.604,56.494,0.295,55.856C-0.014,55.217,-0.042,54.473,0.182,53.849ZM50.648,68.291C49.518,63.421,47.638,58.958,45.259,55.14C50.052,53.842,54.382,51.519,57.912,47.975C59.687,46.199,61.161,44.227,62.354,42.101C65.372,45.448,68.228,49.448,69.997,53.863C70.221,54.487,70.193,55.231,69.884,55.87C69.576,56.508,69.007,56.986,68.327,57.182L60.81,59.344L55.28,68.937C54.768,69.828,53.757,70.313,52.74,70.179C51.722,70.053,50.894,69.288,50.648,68.291ZM50.648,68.291"/>
</g>
  <g id="Bold-M" transform="matrix(1.0,0.0,0.0,1.0,2306.170378019173,1055.6803975504233)">  <path stroke="none" stroke-dasharray="none" fill-rule="evenodd" stroke-linejoin="miter" clip-rule="evenodd" fill="#000000" fill-opacity="1" stroke-opacity="1" stroke-miterlimit="4" stroke-width="1px" stroke-linecap="butt" d="M35.069,0C27.363,0,20.991,2.176,16.548,6.625C12.099,11.074,9.923,17.447,9.923,25.152C9.923,32.865,12.099,39.237,16.548,43.687C20.991,48.136,27.363,50.312,35.069,50.312C42.774,50.312,49.147,48.136,53.589,43.687C58.038,39.237,60.214,32.865,60.214,25.152C60.214,17.447,58.038,11.074,53.589,6.625C49.147,2.176,42.774,0,35.069,0ZM32.24,15.25C33.342,12.26,37.427,12.162,38.472,15.166C38.879,16.324,39.23,17.573,39.588,19.061C41.167,19.047,42.501,19.068,43.771,19.138C46.964,19.313,48.241,23.194,45.659,25.082C45.09,25.496,44.48,25.917,43.813,26.345C43.02,26.865,42.662,27.84,42.943,28.738C43.329,29.981,43.637,31.089,43.897,32.191C44.627,35.258,41.343,37.623,38.795,35.749C37.665,34.921,36.542,33.96,35.244,32.732C33.974,33.904,32.865,34.837,31.756,35.644C29.188,37.525,25.826,35.174,26.577,32.184C26.83,31.167,27.138,30.093,27.524,28.893C27.819,27.987,27.461,26.998,26.668,26.486C25.945,26.015,25.3,25.573,24.689,25.124C22.142,23.25,23.384,19.412,26.542,19.25C27.861,19.18,29.258,19.173,30.928,19.208C31.356,17.741,31.749,16.506,32.24,15.25ZM0.182,53.849C1.944,49.448,4.793,45.455,7.804,42.115C8.99,44.234,10.457,46.199,12.225,47.968C15.769,51.519,20.113,53.849,24.921,55.147C22.542,58.965,20.661,63.421,19.531,68.284C19.292,69.288,18.464,70.053,17.447,70.179C16.429,70.306,15.418,69.821,14.906,68.93L9.369,59.33L1.853,57.168C1.172,56.972,0.604,56.494,0.295,55.856C-0.014,55.217,-0.042,54.473,0.182,53.849ZM50.648,68.291C49.518,63.421,47.638,58.958,45.259,55.14C50.052,53.842,54.382,51.519,57.912,47.975C59.687,46.199,61.161,44.227,62.354,42.101C65.372,45.448,68.228,49.448,69.997,53.863C70.221,54.487,70.193,55.231,69.884,55.87C69.576,56.508,69.007,56.986,68.327,57.182L60.81,59.344L55.28,68.937C54.768,69.828,53.757,70.313,52.74,70.179C51.722,70.053,50.894,69.288,50.648,68.291ZM50.648,68.291"/>
</g>
  <g id="Semibold-M" transform="matrix(1.0,0.0,0.0,1.0,2009.4603780191733,1055.6803975504233)">  <path stroke="none" stroke-opacity="1" fill="#000000" fill-rule="evenodd" stroke-linejoin="miter" stroke-width="1px" stroke-miterlimit="4" clip-rule="evenodd" stroke-dasharray="none" fill-opacity="1" stroke-linecap="butt" d="M35.069,0C27.363,0,20.991,2.176,16.548,6.625C12.099,11.074,9.923,17.447,9.923,25.152C9.923,32.865,12.099,39.237,16.548,43.687C20.991,48.136,27.363,50.312,35.069,50.312C42.774,50.312,49.147,48.136,53.589,43.687C58.038,39.237,60.214,32.865,60.214,25.152C60.214,17.447,58.038,11.074,53.589,6.625C49.147,2.176,42.774,0,35.069,0ZM32.24,15.25C33.342,12.26,37.427,12.162,38.472,15.166C38.879,16.324,39.23,17.573,39.588,19.061C41.167,19.047,42.501,19.068,43.771,19.138C46.964,19.313,48.241,23.194,45.659,25.082C45.09,25.496,44.48,25.917,43.813,26.345C43.02,26.865,42.662,27.84,42.943,28.738C43.329,29.981,43.637,31.089,43.897,32.191C44.627,35.258,41.343,37.623,38.795,35.749C37.665,34.921,36.542,33.96,35.244,32.732C33.974,33.904,32.865,34.837,31.756,35.644C29.188,37.525,25.826,35.174,26.577,32.184C26.83,31.167,27.138,30.093,27.524,28.893C27.819,27.987,27.461,26.998,26.668,26.486C25.945,26.015,25.3,25.573,24.689,25.124C22.142,23.25,23.384,19.412,26.542,19.25C27.861,19.18,29.258,19.173,30.928,19.208C31.356,17.741,31.749,16.506,32.24,15.25ZM0.182,53.849C1.944,49.448,4.793,45.455,7.804,42.115C8.99,44.234,10.457,46.199,12.225,47.968C15.769,51.519,20.113,53.849,24.921,55.147C22.542,58.965,20.661,63.421,19.531,68.284C19.292,69.288,18.464,70.053,17.447,70.179C16.429,70.306,15.418,69.821,14.906,68.93L9.369,59.33L1.853,57.168C1.172,56.972,0.604,56.494,0.295,55.856C-0.014,55.217,-0.042,54.473,0.182,53.849ZM50.648,68.291C49.518,63.421,47.638,58.958,45.259,55.14C50.052,53.842,54.382,51.519,57.912,47.975C59.687,46.199,61.161,44.227,62.354,42.101C65.372,45.448,68.228,49.448,69.997,53.863C70.221,54.487,70.193,55.231,69.884,55.87C69.576,56.508,69.007,56.986,68.327,57.182L60.81,59.344L55.28,68.937C54.768,69.828,53.757,70.313,52.74,70.179C51.722,70.053,50.894,69.288,50.648,68.291ZM50.648,68.291"/>
</g>
  <g id="Medium-M" transform="matrix(1.0,0.0,0.0,1.0,1712.7503780191732,1055.6803975504233)">  <path stroke-miterlimit="4" stroke-width="1px" stroke-linecap="butt" clip-rule="evenodd" stroke-dasharray="none" stroke-opacity="1" stroke-linejoin="miter" stroke="none" fill-rule="evenodd" fill="#000000" fill-opacity="1" d="M35.069,0C27.363,0,20.991,2.176,16.548,6.625C12.099,11.074,9.923,17.447,9.923,25.152C9.923,32.865,12.099,39.237,16.548,43.687C20.991,48.136,27.363,50.312,35.069,50.312C42.774,50.312,49.147,48.136,53.589,43.687C58.038,39.237,60.214,32.865,60.214,25.152C60.214,17.447,58.038,11.074,53.589,6.625C49.147,2.176,42.774,0,35.069,0ZM32.24,15.25C33.342,12.26,37.427,12.162,38.472,15.166C38.879,16.324,39.23,17.573,39.588,19.061C41.167,19.047,42.501,19.068,43.771,19.138C46.964,19.313,48.241,23.194,45.659,25.082C45.09,25.496,44.48,25.917,43.813,26.345C43.02,26.865,42.662,27.84,42.943,28.738C43.329,29.981,43.637,31.089,43.897,32.191C44.627,35.258,41.343,37.623,38.795,35.749C37.665,34.921,36.542,33.96,35.244,32.732C33.974,33.904,32.865,34.837,31.756,35.644C29.188,37.525,25.826,35.174,26.577,32.184C26.83,31.167,27.138,30.093,27.524,28.893C27.819,27.987,27.461,26.998,26.668,26.486C25.945,26.015,25.3,25.573,24.689,25.124C22.142,23.25,23.384,19.412,26.542,19.25C27.861,19.18,29.258,19.173,30.928,19.208C31.356,17.741,31.749,16.506,32.24,15.25ZM0.182,53.849C1.944,49.448,4.793,45.455,7.804,42.115C8.99,44.234,10.457,46.199,12.225,47.968C15.769,51.519,20.113,53.849,24.921,55.147C22.542,58.965,20.661,63.421,19.531,68.284C19.292,69.288,18.464,70.053,17.447,70.179C16.429,70.306,15.418,69.821,14.906,68.93L9.369,59.33L1.853,57.168C1.172,56.972,0.604,56.494,0.295,55.856C-0.014,55.217,-0.042,54.473,0.182,53.849ZM50.648,68.291C49.518,63.421,47.638,58.958,45.259,55.14C50.052,53.842,54.382,51.519,57.912,47.975C59.687,46.199,61.161,44.227,62.354,42.101C65.372,45.448,68.228,49.448,69.997,53.863C70.221,54.487,70.193,55.231,69.884,55.87C69.576,56.508,69.007,56.986,68.327,57.182L60.81,59.344L55.28,68.937C54.768,69.828,53.757,70.313,52.74,70.179C51.722,70.053,50.894,69.288,50.648,68.291ZM50.648,68.291"/>
</g>
  <g id="Regular-M" transform="matrix(1.0,0.0,0.0,1.0,1416.0403780191732,1055.6803975504233)">  <path fill="#000000" fill-rule="evenodd" clip-rule="evenodd" stroke-linejoin="miter" stroke-linecap="butt" stroke-miterlimit="4" stroke-width="1px" stroke-opacity="1" stroke="none" fill-opacity="1" stroke-dasharray="none" d="M35.069,0C27.363,0,20.991,2.176,16.548,6.625C12.099,11.074,9.923,17.447,9.923,25.152C9.923,32.865,12.099,39.237,16.548,43.687C20.991,48.136,27.363,50.312,35.069,50.312C42.774,50.312,49.147,48.136,53.589,43.687C58.038,39.237,60.214,32.865,60.214,25.152C60.214,17.447,58.038,11.074,53.589,6.625C49.147,2.176,42.774,0,35.069,0ZM32.24,15.25C33.342,12.26,37.427,12.162,38.472,15.166C38.879,16.324,39.23,17.573,39.588,19.061C41.167,19.047,42.501,19.068,43.771,19.138C46.964,19.313,48.241,23.194,45.659,25.082C45.09,25.496,44.48,25.917,43.813,26.345C43.02,26.865,42.662,27.84,42.943,28.738C43.329,29.981,43.637,31.089,43.897,32.191C44.627,35.258,41.343,37.623,38.795,35.749C37.665,34.921,36.542,33.96,35.244,32.732C33.974,33.904,32.865,34.837,31.756,35.644C29.188,37.525,25.826,35.174,26.577,32.184C26.83,31.167,27.138,30.093,27.524,28.893C27.819,27.987,27.461,26.998,26.668,26.486C25.945,26.015,25.3,25.573,24.689,25.124C22.142,23.25,23.384,19.412,26.542,19.25C27.861,19.18,29.258,19.173,30.928,19.208C31.356,17.741,31.749,16.506,32.24,15.25ZM0.182,53.849C1.944,49.448,4.793,45.455,7.804,42.115C8.99,44.234,10.457,46.199,12.225,47.968C15.769,51.519,20.113,53.849,24.921,55.147C22.542,58.965,20.661,63.421,19.531,68.284C19.292,69.288,18.464,70.053,17.447,70.179C16.429,70.306,15.418,69.821,14.906,68.93L9.369,59.33L1.853,57.168C1.172,56.972,0.604,56.494,0.295,55.856C-0.014,55.217,-0.042,54.473,0.182,53.849ZM50.648,68.291C49.518,63.421,47.638,58.958,45.259,55.14C50.052,53.842,54.382,51.519,57.912,47.975C59.687,46.199,61.161,44.227,62.354,42.101C65.372,45.448,68.228,49.448,69.997,53.863C70.221,54.487,70.193,55.231,69.884,55.87C69.576,56.508,69.007,56.986,68.327,57.182L60.81,59.344L55.28,68.937C54.768,69.828,53.757,70.313,52.74,70.179C51.722,70.053,50.894,69.288,50.648,68.291ZM50.648,68.291"/>
</g>
  <g id="Light-M" transform="matrix(1.0,0.0,0.0,1.0,1119.3303780191734,1055.6803975504233)">  <path stroke-width="1px" stroke-linejoin="miter" stroke-opacity="1" stroke-miterlimit="4" stroke-dasharray="none" stroke-linecap="butt" fill-opacity="1" fill-rule="evenodd" fill="#000000" clip-rule="evenodd" stroke="none" d="M35.069,0C27.363,0,20.991,2.176,16.548,6.625C12.099,11.074,9.923,17.447,9.923,25.152C9.923,32.865,12.099,39.237,16.548,43.687C20.991,48.136,27.363,50.312,35.069,50.312C42.774,50.312,49.147,48.136,53.589,43.687C58.038,39.237,60.214,32.865,60.214,25.152C60.214,17.447,58.038,11.074,53.589,6.625C49.147,2.176,42.774,0,35.069,0ZM32.24,15.25C33.342,12.26,37.427,12.162,38.472,15.166C38.879,16.324,39.23,17.573,39.588,19.061C41.167,19.047,42.501,19.068,43.771,19.138C46.964,19.313,48.241,23.194,45.659,25.082C45.09,25.496,44.48,25.917,43.813,26.345C43.02,26.865,42.662,27.84,42.943,28.738C43.329,29.981,43.637,31.089,43.897,32.191C44.627,35.258,41.343,37.623,38.795,35.749C37.665,34.921,36.542,33.96,35.244,32.732C33.974,33.904,32.865,34.837,31.756,35.644C29.188,37.525,25.826,35.174,26.577,32.184C26.83,31.167,27.138,30.093,27.524,28.893C27.819,27.987,27.461,26.998,26.668,26.486C25.945,26.015,25.3,25.573,24.689,25.124C22.142,23.25,23.384,19.412,26.542,19.25C27.861,19.18,29.258,19.173,30.928,19.208C31.356,17.741,31.749,16.506,32.24,15.25ZM0.182,53.849C1.944,49.448,4.793,45.455,7.804,42.115C8.99,44.234,10.457,46.199,12.225,47.968C15.769,51.519,20.113,53.849,24.921,55.147C22.542,58.965,20.661,63.421,19.531,68.284C19.292,69.288,18.464,70.053,17.447,70.179C16.429,70.306,15.418,69.821,14.906,68.93L9.369,59.33L1.853,57.168C1.172,56.972,0.604,56.494,0.295,55.856C-0.014,55.217,-0.042,54.473,0.182,53.849ZM50.648,68.291C49.518,63.421,47.638,58.958,45.259,55.14C50.052,53.842,54.382,51.519,57.912,47.975C59.687,46.199,61.161,44.227,62.354,42.101C65.372,45.448,68.228,49.448,69.997,53.863C70.221,54.487,70.193,55.231,69.884,55.87C69.576,56.508,69.007,56.986,68.327,57.182L60.81,59.344L55.28,68.937C54.768,69.828,53.757,70.313,52.74,70.179C51.722,70.053,50.894,69.288,50.648,68.291ZM50.648,68.291"/>
</g>
  <g id="Thin-M" transform="matrix(1.0,0.0,0.0,1.0,822.6203780191734,1055.6803975504233)">  <path stroke-dasharray="none" fill-opacity="1" clip-rule="evenodd" stroke-linejoin="miter" stroke-miterlimit="4" stroke-width="1px" stroke-opacity="1" fill="#000000" stroke="none" fill-rule="evenodd" stroke-linecap="butt" d="M35.069,0C27.363,0,20.991,2.176,16.548,6.625C12.099,11.074,9.923,17.447,9.923,25.152C9.923,32.865,12.099,39.237,16.548,43.687C20.991,48.136,27.363,50.312,35.069,50.312C42.774,50.312,49.147,48.136,53.589,43.687C58.038,39.237,60.214,32.865,60.214,25.152C60.214,17.447,58.038,11.074,53.589,6.625C49.147,2.176,42.774,0,35.069,0ZM32.24,15.25C33.342,12.26,37.427,12.162,38.472,15.166C38.879,16.324,39.23,17.573,39.588,19.061C41.167,19.047,42.501,19.068,43.771,19.138C46.964,19.313,48.241,23.194,45.659,25.082C45.09,25.496,44.48,25.917,43.813,26.345C43.02,26.865,42.662,27.84,42.943,28.738C43.329,29.981,43.637,31.089,43.897,32.191C44.627,35.258,41.343,37.623,38.795,35.749C37.665,34.921,36.542,33.96,35.244,32.732C33.974,33.904,32.865,34.837,31.756,35.644C29.188,37.525,25.826,35.174,26.577,32.184C26.83,31.167,27.138,30.093,27.524,28.893C27.819,27.987,27.461,26.998,26.668,26.486C25.945,26.015,25.3,25.573,24.689,25.124C22.142,23.25,23.384,19.412,26.542,19.25C27.861,19.18,29.258,19.173,30.928,19.208C31.356,17.741,31.749,16.506,32.24,15.25ZM0.182,53.849C1.944,49.448,4.793,45.455,7.804,42.115C8.99,44.234,10.457,46.199,12.225,47.968C15.769,51.519,20.113,53.849,24.921,55.147C22.542,58.965,20.661,63.421,19.531,68.284C19.292,69.288,18.464,70.053,17.447,70.179C16.429,70.306,15.418,69.821,14.906,68.93L9.369,59.33L1.853,57.168C1.172,56.972,0.604,56.494,0.295,55.856C-0.014,55.217,-0.042,54.473,0.182,53.849ZM50.648,68.291C49.518,63.421,47.638,58.958,45.259,55.14C50.052,53.842,54.382,51.519,57.912,47.975C59.687,46.199,61.161,44.227,62.354,42.101C65.372,45.448,68.228,49.448,69.997,53.863C70.221,54.487,70.193,55.231,69.884,55.87C69.576,56.508,69.007,56.986,68.327,57.182L60.81,59.344L55.28,68.937C54.768,69.828,53.757,70.313,52.74,70.179C51.722,70.053,50.894,69.288,50.648,68.291ZM50.648,68.291"/>
</g>
  <g id="Ultralight-M" transform="matrix(1.0,0.0,0.0,1.0,525.9103780191733,1055.6803975504233)">  <path stroke-linecap="butt" fill="#000000" fill-opacity="1" stroke-dasharray="none" stroke-opacity="1" stroke-linejoin="miter" stroke="none" stroke-miterlimit="4" fill-rule="evenodd" stroke-width="1px" clip-rule="evenodd" d="M35.069,0C27.363,0,20.991,2.176,16.548,6.625C12.099,11.074,9.923,17.447,9.923,25.152C9.923,32.865,12.099,39.237,16.548,43.687C20.991,48.136,27.363,50.312,35.069,50.312C42.774,50.312,49.147,48.136,53.589,43.687C58.038,39.237,60.214,32.865,60.214,25.152C60.214,17.447,58.038,11.074,53.589,6.625C49.147,2.176,42.774,0,35.069,0ZM32.24,15.25C33.342,12.26,37.427,12.162,38.472,15.166C38.879,16.324,39.23,17.573,39.588,19.061C41.167,19.047,42.501,19.068,43.771,19.138C46.964,19.313,48.241,23.194,45.659,25.082C45.09,25.496,44.48,25.917,43.813,26.345C43.02,26.865,42.662,27.84,42.943,28.738C43.329,29.981,43.637,31.089,43.897,32.191C44.627,35.258,41.343,37.623,38.795,35.749C37.665,34.921,36.542,33.96,35.244,32.732C33.974,33.904,32.865,34.837,31.756,35.644C29.188,37.525,25.826,35.174,26.577,32.184C26.83,31.167,27.138,30.093,27.524,28.893C27.819,27.987,27.461,26.998,26.668,26.486C25.945,26.015,25.3,25.573,24.689,25.124C22.142,23.25,23.384,19.412,26.542,19.25C27.861,19.18,29.258,19.173,30.928,19.208C31.356,17.741,31.749,16.506,32.24,15.25ZM0.182,53.849C1.944,49.448,4.793,45.455,7.804,42.115C8.99,44.234,10.457,46.199,12.225,47.968C15.769,51.519,20.113,53.849,24.921,55.147C22.542,58.965,20.661,63.421,19.531,68.284C19.292,69.288,18.464,70.053,17.447,70.179C16.429,70.306,15.418,69.821,14.906,68.93L9.369,59.33L1.853,57.168C1.172,56.972,0.604,56.494,0.295,55.856C-0.014,55.217,-0.042,54.473,0.182,53.849ZM50.648,68.291C49.518,63.421,47.638,58.958,45.259,55.14C50.052,53.842,54.382,51.519,57.912,47.975C59.687,46.199,61.161,44.227,62.354,42.101C65.372,45.448,68.228,49.448,69.997,53.863C70.221,54.487,70.193,55.231,69.884,55.87C69.576,56.508,69.007,56.986,68.327,57.182L60.81,59.344L55.28,68.937C54.768,69.828,53.757,70.313,52.74,70.179C51.722,70.053,50.894,69.288,50.648,68.291ZM50.648,68.291"/>
</g>
  <g id="Black-S" transform="matrix(1.0,0.0,0.0,1.0,2907.2048259890125,633.2948455202627)">  <path stroke-linejoin="miter" fill="#000000" stroke-dasharray="none" clip-rule="evenodd" stroke="none" stroke-opacity="1" fill-opacity="1" stroke-miterlimit="4" fill-rule="evenodd" stroke-linecap="butt" stroke-width="1px" d="M27.459,0C21.425,0,16.436,1.703,12.957,5.187C9.473,8.671,7.77,13.661,7.77,19.694C7.77,25.733,9.473,30.723,12.957,34.207C16.436,37.69,21.425,39.394,27.459,39.394C33.492,39.394,38.482,37.69,41.96,34.207C45.444,30.723,47.147,25.733,47.147,19.694C47.147,13.661,45.444,8.671,41.96,5.187C38.482,1.703,33.492,0,27.459,0ZM25.244,11.941C26.107,9.6,29.305,9.523,30.124,11.875C30.442,12.781,30.717,13.76,30.997,14.925C32.234,14.914,33.278,14.93,34.273,14.985C36.773,15.122,37.773,18.161,35.751,19.639C35.306,19.963,34.828,20.293,34.306,20.628C33.685,21.035,33.404,21.799,33.624,22.502C33.926,23.475,34.168,24.343,34.371,25.206C34.943,27.607,32.371,29.459,30.377,27.992C29.492,27.343,28.613,26.59,27.596,25.629C26.601,26.547,25.733,27.277,24.865,27.909C22.854,29.382,20.222,27.541,20.81,25.2C21.008,24.403,21.249,23.563,21.552,22.623C21.782,21.914,21.502,21.139,20.881,20.738C20.315,20.37,19.81,20.024,19.332,19.672C17.337,18.205,18.309,15.199,20.782,15.073C21.815,15.018,22.909,15.012,24.217,15.04C24.552,13.891,24.86,12.924,25.244,11.941ZM0.143,42.163C1.522,38.718,3.753,35.591,6.11,32.976C7.039,34.635,8.188,36.174,9.572,37.559C12.347,40.339,15.749,42.163,19.513,43.18C17.65,46.169,16.177,49.659,15.293,53.467C15.106,54.252,14.457,54.851,13.661,54.95C12.864,55.049,12.073,54.67,11.671,53.972L7.336,46.455L1.451,44.763C0.918,44.609,0.473,44.235,0.231,43.735C-0.011,43.235,-0.033,42.652,0.143,42.163ZM39.658,53.472C38.773,49.659,37.3,46.164,35.437,43.174C39.191,42.158,42.581,40.339,45.345,37.564C46.735,36.174,47.889,34.63,48.823,32.965C51.186,35.586,53.423,38.718,54.807,42.174C54.983,42.663,54.961,43.246,54.72,43.746C54.478,44.246,54.033,44.62,53.5,44.774L47.614,46.466L43.284,53.978C42.883,54.676,42.092,55.055,41.295,54.95C40.498,54.851,39.85,54.252,39.658,53.472ZM39.658,53.472"/>
</g>
  <g id="Heavy-S" transform="matrix(1.0,0.0,0.0,1.0,2610.4948259890125,633.2948455202627)">  <path stroke-linejoin="miter" fill-opacity="1" stroke-linecap="butt" fill="#000000" stroke-miterlimit="4" stroke-dasharray="none" stroke-opacity="1" clip-rule="evenodd" stroke-width="1px" fill-rule="evenodd" stroke="none" d="M27.459,0C21.425,0,16.436,1.703,12.957,5.187C9.473,8.671,7.77,13.661,7.77,19.694C7.77,25.733,9.473,30.723,12.957,34.207C16.436,37.69,21.425,39.394,27.459,39.394C33.492,39.394,38.482,37.69,41.96,34.207C45.444,30.723,47.147,25.733,47.147,19.694C47.147,13.661,45.444,8.671,41.96,5.187C38.482,1.703,33.492,0,27.459,0ZM25.244,11.941C26.107,9.6,29.305,9.523,30.124,11.875C30.442,12.781,30.717,13.76,30.997,14.925C32.234,14.914,33.278,14.93,34.273,14.985C36.773,15.122,37.773,18.161,35.751,19.639C35.306,19.963,34.828,20.293,34.306,20.628C33.685,21.035,33.404,21.799,33.624,22.502C33.926,23.475,34.168,24.343,34.371,25.206C34.943,27.607,32.371,29.459,30.377,27.992C29.492,27.343,28.613,26.59,27.596,25.629C26.601,26.547,25.733,27.277,24.865,27.909C22.854,29.382,20.222,27.541,20.81,25.2C21.008,24.403,21.249,23.563,21.552,22.623C21.782,21.914,21.502,21.139,20.881,20.738C20.315,20.37,19.81,20.024,19.332,19.672C17.337,18.205,18.309,15.199,20.782,15.073C21.815,15.018,22.909,15.012,24.217,15.04C24.552,13.891,24.86,12.924,25.244,11.941ZM0.143,42.163C1.522,38.718,3.753,35.591,6.11,32.976C7.039,34.635,8.188,36.174,9.572,37.559C12.347,40.339,15.749,42.163,19.513,43.18C17.65,46.169,16.177,49.659,15.293,53.467C15.106,54.252,14.457,54.851,13.661,54.95C12.864,55.049,12.073,54.67,11.671,53.972L7.336,46.455L1.451,44.763C0.918,44.609,0.473,44.235,0.231,43.735C-0.011,43.235,-0.033,42.652,0.143,42.163ZM39.658,53.472C38.773,49.659,37.3,46.164,35.437,43.174C39.191,42.158,42.581,40.339,45.345,37.564C46.735,36.174,47.889,34.63,48.823,32.965C51.186,35.586,53.423,38.718,54.807,42.174C54.983,42.663,54.961,43.246,54.72,43.746C54.478,44.246,54.033,44.62,53.5,44.774L47.614,46.466L43.284,53.978C42.883,54.676,42.092,55.055,41.295,54.95C40.498,54.851,39.85,54.252,39.658,53.472ZM39.658,53.472"/>
</g>
  <g id="Bold-S" transform="matrix(1.0,0.0,0.0,1.0,2313.7848259890125,633.2948455202627)">  <path stroke="none" stroke-dasharray="none" fill-rule="evenodd" stroke-linejoin="miter" clip-rule="evenodd" fill="#000000" fill-opacity="1" stroke-opacity="1" stroke-miterlimit="4" stroke-width="1px" stroke-linecap="butt" d="M27.459,0C21.425,0,16.436,1.703,12.957,5.187C9.473,8.671,7.77,13.661,7.77,19.694C7.77,25.733,9.473,30.723,12.957,34.207C16.436,37.69,21.425,39.394,27.459,39.394C33.492,39.394,38.482,37.69,41.96,34.207C45.444,30.723,47.147,25.733,47.147,19.694C47.147,13.661,45.444,8.671,41.96,5.187C38.482,1.703,33.492,0,27.459,0ZM25.244,11.941C26.107,9.6,29.305,9.523,30.124,11.875C30.442,12.781,30.717,13.76,30.997,14.925C32.234,14.914,33.278,14.93,34.273,14.985C36.773,15.122,37.773,18.161,35.751,19.639C35.306,19.963,34.828,20.293,34.306,20.628C33.685,21.035,33.404,21.799,33.624,22.502C33.926,23.475,34.168,24.343,34.371,25.206C34.943,27.607,32.371,29.459,30.377,27.992C29.492,27.343,28.613,26.59,27.596,25.629C26.601,26.547,25.733,27.277,24.865,27.909C22.854,29.382,20.222,27.541,20.81,25.2C21.008,24.403,21.249,23.563,21.552,22.623C21.782,21.914,21.502,21.139,20.881,20.738C20.315,20.37,19.81,20.024,19.332,19.672C17.337,18.205,18.309,15.199,20.782,15.073C21.815,15.018,22.909,15.012,24.217,15.04C24.552,13.891,24.86,12.924,25.244,11.941ZM0.143,42.163C1.522,38.718,3.753,35.591,6.11,32.976C7.039,34.635,8.188,36.174,9.572,37.559C12.347,40.339,15.749,42.163,19.513,43.18C17.65,46.169,16.177,49.659,15.293,53.467C15.106,54.252,14.457,54.851,13.661,54.95C12.864,55.049,12.073,54.67,11.671,53.972L7.336,46.455L1.451,44.763C0.918,44.609,0.473,44.235,0.231,43.735C-0.011,43.235,-0.033,42.652,0.143,42.163ZM39.658,53.472C38.773,49.659,37.3,46.164,35.437,43.174C39.191,42.158,42.581,40.339,45.345,37.564C46.735,36.174,47.889,34.63,48.823,32.965C51.186,35.586,53.423,38.718,54.807,42.174C54.983,42.663,54.961,43.246,54.72,43.746C54.478,44.246,54.033,44.62,53.5,44.774L47.614,46.466L43.284,53.978C42.883,54.676,42.092,55.055,41.295,54.95C40.498,54.851,39.85,54.252,39.658,53.472ZM39.658,53.472"/>
</g>
  <g id="Semibold-S" transform="matrix(1.0,0.0,0.0,1.0,2017.0748259890127,633.2948455202627)">  <path stroke="none" stroke-opacity="1" fill="#000000" fill-rule="evenodd" stroke-linejoin="miter" stroke-width="1px" stroke-miterlimit="4" clip-rule="evenodd" stroke-dasharray="none" fill-opacity="1" stroke-linecap="butt" d="M27.459,0C21.425,0,16.436,1.703,12.957,5.187C9.473,8.671,7.77,13.661,7.77,19.694C7.77,25.733,9.473,30.723,12.957,34.207C16.436,37.69,21.425,39.394,27.459,39.394C33.492,39.394,38.482,37.69,41.96,34.207C45.444,30.723,47.147,25.733,47.147,19.694C47.147,13.661,45.444,8.671,41.96,5.187C38.482,1.703,33.492,0,27.459,0ZM25.244,11.941C26.107,9.6,29.305,9.523,30.124,11.875C30.442,12.781,30.717,13.76,30.997,14.925C32.234,14.914,33.278,14.93,34.273,14.985C36.773,15.122,37.773,18.161,35.751,19.639C35.306,19.963,34.828,20.293,34.306,20.628C33.685,21.035,33.404,21.799,33.624,22.502C33.926,23.475,34.168,24.343,34.371,25.206C34.943,27.607,32.371,29.459,30.377,27.992C29.492,27.343,28.613,26.59,27.596,25.629C26.601,26.547,25.733,27.277,24.865,27.909C22.854,29.382,20.222,27.541,20.81,25.2C21.008,24.403,21.249,23.563,21.552,22.623C21.782,21.914,21.502,21.139,20.881,20.738C20.315,20.37,19.81,20.024,19.332,19.672C17.337,18.205,18.309,15.199,20.782,15.073C21.815,15.018,22.909,15.012,24.217,15.04C24.552,13.891,24.86,12.924,25.244,11.941ZM0.143,42.163C1.522,38.718,3.753,35.591,6.11,32.976C7.039,34.635,8.188,36.174,9.572,37.559C12.347,40.339,15.749,42.163,19.513,43.18C17.65,46.169,16.177,49.659,15.293,53.467C15.106,54.252,14.457,54.851,13.661,54.95C12.864,55.049,12.073,54.67,11.671,53.972L7.336,46.455L1.451,44.763C0.918,44.609,0.473,44.235,0.231,43.735C-0.011,43.235,-0.033,42.652,0.143,42.163ZM39.658,53.472C38.773,49.659,37.3,46.164,35.437,43.174C39.191,42.158,42.581,40.339,45.345,37.564C46.735,36.174,47.889,34.63,48.823,32.965C51.186,35.586,53.423,38.718,54.807,42.174C54.983,42.663,54.961,43.246,54.72,43.746C54.478,44.246,54.033,44.62,53.5,44.774L47.614,46.466L43.284,53.978C42.883,54.676,42.092,55.055,41.295,54.95C40.498,54.851,39.85,54.252,39.658,53.472ZM39.658,53.472"/>
</g>
  <g id="Medium-S" transform="matrix(1.0,0.0,0.0,1.0,1720.3648259890126,633.2948455202627)">  <path stroke-miterlimit="4" stroke-width="1px" stroke-linecap="butt" clip-rule="evenodd" stroke-dasharray="none" stroke-opacity="1" stroke-linejoin="miter" stroke="none" fill-rule="evenodd" fill="#000000" fill-opacity="1" d="M27.459,0C21.425,0,16.436,1.703,12.957,5.187C9.473,8.671,7.77,13.661,7.77,19.694C7.77,25.733,9.473,30.723,12.957,34.207C16.436,37.69,21.425,39.394,27.459,39.394C33.492,39.394,38.482,37.69,41.96,34.207C45.444,30.723,47.147,25.733,47.147,19.694C47.147,13.661,45.444,8.671,41.96,5.187C38.482,1.703,33.492,0,27.459,0ZM25.244,11.941C26.107,9.6,29.305,9.523,30.124,11.875C30.442,12.781,30.717,13.76,30.997,14.925C32.234,14.914,33.278,14.93,34.273,14.985C36.773,15.122,37.773,18.161,35.751,19.639C35.306,19.963,34.828,20.293,34.306,20.628C33.685,21.035,33.404,21.799,33.624,22.502C33.926,23.475,34.168,24.343,34.371,25.206C34.943,27.607,32.371,29.459,30.377,27.992C29.492,27.343,28.613,26.59,27.596,25.629C26.601,26.547,25.733,27.277,24.865,27.909C22.854,29.382,20.222,27.541,20.81,25.2C21.008,24.403,21.249,23.563,21.552,22.623C21.782,21.914,21.502,21.139,20.881,20.738C20.315,20.37,19.81,20.024,19.332,19.672C17.337,18.205,18.309,15.199,20.782,15.073C21.815,15.018,22.909,15.012,24.217,15.04C24.552,13.891,24.86,12.924,25.244,11.941ZM0.143,42.163C1.522,38.718,3.753,35.591,6.11,32.976C7.039,34.635,8.188,36.174,9.572,37.559C12.347,40.339,15.749,42.163,19.513,43.18C17.65,46.169,16.177,49.659,15.293,53.467C15.106,54.252,14.457,54.851,13.661,54.95C12.864,55.049,12.073,54.67,11.671,53.972L7.336,46.455L1.451,44.763C0.918,44.609,0.473,44.235,0.231,43.735C-0.011,43.235,-0.033,42.652,0.143,42.163ZM39.658,53.472C38.773,49.659,37.3,46.164,35.437,43.174C39.191,42.158,42.581,40.339,45.345,37.564C46.735,36.174,47.889,34.63,48.823,32.965C51.186,35.586,53.423,38.718,54.807,42.174C54.983,42.663,54.961,43.246,54.72,43.746C54.478,44.246,54.033,44.62,53.5,44.774L47.614,46.466L43.284,53.978C42.883,54.676,42.092,55.055,41.295,54.95C40.498,54.851,39.85,54.252,39.658,53.472ZM39.658,53.472"/>
</g>
  <g id="Regular-S" transform="matrix(1.0,0.0,0.0,1.0,1423.6548259890126,633.2948455202627)">  <path fill="#000000" fill-rule="evenodd" clip-rule="evenodd" stroke-linejoin="miter" stroke-linecap="butt" stroke-miterlimit="4" stroke-width="1px" stroke-opacity="1" stroke="none" fill-opacity="1" stroke-dasharray="none" d="M27.459,0C21.425,0,16.436,1.703,12.957,5.187C9.473,8.671,7.77,13.661,7.77,19.694C7.77,25.733,9.473,30.723,12.957,34.207C16.436,37.69,21.425,39.394,27.459,39.394C33.492,39.394,38.482,37.69,41.96,34.207C45.444,30.723,47.147,25.733,47.147,19.694C47.147,13.661,45.444,8.671,41.96,5.187C38.482,1.703,33.492,0,27.459,0ZM25.244,11.941C26.107,9.6,29.305,9.523,30.124,11.875C30.442,12.781,30.717,13.76,30.997,14.925C32.234,14.914,33.278,14.93,34.273,14.985C36.773,15.122,37.773,18.161,35.751,19.639C35.306,19.963,34.828,20.293,34.306,20.628C33.685,21.035,33.404,21.799,33.624,22.502C33.926,23.475,34.168,24.343,34.371,25.206C34.943,27.607,32.371,29.459,30.377,27.992C29.492,27.343,28.613,26.59,27.596,25.629C26.601,26.547,25.733,27.277,24.865,27.909C22.854,29.382,20.222,27.541,20.81,25.2C21.008,24.403,21.249,23.563,21.552,22.623C21.782,21.914,21.502,21.139,20.881,20.738C20.315,20.37,19.81,20.024,19.332,19.672C17.337,18.205,18.309,15.199,20.782,15.073C21.815,15.018,22.909,15.012,24.217,15.04C24.552,13.891,24.86,12.924,25.244,11.941ZM0.143,42.163C1.522,38.718,3.753,35.591,6.11,32.976C7.039,34.635,8.188,36.174,9.572,37.559C12.347,40.339,15.749,42.163,19.513,43.18C17.65,46.169,16.177,49.659,15.293,53.467C15.106,54.252,14.457,54.851,13.661,54.95C12.864,55.049,12.073,54.67,11.671,53.972L7.336,46.455L1.451,44.763C0.918,44.609,0.473,44.235,0.231,43.735C-0.011,43.235,-0.033,42.652,0.143,42.163ZM39.658,53.472C38.773,49.659,37.3,46.164,35.437,43.174C39.191,42.158,42.581,40.339,45.345,37.564C46.735,36.174,47.889,34.63,48.823,32.965C51.186,35.586,53.423,38.718,54.807,42.174C54.983,42.663,54.961,43.246,54.72,43.746C54.478,44.246,54.033,44.62,53.5,44.774L47.614,46.466L43.284,53.978C42.883,54.676,42.092,55.055,41.295,54.95C40.498,54.851,39.85,54.252,39.658,53.472ZM39.658,53.472"/>
</g>
  <g id="Light-S" transform="matrix(1.0,0.0,0.0,1.0,1126.9448259890128,633.2948455202627)">  <path stroke-width="1px" stroke-linejoin="miter" stroke-opacity="1" stroke-miterlimit="4" stroke-dasharray="none" stroke-linecap="butt" fill-opacity="1" fill-rule="evenodd" fill="#000000" clip-rule="evenodd" stroke="none" d="M27.459,0C21.425,0,16.436,1.703,12.957,5.187C9.473,8.671,7.77,13.661,7.77,19.694C7.77,25.733,9.473,30.723,12.957,34.207C16.436,37.69,21.425,39.394,27.459,39.394C33.492,39.394,38.482,37.69,41.96,34.207C45.444,30.723,47.147,25.733,47.147,19.694C47.147,13.661,45.444,8.671,41.96,5.187C38.482,1.703,33.492,0,27.459,0ZM25.244,11.941C26.107,9.6,29.305,9.523,30.124,11.875C30.442,12.781,30.717,13.76,30.997,14.925C32.234,14.914,33.278,14.93,34.273,14.985C36.773,15.122,37.773,18.161,35.751,19.639C35.306,19.963,34.828,20.293,34.306,20.628C33.685,21.035,33.404,21.799,33.624,22.502C33.926,23.475,34.168,24.343,34.371,25.206C34.943,27.607,32.371,29.459,30.377,27.992C29.492,27.343,28.613,26.59,27.596,25.629C26.601,26.547,25.733,27.277,24.865,27.909C22.854,29.382,20.222,27.541,20.81,25.2C21.008,24.403,21.249,23.563,21.552,22.623C21.782,21.914,21.502,21.139,20.881,20.738C20.315,20.37,19.81,20.024,19.332,19.672C17.337,18.205,18.309,15.199,20.782,15.073C21.815,15.018,22.909,15.012,24.217,15.04C24.552,13.891,24.86,12.924,25.244,11.941ZM0.143,42.163C1.522,38.718,3.753,35.591,6.11,32.976C7.039,34.635,8.188,36.174,9.572,37.559C12.347,40.339,15.749,42.163,19.513,43.18C17.65,46.169,16.177,49.659,15.293,53.467C15.106,54.252,14.457,54.851,13.661,54.95C12.864,55.049,12.073,54.67,11.671,53.972L7.336,46.455L1.451,44.763C0.918,44.609,0.473,44.235,0.231,43.735C-0.011,43.235,-0.033,42.652,0.143,42.163ZM39.658,53.472C38.773,49.659,37.3,46.164,35.437,43.174C39.191,42.158,42.581,40.339,45.345,37.564C46.735,36.174,47.889,34.63,48.823,32.965C51.186,35.586,53.423,38.718,54.807,42.174C54.983,42.663,54.961,43.246,54.72,43.746C54.478,44.246,54.033,44.62,53.5,44.774L47.614,46.466L43.284,53.978C42.883,54.676,42.092,55.055,41.295,54.95C40.498,54.851,39.85,54.252,39.658,53.472ZM39.658,53.472"/>
</g>
  <g id="Thin-S" transform="matrix(1.0,0.0,0.0,1.0,830.2348259890127,633.2948455202627)">  <path stroke-dasharray="none" fill-opacity="1" clip-rule="evenodd" stroke-linejoin="miter" stroke-miterlimit="4" stroke-width="1px" stroke-opacity="1" fill="#000000" stroke="none" fill-rule="evenodd" stroke-linecap="butt" d="M27.459,0C21.425,0,16.436,1.703,12.957,5.187C9.473,8.671,7.77,13.661,7.77,19.694C7.77,25.733,9.473,30.723,12.957,34.207C16.436,37.69,21.425,39.394,27.459,39.394C33.492,39.394,38.482,37.69,41.96,34.207C45.444,30.723,47.147,25.733,47.147,19.694C47.147,13.661,45.444,8.671,41.96,5.187C38.482,1.703,33.492,0,27.459,0ZM25.244,11.941C26.107,9.6,29.305,9.523,30.124,11.875C30.442,12.781,30.717,13.76,30.997,14.925C32.234,14.914,33.278,14.93,34.273,14.985C36.773,15.122,37.773,18.161,35.751,19.639C35.306,19.963,34.828,20.293,34.306,20.628C33.685,21.035,33.404,21.799,33.624,22.502C33.926,23.475,34.168,24.343,34.371,25.206C34.943,27.607,32.371,29.459,30.377,27.992C29.492,27.343,28.613,26.59,27.596,25.629C26.601,26.547,25.733,27.277,24.865,27.909C22.854,29.382,20.222,27.541,20.81,25.2C21.008,24.403,21.249,23.563,21.552,22.623C21.782,21.914,21.502,21.139,20.881,20.738C20.315,20.37,19.81,20.024,19.332,19.672C17.337,18.205,18.309,15.199,20.782,15.073C21.815,15.018,22.909,15.012,24.217,15.04C24.552,13.891,24.86,12.924,25.244,11.941ZM0.143,42.163C1.522,38.718,3.753,35.591,6.11,32.976C7.039,34.635,8.188,36.174,9.572,37.559C12.347,40.339,15.749,42.163,19.513,43.18C17.65,46.169,16.177,49.659,15.293,53.467C15.106,54.252,14.457,54.851,13.661,54.95C12.864,55.049,12.073,54.67,11.671,53.972L7.336,46.455L1.451,44.763C0.918,44.609,0.473,44.235,0.231,43.735C-0.011,43.235,-0.033,42.652,0.143,42.163ZM39.658,53.472C38.773,49.659,37.3,46.164,35.437,43.174C39.191,42.158,42.581,40.339,45.345,37.564C46.735,36.174,47.889,34.63,48.823,32.965C51.186,35.586,53.423,38.718,54.807,42.174C54.983,42.663,54.961,43.246,54.72,43.746C54.478,44.246,54.033,44.62,53.5,44.774L47.614,46.466L43.284,53.978C42.883,54.676,42.092,55.055,41.295,54.95C40.498,54.851,39.85,54.252,39.658,53.472ZM39.658,53.472"/>
</g>
  <g id="Ultralight-S" transform="matrix(1.0,0.0,0.0,1.0,533.5248259890127,633.2948455202627)">  <path stroke-linecap="butt" fill="#000000" fill-opacity="1" stroke-dasharray="none" stroke-opacity="1" stroke-linejoin="miter" stroke="none" stroke-miterlimit="4" fill-rule="evenodd" stroke-width="1px" clip-rule="evenodd" d="M27.459,0C21.425,0,16.436,1.703,12.957,5.187C9.473,8.671,7.77,13.661,7.77,19.694C7.77,25.733,9.473,30.723,12.957,34.207C16.436,37.69,21.425,39.394,27.459,39.394C33.492,39.394,38.482,37.69,41.96,34.207C45.444,30.723,47.147,25.733,47.147,19.694C47.147,13.661,45.444,8.671,41.96,5.187C38.482,1.703,33.492,0,27.459,0ZM25.244,11.941C26.107,9.6,29.305,9.523,30.124,11.875C30.442,12.781,30.717,13.76,30.997,14.925C32.234,14.914,33.278,14.93,34.273,14.985C36.773,15.122,37.773,18.161,35.751,19.639C35.306,19.963,34.828,20.293,34.306,20.628C33.685,21.035,33.404,21.799,33.624,22.502C33.926,23.475,34.168,24.343,34.371,25.206C34.943,27.607,32.371,29.459,30.377,27.992C29.492,27.343,28.613,26.59,27.596,25.629C26.601,26.547,25.733,27.277,24.865,27.909C22.854,29.382,20.222,27.541,20.81,25.2C21.008,24.403,21.249,23.563,21.552,22.623C21.782,21.914,21.502,21.139,20.881,20.738C20.315,20.37,19.81,20.024,19.332,19.672C17.337,18.205,18.309,15.199,20.782,15.073C21.815,15.018,22.909,15.012,24.217,15.04C24.552,13.891,24.86,12.924,25.244,11.941ZM0.143,42.163C1.522,38.718,3.753,35.591,6.11,32.976C7.039,34.635,8.188,36.174,9.572,37.559C12.347,40.339,15.749,42.163,19.513,43.18C17.65,46.169,16.177,49.659,15.293,53.467C15.106,54.252,14.457,54.851,13.661,54.95C12.864,55.049,12.073,54.67,11.671,53.972L7.336,46.455L1.451,44.763C0.918,44.609,0.473,44.235,0.231,43.735C-0.011,43.235,-0.033,42.652,0.143,42.163ZM39.658,53.472C38.773,49.659,37.3,46.164,35.437,43.174C39.191,42.158,42.581,40.339,45.345,37.564C46.735,36.174,47.889,34.63,48.823,32.965C51.186,35.586,53.423,38.718,54.807,42.174C54.983,42.663,54.961,43.246,54.72,43.746C54.478,44.246,54.033,44.62,53.5,44.774L47.614,46.466L43.284,53.978C42.883,54.676,42.092,55.055,41.295,54.95C40.498,54.851,39.85,54.252,39.658,53.472ZM39.658,53.472"/>
</g>
 </g>
</svg>
